$MeshFormat
4.1 0 8
$EndMeshFormat
$PhysicalNames
4
1 101 "outerBoundary"
1 102 "tfzInterface"
2 201 "pml"
2 202 "tfz"
$EndPhysicalNames
$Entities
8 8 2 0
1 -1 -1 0 0 
2 1 -1 0 0 
3 1 1 0 0 
4 -1 1 0 0 
5 -2 -2 0 0 
6 2 -2 0 0 
7 -2 2 0 0 
8 2 2 0 0 
1 -1.0000001 -1.0000001 -1e-07 1.0000001 -0.9999999000000001 1e-07 1 102 2 1 -2 
2 0.9999999000000001 -1.0000001 -1e-07 1.0000001 1.0000001 1e-07 1 102 2 2 -3 
3 -1.0000001 0.9999999000000001 -1e-07 1.0000001 1.0000001 1e-07 1 102 2 3 -4 
4 -1.0000001 -1.0000001 -1e-07 -0.9999999000000001 1.0000001 1e-07 1 102 2 4 -1 
5 -2.0000001 -2.0000001 -1e-07 2.0000001 -1.9999999 1e-07 1 101 2 5 -6 
6 -2.0000001 -2.0000001 -1e-07 -1.9999999 2.0000001 1e-07 1 101 2 7 -5 
7 1.9999999 -2.0000001 -1e-07 2.0000001 2.0000001 1e-07 1 101 2 6 -8 
8 -2.0000001 1.9999999 -1e-07 2.0000001 2.0000001 1e-07 1 101 2 8 -7 
1 -1.0000001 -1.0000001 -1e-07 1.0000001 1.0000001 1e-07 1 202 4 1 2 3 4 
2 -2.0000001 -2.0000001 -1e-07 2.0000001 2.0000001 1e-07 1 201 8 5 7 8 6 -1 -4 -3 -2 
$EndEntities
$Nodes
18 13 1 13
0 1 0 1
1
-1 -1 0
0 2 0 1
2
1 -1 0
0 3 0 1
3
1 1 0
0 4 0 1
4
-1 1 0
0 5 0 1
5
-2 -2 0
0 6 0 1
6
2 -2 0
0 7 0 1
7
-2 2 0
0 8 0 1
8
2 2 0
1 1 0 0
1 2 0 0
1 3 0 0
1 4 0 0
1 5 0 1
9
0 -2 0
1 6 0 1
10
-2 0 0
1 7 0 1
11
2 0 0
1 8 0 1
12
0 2 0
2 1 0 1
13
0 0 0
2 2 0 0
$EndNodes
$Elements
10 28 1 28
1 1 1 1
1 1 2 
1 2 1 1
2 2 3 
1 3 1 1
3 3 4 
1 4 1 1
4 4 1 
1 5 1 2
5 5 9 
6 9 6 
1 6 1 2
7 7 10 
8 10 5 
1 7 1 2
9 6 11 
10 11 8 
1 8 1 2
11 8 12 
12 12 7 
2 1 2 4
13 2 13 1 
14 1 13 4 
15 3 13 2 
16 4 13 3 
2 2 2 12
17 1 9 2 
18 4 10 1 
19 1 5 9 
20 10 5 1 
21 2 11 3 
22 9 6 2 
23 2 6 11 
24 3 12 4 
25 11 8 3 
26 3 8 12 
27 4 7 10 
28 12 7 4 
$EndElements
