$MeshFormat
4.1 0 8
$EndMeshFormat
$PhysicalNames
6
1 101 "circle_boundary"
1 102 "inner_rectangle_boundary"
1 103 "outer_rectangle_boundary"
2 201 "core"
2 202 "inner_layer"
2 203 "pml"
$EndPhysicalNames
$Entities
9 9 4 0
9 0.2 0 0 0 
10 -1 -1 0 0 
11 1 -1 0 0 
12 -1 1 0 0 
13 1 1 0 0 
14 -2 -2 0 0 
15 2 -2 0 0 
16 -2 2 0 0 
17 2 2 0 0 
9 -0.2000001 -0.2000001 -1e-07 0.2000001 0.2000001 1e-07 1 101 2 9 -9 
10 -1.0000001 -1.0000001 -1e-07 1.0000001 -0.9999999000000001 1e-07 1 102 2 10 -11 
11 -1.0000001 -1.0000001 -1e-07 -0.9999999000000001 1.0000001 1e-07 1 102 2 12 -10 
12 0.9999999000000001 -1.0000001 -1e-07 1.0000001 1.0000001 1e-07 1 102 2 11 -13 
13 -1.0000001 0.9999999000000001 -1e-07 1.0000001 1.0000001 1e-07 1 102 2 13 -12 
14 -2.0000001 -2.0000001 -1e-07 2.0000001 -1.9999999 1e-07 1 103 2 14 -15 
15 -2.0000001 -2.0000001 -1e-07 -1.9999999 2.0000001 1e-07 1 103 2 16 -14 
16 1.9999999 -2.0000001 -1e-07 2.0000001 2.0000001 1e-07 1 103 2 15 -17 
17 -2.0000001 1.9999999 -1e-07 2.0000001 2.0000001 1e-07 1 103 2 17 -16 
2 -1.0000001 -1.0000001 -1e-07 1.0000001 1.0000001 1e-07 1 202 5 10 12 13 11 -9 
3 -0.2000001 -0.2000001 -1e-07 0.2000001 0.2000001 1e-07 1 201 1 9 
4 -2.0000001 -2.0000001 -1e-07 2.0000001 2.0000001 1e-07 1 203 8 14 16 17 15 -10 -11 -13 -12 
5 -0.2000001 -0.2000001 -1e-07 0.2000001 0.2000001 1e-07 0 1 9 
$EndEntities
$Nodes
21 117 1 117
0 9 0 1
1
0.2 0 0
0 10 0 1
2
-1 -1 0
0 11 0 1
3
1 -1 0
0 12 0 1
4
-1 1 0
0 13 0 1
5
1 1 0
0 14 0 1
6
-2 -2 0
0 15 0 1
7
2 -2 0
0 16 0 1
8
-2 2 0
0 17 0 1
9
2 2 0
1 9 0 6
10
11
12
13
14
15
0.1246979603717467 0.156366296493606 0
-0.04450418679126322 0.1949855824363647 0
-0.1801937735804841 0.08677674782351108 0
-0.1801937735804834 -0.08677674782351248 0
-0.04450418679126153 -0.194985582436365 0
0.1246979603717472 -0.1563662964936056 0
1 10 0 3
16
17
18
-0.5 -1 0
0 -1 0
0.5 -1 0
1 11 0 3
19
20
21
-1 0.5 0
-1 0 0
-1 -0.5 0
1 12 0 3
22
23
24
1 -0.5 0
1 0 0
1 0.5 0
1 13 0 3
25
26
27
0.5 1 0
0 1 0
-0.5 1 0
1 14 0 7
28
29
30
31
32
33
34
-1.5 -2 0
-1 -2 0
-0.5 -2 0
0 -2 0
0.5 -2 0
1 -2 0
1.5 -2 0
1 15 0 7
35
36
37
38
39
40
41
-2 1.5 0
-2 1 0
-2 0.5 0
-2 0 0
-2 -0.5 0
-2 -1 0
-2 -1.5 0
1 16 0 7
42
43
44
45
46
47
48
2 -1.5 0
2 -1 0
2 -0.5 0
2 0 0
2 0.5 0
2 1 0
2 1.5 0
1 17 0 7
49
50
51
52
53
54
55
1.5 2 0
1 2 0
0.5 2 0
0 2 0
-0.5 2 0
-1 2 0
-1.5 2 0
2 2 0 33
56
57
58
59
60
61
62
63
64
65
66
67
68
69
70
71
72
73
74
75
76
77
78
79
80
81
82
83
84
85
86
87
88
-0.2273971013030878 0.242829760129004 0
-0.2254784660047476 -0.268432168918926 0
0.3103954740150524 -0.1193937827797014 0
0.3125003588100566 0.1017460590140959 0
0.1999489595315539 -0.3465766751244679 0
0.2382623608403722 0.3341105409056906 0
-0.3317728710727236 0.05638803196356119 0
-0.07839532744030872 0.4255217571386929 0
-0.05625821208859014 -0.4371340237696504 0
-0.2927028505328275 0.4574826026907602 0
-0.4666086445750019 0.2875283829823807 0
-0.2878917004028133 -0.4649255377749373 0
-0.4656233645039005 -0.2996171843411506 0
0.4632766831435943 -0.316091734660389 0
0.5599558181945083 -0.05255635399580299 0
0.5057295744600095 0.2840548538730328 0
0.1656663987439103 -0.695894599016079 0
0.1357596674553138 0.5923765521320011 0
-0.5871586731698045 0.5965720060863534 0
-0.5759888676047187 -0.5939903536727698 0
-0.5892127345243003 -0.02785014613778898 0
0.5301606197785622 -0.624571223201035 0
0.4741505403235011 0.5810122208297586 0
-0.7420874523447971 0.2584666752817921 0
0.7544432016507781 0.2425638993455749 0
0.741600531967709 -0.2919456595550819 0
-0.7261649933265839 -0.2842915368303419 0
0.07516409488717216 0.340672145821271 0
-0.1720077854110228 0.7053178035655769 0
-0.1662233634437233 -0.7155211705881641 0
-0.347178372222699 -0.1333595886766952 0
0.7065306155993729 0.4813209968506446 0
0.7471491907280998 0.7525043926043753 0
2 3 0 1
89
2.312279800760827e-16 -2.035008321951865e-16 0
2 4 0 28
90
91
92
93
94
95
96
97
98
99
100
101
102
103
104
105
106
107
108
109
110
111
112
113
114
115
116
117
-0.75 -1.5 0
-1.242251828302668 -1.545083044653965 0
-1.433012701892219 -0.75 0
0.7487859542587546 -1.479773689537289 0
1.242049487345794 -1.541711992910179 0
1.433012701892219 -0.75 0
-1.5 0.75 0
-1.545083044653965 1.242251828302668 0
-0.75 1.433012701892219 0
1.479773689537289 0.7487859542587546 0
1.541711992910179 1.242049487345794 0
0.75 1.433012701892219 0
-0.2508671755294609 -1.512666541760737 0
-1.512666541760737 0.2508671755294609 0
1.522490559041203 -0.2506194110924721 0
0.2506194110924721 1.522490559041203 0
0.2496531297882156 -1.498740038549671 0
-1.490946540608826 -0.2498554707450898 0
1.500377374763082 0.2496944238610471 0
-0.2498967648179213 1.492583876822237 0
-1.575606875933241 -1.186198081099597 0
-1.186198081099597 1.575606875933241 0
1.575594586030612 -1.185993328199707 0
1.185993328199707 1.575594586030612 0
-1.612004618869898 -1.612004618869898 0
1.612004618869898 -1.612004618869898 0
-1.612004618869898 1.612004618869898 0
1.612004618869898 1.612004618869898 0
$EndNodes
$Elements
12 255 1 255
1 9 1 7
1 1 10 
2 10 11 
3 11 12 
4 12 13 
5 13 14 
6 14 15 
7 15 1 
1 10 1 4
8 2 16 
9 16 17 
10 17 18 
11 18 3 
1 11 1 4
12 4 19 
13 19 20 
14 20 21 
15 21 2 
1 12 1 4
16 3 22 
17 22 23 
18 23 24 
19 24 5 
1 13 1 4
20 5 25 
21 25 26 
22 26 27 
23 27 4 
1 14 1 8
24 6 28 
25 28 29 
26 29 30 
27 30 31 
28 31 32 
29 32 33 
30 33 34 
31 34 7 
1 15 1 8
32 8 35 
33 35 36 
34 36 37 
35 37 38 
36 38 39 
37 39 40 
38 40 41 
39 41 6 
1 16 1 8
40 7 42 
41 42 43 
42 43 44 
43 44 45 
44 45 46 
45 46 47 
46 47 48 
47 48 9 
1 17 1 8
48 9 49 
49 49 50 
50 50 51 
51 51 52 
52 52 53 
53 53 54 
54 54 55 
55 55 8 
2 2 2 89
56 22 77 3 
57 3 77 18 
58 73 78 25 
59 18 77 72 
60 70 71 59 
61 56 66 62 
62 58 70 59 
63 66 76 62 
64 65 84 74 
65 75 85 67 
66 2 75 21 
67 19 74 4 
68 16 75 2 
69 4 74 27 
70 14 64 60 
71 18 72 17 
72 26 73 25 
73 77 81 69 
74 22 81 77 
75 60 77 69 
76 71 78 61 
77 72 77 60 
78 61 78 73 
79 16 85 75 
80 74 84 27 
81 76 86 62 
82 70 80 71 
83 17 85 16 
84 27 84 26 
85 70 81 23 
86 23 80 70 
87 66 79 76 
88 64 72 60 
89 74 79 66 
90 63 84 65 
91 67 85 64 
92 23 81 22 
93 24 80 23 
94 21 82 20 
95 20 79 19 
96 25 88 5 
97 1 59 10 
98 15 58 1 
99 68 86 76 
100 19 79 74 
101 13 57 14 
102 11 56 12 
103 12 62 13 
104 73 84 63 
105 64 85 72 
106 5 88 24 
107 65 66 56 
108 57 68 67 
109 72 85 17 
110 26 84 73 
111 73 83 61 
112 63 83 73 
113 69 70 58 
114 20 82 76 
115 75 82 21 
116 57 86 68 
117 68 75 67 
118 65 74 66 
119 63 65 56 
120 57 67 64 
121 69 81 70 
122 59 61 10 
123 15 60 58 
124 11 63 56 
125 57 64 14 
126 59 71 61 
127 60 69 58 
128 10 83 11 
129 68 82 75 
130 76 82 68 
131 76 79 20 
132 71 87 78 
133 24 87 80 
134 80 87 71 
135 13 86 57 
136 61 83 10 
137 24 88 87 
138 62 86 13 
139 11 83 63 
140 78 88 25 
141 87 88 78 
142 58 59 1 
143 56 62 12 
144 14 60 15 
2 3 2 7
145 10 89 1 
146 11 89 10 
147 1 89 15 
148 12 89 11 
149 15 89 14 
150 13 89 12 
151 14 89 13 
2 4 2 104
152 16 102 17 
153 19 103 20 
154 22 104 23 
155 25 105 26 
156 29 91 28 
157 30 90 29 
158 90 91 29 
159 33 93 32 
160 34 94 33 
161 36 97 35 
162 37 96 36 
163 96 97 36 
164 40 92 39 
165 44 95 43 
166 47 99 46 
167 48 100 47 
168 51 101 50 
169 54 98 53 
170 33 94 93 
171 47 100 99 
172 93 106 32 
173 92 107 39 
174 99 108 46 
175 98 109 53 
176 32 106 31 
177 39 107 38 
178 46 108 45 
179 53 109 52 
180 90 102 16 
181 96 103 19 
182 95 104 22 
183 101 105 25 
184 30 102 90 
185 37 103 96 
186 44 104 95 
187 51 105 101 
188 102 106 17 
189 103 107 20 
190 104 108 23 
191 105 109 26 
192 31 106 102 
193 38 107 103 
194 45 108 104 
195 52 109 105 
196 34 115 94 
197 48 117 100 
198 91 114 28 
199 97 116 35 
200 40 110 92 
201 54 111 98 
202 95 112 43 
203 101 113 50 
204 92 110 2 
205 94 112 3 
206 3 112 95 
207 98 111 4 
208 100 113 5 
209 5 113 101 
210 2 110 91 
211 4 111 97 
212 17 106 18 
213 20 107 21 
214 23 108 24 
215 26 109 27 
216 18 106 93 
217 21 107 92 
218 24 108 99 
219 27 109 98 
220 2 91 90 
221 4 97 96 
222 2 90 16 
223 21 92 2 
224 18 93 3 
225 3 95 22 
226 93 94 3 
227 4 96 19 
228 27 98 4 
229 24 99 5 
230 5 101 25 
231 99 100 5 
232 31 102 30 
233 38 103 37 
234 45 104 44 
235 52 105 51 
236 41 110 40 
237 43 112 42 
238 50 113 49 
239 55 111 54 
240 28 114 6 
241 6 114 41 
242 7 115 34 
243 42 115 7 
244 35 116 8 
245 8 116 55 
246 9 117 48 
247 49 117 9 
248 112 115 42 
249 113 117 49 
250 41 114 110 
251 55 116 111 
252 110 114 91 
253 111 116 97 
254 94 115 112 
255 100 117 113 
$EndElements
