$MeshFormat
4.1 0 8
$EndMeshFormat
$Entities
9 9 3 0
9 0.5 0 0 0 
10 -1 -1 0 0 
11 1 -1 0 0 
12 -1 1 0 0 
13 1 1 0 0 
14 -2 -2 0 0 
15 2 -2 0 0 
16 -2 2 0 0 
17 2 2 0 0 
9 -0.5000000999999999 -0.5000000999999999 -1e-07 0.5000000999999999 0.5000000999999999 1e-07 0 2 9 -9 
10 -1.0000001 -1.0000001 -1e-07 1.0000001 -0.9999999000000001 1e-07 0 2 10 -11 
11 -1.0000001 -1.0000001 -1e-07 -0.9999999000000001 1.0000001 1e-07 0 2 12 -10 
12 0.9999999000000001 -1.0000001 -1e-07 1.0000001 1.0000001 1e-07 0 2 11 -13 
13 -1.0000001 0.9999999000000001 -1e-07 1.0000001 1.0000001 1e-07 0 2 13 -12 
14 -2.0000001 -2.0000001 -1e-07 2.0000001 -1.9999999 1e-07 0 2 14 -15 
15 -2.0000001 -2.0000001 -1e-07 -1.9999999 2.0000001 1e-07 0 2 16 -14 
16 1.9999999 -2.0000001 -1e-07 2.0000001 2.0000001 1e-07 0 2 15 -17 
17 -2.0000001 1.9999999 -1e-07 2.0000001 2.0000001 1e-07 0 2 17 -16 
2 -1.0000001 -1.0000001 -1e-07 1.0000001 1.0000001 1e-07 0 5 10 12 13 11 -9 
3 -2.0000001 -2.0000001 -1e-07 2.0000001 2.0000001 1e-07 0 8 14 16 17 15 -10 -11 -13 -12 
4 -0.5000000999999999 -0.5000000999999999 -1e-07 0.5000000999999999 0.5000000999999999 1e-07 0 1 9 
$EndEntities
$Nodes
21 546 1 546
0 9 0 1
1
0.5 0 0
0 10 0 1
2
-1 -1 0
0 11 0 1
3
1 -1 0
0 12 0 1
4
-1 1 0
0 13 0 1
5
1 1 0
0 14 0 1
6
-2 -2 0
0 15 0 1
7
2 -2 0
0 16 0 1
8
-2 2 0
0 17 0 1
9
2 2 0
1 9 0 15
10
11
12
13
14
15
16
17
18
19
20
21
22
23
24
0.4619397662556436 0.1913417161825444 0
0.3535533905932744 0.3535533905932731 0
0.1913417161825461 0.4619397662556429 0
1.695949695783294e-15 0.5 0
-0.1913417161825426 0.4619397662556443 0
-0.3535533905932717 0.3535533905932758 0
-0.4619397662556421 0.1913417161825478 0
-0.5 3.61394399649162e-15 0
-0.4619397662556449 -0.1913417161825411 0
-0.353553390593276 -0.3535533905932715 0
-0.1913417161825472 -0.4619397662556424 0
-2.312291525786991e-15 -0.5 0
0.1913417161825429 -0.4619397662556442 0
0.3535533905932731 -0.3535533905932745 0
0.4619397662556433 -0.1913417161825452 0
1 10 0 9
25
26
27
28
29
30
31
32
33
-0.8 -1 0
-0.6 -1 0
-0.4 -1 0
-0.2 -1 0
0 -1 0
0.2 -1 0
0.3999999999999999 -1 0
0.6000000000000001 -1 0
0.8 -1 0
1 11 0 9
34
35
36
37
38
39
40
41
42
-1 0.8 0
-1 0.6 0
-1 0.4 0
-1 0.2 0
-1 0 0
-1 -0.2 0
-1 -0.3999999999999999 0
-1 -0.6000000000000001 0
-1 -0.8 0
1 12 0 9
43
44
45
46
47
48
49
50
51
1 -0.8 0
1 -0.6 0
1 -0.4 0
1 -0.2 0
1 0 0
1 0.2 0
1 0.3999999999999999 0
1 0.6000000000000001 0
1 0.8 0
1 13 0 9
52
53
54
55
56
57
58
59
60
0.8 1 0
0.6 1 0
0.4 1 0
0.2 1 0
0 1 0
-0.2 1 0
-0.3999999999999999 1 0
-0.6000000000000001 1 0
-0.8 1 0
1 14 0 19
61
62
63
64
65
66
67
68
69
70
71
72
73
74
75
76
77
78
79
-1.8 -2 0
-1.6 -2 0
-1.4 -2 0
-1.2 -2 0
-1 -2 0
-0.8 -2 0
-0.6000000000000001 -2 0
-0.3999999999999999 -2 0
-0.2 -2 0
0 -2 0
0.2000000000000002 -2 0
0.3999999999999999 -2 0
0.6000000000000001 -2 0
0.7999999999999998 -2 0
1 -2 0
1.2 -2 0
1.4 -2 0
1.6 -2 0
1.8 -2 0
1 15 0 19
80
81
82
83
84
85
86
87
88
89
90
91
92
93
94
95
96
97
98
-2 1.8 0
-2 1.6 0
-2 1.4 0
-2 1.2 0
-2 1 0
-2 0.8 0
-2 0.6000000000000001 0
-2 0.3999999999999999 0
-2 0.2 0
-2 0 0
-2 -0.2000000000000002 0
-2 -0.3999999999999999 0
-2 -0.6000000000000001 0
-2 -0.7999999999999998 0
-2 -1 0
-2 -1.2 0
-2 -1.4 0
-2 -1.6 0
-2 -1.8 0
1 16 0 19
99
100
101
102
103
104
105
106
107
108
109
110
111
112
113
114
115
116
117
2 -1.8 0
2 -1.6 0
2 -1.4 0
2 -1.2 0
2 -1 0
2 -0.8 0
2 -0.6000000000000001 0
2 -0.3999999999999999 0
2 -0.2 0
2 0 0
2 0.2000000000000002 0
2 0.3999999999999999 0
2 0.6000000000000001 0
2 0.7999999999999998 0
2 1 0
2 1.2 0
2 1.4 0
2 1.6 0
2 1.8 0
1 17 0 19
118
119
120
121
122
123
124
125
126
127
128
129
130
131
132
133
134
135
136
1.8 2 0
1.6 2 0
1.4 2 0
1.2 2 0
1 2 0
0.8 2 0
0.6000000000000001 2 0
0.3999999999999999 2 0
0.2 2 0
0 2 0
-0.2000000000000002 2 0
-0.3999999999999999 2 0
-0.6000000000000001 2 0
-0.7999999999999998 2 0
-1 2 0
-1.2 2 0
-1.4 2 0
-1.6 2 0
-1.8 2 0
2 2 0 80
137
138
139
140
141
142
143
144
145
146
147
148
149
150
151
152
153
154
155
156
157
158
159
160
161
162
163
164
165
166
167
168
169
170
171
172
173
174
175
176
177
178
179
180
181
182
183
184
185
186
187
188
189
190
191
192
193
194
195
196
197
198
199
200
201
202
203
204
205
206
207
208
209
210
211
212
213
214
215
216
-0.8267949192431123 0.4999999999999999 0
0.5 0.8267949192431123 0
-0.4999999999999998 -0.8267949192431123 0
0.8267949192431123 0.5 0
0.8267949192431123 -0.5 0
-0.4999999999999999 0.8267949192431123 0
0.5 -0.8267949192431123 0
-0.8267949192431123 -0.4999999999999999 0
-0.1286319873878562 0.6466766701456176 0
0.1286319873878609 0.6466766701456167 0
-0.6466766701456182 -0.128631987387854 0
0.6466766701456172 0.1286319873878586 0
-0.6466766701456164 0.1286319873878633 0
0.6466766701456175 -0.1286319873878592 0
0.1286319873878562 -0.6466766701456184 0
-0.1286319873878622 -0.6466766701456171 0
-0.5482260092545573 0.366312908135648 0
0.3663129081356459 0.5482260092545588 0
0.5482260092545601 0.3663129081356439 0
-0.3663129081356417 0.5482260092545614 0
-0.3663129081356481 -0.5482260092545581 0
0.5482260092545597 -0.3663129081356458 0
-0.5482260092545626 -0.3663129081356409 0
0.3663129081356432 -0.5482260092545612 0
0.5453412879417869 0.5463941064367107 0
0.5463941064367107 -0.5453412879417874 0
-0.5463941064367092 0.5453412879417884 0
-0.5463589761922447 -0.5453861924176018 0
-0.7324480593702822 -0.3184912817987462 0
-0.3184912817987471 0.7324480593702815 0
0.3184912817987479 -0.7324480593702818 0
0.7324480593702806 0.3184912817987487 0
0.7324480593702806 -0.3184912817987499 0
0.3184912817987504 0.7324480593702798 0
-0.7324480593702789 0.318491281798752 0
-0.3184912817987519 -0.7324480593702797 0
2.081668171172169e-15 0.7800636787040459 0
-0.7800636787040462 4.141131881851834e-15 0
0.7800636787040464 -2.942091015256665e-16 0
-2.62012633811537e-15 -0.7800636787040469 0
-0.7118079166792449 0.8416855589604865 0
-0.7117119280488033 -0.8417247890401353 0
0.8416855589604865 0.7118079166792449 0
0.7118079166792449 -0.8416855589604866 0
-0.846078591805457 -0.7124709289512949 0
-0.8461654973420202 0.7124686024359375 0
0.7124686024359376 0.8461654973420202 0
0.8461654973420202 -0.7124686024359376 0
0.1578538781977669 -0.8420376829494499 0
0.8420376829494491 -0.1578538781977682 0
-0.1578538781977694 -0.8420376829494487 0
-0.84203768294945 -0.157853878197766 0
0.1578538781977689 0.8420376829494487 0
0.8420376829494491 0.1578538781977678 0
-0.1578538781977668 0.8420376829494496 0
-0.8420376829494485 0.1578538781977699 0
-0.6720124492945388 0.4693115674108091 0
0.4693115674108076 0.6720124492945398 0
-0.4754441931247407 -0.6693652861154056 0
0.6693267965647063 0.475474304762854 0
0.6720124492945401 -0.4693115674108079 0
-0.4754743047628525 0.6693267965647069 0
0.4754743047628538 -0.6693267965647067 0
-0.6701991007793839 -0.4746103784607603 0
-0.8533400451196322 -0.8533400451196322 0
-0.8535898384862247 0.8535898384862247 0
0.8535898384862247 0.8535898384862247 0
0.8535898384862247 -0.8535898384862247 0
-0.6537982441705346 -0.6529074991754727 0
0.6521326760795481 0.6540927419654975 0
-0.6540927419654967 0.6521326760795486 0
0.6540927419654974 -0.6521326760795484 0
-0.8802561323125678 0.3152690319993043 0
-0.3152690319993042 -0.8802561323125682 0
0.3152690319993039 0.8802561323125682 0
0.8802561323125684 -0.3152690319993037 0
0.8802561323125684 0.3152690319993033 0
0.315269031999303 -0.8802561323125689 0
-0.3152690319993027 0.8802561323125687 0
-0.8802561323125689 -0.3152690319993024 0
2 3 0 305
217
218
219
220
221
222
223
224
225
226
227
228
229
230
231
232
233
234
235
236
237
238
239
240
241
242
243
244
245
246
247
248
249
250
251
252
253
254
255
256
257
258
259
260
261
262
263
264
265
266
267
268
269
270
271
272
273
274
275
276
277
278
279
280
281
282
283
284
285
286
287
288
289
290
291
292
293
294
295
296
297
298
299
300
301
302
303
304
305
306
307
308
309
310
311
312
313
314
315
316
317
318
319
320
321
322
323
324
325
326
327
328
329
330
331
332
333
334
335
336
337
338
339
340
341
342
343
344
345
346
347
348
349
350
351
352
353
354
355
356
357
358
359
360
361
362
363
364
365
366
367
368
369
370
371
372
373
374
375
376
377
378
379
380
381
382
383
384
385
386
387
388
389
390
391
392
393
394
395
396
397
398
399
400
401
402
403
404
405
406
407
408
409
410
411
412
413
414
415
416
417
418
419
420
421
422
423
424
425
426
427
428
429
430
431
432
433
434
435
436
437
438
439
440
441
442
443
444
445
446
447
448
449
450
451
452
453
454
455
456
457
458
459
460
461
462
463
464
465
466
467
468
469
470
471
472
473
474
475
476
477
478
479
480
481
482
483
484
485
486
487
488
489
490
491
492
493
494
495
496
497
498
499
500
501
502
503
504
505
506
507
508
509
510
511
512
513
514
515
516
517
518
519
520
521
-1.826794919243113 -1.3 0
1.3 -1.826794919243113 0
-1.3 1.826794919243113 0
1.809667120872987 1.321964445594199 0
-1.321964445594199 -1.809667120872988 0
1.809667120872988 -1.321964445594199 0
-1.809667120872988 1.321964445594199 0
1.3 1.843348617415939 0
0.5 -1.826794919243113 0
-1.826794919243113 -0.5 0
1.826794919243113 0.5 0
-0.5 1.826794919243113 0
1.826794919243112 0.1000000000000002 0
-0.1000000000000001 1.826794919243112 0
0.1 -1.826794919243112 0
-1.826794919243112 -0.1 0
-0.8922649730810376 -1.182601000755145 0
1.182601000755145 -0.8922649730810376 0
-1.182601000755145 0.8922649730810376 0
0.8999999999999999 1.173205080756888 0
-0.4999999999999999 -1.173205080756888 0
-1.173205080756888 0.4999999999999999 0
1.173205080756888 -0.5 0
1.826794919243112 0.8999999999999999 0
0.5026612779851185 1.16839938415068 0
-1.173205080756888 -0.8999999999999999 0
0.8999999999999999 -1.173205080756888 0
-0.8999999999999999 1.173205080756888 0
1.1 1.173205080756888 0
-0.1026612779851188 -1.171668591195791 0
0.2999999999999999 -1.173205080756888 0
-1.171668591195791 0.1026612779851188 0
-1.173205080756888 -0.2999999999999999 0
1.173205080756888 -0.09999999999999998 0
1.173205080756888 0.2999999999999999 0
1.191902054623298 0.6861149077324172 0
0.09999999999999998 1.173205080756888 0
-0.2999999999999999 1.173205080756888 0
-0.7000000000000001 -1.828687554256755 0
-0.2973387220148809 -1.831600615849319 0
-1.828687554256755 0.7000000000000001 0
-1.831600615849319 0.2973387220148809 0
1.830796458866411 -0.7000000000000002 0
1.826794919243112 -0.2999999999999998 0
0.6946774440297616 1.833131387898237 0
0.2999999999999998 1.826794919243112 0
0.8999999999999999 -1.826794919243112 0
-1.826794919243112 -0.8999999999999999 0
-0.8999999999999999 1.826794919243112 0
0.9999999999999998 1.346410161513775 0
1.2 1.346410161513776 0
1.3 1.173205080756888 0
-1.182136720504592 -1.1 0
1.1 -1.182136720504592 0
-1.1 1.182136720504592 0
-1.347898768138393 -0.9999999999999997 0
-1.346410161513775 -0.7999999999999998 0
-1.348146869242496 -1.2 0
0.9999999999999997 -1.347898768138393 0
0.7999999999999998 -1.346410161513775 0
1.2 -1.348146869242496 0
-0.9999999999999997 1.347898768138393 0
-0.7999999999999998 1.346410161513775 0
-1.2 1.348146869242496 0
1.399999999999999 1.346410161513776 0
-1.837966184913388 -1.699342844584826 0
1.699342844584826 -1.837966184913388 0
-1.699342844584826 1.837966184913388 0
1.824832930218056 1.696766374931061 0
-1.183914778417329 -1.3 0
-1.348484562411969 -1.399999999999999 0
1.3 -1.183914778417329 0
1.399999999999999 -1.348484562411969 0
-1.3 1.183914778417329 0
-1.399999999999999 1.348484562411969 0
0.8026612779851188 1.344873671952678 0
1.495808253847227 1.175625186526567 0
1.40093597916376 1.001347089745379 0
-1.177755869619672 -1.495808253847227 0
1.495808253847227 -1.177755869619672 0
-1.495808253847227 1.177755869619672 0
1.097338722014881 1.518078752709566 0
1.099999999999999 -1.519615242270663 0
-1.519615242270663 -1.099999999999999 0
-1.099999999999999 1.519615242270663 0
-0.9906171969781971 -1.371544311196622 0
-0.9975562430308482 -1.62477014326278 0
-0.8504617269768793 -1.503682586467121 0
1.371544311196622 -0.9906171969781971 0
1.62477014326278 -0.9975562430308482 0
1.496316568083316 -0.8436997819100891 0
-1.371544311196622 0.9906171969781971 0
-1.62477014326278 0.9975562430308482 0
-1.503682586467121 0.8504617269768793 0
1.628968952972371 0.9987847015557163 0
1.493217366088057 0.8318572503793109 0
1.599999999999999 1.346410161513777 0
1.502661277985118 1.518078752709567 0
-1.346410161513776 -1.6 0
-1.519615242270663 -1.499999999999999 0
-1.519615242270665 -1.699999999999998 0
1.6 -1.346410161513776 0
1.499999999999999 -1.519615242270663 0
1.699999999999998 -1.519615242270665 0
-1.6 1.346410161513776 0
-1.499999999999999 1.519615242270663 0
-1.699999999999998 1.519615242270665 0
1.700138255451746 1.517808208923109 0
1.603184586932015 1.689567027530134 0
0.8999999999999999 1.515828154526341 0
0.7003168188077518 1.507301659683543 0
0.9942338976989086 1.678856231962872 0
0.6999999999999998 -1.830069843800402 0
0.602661277985119 -1.662412508332187 0
0.4004435463308534 -1.655060283460552 0
0.504171447635405 -1.491090882900818 0
0.3005494040436023 -1.486504645192091 0
-1.830069843800402 -0.6999999999999998 0
-1.662412508332187 -0.602661277985119 0
-1.655060283460552 -0.4004435463308534 0
-1.491090882900818 -0.504171447635405 0
-1.486504645192091 -0.3005494040436023 0
-0.6999999999999998 1.830069843800402 0
-0.602661277985119 1.662412508332187 0
-0.4004435463308534 1.655060283460552 0
-0.504171447635405 1.491090882900818 0
-0.3005494040436025 1.486504645192091 0
1.209525626968811 1.005634073615181 0
1.830796458866411 0.6999999999999998 0
1.668506970154867 0.5982917040357871 0
1.656076027097665 0.3997152840059649 0
1.48393299479431 0.5149306251359239 0
1.487928909432293 0.3024409848569818 0
1.655261561871957 0.2003593781438248 0
1.484504346133249 0.1002381261055114 0
1.1 -1.826794919243113 0
-1.826794919243113 -1.1 0
-1.1 1.826794919243113 0
0.3000739243884756 -1.8270399934055 0
-1.8270399934055 -0.3000739243884756 0
1.826794919243113 -0.09999999999999983 0
1.653589838486225 -0.1999999999999993 0
1.653589838486224 -0.3999999999999993 0
1.480384757729337 -0.2999999999999988 0
1.486509299218635 -0.4940225324792239 0
1.658865185694034 -0.5930262878924288 0
1.82714848318845 0.3000063488222611 0
1.826794919243113 1.1 0
0.09999999999999977 1.826794919243112 0
0.1999999999999994 1.653589838486225 0
0.3973387220148801 1.655126328047321 0
0.2999999999999988 1.480384757729337 0
0.09999999999999903 1.480384757729337 0
0.4997208977169789 1.490777509911157 0
-0.3000739243884756 1.8270399934055 0
-0.699664418171293 -1.172571086338697 0
-0.5969217358032857 -1.344525808065438 0
-0.3994869559672141 -1.346096102605719 0
-0.4934239811076415 -1.513124298721965 0
-0.2961471207593295 -1.50694594483725 0
-1.172571086338697 0.699664418171293 0
-1.344525808065438 0.5969217358032857 0
-1.346096102605719 0.3994869559672141 0
-1.513124298721965 0.4934239811076415 0
-1.50694594483725 0.2961471207593295 0
1.173205080756888 -0.7 0
1.167612962821272 0.4890113227688443 0
1.828341067048297 -0.4988377146487381 0
0.496008083022321 1.829643568506913 0
0.5026612779851188 -1.16839938415068 0
-1.16839938415068 -0.5026612779851188 0
1.173205080756888 -0.3 0
0.7035483706468251 1.170611560167907 0
0.3001616422488529 1.170530385594865 0
-0.5026612779851188 1.16839938415068 0
-1.1 -1.826794919243113 0
-0.9000000000000008 -1.826794919243112 0
-0.4997737008516055 -1.830700430821444 0
-0.09689517568402779 -1.829132358238577 0
0.003188839472475157 -1.6587903165204 0
-1.826794919243113 1.1 0
-1.826794919243112 0.9000000000000008 0
-1.830700430821444 0.4997737008516055 0
-1.829132358238577 0.09689517568402779 0
-1.6587903165204 -0.003188839472475157 0
1.826794919243113 -1.1 0
1.826794919243112 -0.9000000000000008 0
-1.499960085312489 1.829856250038278 0
-0.2023670796690353 -1.339189698852531 0
-1.339189698852531 0.2023670796690353 0
-1.519615242270663 -1.3 0
1.3 -1.519615242270663 0
-1.3 1.519615242270663 0
0.09689517568402781 -1.168143302557164 0
0.7031048243159721 -1.170867641761423 0
-1.168143302557164 -0.09689517568402781 0
-1.170867641761423 -0.7031048243159721 0
1.173205080756888 0.09999999999999998 0
-0.09999999999999998 1.173205080756888 0
-0.7031048243159721 1.170867641761423 0
-0.2001778124604888 1.654895739586136 0
0.200709285705901 -1.655762485925165 0
0.09809006765323805 -1.494179140100051 0
-1.655762485925165 -0.200709285705901 0
-1.494179140100051 -0.09809006765323805 0
1.499960085312489 -1.829856250038278 0
-1.829856250038278 -1.499960085312489 0
-0.300752552270228 -1.171693245568488 0
-1.171693245568488 0.300752552270228 0
-0.1000315500704613 1.482408926179288 0
-3.489375515867513e-05 1.654144850077869 0
1.482265487674552 -0.09998966897015431 0
1.654868512108701 0.0001013058798638144 0
1.299999999999999 1.517786088031262 0
-1.519615242270663 -0.8999999999999999 0
0.8999999999999999 -1.519615242270663 0
-0.8999999999999999 1.519615242270663 0
1.308384258737243 0.8369304117330032 0
-1.828273654383713 1.691646840745622 0
-1.691646840745622 -1.828273654383712 0
1.828273654383712 -1.691646840745622 0
1.388848194487556 0.6845894080126709 0
-1.336792603329076 -0.6129350430661582 0
0.6129350430661582 -1.336792603329076 0
-0.6129350430661582 1.336792603329076 0
0.8981518902881116 1.838600477021962 0
-1.506489513803128 -0.7069154966276662 0
0.7069154966276662 -1.506489513803128 0
-0.7069154966276662 1.506489513803128 0
1.196335462456998 1.681995103327831 0
0.6056227435866075 1.335478290840755 0
-0.1978552723962666 -1.666617594295796 0
-1.666617594295796 0.1978552723962666 0
-0.001663761618120686 -1.333334483586833 0
-1.333334483586833 0.001663761618120686 0
0.5940166145959496 1.664272891878299 0
1.404821872661886 1.683078973950942 0
1.697994233518956 1.848787625501952 0
-1.4 1.673205080756887 0
0.1989784809604578 -1.330360261906023 0
-1.330360261906023 -0.1989784809604578 0
-0.4000000000000008 -1.673205080756888 0
-1.673205080756888 0.4000000000000008 0
1.2 -1.673205080756888 0
-1.673205080756888 -1.2 0
-1.2 1.673205080756887 0
-0.5928888128057663 -1.674235819776545 0
-1.674235819776545 0.5928888128057663 0
-0.2000000000000004 1.326794919243113 0
0.4032159422817903 -1.331058809705929 0
-1.331058809705929 -0.4032159422817903 0
-0.4033861954550475 1.330464585928778 0
1.325541764892034 0.3923893269403997 0
-1.673205080756888 -1.400000000000001 0
1.400000000000001 -1.673205080756888 0
0.9999999999999996 -1.673210798269067 0
-1.673210798269067 -0.9999999999999996 0
-0.9999999999999993 1.673210798269066 0
0 1.326794919243112 0
1.326794919243112 0 0
1.326794919243113 -0.1999999999999989 0
1.326794919243112 0.2 0
1.326669470978885 -0.5930262878924285 0
0.1999999999999993 1.326794919243113 0
-1.678650806832584 -1.604596097380171 0
1.604596097380171 -1.678650806832584 0
-1.604596097380171 1.678650806832584 0
1.326794919243113 -0.3999999999999975 0
0.4013610935895926 1.328727541244985 0
1.098657291719526 1.842174660659172 0
1.500000000000001 1.84644446658685 0
0.796899444236747 1.672998467161875 0
0.800415485501387 -1.672335097284339 0
-1.672335097284339 -0.800415485501387 0
-0.800415485501387 1.672335097284339 0
-0.09993945539183577 -1.500031249572345 0
-1.500031249572345 0.09993945539183577 0
-0.7954040523864212 -1.329456045253544 0
1.333571448922883 -0.7861599327067978 0
-1.329456045253544 0.7954040523864212 0
1.67118470380653 0.7930853639613547 0
-0.7886954735343864 -1.667441343312495 0
-1.667441343312495 0.7886954735343864 0
1.668479198912934 -0.793830023548878 0
1.672991184728917 1.188319417991453 0
-1.188737343951699 -1.671408087445222 0
1.671408087445222 -1.188737343951699 0
-1.671408087445222 1.188737343951699 0
1.866025403784438 1.500000000000001 0
-1.500000000000001 -1.866025403784439 0
-1.866025403784439 1.500000000000001 0
1.866025403784439 -1.500000000000001 0
1.482370234772521 -0.669295964571038 0
-0.6699046925396159 -1.517754586196512 0
-1.517754586196512 0.6699046925396159 0
-1.053589838486225 -1.2 0
1.2 -1.053589838486225 0
-1.2 1.053589838486225 0
1.146410161513775 0.8535898384862243 0
-1.854608147088989 -1.854608147088989 0
1.854608147088989 -1.854608147088989 0
-1.854608147088989 1.854608147088989 0
1.859947883963667 1.859947883963667 0
1.313775722304332 0.5479530288806489 0
1.541876770378096 0.6897502242147223 0
2 4 0 25
522
523
524
525
526
527
528
529
530
531
532
533
534
535
536
537
538
539
540
541
542
543
544
545
546
-0.0627097287946847 0.3152630961100268 0
0.05533867031720698 -0.3202664035739307 0
0.3340746794416691 0.06751015065979124 0
-0.2883534653220133 -0.08361808915135246 0
0.1953085435795848 0.2912332548130402 0
-0.2672671475943564 0.1785821986401757 0
0.2792747720342929 -0.1802747365457642 0
-0.197128399340678 -0.2710182334032047 0
0.210652066145017 -0.3152630961100262 0
0.0927669884440423 -0.1376959357467603 0
0.2228927954666152 -0.01940171523854837 0
0.06304462576590233 0.06574397041179808 0
-0.1006345292030334 -0.01930358278090416 0
-0.102605089185749 0.1567734579338611 0
-0.07185561660073171 -0.1750693506763058 0
-0.3252437553779031 -0.2248828573325924 0
0.3718781775593651 -0.07397116867516625 0
-0.2106520661450165 0.3152630961100271 0
-0.08099741236135045 -0.3456587507818167 0
0.3099164658007819 0.2077968254985521 0
0.07397116867516729 0.3718781775593651 0
-0.3552317421972896 0.06843774366724968 0
0.04370920140124581 0.2197409943737627 0
-0.2228183947004883 0.06017434566180598 0
0.1948243852426332 0.1387705800863993 0
$EndNodes
$Elements
21 1155 1 1155
0 9 15 1
1 1 
0 10 15 1
2 2 
0 11 15 1
3 3 
0 12 15 1
4 4 
0 13 15 1
5 5 
0 14 15 1
6 6 
0 15 15 1
7 7 
0 16 15 1
8 8 
0 17 15 1
9 9 
1 9 1 16
10 1 10 
11 10 11 
12 11 12 
13 12 13 
14 13 14 
15 14 15 
16 15 16 
17 16 17 
18 17 18 
19 18 19 
20 19 20 
21 20 21 
22 21 22 
23 22 23 
24 23 24 
25 24 1 
1 10 1 10
26 2 25 
27 25 26 
28 26 27 
29 27 28 
30 28 29 
31 29 30 
32 30 31 
33 31 32 
34 32 33 
35 33 3 
1 11 1 10
36 4 34 
37 34 35 
38 35 36 
39 36 37 
40 37 38 
41 38 39 
42 39 40 
43 40 41 
44 41 42 
45 42 2 
1 12 1 10
46 3 43 
47 43 44 
48 44 45 
49 45 46 
50 46 47 
51 47 48 
52 48 49 
53 49 50 
54 50 51 
55 51 5 
1 13 1 10
56 5 52 
57 52 53 
58 53 54 
59 54 55 
60 55 56 
61 56 57 
62 57 58 
63 58 59 
64 59 60 
65 60 4 
1 14 1 20
66 6 61 
67 61 62 
68 62 63 
69 63 64 
70 64 65 
71 65 66 
72 66 67 
73 67 68 
74 68 69 
75 69 70 
76 70 71 
77 71 72 
78 72 73 
79 73 74 
80 74 75 
81 75 76 
82 76 77 
83 77 78 
84 78 79 
85 79 7 
1 15 1 20
86 8 80 
87 80 81 
88 81 82 
89 82 83 
90 83 84 
91 84 85 
92 85 86 
93 86 87 
94 87 88 
95 88 89 
96 89 90 
97 90 91 
98 91 92 
99 92 93 
100 93 94 
101 94 95 
102 95 96 
103 96 97 
104 97 98 
105 98 6 
1 16 1 20
106 7 99 
107 99 100 
108 100 101 
109 101 102 
110 102 103 
111 103 104 
112 104 105 
113 105 106 
114 106 107 
115 107 108 
116 108 109 
117 109 110 
118 110 111 
119 111 112 
120 112 113 
121 113 114 
122 114 115 
123 115 116 
124 116 117 
125 117 9 
1 17 1 20
126 9 118 
127 118 119 
128 119 120 
129 120 121 
130 121 122 
131 122 123 
132 123 124 
133 124 125 
134 125 126 
135 126 127 
136 127 128 
137 128 129 
138 129 130 
139 130 131 
140 131 132 
141 132 133 
142 133 134 
143 134 135 
144 135 136 
145 136 8 
2 2 2 216
146 160 162 158 
147 159 164 157 
148 155 161 154 
149 156 163 153 
150 147 165 159 
151 151 167 160 
152 145 166 156 
153 158 169 150 
154 148 168 155 
155 154 170 146 
156 157 172 152 
157 153 171 149 
158 152 176 151 
159 150 175 148 
160 146 173 145 
161 149 174 147 
162 19 159 157 
163 23 160 158 
164 15 156 153 
165 11 155 154 
166 151 160 22 
167 147 159 18 
168 20 157 152 
169 24 158 150 
170 12 154 146 
171 16 153 149 
172 145 156 14 
173 148 155 10 
174 21 152 151 
175 1 150 148 
176 17 149 147 
177 13 146 145 
178 38 192 37 
179 56 189 55 
180 29 187 28 
181 48 190 47 
182 47 186 46 
183 57 191 56 
184 30 185 29 
185 39 188 38 
186 174 192 38 
187 173 189 56 
188 176 187 29 
189 47 190 175 
190 175 186 47 
191 56 191 173 
192 29 185 176 
193 38 188 174 
194 142 207 198 
195 140 206 196 
196 143 208 199 
197 195 205 139 
198 144 205 200 
199 194 206 138 
200 197 208 141 
201 193 207 137 
202 177 207 142 
203 179 206 140 
204 180 208 143 
205 139 205 178 
206 198 207 163 
207 199 208 162 
208 196 206 161 
209 164 205 195 
210 50 179 140 
211 59 177 142 
212 32 180 143 
213 181 205 144 
214 50 140 49 
215 59 142 58 
216 36 137 35 
217 54 138 53 
218 32 143 31 
219 41 144 40 
220 27 139 26 
221 45 141 44 
222 139 178 26 
223 137 207 182 
224 138 206 183 
225 141 208 184 
226 51 179 50 
227 60 177 59 
228 33 180 32 
229 26 178 25 
230 18 159 19 
231 22 160 23 
232 19 157 20 
233 15 153 16 
234 23 158 24 
235 14 156 15 
236 10 155 11 
237 11 154 12 
238 24 150 1 
239 21 151 22 
240 16 149 17 
241 20 152 21 
242 12 146 13 
243 13 145 14 
244 17 147 18 
245 1 148 10 
246 42 181 41 
247 35 182 34 
248 44 184 43 
249 53 183 52 
250 200 205 164 
251 161 206 194 
252 162 208 197 
253 163 207 193 
254 165 216 144 
255 166 215 142 
256 167 214 143 
257 168 213 140 
258 138 211 170 
259 141 212 169 
260 139 210 172 
261 137 209 171 
262 41 181 144 
263 137 182 35 
264 138 183 53 
265 141 184 44 
266 140 213 49 
267 142 215 58 
268 36 209 137 
269 54 211 138 
270 144 216 40 
271 143 214 31 
272 45 212 141 
273 27 210 139 
274 25 201 2 
275 2 201 42 
276 34 202 4 
277 4 202 60 
278 5 203 51 
279 52 203 5 
280 3 204 33 
281 43 204 3 
282 162 197 158 
283 164 195 157 
284 159 200 164 
285 160 199 162 
286 163 193 153 
287 161 194 154 
288 155 196 161 
289 156 198 163 
290 165 200 159 
291 166 198 156 
292 167 199 160 
293 168 196 155 
294 158 197 169 
295 154 194 170 
296 153 193 171 
297 157 195 172 
298 147 188 165 
299 145 191 166 
300 151 185 167 
301 148 190 168 
302 169 186 150 
303 170 189 146 
304 172 187 152 
305 171 192 149 
306 144 200 165 
307 142 198 166 
308 143 199 167 
309 140 196 168 
310 169 197 141 
311 170 194 138 
312 172 195 139 
313 171 193 137 
314 150 186 175 
315 176 185 151 
316 152 187 176 
317 173 191 145 
318 146 189 173 
319 174 188 147 
320 175 190 148 
321 149 192 174 
322 183 203 52 
323 184 204 43 
324 182 202 34 
325 42 201 181 
326 57 215 191 
327 39 216 188 
328 48 213 190 
329 189 211 55 
330 192 209 37 
331 186 212 46 
332 30 214 185 
333 187 210 28 
334 178 201 25 
335 51 203 179 
336 60 202 177 
337 33 204 180 
338 37 209 36 
339 28 210 27 
340 55 211 54 
341 46 212 45 
342 49 213 48 
343 31 214 30 
344 58 215 57 
345 40 216 39 
346 181 201 178 
347 179 203 183 
348 180 204 184 
349 177 202 182 
350 178 205 181 
351 182 207 177 
352 183 206 179 
353 184 208 180 
354 188 216 165 
355 191 215 166 
356 185 214 167 
357 190 213 168 
358 169 212 186 
359 170 211 189 
360 172 210 187 
361 171 209 192 
2 3 2 730
362 240 364 311 
363 392 393 303 
364 402 403 306 
365 397 398 309 
366 220 324 313 
367 315 317 221 
368 318 320 222 
369 321 323 223 
370 317 481 436 
371 320 482 437 
372 323 483 435 
373 220 505 324 
374 317 506 221 
375 320 508 222 
376 323 507 223 
377 302 494 233 
378 305 495 234 
379 308 496 235 
380 311 497 240 
381 393 498 303 
382 403 500 306 
383 398 499 309 
384 364 501 311 
385 303 502 392 
386 306 503 402 
387 309 504 397 
388 285 325 324 
389 233 512 302 
390 234 513 305 
391 235 514 308 
392 362 509 500 
393 494 510 373 
394 496 511 378 
395 430 453 446 
396 436 481 282 
397 437 482 283 
398 435 483 284 
399 500 509 307 
400 304 510 494 
401 310 511 496 
402 252 438 434 
403 446 453 224 
404 313 501 220 
405 221 502 315 
406 222 503 318 
407 223 504 321 
408 435 507 323 
409 436 506 317 
410 437 508 320 
411 252 520 438 
412 330 444 332 
413 335 443 337 
414 340 445 342 
415 332 444 440 
416 337 443 439 
417 342 445 441 
418 285 454 325 
419 452 488 261 
420 447 485 241 
421 448 458 256 
422 449 459 258 
423 386 466 440 
424 387 467 439 
425 391 468 441 
426 450 456 410 
427 451 457 412 
428 442 486 122 
429 324 505 285 
430 259 384 362 
431 357 429 358 
432 333 419 418 
433 338 421 420 
434 266 326 292 
435 106 384 105 
436 125 385 124 
437 229 429 357 
438 255 393 66 
439 257 398 85 
440 259 403 104 
441 231 418 396 
442 232 420 401 
443 268 344 294 
444 326 327 292 
445 374 424 237 
446 379 425 238 
447 268 294 293 
448 418 419 396 
449 420 421 401 
450 350 429 229 
451 362 384 359 
452 229 363 350 
453 371 417 230 
454 313 314 281 
455 237 424 27 
456 238 425 36 
457 25 372 26 
458 386 411 32 
459 34 377 35 
460 387 413 41 
461 43 382 44 
462 391 416 59 
463 66 393 65 
464 85 398 84 
465 104 403 103 
466 134 404 219 
467 231 396 395 
468 232 401 400 
469 350 363 347 
470 71 355 231 
471 73 329 225 
472 90 356 232 
473 92 334 226 
474 260 384 106 
475 109 363 229 
476 111 345 227 
477 262 385 125 
478 128 371 230 
479 130 339 228 
480 268 293 281 
481 287 315 295 
482 289 318 296 
483 291 321 297 
484 331 355 225 
485 336 356 226 
486 347 363 227 
487 341 371 228 
488 313 324 314 
489 358 429 428 
490 373 375 374 
491 375 376 374 
492 405 424 374 
493 378 380 379 
494 380 381 379 
495 406 425 379 
496 71 231 70 
497 90 232 89 
498 109 229 108 
499 128 230 127 
500 266 292 236 
501 294 312 311 
502 324 325 314 
503 331 418 355 
504 336 420 356 
505 348 349 347 
506 351 429 350 
507 426 427 417 
508 73 225 72 
509 283 422 78 
510 92 226 91 
511 282 423 97 
512 111 227 110 
513 130 228 129 
514 135 404 134 
515 245 344 268 
516 298 326 266 
517 274 407 287 
518 277 408 289 
519 280 409 291 
520 287 316 315 
521 289 319 318 
522 291 322 321 
523 5 245 236 
524 233 372 25 
525 26 372 237 
526 30 410 247 
527 31 386 32 
528 235 377 34 
529 35 377 238 
530 39 412 249 
531 40 387 41 
532 234 382 43 
533 44 382 239 
534 46 388 250 
535 48 414 251 
536 49 383 50 
537 50 383 252 
538 52 389 53 
539 53 389 241 
540 55 390 253 
541 57 415 254 
542 58 391 59 
543 67 394 255 
544 69 395 256 
545 75 263 74 
546 86 399 257 
547 88 400 258 
548 94 264 93 
549 105 384 259 
550 113 240 112 
551 124 385 261 
552 132 265 131 
553 230 427 365 
554 358 359 260 
555 359 384 260 
556 367 385 262 
557 274 286 269 
558 277 288 270 
559 280 290 271 
560 332 333 331 
561 337 338 336 
562 342 343 341 
563 341 417 371 
564 358 428 360 
565 361 362 359 
566 365 427 366 
567 366 369 368 
568 376 405 374 
569 381 406 379 
570 263 329 74 
571 75 352 263 
572 264 334 93 
573 94 353 264 
574 240 345 112 
575 113 364 240 
576 265 339 131 
577 132 354 265 
578 242 273 272 
579 243 276 275 
580 244 279 278 
581 245 268 267 
582 272 274 269 
583 275 277 270 
584 278 280 271 
585 298 328 326 
586 330 332 331 
587 335 337 336 
588 340 342 341 
589 346 348 347 
590 27 424 28 
591 36 425 37 
592 45 388 46 
593 54 390 55 
594 229 357 108 
595 230 365 127 
596 417 427 230 
597 355 418 231 
598 356 420 232 
599 246 424 405 
600 248 425 406 
601 366 367 262 
602 295 302 286 
603 296 305 288 
604 297 308 290 
605 369 427 426 
606 76 352 75 
607 77 218 76 
608 95 353 94 
609 96 217 95 
610 115 220 114 
611 117 285 116 
612 133 354 132 
613 134 219 133 
614 136 284 135 
615 245 266 236 
616 2 233 25 
617 42 242 2 
618 242 269 2 
619 33 243 3 
620 3 234 43 
621 243 270 3 
622 4 235 34 
623 60 244 4 
624 244 271 4 
625 5 236 52 
626 26 237 27 
627 28 246 29 
628 29 410 30 
629 246 410 29 
630 30 247 31 
631 32 411 33 
632 35 238 36 
633 37 248 38 
634 38 412 39 
635 248 412 38 
636 39 249 40 
637 41 413 42 
638 44 239 45 
639 239 388 45 
640 46 250 47 
641 47 414 48 
642 250 414 47 
643 48 251 49 
644 50 252 51 
645 53 241 54 
646 241 390 54 
647 55 253 56 
648 56 415 57 
649 253 415 56 
650 57 254 58 
651 59 416 60 
652 67 255 66 
653 69 256 68 
654 256 394 68 
655 70 395 69 
656 72 355 71 
657 79 283 78 
658 86 257 85 
659 88 258 87 
660 258 399 87 
661 89 400 88 
662 91 356 90 
663 98 282 97 
664 105 259 104 
665 107 260 106 
666 110 363 109 
667 124 261 123 
668 126 262 125 
669 129 371 128 
670 329 330 225 
671 334 335 226 
672 339 340 228 
673 242 413 273 
674 243 411 276 
675 244 416 279 
676 273 431 272 
677 276 432 275 
678 279 433 278 
679 314 430 281 
680 358 360 359 
681 68 394 67 
682 231 395 70 
683 225 355 72 
684 78 422 77 
685 77 422 218 
686 87 399 86 
687 232 400 89 
688 226 356 91 
689 97 423 96 
690 96 423 217 
691 227 363 110 
692 114 364 113 
693 228 371 129 
694 372 373 237 
695 377 378 238 
696 357 358 260 
697 365 366 262 
698 300 407 274 
699 299 408 277 
700 301 409 280 
701 303 304 302 
702 306 307 305 
703 309 310 308 
704 349 351 350 
705 360 361 359 
706 366 427 369 
707 368 370 367 
708 330 331 225 
709 335 336 226 
710 345 346 227 
711 346 347 227 
712 340 341 228 
713 267 298 266 
714 294 311 293 
715 343 426 417 
716 247 386 31 
717 249 387 40 
718 251 383 49 
719 254 391 58 
720 373 374 237 
721 378 379 238 
722 366 368 367 
723 236 389 52 
724 292 389 236 
725 245 267 266 
726 268 281 267 
727 281 430 267 
728 293 313 281 
729 287 407 316 
730 289 408 319 
731 291 409 322 
732 333 418 331 
733 338 420 336 
734 343 417 341 
735 349 350 347 
736 64 221 63 
737 74 329 73 
738 218 352 76 
739 83 223 82 
740 93 334 92 
741 217 353 95 
742 102 222 101 
743 108 357 107 
744 112 345 111 
745 220 364 114 
746 121 224 120 
747 127 365 126 
748 131 339 130 
749 219 354 133 
750 284 404 135 
751 272 300 274 
752 274 287 286 
753 275 299 277 
754 277 289 288 
755 278 301 280 
756 280 291 290 
757 28 424 246 
758 33 411 243 
759 37 425 248 
760 42 413 242 
761 60 416 244 
762 64 392 221 
763 65 393 392 
764 83 397 223 
765 84 398 397 
766 102 402 222 
767 103 403 402 
768 107 357 260 
769 126 365 262 
770 242 272 269 
771 243 275 270 
772 244 278 271 
773 272 431 300 
774 275 432 299 
775 278 433 301 
776 287 295 286 
777 289 296 288 
778 291 297 290 
779 295 303 302 
780 296 306 305 
781 297 309 308 
782 316 317 315 
783 319 320 318 
784 322 323 321 
785 5 344 245 
786 428 429 351 
787 267 430 298 
788 65 392 64 
789 84 397 83 
790 103 402 102 
791 312 497 311 
792 303 498 304 
793 306 500 307 
794 309 499 310 
795 304 494 302 
796 307 495 305 
797 310 496 308 
798 344 434 294 
799 370 447 327 
800 327 452 370 
801 328 486 442 
802 370 485 447 
803 376 458 448 
804 381 459 449 
805 440 466 332 
806 439 467 337 
807 441 468 342 
808 419 456 450 
809 421 457 451 
810 327 488 452 
811 119 487 454 
812 385 452 261 
813 327 447 292 
814 386 440 411 
815 387 439 413 
816 391 441 416 
817 395 448 256 
818 400 449 258 
819 389 447 241 
820 246 450 410 
821 248 451 412 
822 370 452 367 
823 123 442 122 
824 314 453 430 
825 430 446 298 
826 376 492 405 
827 381 493 406 
828 224 487 120 
829 328 488 326 
830 121 486 224 
831 329 489 330 
832 334 490 335 
833 339 491 340 
834 419 492 396 
835 421 493 401 
836 362 500 259 
837 372 494 373 
838 377 496 378 
839 345 497 346 
840 294 434 312 
841 311 501 293 
842 295 502 303 
843 296 503 306 
844 297 504 309 
845 454 487 325 
846 62 436 61 
847 81 435 80 
848 100 437 99 
849 119 454 118 
850 463 510 498 
851 464 511 499 
852 495 509 479 
853 221 506 63 
854 223 507 82 
855 222 508 101 
856 115 505 220 
857 285 505 116 
858 302 512 286 
859 305 513 288 
860 308 514 290 
861 2 512 233 
862 3 513 234 
863 4 514 235 
864 51 515 5 
865 5 515 344 
866 269 512 2 
867 270 513 3 
868 271 514 4 
869 6 516 98 
870 7 517 79 
871 8 518 136 
872 61 516 6 
873 99 517 7 
874 80 518 8 
875 448 492 376 
876 449 493 381 
877 453 487 224 
878 442 488 328 
879 224 486 446 
880 330 489 444 
881 335 490 443 
882 340 491 445 
883 450 492 419 
884 451 493 421 
885 439 443 273 
886 440 444 276 
887 441 445 279 
888 405 450 246 
889 406 451 248 
890 292 447 389 
891 261 442 123 
892 273 443 431 
893 276 444 432 
894 279 445 433 
895 413 439 273 
896 411 440 276 
897 416 441 279 
898 367 452 385 
899 396 448 395 
900 401 449 400 
901 325 453 314 
902 298 446 328 
903 383 520 252 
904 431 490 473 
905 432 489 472 
906 433 491 474 
907 479 484 239 
908 217 470 461 
909 218 471 460 
910 455 483 322 
911 361 484 479 
912 461 470 407 
913 460 471 408 
914 455 462 219 
915 217 461 353 
916 218 460 352 
917 219 462 354 
918 465 475 426 
919 333 456 419 
920 338 457 421 
921 404 455 219 
922 394 463 255 
923 399 464 257 
924 388 477 250 
925 251 478 469 
926 415 475 465 
927 423 470 217 
928 422 471 218 
929 410 456 247 
930 412 457 249 
931 332 466 333 
932 337 467 338 
933 342 468 343 
934 390 480 253 
935 352 472 263 
936 353 473 264 
937 354 474 265 
938 469 478 349 
939 239 484 388 
940 241 485 390 
941 415 465 254 
942 426 475 369 
943 404 483 455 
944 299 460 408 
945 300 461 407 
946 301 462 409 
947 343 465 426 
948 348 469 349 
949 351 476 428 
950 256 458 394 
951 258 459 399 
952 250 476 414 
953 251 469 383 
954 414 478 251 
955 333 466 456 
956 338 467 457 
957 375 458 376 
958 380 459 381 
959 253 480 475 
960 351 478 476 
961 476 478 414 
962 456 466 247 
963 457 467 249 
964 349 478 351 
965 253 475 415 
966 432 472 299 
967 431 473 300 
968 433 474 301 
969 407 470 316 
970 408 471 319 
971 322 483 323 
972 369 480 368 
973 458 463 394 
974 459 464 399 
975 475 480 369 
976 382 479 239 
977 247 466 386 
978 249 467 387 
979 254 468 391 
980 460 472 352 
981 461 473 353 
982 462 474 354 
983 409 462 455 
984 409 455 322 
985 343 468 465 
986 250 477 476 
987 316 481 317 
988 319 482 320 
989 375 463 458 
990 380 464 459 
991 388 484 477 
992 428 477 360 
993 465 468 254 
994 360 484 361 
995 368 485 370 
996 476 477 428 
997 299 472 460 
998 300 473 461 
999 301 474 462 
1000 282 481 423 
1001 283 482 422 
1002 390 485 480 
1003 284 483 404 
1004 470 481 316 
1005 471 482 319 
1006 477 484 360 
1007 480 485 368 
1008 422 482 471 
1009 423 481 470 
1010 472 489 263 
1011 473 490 264 
1012 474 491 265 
1013 122 486 121 
1014 326 488 327 
1015 120 487 119 
1016 263 489 329 
1017 264 490 334 
1018 265 491 339 
1019 220 501 364 
1020 392 502 221 
1021 402 503 222 
1022 397 504 223 
1023 382 495 479 
1024 463 498 255 
1025 464 499 257 
1026 434 438 312 
1027 81 507 435 
1028 62 506 436 
1029 100 508 437 
1030 233 494 372 
1031 234 495 382 
1032 235 496 377 
1033 240 497 345 
1034 255 498 393 
1035 257 499 398 
1036 259 500 403 
1037 9 519 117 
1038 118 519 9 
1039 498 510 304 
1040 499 511 310 
1041 307 509 495 
1042 373 510 375 
1043 378 511 380 
1044 361 509 362 
1045 346 521 348 
1046 315 502 295 
1047 318 503 296 
1048 321 504 297 
1049 293 501 313 
1050 405 492 450 
1051 406 493 451 
1052 443 490 431 
1053 444 489 432 
1054 445 491 433 
1055 261 488 442 
1056 446 486 328 
1057 325 487 453 
1058 396 492 448 
1059 401 493 449 
1060 116 505 115 
1061 63 506 62 
1062 82 507 81 
1063 101 508 100 
1064 348 521 438 
1065 497 521 346 
1066 344 515 434 
1067 117 519 285 
1068 79 517 283 
1069 98 516 282 
1070 136 518 284 
1071 286 512 269 
1072 288 513 270 
1073 290 514 271 
1074 252 515 51 
1075 434 515 252 
1076 438 520 348 
1077 479 509 361 
1078 375 510 463 
1079 380 511 464 
1080 348 520 469 
1081 282 516 436 
1082 283 517 437 
1083 284 518 435 
1084 436 516 61 
1085 437 517 99 
1086 435 518 80 
1087 285 519 454 
1088 312 521 497 
1089 454 519 118 
1090 438 521 312 
1091 469 520 383 
2 4 2 64
1092 529 536 525 
1093 525 536 534 
1094 525 537 529 
1095 528 531 530 
1096 530 531 523 
1097 24 528 23 
1098 20 529 19 
1099 22 523 21 
1100 16 527 15 
1101 12 526 11 
1102 18 525 17 
1103 10 524 1 
1104 14 522 13 
1105 534 545 525 
1106 533 534 531 
1107 531 536 523 
1108 536 540 523 
1109 535 539 527 
1110 522 539 535 
1111 528 532 531 
1112 529 540 536 
1113 533 535 534 
1114 532 533 531 
1115 19 537 18 
1116 23 530 22 
1117 24 538 528 
1118 1 538 24 
1119 20 540 529 
1120 529 537 19 
1121 523 540 21 
1122 528 530 23 
1123 13 542 12 
1124 16 543 527 
1125 22 530 523 
1126 11 541 10 
1127 15 539 14 
1128 21 540 20 
1129 526 541 11 
1130 17 543 16 
1131 10 541 524 
1132 12 542 526 
1133 527 539 15 
1134 525 543 17 
1135 522 542 13 
1136 14 539 522 
1137 18 537 525 
1138 524 538 1 
1139 534 536 531 
1140 532 546 533 
1141 527 545 535 
1142 535 545 534 
1143 532 538 524 
1144 528 538 532 
1145 544 546 526 
1146 533 546 544 
1147 524 546 532 
1148 533 544 535 
1149 535 544 522 
1150 542 544 526 
1151 522 544 542 
1152 525 545 543 
1153 543 545 527 
1154 526 546 541 
1155 541 546 524 
$EndElements
