# vtk DataFile Version 2.0
cavity_pml, Created by Gmsh 4.13.1 
ASCII
DATASET UNSTRUCTURED_GRID
POINTS 141 double
3.059397907456968e-17 -7.493116232685377e-33 0.4996540966666775
3.059397907456968e-17 -7.493116232685377e-33 -0.4996540966666775
-0.999308193333355 -0.9993081933333549 -0.9993081933333549
-0.999308193333355 -0.9993081933333549 0.999308193333355
-0.999308193333355 0.999308193333355 0.999308193333355
-0.999308193333355 0.999308193333355 -0.9993081933333549
0.999308193333355 -0.999308193333355 -0.9993081933333549
0.999308193333355 -0.999308193333355 0.999308193333355
0.999308193333355 0.999308193333355 0.999308193333355
0.999308193333355 0.999308193333355 -0.999308193333355
0.9993081933333551 -1.498962290000033 -0.999308193333355
0.9993081933333551 -1.498962290000033 0.9993081933333551
1.498962290000033 -1.498962290000033 -0.9993081933333551
1.498962290000033 -1.498962290000033 0.9993081933333551
1.498962290000033 -0.999308193333355 0.9993081933333551
1.498962290000033 -0.999308193333355 -0.999308193333355
-1.498962290000033 -1.498962290000033 -0.9993081933333551
-1.498962290000033 -1.498962290000033 0.9993081933333551
-1.498962290000033 -0.999308193333355 0.9993081933333551
-1.498962290000033 -0.999308193333355 -0.999308193333355
-0.999308193333355 -1.498962290000033 -0.999308193333355
-0.999308193333355 -1.498962290000033 0.9993081933333551
0.9993081933333551 1.498962290000033 0.9993081933333551
0.9993081933333551 1.498962290000033 -0.999308193333355
1.498962290000033 0.9993081933333551 -0.999308193333355
1.498962290000033 0.9993081933333551 0.9993081933333551
1.498962290000033 1.498962290000033 0.9993081933333551
1.498962290000033 1.498962290000033 -0.9993081933333551
-1.498962290000033 0.9993081933333551 -0.999308193333355
-1.498962290000033 0.9993081933333551 0.9993081933333551
-1.498962290000033 1.498962290000033 0.9993081933333551
-1.498962290000033 1.498962290000033 -0.9993081933333551
-0.999308193333355 1.498962290000033 0.9993081933333551
-0.999308193333355 1.498962290000033 -0.999308193333355
-0.9993081933333551 -1.498962290000033 1.498962290000033
-0.999308193333355 -0.999308193333355 1.498962290000033
0.9993081933333551 -1.498962290000033 1.498962290000033
0.9993081933333551 -0.999308193333355 1.498962290000033
-0.9993081933333551 -1.498962290000033 -1.498962290000033
-0.999308193333355 -0.999308193333355 -1.498962290000033
0.9993081933333551 -1.498962290000033 -1.498962290000033
0.9993081933333551 -0.999308193333355 -1.498962290000033
-0.999308193333355 0.9993081933333551 1.498962290000033
-0.9993081933333551 1.498962290000033 1.498962290000033
0.9993081933333551 0.9993081933333551 1.498962290000033
0.9993081933333551 1.498962290000033 1.498962290000033
-0.999308193333355 0.9993081933333551 -1.498962290000033
-0.9993081933333551 1.498962290000033 -1.498962290000033
0.9993081933333551 0.9993081933333551 -1.498962290000033
0.9993081933333551 1.498962290000033 -1.498962290000033
1.498962290000033 -0.9993081933333551 1.498962290000033
1.498962290000033 0.9993081933333551 1.498962290000033
1.498962290000033 -0.9993081933333551 -1.498962290000033
1.498962290000033 0.9993081933333551 -1.498962290000033
-1.498962290000033 -0.9993081933333551 1.498962290000033
-1.498962290000033 0.9993081933333551 1.498962290000033
-1.498962290000033 -0.9993081933333551 -1.498962290000033
-1.498962290000033 0.9993081933333551 -1.498962290000033
-1.498962290000033 -1.498962290000033 1.498962290000033
-1.498962290000033 -1.498962290000033 -1.498962290000033
1.498962290000033 -1.498962290000033 1.498962290000033
1.498962290000033 -1.498962290000033 -1.498962290000033
1.498962290000033 1.498962290000033 1.498962290000033
1.498962290000033 1.498962290000033 -1.498962290000033
-1.498962290000033 1.498962290000033 1.498962290000033
-1.498962290000033 1.498962290000033 -1.498962290000033
0.4327131408183084 -1.059806523257075e-16 -0.2498270483333386
0.4327131408183074 -1.059806523257073e-16 0.2498270483333403
0.08588901454342281 -0.357071600593815 0.338787788365998
0.2790756160222787 -0.4144526714325523 1.109454964935258e-15
-0.1980189396517378 -0.45851797898121 0.01428211489876696
-0.07348086520178503 -0.3822193451932763 -0.3133099917414281
-0.2421062712174429 0.294911814162354 -0.3225922993818183
0.1442377136061712 0.4079658615747979 0.2498270483334231
-0.4613448864594598 -0.1158745251668283 -0.1529320321935983
-0.3738582465193898 -0.02540241388566584 0.3305131543433968
0.1136779579689446 0.45535435299629 -0.1714174769244213
-0.1850677816456518 0.3904544444804731 0.2508973082717231
-0.4265187261206685 0.2602594457198346 -0.001006726278699634
0.397647613260361 0.3015323530408469 0.02467452236178118
-0.9993081933333551 0 0
0.9993081933333551 0 0
0 -0.9993081933333551 0
0 0.9993081933333551 0
0 0 -0.9993081933333551
0 0 0.9993081933333551
1.249135241666694 -1.249135241666694 -0.9993081933333551
1.249135241666694 -1.249135241666694 0.9993081933333551
-1.249135241666694 -1.249135241666694 -0.9993081933333551
-1.249135241666694 -1.249135241666694 0.9993081933333551
1.249135241666694 1.249135241666694 -0.9993081933333551
1.249135241666694 1.249135241666694 0.9993081933333551
-1.249135241666694 1.249135241666694 -0.9993081933333551
-1.249135241666694 1.249135241666694 0.9993081933333551
-0.9993081933333551 -1.249135241666694 1.249135241666694
0.9993081933333551 -1.249135241666694 1.249135241666694
-0.9993081933333551 -1.249135241666694 -1.249135241666694
0.9993081933333551 -1.249135241666694 -1.249135241666694
-0.9993081933333551 1.249135241666694 1.249135241666694
0.9993081933333551 1.249135241666694 1.249135241666694
-0.9993081933333551 1.249135241666694 -1.249135241666694
0.9993081933333551 1.249135241666694 -1.249135241666694
1.249135241666694 -0.9993081933333551 1.249135241666694
1.249135241666694 0.9993081933333551 1.249135241666694
1.249135241666694 -0.9993081933333551 -1.249135241666694
1.249135241666694 0.9993081933333551 -1.249135241666694
-1.249135241666694 -0.9993081933333551 1.249135241666694
-1.249135241666694 0.9993081933333551 1.249135241666694
-1.249135241666694 -0.9993081933333551 -1.249135241666694
-1.249135241666694 0.9993081933333551 -1.249135241666694
1.110223024625157e-16 -1.498962290000033 0
1.110223024625157e-16 1.498962290000033 0
1.498962290000033 1.110223024625157e-16 0
-1.498962290000033 1.110223024625157e-16 0
0 1.110223024625157e-16 1.498962290000033
0 1.110223024625157e-16 -1.498962290000033
-1.498962290000033 -1.249135241666694 1.249135241666694
-1.249135241666694 -1.498962290000033 1.249135241666694
-1.249135241666694 -1.249135241666694 1.498962290000033
-1.498962290000033 -1.249135241666694 -1.249135241666694
-1.249135241666694 -1.498962290000033 -1.249135241666694
-1.249135241666694 -1.249135241666694 -1.498962290000033
1.498962290000033 -1.249135241666694 1.249135241666694
1.249135241666694 -1.498962290000033 1.249135241666694
1.249135241666694 -1.249135241666694 1.498962290000033
1.498962290000033 -1.249135241666694 -1.249135241666694
1.249135241666694 -1.498962290000033 -1.249135241666694
1.249135241666694 -1.249135241666694 -1.498962290000033
1.498962290000033 1.249135241666694 1.249135241666694
1.249135241666694 1.498962290000033 1.249135241666694
1.249135241666694 1.249135241666694 1.498962290000033
1.498962290000033 1.249135241666694 -1.249135241666694
1.249135241666694 1.498962290000033 -1.249135241666694
1.249135241666694 1.249135241666694 -1.498962290000033
-1.498962290000033 1.249135241666694 1.249135241666694
-1.249135241666694 1.498962290000033 1.249135241666694
-1.249135241666694 1.249135241666694 1.498962290000033
-1.498962290000033 1.249135241666694 -1.249135241666694
-1.249135241666694 1.498962290000033 -1.249135241666694
-1.249135241666694 1.249135241666694 -1.498962290000033
1.390662994334325e-17 -1.249135241666694 -1.415686607222253

CELLS 1071 4499
1 0
1 1
1 2
1 3
1 4
1 5
1 6
1 7
1 8
1 9
1 10
1 11
1 12
1 13
1 14
1 15
1 16
1 17
1 18
1 19
1 20
1 21
1 22
1 23
1 24
1 25
1 26
1 27
1 28
1 29
1 30
1 31
1 32
1 33
1 34
1 35
1 36
1 37
1 38
1 39
1 40
1 41
1 42
1 43
1 44
1 45
1 46
1 47
1 48
1 49
1 50
1 51
1 52
1 53
1 54
1 55
1 56
1 57
1 58
1 59
1 60
1 61
1 62
1 63
1 64
1 65
2 1 66
2 66 67
2 67 0
2 2 3
2 3 4
2 5 4
2 2 5
2 6 7
2 7 8
2 9 8
2 6 9
2 2 6
2 3 7
2 5 9
2 4 8
2 10 11
2 11 7
2 10 6
2 12 13
2 13 14
2 15 14
2 12 15
2 10 12
2 11 13
2 6 15
2 7 14
2 16 17
2 17 18
2 19 18
2 16 19
2 20 21
2 21 3
2 20 2
2 16 20
2 17 21
2 19 2
2 18 3
2 8 22
2 23 22
2 9 23
2 24 25
2 25 26
2 27 26
2 24 27
2 9 24
2 8 25
2 23 27
2 22 26
2 28 29
2 29 30
2 31 30
2 28 31
2 4 32
2 33 32
2 5 33
2 28 5
2 29 4
2 31 33
2 30 32
2 21 34
2 34 35
2 3 35
2 11 36
2 36 37
2 7 37
2 21 11
2 34 36
2 35 37
2 38 20
2 39 2
2 38 39
2 40 10
2 41 6
2 40 41
2 38 40
2 20 10
2 39 41
2 4 42
2 42 43
2 32 43
2 8 44
2 44 45
2 22 45
2 42 44
2 32 22
2 43 45
2 46 5
2 47 33
2 46 47
2 48 9
2 49 23
2 48 49
2 46 48
2 47 49
2 33 23
2 37 44
2 14 50
2 50 51
2 25 51
2 14 25
2 37 50
2 44 51
2 41 48
2 52 15
2 15 24
2 53 24
2 52 53
2 41 52
2 48 53
2 18 54
2 54 55
2 29 55
2 18 29
2 35 42
2 54 35
2 55 42
2 56 19
2 19 28
2 57 28
2 56 57
2 39 46
2 56 39
2 57 46
2 17 58
2 58 54
2 58 34
2 59 16
2 59 56
2 59 38
2 13 60
2 60 50
2 36 60
2 61 12
2 61 52
2 40 61
2 51 62
2 26 62
2 45 62
2 63 27
2 53 63
2 49 63
2 55 64
2 30 64
2 64 43
2 65 31
2 57 65
2 65 47
3 0 68 67
3 67 73 0
3 0 75 68
3 73 77 0
3 0 77 75
3 66 71 1
3 1 76 66
3 71 72 1
3 72 76 1
3 67 69 66
3 66 79 67
3 69 71 66
3 76 79 66
3 68 69 67
3 67 79 73
3 68 70 69
3 68 75 70
3 70 71 69
3 70 74 71
3 70 75 74
3 71 74 72
3 74 78 72
3 72 78 76
3 76 77 73
3 73 79 76
3 75 78 74
3 77 78 75
3 76 78 77
3 2 3 80
3 5 2 80
3 3 4 80
3 4 5 80
3 6 81 7
3 9 81 6
3 7 81 8
3 8 81 9
3 3 2 82
3 2 6 82
3 7 3 82
3 6 7 82
3 4 83 5
3 8 83 4
3 5 83 9
3 9 83 8
3 2 5 84
3 6 2 84
3 5 9 84
3 9 6 84
3 3 85 4
3 7 85 3
3 4 85 8
3 8 85 7
3 7 6 11
3 11 6 10
3 13 12 15
3 14 13 15
3 12 11 10
3 13 11 12
3 15 6 7
3 14 15 7
3 10 6 86
3 6 15 86
3 12 10 86
3 15 12 86
3 11 87 7
3 7 87 14
3 13 87 11
3 14 87 13
3 17 19 16
3 18 19 17
3 3 21 2
3 21 20 2
3 20 17 16
3 21 17 20
3 3 2 19
3 3 19 18
3 19 2 88
3 2 20 88
3 16 19 88
3 20 16 88
3 18 89 3
3 3 89 21
3 17 89 18
3 21 89 17
3 22 9 8
3 22 23 9
3 25 24 27
3 26 25 27
3 24 8 9
3 25 8 24
3 27 23 22
3 26 27 22
3 9 23 90
3 24 9 90
3 23 27 90
3 27 24 90
3 8 91 22
3 25 91 8
3 22 91 26
3 26 91 25
3 29 31 28
3 30 31 29
3 32 4 5
3 32 5 33
3 4 28 5
3 4 29 28
3 33 31 30
3 32 33 30
3 5 28 92
3 33 5 92
3 28 31 92
3 31 33 92
3 4 93 29
3 32 93 4
3 29 93 30
3 30 93 32
3 3 21 94
3 35 3 94
3 21 34 94
3 34 35 94
3 7 95 11
3 37 95 7
3 11 95 36
3 36 95 37
3 36 21 11
3 36 34 21
3 7 3 35
3 37 7 35
3 7 21 3
3 7 11 21
3 35 34 36
3 37 35 36
3 20 2 96
3 2 39 96
3 38 20 96
3 39 38 96
3 10 97 6
3 6 97 41
3 40 97 10
3 41 97 40
3 10 20 40
3 40 20 38
3 6 41 2
3 41 39 2
3 39 40 38
3 41 40 39
3 6 2 20
3 6 20 10
3 32 4 98
3 4 42 98
3 43 32 98
3 42 43 98
3 22 99 8
3 8 99 44
3 45 99 22
3 44 99 45
3 8 42 4
3 44 42 8
3 45 22 32
3 45 32 43
3 32 8 4
3 22 8 32
3 43 42 44
3 45 43 44
3 5 33 100
3 46 5 100
3 33 47 100
3 47 46 100
3 9 101 23
3 48 101 9
3 23 101 49
3 49 101 48
3 9 5 48
3 48 5 46
3 23 49 33
3 49 47 33
3 47 48 46
3 49 48 47
3 33 5 9
3 23 33 9
3 37 8 7
3 44 8 37
3 50 14 25
3 51 50 25
3 7 14 102
3 37 7 102
3 14 50 102
3 50 37 102
3 8 103 25
3 44 103 8
3 25 103 51
3 51 103 44
3 8 14 7
3 25 14 8
3 44 37 50
3 44 50 51
3 9 41 6
3 9 48 41
3 24 15 52
3 24 52 53
3 15 6 104
3 6 41 104
3 52 15 104
3 41 52 104
3 24 105 9
3 9 105 48
3 53 105 24
3 48 105 53
3 48 52 41
3 53 52 48
3 9 6 15
3 24 9 15
3 54 29 18
3 55 29 54
3 35 3 4
3 4 42 35
3 18 3 106
3 3 35 106
3 54 18 106
3 35 54 106
3 29 107 4
3 4 107 42
3 55 107 29
3 42 107 55
3 4 3 18
3 29 4 18
3 42 55 35
3 55 54 35
3 28 56 19
3 28 57 56
3 5 2 39
3 5 39 46
3 2 19 108
3 39 2 108
3 19 56 108
3 56 39 108
3 5 109 28
3 46 109 5
3 28 109 57
3 57 109 46
3 46 39 57
3 57 39 56
3 5 19 2
3 28 19 5
3 10 11 110
3 20 10 110
3 11 21 110
3 21 20 110
3 23 111 22
3 22 111 32
3 33 111 23
3 32 111 33
3 15 112 14
3 14 112 25
3 24 112 15
3 25 112 24
3 19 18 113
3 18 29 113
3 28 19 113
3 29 28 113
3 37 114 35
3 35 114 42
3 44 114 37
3 42 114 44
3 41 39 115
3 39 46 115
3 48 41 115
3 46 48 115
3 18 17 116
3 17 58 116
3 54 18 116
3 58 54 116
3 17 21 117
3 58 17 117
3 21 34 117
3 34 58 117
3 35 118 34
3 34 118 58
3 54 118 35
3 58 118 54
3 16 19 119
3 59 16 119
3 19 56 119
3 56 59 119
3 20 16 120
3 16 59 120
3 38 20 120
3 59 38 120
3 39 38 121
3 38 59 121
3 56 39 121
3 59 56 121
3 14 122 13
3 13 122 60
3 50 122 14
3 60 122 50
3 11 13 123
3 36 11 123
3 13 60 123
3 60 36 123
3 36 124 37
3 60 124 36
3 37 124 50
3 50 124 60
3 12 125 15
3 61 125 12
3 15 125 52
3 52 125 61
3 12 10 126
3 10 40 126
3 61 12 126
3 40 61 126
3 40 41 127
3 61 40 127
3 41 52 127
3 52 61 127
3 26 128 25
3 25 128 51
3 62 128 26
3 51 128 62
3 22 129 26
3 45 129 22
3 26 129 62
3 62 129 45
3 44 130 45
3 51 130 44
3 45 130 62
3 62 130 51
3 24 131 27
3 53 131 24
3 27 131 63
3 63 131 53
3 27 132 23
3 23 132 49
3 63 132 27
3 49 132 63
3 48 49 133
3 53 48 133
3 49 63 133
3 63 53 133
3 30 29 134
3 29 55 134
3 64 30 134
3 55 64 134
3 30 135 32
3 64 135 30
3 32 135 43
3 43 135 64
3 43 136 42
3 42 136 55
3 64 136 43
3 55 136 64
3 28 31 137
3 57 28 137
3 31 65 137
3 65 57 137
3 33 138 31
3 31 138 65
3 47 138 33
3 65 138 47
3 47 46 139
3 46 57 139
3 65 47 139
3 57 65 139
4 106 94 118 89
4 116 106 118 89
4 117 116 118 89
4 117 118 94 89
4 116 118 58 117
4 34 58 118 117
4 118 58 54 116
4 58 116 117 17
4 118 94 34 117
4 54 106 118 116
4 94 117 89 21
4 89 116 106 18
4 94 35 106 118
4 94 106 3 89
4 116 117 17 89
4 35 94 34 118
4 94 34 117 21
4 35 106 3 94
4 54 106 35 118
4 117 17 89 21
4 3 94 89 21
4 89 106 3 18
4 89 17 116 18
4 54 106 116 18
4 96 121 120 108
4 119 120 108 88
4 119 120 121 108
4 120 96 108 88
4 59 119 120 121
4 16 59 119 120
4 121 120 59 38
4 59 119 121 56
4 38 121 120 96
4 120 119 16 88
4 108 96 2 88
4 20 96 120 88
4 119 108 19 88
4 121 96 39 108
4 108 121 119 56
4 120 38 96 20
4 20 120 16 88
4 19 16 119 88
4 96 38 121 39
4 19 108 2 88
4 39 96 2 108
4 119 108 56 19
4 2 96 20 88
4 108 39 121 56
4 95 124 123 102
4 87 123 122 102
4 124 122 123 102
4 123 87 95 102
4 123 122 124 60
4 122 123 13 60
4 60 124 123 36
4 122 124 60 50
4 123 87 11 95
4 36 124 123 95
4 13 87 123 122
4 95 87 7 102
4 122 14 87 102
4 124 95 37 102
4 102 124 122 50
4 14 7 87 102
4 37 95 7 102
4 11 13 87 123
4 36 123 11 95
4 102 122 14 50
4 7 11 87 95
4 95 36 124 37
4 102 37 124 50
4 87 13 14 122
4 97 104 86 126
4 104 97 127 126
4 126 104 86 125
4 126 127 104 125
4 125 126 127 61
4 40 127 126 61
4 12 126 125 61
4 125 127 52 61
4 97 86 10 126
4 97 41 104 127
4 52 104 127 125
4 104 86 6 97
4 126 86 12 125
4 15 86 104 125
4 97 40 127 126
4 10 6 86 97
4 40 97 10 126
4 12 10 86 126
4 41 104 6 97
4 6 15 86 104
4 41 97 40 127
4 86 15 12 125
4 104 52 15 125
4 52 104 41 127
4 103 130 128 91
4 99 130 103 91
4 130 99 129 91
4 129 128 130 91
4 128 62 129 130
4 130 128 62 51
4 129 62 128 26
4 62 45 129 130
4 51 130 128 103
4 129 128 91 26
4 45 99 129 130
4 103 8 99 91
4 25 103 128 91
4 103 130 99 44
4 99 129 91 22
4 128 25 91 26
4 103 51 130 44
4 26 91 129 22
4 128 51 103 25
4 103 99 8 44
4 129 99 45 22
4 45 99 130 44
4 8 99 91 22
4 8 103 25 91
4 132 133 105 101
4 131 133 105 132
4 132 105 90 101
4 131 105 90 132
4 133 131 63 132
4 53 133 131 63
4 63 131 27 132
4 132 63 133 49
4 132 90 23 101
4 105 53 133 131
4 133 132 49 101
4 90 24 105 131
4 131 90 27 132
4 105 9 90 101
4 48 105 133 101
4 49 132 23 101
4 53 105 24 131
4 23 27 90 132
4 48 105 53 133
4 9 23 90 101
4 48 133 49 101
4 24 90 27 131
4 105 48 9 101
4 9 90 24 105
4 93 107 136 134
4 134 136 93 135
4 135 136 93 98
4 136 107 93 98
4 136 134 64 135
4 55 136 134 64
4 64 134 30 135
4 135 64 136 43
4 4 93 107 98
4 136 107 55 134
4 134 93 30 135
4 135 93 32 98
4 136 135 43 98
4 93 29 107 134
4 42 107 136 98
4 29 55 107 134
4 42 136 43 98
4 107 42 4 98
4 29 93 30 134
4 93 4 32 98
4 32 30 93 135
4 43 135 32 98
4 107 55 42 136
4 4 93 29 107
4 109 139 137 92
4 100 138 139 92
4 109 100 139 92
4 139 138 137 92
4 137 65 138 139
4 138 65 137 31
4 65 47 138 139
4 139 137 65 57
4 109 139 100 46
4 47 100 138 139
4 100 138 92 33
4 137 139 109 57
4 109 5 100 92
4 138 137 92 31
4 28 109 137 92
4 109 100 5 46
4 139 109 57 46
4 47 100 139 46
4 57 109 137 28
4 31 92 138 33
4 138 100 47 33
4 137 28 92 31
4 5 100 92 33
4 5 109 28 92
4 15 12 87 86
4 15 87 6 86
4 11 12 87 13
4 13 15 12 87
4 13 15 87 14
4 7 15 87 6
4 15 7 87 14
4 6 11 87 7
4 6 86 11 10
4 6 11 86 87
4 12 11 86 10
4 12 86 11 87
4 17 88 19 89
4 20 88 17 89
4 89 2 20 88
4 2 89 19 88
4 16 20 88 17
4 88 17 19 16
4 21 2 20 89
4 21 2 89 3
4 89 2 19 3
4 89 19 17 18
4 89 17 20 21
4 19 89 3 18
4 22 91 8 90
4 91 25 8 90
4 22 23 27 90
4 23 22 9 90
4 90 27 25 24
4 8 24 90 25
4 8 24 9 90
4 9 22 8 90
4 22 91 27 26
4 22 27 91 90
4 25 27 91 26
4 25 91 27 90
4 93 5 28 92
4 33 31 92 93
4 28 92 31 93
4 5 93 33 92
4 93 30 31 29
4 30 33 93 31
4 33 30 93 32
4 29 4 28 93
4 93 5 4 28
4 93 31 28 29
4 93 5 33 32
4 93 5 32 4
4 34 94 35 36
4 21 36 94 34
4 21 7 3 94
4 7 35 3 94
4 95 36 21 11
4 21 36 95 94
4 21 7 95 11
4 95 7 21 94
4 7 95 35 94
4 7 35 95 37
4 36 35 95 94
4 36 95 35 37
4 40 20 10 97
4 20 97 6 10
4 6 20 2 96
4 41 2 39 96
4 41 2 96 6
4 96 38 39 140
4 97 41 40 140
4 41 39 40 140
4 39 38 40 140
4 39 41 96 140
4 20 140 38 96
4 41 6 140 97
4 41 140 6 96
4 6 20 140 97
4 6 140 20 96
4 20 40 140 97
4 20 140 40 38
4 98 32 43 99
4 44 43 45 99
4 45 43 32 99
4 32 45 99 22
4 8 22 32 99
4 8 42 98 4
4 8 32 98 99
4 98 32 8 4
4 98 8 44 42
4 44 8 98 99
4 44 43 98 42
4 98 43 44 99
4 100 48 47 101
4 48 100 5 101
4 33 101 100 47
4 101 5 33 100
4 48 100 47 46
4 23 9 33 101
4 46 100 5 48
4 49 33 101 23
4 49 47 48 101
4 5 9 48 101
4 9 33 101 5
4 33 49 101 47
4 50 25 103 51
4 50 44 51 103
4 37 8 102 7
4 14 102 8 7
4 50 25 102 103
4 50 102 25 14
4 8 102 25 103
4 8 25 102 14
4 8 44 102 103
4 8 102 44 37
4 50 102 44 103
4 50 44 102 37
4 48 9 104 105
4 52 105 48 104
4 53 105 48 52
4 52 24 53 105
4 104 48 52 41
4 41 9 104 48
4 41 9 6 104
4 9 104 15 6
4 9 104 24 15
4 9 24 104 105
4 52 24 104 15
4 52 104 24 105
4 107 54 106 35
4 29 54 107 55
4 55 35 107 42
4 4 35 42 107
4 55 35 54 107
4 18 4 106 3
4 35 4 106 107
4 35 106 4 3
4 54 29 106 18
4 54 106 29 107
4 4 106 29 18
4 4 29 106 107
4 39 5 109 108
4 5 46 39 109
4 39 57 109 46
4 5 39 2 108
4 5 2 19 108
4 56 108 28 19
4 5 28 108 19
4 5 108 28 109
4 56 28 109 57
4 109 28 56 108
4 109 39 56 57
4 56 39 109 108
4 10 82 20 110
4 10 82 110 11
4 82 21 20 110
4 82 11 21 110
4 82 10 20 6
4 10 82 11 6
4 82 6 20 2
4 7 21 3 82
4 21 2 82 20
4 82 11 6 7
4 2 21 82 3
4 82 11 7 21
4 23 33 83 111
4 22 23 83 111
4 22 83 32 111
4 33 83 111 32
4 9 23 33 83
4 22 23 9 83
4 83 22 32 8
4 5 83 32 4
4 8 32 83 4
4 33 83 32 5
4 9 33 5 83
4 9 22 83 8
4 81 15 9 112
4 112 8 81 14
4 81 14 15 112
4 9 112 8 81
4 81 15 6 9
4 8 14 7 81
4 15 7 81 6
4 14 81 15 7
4 112 9 8 24
4 24 8 112 25
4 15 24 9 112
4 112 8 14 25
4 80 28 19 113
4 19 113 18 80
4 80 29 28 113
4 80 29 113 18
4 19 3 80 18
4 2 5 19 80
4 80 28 5 19
4 19 3 2 80
4 4 18 80 3
4 29 80 28 4
4 28 4 80 5
4 80 29 18 4
4 3 114 85 4
4 7 114 8 85
4 3 114 7 85
4 114 4 8 85
4 114 7 8 37
4 114 3 7 35
4 35 4 42 114
4 3 114 4 35
4 35 7 114 37
4 8 42 114 44
4 4 114 8 42
4 114 8 44 37
4 48 84 5 115
4 115 84 39 41
4 41 84 48 115
4 39 5 84 115
4 5 46 48 115
4 46 5 39 115
4 41 2 84 39
4 39 5 2 84
4 2 41 84 6
4 9 5 48 84
4 41 9 84 6
4 9 41 84 48
4 85 77 4 73
4 4 77 83 73
4 66 84 1 76
4 71 84 1 66
4 85 67 0 73
4 79 67 8 73
4 68 7 69 67
4 4 78 77 75
4 75 3 70 68
4 68 0 75 85
4 74 80 70 75
4 66 79 9 76
4 71 74 2 70
4 67 0 68 85
4 6 71 69 66
4 2 74 80 70
4 74 84 2 80
4 85 0 77 73
4 0 77 75 85
4 1 84 72 76
4 77 78 4 83
4 8 83 79 73
4 79 83 9 76
4 79 9 8 81
4 83 9 8 79
4 82 7 6 69
4 67 8 7 81
4 7 6 69 81
4 67 7 8 85
4 83 8 4 73
4 85 4 8 73
4 74 78 72 80
4 80 4 3 75
4 4 3 75 85
4 82 3 7 68
4 68 3 7 85
4 70 3 2 82
4 8 67 85 73
4 80 3 2 70
4 4 5 78 80
4 78 5 4 83
4 79 8 67 81
4 81 9 6 66
4 67 68 7 85
4 67 7 69 81
4 84 6 9 66
4 70 80 3 75
4 71 2 6 82
4 84 2 6 71
4 82 70 3 68
4 68 75 3 85
4 75 77 4 85
4 81 79 9 66
4 2 84 74 71
4 6 69 81 66
4 69 82 7 68
4 9 84 66 76
4 6 71 82 69
4 78 4 80 75
4 71 6 84 66
4 83 79 73 76
4 2 71 70 82
4 72 78 5 80
4 84 5 2 80
4 78 76 83 77
4 81 69 67 66
4 70 82 69 68
4 67 79 81 66
4 74 78 80 75
4 73 77 83 76
4 71 70 82 69
4 72 71 84 1
4 72 84 71 74
4 80 72 84 5
4 80 84 72 74
4 78 72 83 76
4 83 72 78 5
4 84 9 83 76
4 83 9 84 5
4 72 84 83 76
4 83 84 72 5

CELL_TYPES 1071
1
1
1
1
1
1
1
1
1
1
1
1
1
1
1
1
1
1
1
1
1
1
1
1
1
1
1
1
1
1
1
1
1
1
1
1
1
1
1
1
1
1
1
1
1
1
1
1
1
1
1
1
1
1
1
1
1
1
1
1
1
1
1
1
1
1
3
3
3
3
3
3
3
3
3
3
3
3
3
3
3
3
3
3
3
3
3
3
3
3
3
3
3
3
3
3
3
3
3
3
3
3
3
3
3
3
3
3
3
3
3
3
3
3
3
3
3
3
3
3
3
3
3
3
3
3
3
3
3
3
3
3
3
3
3
3
3
3
3
3
3
3
3
3
3
3
3
3
3
3
3
3
3
3
3
3
3
3
3
3
3
3
3
3
3
3
3
3
3
3
3
3
3
3
3
3
3
3
3
3
3
3
3
3
3
3
3
3
3
3
3
3
3
3
3
3
3
3
3
3
3
3
3
3
3
3
3
3
3
3
3
3
3
5
5
5
5
5
5
5
5
5
5
5
5
5
5
5
5
5
5
5
5
5
5
5
5
5
5
5
5
5
5
5
5
5
5
5
5
5
5
5
5
5
5
5
5
5
5
5
5
5
5
5
5
5
5
5
5
5
5
5
5
5
5
5
5
5
5
5
5
5
5
5
5
5
5
5
5
5
5
5
5
5
5
5
5
5
5
5
5
5
5
5
5
5
5
5
5
5
5
5
5
5
5
5
5
5
5
5
5
5
5
5
5
5
5
5
5
5
5
5
5
5
5
5
5
5
5
5
5
5
5
5
5
5
5
5
5
5
5
5
5
5
5
5
5
5
5
5
5
5
5
5
5
5
5
5
5
5
5
5
5
5
5
5
5
5
5
5
5
5
5
5
5
5
5
5
5
5
5
5
5
5
5
5
5
5
5
5
5
5
5
5
5
5
5
5
5
5
5
5
5
5
5
5
5
5
5
5
5
5
5
5
5
5
5
5
5
5
5
5
5
5
5
5
5
5
5
5
5
5
5
5
5
5
5
5
5
5
5
5
5
5
5
5
5
5
5
5
5
5
5
5
5
5
5
5
5
5
5
5
5
5
5
5
5
5
5
5
5
5
5
5
5
5
5
5
5
5
5
5
5
5
5
5
5
5
5
5
5
5
5
5
5
5
5
5
5
5
5
5
5
5
5
5
5
5
5
5
5
5
5
5
5
5
5
5
5
5
5
5
5
5
5
5
5
5
5
5
5
5
5
5
5
5
5
5
5
5
5
5
5
5
5
5
5
5
5
5
5
5
5
5
5
5
5
5
5
5
5
5
5
5
5
5
5
10
10
10
10
10
10
10
10
10
10
10
10
10
10
10
10
10
10
10
10
10
10
10
10
10
10
10
10
10
10
10
10
10
10
10
10
10
10
10
10
10
10
10
10
10
10
10
10
10
10
10
10
10
10
10
10
10
10
10
10
10
10
10
10
10
10
10
10
10
10
10
10
10
10
10
10
10
10
10
10
10
10
10
10
10
10
10
10
10
10
10
10
10
10
10
10
10
10
10
10
10
10
10
10
10
10
10
10
10
10
10
10
10
10
10
10
10
10
10
10
10
10
10
10
10
10
10
10
10
10
10
10
10
10
10
10
10
10
10
10
10
10
10
10
10
10
10
10
10
10
10
10
10
10
10
10
10
10
10
10
10
10
10
10
10
10
10
10
10
10
10
10
10
10
10
10
10
10
10
10
10
10
10
10
10
10
10
10
10
10
10
10
10
10
10
10
10
10
10
10
10
10
10
10
10
10
10
10
10
10
10
10
10
10
10
10
10
10
10
10
10
10
10
10
10
10
10
10
10
10
10
10
10
10
10
10
10
10
10
10
10
10
10
10
10
10
10
10
10
10
10
10
10
10
10
10
10
10
10
10
10
10
10
10
10
10
10
10
10
10
10
10
10
10
10
10
10
10
10
10
10
10
10
10
10
10
10
10
10
10
10
10
10
10
10
10
10
10
10
10
10
10
10
10
10
10
10
10
10
10
10
10
10
10
10
10
10
10
10
10
10
10
10
10
10
10
10
10
10
10
10
10
10
10
10
10
10
10
10
10
10
10
10
10
10
10
10
10
10
10
10
10
10
10
10
10
10
10
10
10
10
10
10
10
10
10
10
10
10
10
10
10
10
10
10
10
10
10
10
10
10
10
10
10
10
10
10
10
10
10
10
10
10
10
10
10
10
10
10
10
10
10
10
10
10
10
10
10
10
10
10
10
10
10
10
10
10
10
10
10
10
10
10
10
10
10
10
10
10
10
10
10
10
10
10
10
10
10
10
10
10
10
10
10
10
10
10
10
10
10
10
10
10
10
10
10
10
10
10
10
10
10
10
10
10
10
10
10
10
10
10
10
10
10
10
10
10
10
10
10
10
10
10
10
10
10
10
10
10
10
10
10
10
10
