$MeshFormat
4.1 0 8
$EndMeshFormat
$Entities
66 147 109 27
217 3.059397907456968e-17 -7.493116232685377e-33 0.4996540966666775 0 
218 3.059397907456968e-17 -7.493116232685377e-33 -0.4996540966666775 0 
219 -0.999308193333355 -0.9993081933333549 -0.9993081933333549 0 
220 -0.999308193333355 -0.9993081933333549 0.999308193333355 0 
221 -0.999308193333355 0.999308193333355 0.999308193333355 0 
222 -0.999308193333355 0.999308193333355 -0.9993081933333549 0 
223 0.999308193333355 -0.999308193333355 -0.9993081933333549 0 
224 0.999308193333355 -0.999308193333355 0.999308193333355 0 
225 0.999308193333355 0.999308193333355 0.999308193333355 0 
226 0.999308193333355 0.999308193333355 -0.999308193333355 0 
227 0.9993081933333551 -1.498962290000033 -0.999308193333355 0 
228 0.9993081933333551 -1.498962290000033 0.9993081933333551 0 
229 1.498962290000033 -1.498962290000033 -0.9993081933333551 0 
230 1.498962290000033 -1.498962290000033 0.9993081933333551 0 
231 1.498962290000033 -0.999308193333355 0.9993081933333551 0 
232 1.498962290000033 -0.999308193333355 -0.999308193333355 0 
233 -1.498962290000033 -1.498962290000033 -0.9993081933333551 0 
234 -1.498962290000033 -1.498962290000033 0.9993081933333551 0 
235 -1.498962290000033 -0.999308193333355 0.9993081933333551 0 
236 -1.498962290000033 -0.999308193333355 -0.999308193333355 0 
237 -0.999308193333355 -1.498962290000033 -0.999308193333355 0 
238 -0.999308193333355 -1.498962290000033 0.9993081933333551 0 
239 0.9993081933333551 1.498962290000033 0.9993081933333551 0 
240 0.9993081933333551 1.498962290000033 -0.999308193333355 0 
241 1.498962290000033 0.9993081933333551 -0.999308193333355 0 
242 1.498962290000033 0.9993081933333551 0.9993081933333551 0 
243 1.498962290000033 1.498962290000033 0.9993081933333551 0 
244 1.498962290000033 1.498962290000033 -0.9993081933333551 0 
245 -1.498962290000033 0.9993081933333551 -0.999308193333355 0 
246 -1.498962290000033 0.9993081933333551 0.9993081933333551 0 
247 -1.498962290000033 1.498962290000033 0.9993081933333551 0 
248 -1.498962290000033 1.498962290000033 -0.9993081933333551 0 
249 -0.999308193333355 1.498962290000033 0.9993081933333551 0 
250 -0.999308193333355 1.498962290000033 -0.999308193333355 0 
251 -0.9993081933333551 -1.498962290000033 1.498962290000033 0 
252 -0.999308193333355 -0.999308193333355 1.498962290000033 0 
253 0.9993081933333551 -1.498962290000033 1.498962290000033 0 
254 0.9993081933333551 -0.999308193333355 1.498962290000033 0 
255 -0.9993081933333551 -1.498962290000033 -1.498962290000033 0 
256 -0.999308193333355 -0.999308193333355 -1.498962290000033 0 
257 0.9993081933333551 -1.498962290000033 -1.498962290000033 0 
258 0.9993081933333551 -0.999308193333355 -1.498962290000033 0 
259 -0.999308193333355 0.9993081933333551 1.498962290000033 0 
260 -0.9993081933333551 1.498962290000033 1.498962290000033 0 
261 0.9993081933333551 0.9993081933333551 1.498962290000033 0 
262 0.9993081933333551 1.498962290000033 1.498962290000033 0 
263 -0.999308193333355 0.9993081933333551 -1.498962290000033 0 
264 -0.9993081933333551 1.498962290000033 -1.498962290000033 0 
265 0.9993081933333551 0.9993081933333551 -1.498962290000033 0 
266 0.9993081933333551 1.498962290000033 -1.498962290000033 0 
267 1.498962290000033 -0.9993081933333551 1.498962290000033 0 
268 1.498962290000033 0.9993081933333551 1.498962290000033 0 
269 1.498962290000033 -0.9993081933333551 -1.498962290000033 0 
270 1.498962290000033 0.9993081933333551 -1.498962290000033 0 
271 -1.498962290000033 -0.9993081933333551 1.498962290000033 0 
272 -1.498962290000033 0.9993081933333551 1.498962290000033 0 
273 -1.498962290000033 -0.9993081933333551 -1.498962290000033 0 
274 -1.498962290000033 0.9993081933333551 -1.498962290000033 0 
275 -1.498962290000033 -1.498962290000033 1.498962290000033 0 
276 -1.498962290000033 -1.498962290000033 -1.498962290000033 0 
277 1.498962290000033 -1.498962290000033 1.498962290000033 0 
278 1.498962290000033 -1.498962290000033 -1.498962290000033 0 
279 1.498962290000033 1.498962290000033 1.498962290000033 0 
280 1.498962290000033 1.498962290000033 -1.498962290000033 0 
281 -1.498962290000033 1.498962290000033 1.498962290000033 0 
282 -1.498962290000033 1.498962290000033 -1.498962290000033 0 
325 -1.000000000308018e-07 -1.000000000307671e-07 0.4996539966666775 1.000000000308018e-07 1.000000000307671e-07 0.4996541966666775 0 2 217 -217 
326 -1.000000000861423e-07 -1.000000001223759e-07 -0.4996541966666775 0.4996541966666775 1e-07 0.4996541966666775 0 2 218 -217 
327 -1.000000000308018e-07 -1.000000000307671e-07 -0.4996541966666775 1.000000000308018e-07 1.000000000307671e-07 -0.4996539966666775 0 2 218 -218 
328 -0.9993082933333552 -0.9993082933333552 -0.9993082933333552 -0.9993080933333549 -0.9993080933333549 0.9993082933333552 0 2 219 -220 
329 -0.9993082933333551 -0.9993082933333551 0.999308093333355 -0.999308093333355 0.9993082933333551 0.9993082933333551 0 2 220 -221 
330 -0.9993082933333551 0.999308093333355 -0.9993082933333551 -0.999308093333355 0.9993082933333551 0.9993082933333551 0 2 222 -221 
331 -0.9993082933333552 -0.9993082933333552 -0.9993082933333552 -0.9993080933333549 0.9993082933333552 -0.9993080933333549 0 2 219 -222 
332 0.999308093333355 -0.9993082933333551 -0.9993082933333551 0.9993082933333551 -0.999308093333355 0.9993082933333551 0 2 223 -224 
333 0.9993080933333551 -0.999308293333355 0.9993080933333551 0.999308293333355 0.999308293333355 0.999308293333355 0 2 224 -225 
334 0.9993080933333551 0.9993080933333551 -0.999308293333355 0.999308293333355 0.999308293333355 0.999308293333355 0 2 226 -225 
335 0.999308093333355 -0.9993082933333551 -0.9993082933333551 0.9993082933333551 0.9993082933333551 -0.999308093333355 0 2 223 -226 
336 -0.9993082933333552 -0.9993082933333552 -0.9993082933333552 0.9993082933333552 -0.9993080933333549 -0.9993080933333549 0 2 219 -223 
337 -0.9993082933333551 -0.9993082933333551 0.999308093333355 0.9993082933333551 -0.999308093333355 0.9993082933333551 0 2 220 -224 
338 -0.9993082933333551 0.999308093333355 -0.9993082933333551 0.9993082933333551 0.9993082933333551 -0.999308093333355 0 2 222 -226 
339 -0.999308293333355 0.9993080933333551 0.9993080933333551 0.999308293333355 0.999308293333355 0.999308293333355 0 2 221 -225 
340 0.9993080933333551 -1.498962390000033 -0.999308293333355 0.999308293333355 -1.498962190000033 0.999308293333355 0 2 227 -228 
341 0.9993080933333551 -1.498962390000033 0.9993080933333551 0.999308293333355 -0.999308093333355 0.999308293333355 0 2 228 -224 
342 0.999308093333355 -1.498962390000033 -0.9993082933333551 0.9993082933333551 -0.9993080933333549 -0.999308093333355 0 2 227 -223 
343 1.498962190000033 -1.498962390000033 -0.999308293333355 1.498962390000033 -1.498962190000033 0.999308293333355 0 2 229 -230 
344 1.498962190000033 -1.498962390000033 0.9993080933333551 1.498962390000033 -0.999308093333355 0.999308293333355 0 2 230 -231 
345 1.498962190000033 -0.999308293333355 -0.9993082933333551 1.498962390000033 -0.9993080933333549 0.9993082933333551 0 2 232 -231 
346 1.498962190000033 -1.498962390000033 -0.9993082933333551 1.498962390000033 -0.9993080933333549 -0.999308093333355 0 2 229 -232 
347 0.999308093333355 -1.498962390000033 -0.9993082933333551 1.498962390000033 -1.498962190000033 -0.999308093333355 0 2 227 -229 
348 0.9993080933333551 -1.498962390000033 0.9993080933333551 1.498962390000033 -1.498962190000033 0.999308293333355 0 2 228 -230 
349 0.9993080933333549 -0.9993082933333551 -0.9993082933333552 1.498962390000033 -0.9993080933333548 -0.9993080933333549 0 2 223 -232 
350 0.999308093333355 -0.999308293333355 0.999308093333355 1.498962390000033 -0.9993080933333549 0.9993082933333551 0 2 224 -231 
351 -1.498962390000033 -1.498962390000033 -0.999308293333355 -1.498962190000033 -1.498962190000033 0.999308293333355 0 2 233 -234 
352 -1.498962390000033 -1.498962390000033 0.9993080933333551 -1.498962190000033 -0.999308093333355 0.999308293333355 0 2 234 -235 
353 -1.498962390000033 -0.999308293333355 -0.9993082933333551 -1.498962190000033 -0.9993080933333549 0.9993082933333551 0 2 236 -235 
354 -1.498962390000033 -1.498962390000033 -0.9993082933333551 -1.498962190000033 -0.9993080933333549 -0.999308093333355 0 2 233 -236 
355 -0.999308293333355 -1.498962390000033 -0.9993082933333551 -0.9993080933333549 -1.498962190000033 0.9993082933333551 0 2 237 -238 
356 -0.999308293333355 -1.498962390000033 0.999308093333355 -0.9993080933333549 -0.9993080933333549 0.9993082933333551 0 2 238 -220 
357 -0.9993082933333551 -1.498962390000033 -0.9993082933333552 -0.9993080933333548 -0.9993080933333548 -0.9993080933333549 0 2 237 -219 
358 -1.498962390000033 -1.498962390000033 -0.9993082933333551 -0.9993080933333549 -1.498962190000033 -0.999308093333355 0 2 233 -237 
359 -1.498962390000033 -1.498962390000033 0.9993080933333551 -0.999308093333355 -1.498962190000033 0.999308293333355 0 2 234 -238 
360 -1.498962390000033 -0.9993082933333551 -0.9993082933333552 -0.9993080933333548 -0.9993080933333548 -0.9993080933333549 0 2 236 -219 
361 -1.498962390000033 -0.999308293333355 0.999308093333355 -0.9993080933333549 -0.9993080933333549 0.9993082933333551 0 2 235 -220 
362 0.9993080933333551 0.9993080933333551 0.9993080933333551 0.999308293333355 1.498962390000033 0.999308293333355 0 2 225 -239 
363 0.9993080933333551 1.498962190000033 -0.999308293333355 0.999308293333355 1.498962390000033 0.999308293333355 0 2 240 -239 
364 0.999308093333355 0.999308093333355 -0.9993082933333551 0.9993082933333551 1.498962390000033 -0.999308093333355 0 2 226 -240 
365 1.498962190000033 0.9993080933333551 -0.999308293333355 1.498962390000033 0.999308293333355 0.999308293333355 0 2 241 -242 
366 1.498962190000033 0.9993080933333551 0.9993080933333551 1.498962390000033 1.498962390000033 0.999308293333355 0 2 242 -243 
367 1.498962190000033 1.498962190000033 -0.999308293333355 1.498962390000033 1.498962390000033 0.999308293333355 0 2 244 -243 
368 1.498962190000033 0.999308093333355 -0.9993082933333551 1.498962390000033 1.498962390000033 -0.999308093333355 0 2 241 -244 
369 0.999308093333355 0.999308093333355 -0.9993082933333551 1.498962390000033 0.9993082933333551 -0.999308093333355 0 2 226 -241 
370 0.9993080933333551 0.9993080933333551 0.9993080933333551 1.498962390000033 0.999308293333355 0.999308293333355 0 2 225 -242 
371 0.999308093333355 1.498962190000033 -0.9993082933333551 1.498962390000033 1.498962390000033 -0.999308093333355 0 2 240 -244 
372 0.9993080933333551 1.498962190000033 0.9993080933333551 1.498962390000033 1.498962390000033 0.999308293333355 0 2 239 -243 
373 -1.498962390000033 0.9993080933333551 -0.999308293333355 -1.498962190000033 0.999308293333355 0.999308293333355 0 2 245 -246 
374 -1.498962390000033 0.9993080933333551 0.9993080933333551 -1.498962190000033 1.498962390000033 0.999308293333355 0 2 246 -247 
375 -1.498962390000033 1.498962190000033 -0.999308293333355 -1.498962190000033 1.498962390000033 0.999308293333355 0 2 248 -247 
376 -1.498962390000033 0.999308093333355 -0.9993082933333551 -1.498962190000033 1.498962390000033 -0.999308093333355 0 2 245 -248 
377 -0.999308293333355 0.999308093333355 0.999308093333355 -0.9993080933333549 1.498962390000033 0.9993082933333551 0 2 221 -249 
378 -0.999308293333355 1.498962190000033 -0.9993082933333551 -0.9993080933333549 1.498962390000033 0.9993082933333551 0 2 250 -249 
379 -0.9993082933333551 0.9993080933333549 -0.9993082933333552 -0.9993080933333548 1.498962390000033 -0.9993080933333549 0 2 222 -250 
380 -1.498962390000033 0.999308093333355 -0.9993082933333551 -0.9993080933333549 0.9993082933333551 -0.999308093333355 0 2 245 -222 
381 -1.498962390000033 0.9993080933333551 0.9993080933333551 -0.999308093333355 0.999308293333355 0.999308293333355 0 2 246 -221 
382 -1.498962390000033 1.498962190000033 -0.9993082933333551 -0.9993080933333549 1.498962390000033 -0.999308093333355 0 2 248 -250 
383 -1.498962390000033 1.498962190000033 0.9993080933333551 -0.999308093333355 1.498962390000033 0.999308293333355 0 2 247 -249 
384 -0.9993082933333551 -1.498962390000033 0.999308093333355 -0.999308093333355 -1.498962190000033 1.498962390000033 0 2 238 -251 
385 -0.9993082933333551 -1.498962390000033 1.498962190000033 -0.999308093333355 -0.9993080933333549 1.498962390000033 0 2 251 -252 
386 -0.9993082933333552 -0.9993082933333551 0.9993080933333549 -0.9993080933333549 -0.9993080933333548 1.498962390000033 0 2 220 -252 
387 0.9993080933333551 -1.498962390000033 0.9993080933333551 0.999308293333355 -1.498962190000033 1.498962390000033 0 2 228 -253 
388 0.9993080933333551 -1.498962390000033 1.498962190000033 0.999308293333355 -0.999308093333355 1.498962390000033 0 2 253 -254 
389 0.999308093333355 -0.999308293333355 0.999308093333355 0.9993082933333551 -0.9993080933333549 1.498962390000033 0 2 224 -254 
390 -0.999308293333355 -1.498962390000033 0.9993080933333551 0.999308293333355 -1.498962190000033 0.999308293333355 0 2 238 -228 
391 -0.999308293333355 -1.498962390000033 1.498962190000033 0.999308293333355 -1.498962190000033 1.498962390000033 0 2 251 -253 
392 -0.9993082933333551 -0.999308293333355 1.498962190000033 0.9993082933333551 -0.9993080933333549 1.498962390000033 0 2 252 -254 
393 -0.9993082933333551 -1.498962390000033 -1.498962390000033 -0.999308093333355 -1.498962190000033 -0.9993080933333549 0 2 255 -237 
394 -0.9993082933333552 -0.9993082933333551 -1.498962390000033 -0.9993080933333549 -0.9993080933333548 -0.9993080933333548 0 2 256 -219 
395 -0.9993082933333551 -1.498962390000033 -1.498962390000033 -0.999308093333355 -0.9993080933333549 -1.498962190000033 0 2 255 -256 
396 0.9993080933333551 -1.498962390000033 -1.498962390000033 0.999308293333355 -1.498962190000033 -0.999308093333355 0 2 257 -227 
397 0.999308093333355 -0.999308293333355 -1.498962390000033 0.9993082933333551 -0.9993080933333549 -0.9993080933333549 0 2 258 -223 
398 0.9993080933333551 -1.498962390000033 -1.498962390000033 0.999308293333355 -0.999308093333355 -1.498962190000033 0 2 257 -258 
399 -0.999308293333355 -1.498962390000033 -1.498962390000033 0.999308293333355 -1.498962190000033 -1.498962190000033 0 2 255 -257 
400 -0.9993082933333551 -1.498962390000033 -0.999308293333355 0.9993082933333551 -1.498962190000033 -0.9993080933333549 0 2 237 -227 
401 -0.9993082933333551 -0.999308293333355 -1.498962390000033 0.9993082933333551 -0.9993080933333549 -1.498962190000033 0 2 256 -258 
402 -0.9993082933333551 0.999308093333355 0.999308093333355 -0.999308093333355 0.9993082933333551 1.498962390000033 0 2 221 -259 
403 -0.9993082933333551 0.999308093333355 1.498962190000033 -0.999308093333355 1.498962390000033 1.498962390000033 0 2 259 -260 
404 -0.9993082933333551 1.498962190000033 0.999308093333355 -0.999308093333355 1.498962390000033 1.498962390000033 0 2 249 -260 
405 0.9993080933333551 0.9993080933333551 0.9993080933333551 0.999308293333355 0.999308293333355 1.498962390000033 0 2 225 -261 
406 0.9993080933333551 0.9993080933333551 1.498962190000033 0.999308293333355 1.498962390000033 1.498962390000033 0 2 261 -262 
407 0.9993080933333551 1.498962190000033 0.9993080933333551 0.999308293333355 1.498962390000033 1.498962390000033 0 2 239 -262 
408 -0.999308293333355 0.9993080933333551 1.498962190000033 0.999308293333355 0.999308293333355 1.498962390000033 0 2 259 -261 
409 -0.999308293333355 1.498962190000033 0.9993080933333551 0.999308293333355 1.498962390000033 0.999308293333355 0 2 249 -239 
410 -0.999308293333355 1.498962190000033 1.498962190000033 0.999308293333355 1.498962390000033 1.498962390000033 0 2 260 -262 
411 -0.9993082933333551 0.999308093333355 -1.498962390000033 -0.999308093333355 0.9993082933333551 -0.9993080933333549 0 2 263 -222 
412 -0.9993082933333551 1.498962190000033 -1.498962390000033 -0.999308093333355 1.498962390000033 -0.9993080933333549 0 2 264 -250 
413 -0.9993082933333551 0.999308093333355 -1.498962390000033 -0.999308093333355 1.498962390000033 -1.498962190000033 0 2 263 -264 
414 0.9993080933333551 0.9993080933333551 -1.498962390000033 0.999308293333355 0.999308293333355 -0.999308093333355 0 2 265 -226 
415 0.9993080933333551 1.498962190000033 -1.498962390000033 0.999308293333355 1.498962390000033 -0.999308093333355 0 2 266 -240 
416 0.9993080933333551 0.9993080933333551 -1.498962390000033 0.999308293333355 1.498962390000033 -1.498962190000033 0 2 265 -266 
417 -0.999308293333355 0.9993080933333551 -1.498962390000033 0.999308293333355 0.999308293333355 -1.498962190000033 0 2 263 -265 
418 -0.999308293333355 1.498962190000033 -1.498962390000033 0.999308293333355 1.498962390000033 -1.498962190000033 0 2 264 -266 
419 -0.9993082933333551 1.498962190000033 -0.999308293333355 0.9993082933333551 1.498962390000033 -0.9993080933333549 0 2 250 -240 
420 0.9993080933333551 -0.999308293333355 1.498962190000033 0.999308293333355 0.999308293333355 1.498962390000033 0 2 254 -261 
421 1.498962190000033 -0.9993082933333551 0.999308093333355 1.498962390000033 -0.999308093333355 1.498962390000033 0 2 231 -267 
422 1.498962190000033 -0.999308293333355 1.498962190000033 1.498962390000033 0.999308293333355 1.498962390000033 0 2 267 -268 
423 1.498962190000033 0.9993080933333551 0.9993080933333551 1.498962390000033 0.999308293333355 1.498962390000033 0 2 242 -268 
424 1.498962190000033 -0.999308293333355 0.9993080933333551 1.498962390000033 0.999308293333355 0.999308293333355 0 2 231 -242 
425 0.999308093333355 -0.9993082933333551 1.498962190000033 1.498962390000033 -0.999308093333355 1.498962390000033 0 2 254 -267 
426 0.9993080933333551 0.9993080933333551 1.498962190000033 1.498962390000033 0.999308293333355 1.498962390000033 0 2 261 -268 
427 0.9993080933333551 -0.999308293333355 -1.498962390000033 0.999308293333355 0.999308293333355 -1.498962190000033 0 2 258 -265 
428 1.498962190000033 -0.9993082933333551 -1.498962390000033 1.498962390000033 -0.999308093333355 -0.9993080933333549 0 2 269 -232 
429 1.498962190000033 -0.9993082933333551 -0.999308293333355 1.498962390000033 0.9993082933333551 -0.9993080933333549 0 2 232 -241 
430 1.498962190000033 0.9993080933333551 -1.498962390000033 1.498962390000033 0.999308293333355 -0.999308093333355 0 2 270 -241 
431 1.498962190000033 -0.999308293333355 -1.498962390000033 1.498962390000033 0.999308293333355 -1.498962190000033 0 2 269 -270 
432 0.999308093333355 -0.9993082933333551 -1.498962390000033 1.498962390000033 -0.999308093333355 -1.498962190000033 0 2 258 -269 
433 0.9993080933333551 0.9993080933333551 -1.498962390000033 1.498962390000033 0.999308293333355 -1.498962190000033 0 2 265 -270 
434 -1.498962390000033 -0.9993082933333551 0.999308093333355 -1.498962190000033 -0.999308093333355 1.498962390000033 0 2 235 -271 
435 -1.498962390000033 -0.999308293333355 1.498962190000033 -1.498962190000033 0.999308293333355 1.498962390000033 0 2 271 -272 
436 -1.498962390000033 0.9993080933333551 0.9993080933333551 -1.498962190000033 0.999308293333355 1.498962390000033 0 2 246 -272 
437 -1.498962390000033 -0.999308293333355 0.9993080933333551 -1.498962190000033 0.999308293333355 0.999308293333355 0 2 235 -246 
438 -0.999308293333355 -0.9993082933333551 1.498962190000033 -0.9993080933333549 0.9993082933333551 1.498962390000033 0 2 252 -259 
439 -1.498962390000033 -0.9993082933333551 1.498962190000033 -0.9993080933333549 -0.999308093333355 1.498962390000033 0 2 271 -252 
440 -1.498962390000033 0.9993080933333551 1.498962190000033 -0.999308093333355 0.999308293333355 1.498962390000033 0 2 272 -259 
441 -1.498962390000033 -0.9993082933333551 -1.498962390000033 -1.498962190000033 -0.999308093333355 -0.9993080933333549 0 2 273 -236 
442 -1.498962390000033 -0.9993082933333551 -0.999308293333355 -1.498962190000033 0.9993082933333551 -0.9993080933333549 0 2 236 -245 
443 -1.498962390000033 0.9993080933333551 -1.498962390000033 -1.498962190000033 0.999308293333355 -0.999308093333355 0 2 274 -245 
444 -1.498962390000033 -0.999308293333355 -1.498962390000033 -1.498962190000033 0.999308293333355 -1.498962190000033 0 2 273 -274 
445 -0.999308293333355 -0.9993082933333551 -1.498962390000033 -0.9993080933333549 0.9993082933333551 -1.498962190000033 0 2 256 -263 
446 -1.498962390000033 -0.9993082933333551 -1.498962390000033 -0.9993080933333549 -0.999308093333355 -1.498962190000033 0 2 273 -256 
447 -1.498962390000033 0.9993080933333551 -1.498962390000033 -0.999308093333355 0.999308293333355 -1.498962190000033 0 2 274 -263 
448 -1.498962390000033 -1.498962390000033 0.9993080933333551 -1.498962190000033 -1.498962190000033 1.498962390000033 0 2 234 -275 
449 -1.498962390000033 -1.498962390000033 1.498962190000033 -1.498962190000033 -0.999308093333355 1.498962390000033 0 2 275 -271 
450 -1.498962390000033 -1.498962390000033 1.498962190000033 -0.999308093333355 -1.498962190000033 1.498962390000033 0 2 275 -251 
451 -1.498962390000033 -1.498962390000033 -1.498962390000033 -1.498962190000033 -1.498962190000033 -0.999308093333355 0 2 276 -233 
452 -1.498962390000033 -1.498962390000033 -1.498962390000033 -1.498962190000033 -0.999308093333355 -1.498962190000033 0 2 276 -273 
453 -1.498962390000033 -1.498962390000033 -1.498962390000033 -0.999308093333355 -1.498962190000033 -1.498962190000033 0 2 276 -255 
454 1.498962190000033 -1.498962390000033 0.9993080933333551 1.498962390000033 -1.498962190000033 1.498962390000033 0 2 230 -277 
455 1.498962190000033 -1.498962390000033 1.498962190000033 1.498962390000033 -0.999308093333355 1.498962390000033 0 2 277 -267 
456 0.9993080933333551 -1.498962390000033 1.498962190000033 1.498962390000033 -1.498962190000033 1.498962390000033 0 2 253 -277 
457 1.498962190000033 -1.498962390000033 -1.498962390000033 1.498962390000033 -1.498962190000033 -0.999308093333355 0 2 278 -229 
458 1.498962190000033 -1.498962390000033 -1.498962390000033 1.498962390000033 -0.999308093333355 -1.498962190000033 0 2 278 -269 
459 0.9993080933333551 -1.498962390000033 -1.498962390000033 1.498962390000033 -1.498962190000033 -1.498962190000033 0 2 257 -278 
460 1.498962190000033 0.9993080933333551 1.498962190000033 1.498962390000033 1.498962390000033 1.498962390000033 0 2 268 -279 
461 1.498962190000033 1.498962190000033 0.9993080933333551 1.498962390000033 1.498962390000033 1.498962390000033 0 2 243 -279 
462 0.9993080933333551 1.498962190000033 1.498962190000033 1.498962390000033 1.498962390000033 1.498962390000033 0 2 262 -279 
463 1.498962190000033 1.498962190000033 -1.498962390000033 1.498962390000033 1.498962390000033 -0.999308093333355 0 2 280 -244 
464 1.498962190000033 0.9993080933333551 -1.498962390000033 1.498962390000033 1.498962390000033 -1.498962190000033 0 2 270 -280 
465 0.9993080933333551 1.498962190000033 -1.498962390000033 1.498962390000033 1.498962390000033 -1.498962190000033 0 2 266 -280 
466 -1.498962390000033 0.9993080933333551 1.498962190000033 -1.498962190000033 1.498962390000033 1.498962390000033 0 2 272 -281 
467 -1.498962390000033 1.498962190000033 0.9993080933333551 -1.498962190000033 1.498962390000033 1.498962390000033 0 2 247 -281 
468 -1.498962390000033 1.498962190000033 1.498962190000033 -0.999308093333355 1.498962390000033 1.498962390000033 0 2 281 -260 
469 -1.498962390000033 1.498962190000033 -1.498962390000033 -1.498962190000033 1.498962390000033 -0.999308093333355 0 2 282 -248 
470 -1.498962390000033 0.9993080933333551 -1.498962390000033 -1.498962190000033 1.498962390000033 -1.498962190000033 0 2 274 -282 
471 -1.498962390000033 1.498962190000033 -1.498962390000033 -0.999308093333355 1.498962390000033 -1.498962190000033 0 2 282 -264 
163 -0.4996541966666775 -0.4996541966666775 -0.4996541966666775 0.4996541966666775 0.4996541966666775 0.4996541966666775 0 4 -325 -326 327 326 
164 -0.9993082933333552 -0.9993082933333552 -0.9993082933333552 -0.9993080933333549 0.9993082933333552 0.9993082933333552 0 4 -328 331 330 -329 
165 0.999308093333355 -0.9993082933333551 -0.9993082933333551 0.9993082933333551 0.9993082933333551 0.9993082933333551 0 4 -332 335 334 -333 
166 -0.9993082933333552 -0.9993082933333552 -0.9993082933333552 0.9993082933333552 -0.9993080933333549 0.9993082933333552 0 4 -336 328 337 -332 
167 -0.9993082933333551 0.999308093333355 -0.9993082933333551 0.9993082933333551 0.9993082933333551 0.9993082933333551 0 4 -338 330 339 -334 
168 -0.9993082933333552 -0.9993082933333552 -0.9993082933333552 0.9993082933333552 0.9993082933333552 -0.9993080933333549 0 4 -331 336 335 -338 
169 -0.9993082933333551 -0.9993082933333551 0.999308093333355 0.9993082933333551 0.9993082933333551 0.9993082933333551 0 4 -329 337 333 -339 
170 0.999308093333355 -1.498962390000033 -0.9993082933333551 0.9993082933333551 -0.9993080933333549 0.9993082933333551 0 4 -340 342 332 -341 
171 1.498962190000033 -1.498962390000033 -0.9993082933333551 1.498962390000033 -0.9993080933333549 0.9993082933333551 0 4 -343 346 345 -344 
172 0.999308093333355 -1.498962390000033 -0.9993082933333551 1.498962390000033 -1.498962190000033 0.9993082933333551 0 4 -347 340 348 -343 
173 0.9993080933333549 -0.9993082933333552 -0.9993082933333552 1.498962390000033 -0.9993080933333548 0.9993082933333552 0 4 -349 332 350 -345 
174 0.9993080933333549 -1.498962390000033 -0.9993082933333552 1.498962390000033 -0.9993080933333548 -0.9993080933333549 0 4 -342 347 346 -349 
175 0.999308093333355 -1.498962390000033 0.999308093333355 1.498962390000033 -0.9993080933333549 0.9993082933333551 0 4 -341 348 344 -350 
176 -1.498962390000033 -1.498962390000033 -0.9993082933333551 -1.498962190000033 -0.9993080933333549 0.9993082933333551 0 4 -351 354 353 -352 
177 -0.9993082933333552 -1.498962390000033 -0.9993082933333552 -0.9993080933333548 -0.9993080933333548 0.9993082933333552 0 4 -355 357 328 -356 
178 -1.498962390000033 -1.498962390000033 -0.9993082933333551 -0.9993080933333549 -1.498962190000033 0.9993082933333551 0 4 -358 351 359 -355 
179 -1.498962390000033 -0.9993082933333552 -0.9993082933333552 -0.9993080933333548 -0.9993080933333548 0.9993082933333552 0 4 -360 353 361 -328 
180 -1.498962390000033 -1.498962390000033 -0.9993082933333552 -0.9993080933333548 -0.9993080933333548 -0.9993080933333549 0 4 -354 358 357 -360 
181 -1.498962390000033 -1.498962390000033 0.999308093333355 -0.9993080933333549 -0.9993080933333549 0.9993082933333551 0 4 -352 359 356 -361 
182 0.999308093333355 0.999308093333355 -0.9993082933333551 0.9993082933333551 1.498962390000033 0.9993082933333551 0 4 -334 364 363 -362 
183 1.498962190000033 0.999308093333355 -0.9993082933333551 1.498962390000033 1.498962390000033 0.9993082933333551 0 4 -365 368 367 -366 
184 0.999308093333355 0.999308093333355 -0.9993082933333551 1.498962390000033 0.9993082933333551 0.9993082933333551 0 4 -369 334 370 -365 
185 0.999308093333355 1.498962190000033 -0.9993082933333551 1.498962390000033 1.498962390000033 0.9993082933333551 0 4 -371 363 372 -367 
186 0.999308093333355 0.999308093333355 -0.9993082933333551 1.498962390000033 1.498962390000033 -0.999308093333355 0 4 -364 369 368 -371 
187 0.9993080933333551 0.9993080933333551 0.9993080933333551 1.498962390000033 1.498962390000033 0.999308293333355 0 4 -362 370 366 -372 
188 -1.498962390000033 0.999308093333355 -0.9993082933333551 -1.498962190000033 1.498962390000033 0.9993082933333551 0 4 -373 376 375 -374 
189 -0.9993082933333552 0.9993080933333549 -0.9993082933333552 -0.9993080933333548 1.498962390000033 0.9993082933333552 0 4 -330 379 378 -377 
190 -1.498962390000033 0.999308093333355 -0.9993082933333551 -0.9993080933333549 0.9993082933333551 0.9993082933333551 0 4 -380 373 381 -330 
191 -1.498962390000033 1.498962190000033 -0.9993082933333551 -0.9993080933333549 1.498962390000033 0.9993082933333551 0 4 -382 375 383 -378 
192 -1.498962390000033 0.9993080933333549 -0.9993082933333552 -0.9993080933333548 1.498962390000033 -0.9993080933333549 0 4 -376 380 379 -382 
193 -1.498962390000033 0.999308093333355 0.999308093333355 -0.9993080933333549 1.498962390000033 0.9993082933333551 0 4 -374 381 377 -383 
194 -0.9993082933333552 -1.498962390000033 0.9993080933333549 -0.9993080933333548 -0.9993080933333548 1.498962390000033 0 4 -384 356 386 -385 
195 0.999308093333355 -1.498962390000033 0.999308093333355 0.9993082933333551 -0.9993080933333549 1.498962390000033 0 4 -387 341 389 -388 
196 -0.9993082933333551 -1.498962390000033 0.999308093333355 0.9993082933333551 -1.498962190000033 1.498962390000033 0 4 -390 384 391 -387 
197 -0.9993082933333552 -0.9993082933333552 0.9993080933333549 0.9993082933333552 -0.9993080933333548 1.498962390000033 0 4 -337 386 392 -389 
198 -0.9993082933333551 -1.498962390000033 0.999308093333355 0.9993082933333551 -0.9993080933333549 0.9993082933333551 0 4 -356 390 341 -337 
199 -0.9993082933333551 -1.498962390000033 1.498962190000033 0.9993082933333551 -0.9993080933333549 1.498962390000033 0 4 -385 391 388 -392 
200 -0.9993082933333552 -1.498962390000033 -1.498962390000033 -0.9993080933333548 -0.9993080933333548 -0.9993080933333548 0 4 -393 395 394 -357 
201 0.999308093333355 -1.498962390000033 -1.498962390000033 0.9993082933333551 -0.9993080933333549 -0.9993080933333549 0 4 -396 398 397 -342 
202 -0.9993082933333551 -1.498962390000033 -1.498962390000033 0.9993082933333551 -1.498962190000033 -0.9993080933333549 0 4 -399 393 400 -396 
203 -0.9993082933333552 -0.9993082933333552 -1.498962390000033 0.9993082933333552 -0.9993080933333548 -0.9993080933333548 0 4 -401 394 336 -397 
204 -0.9993082933333551 -1.498962390000033 -1.498962390000033 0.9993082933333551 -0.9993080933333549 -1.498962190000033 0 4 -395 399 398 -401 
205 -0.9993082933333552 -1.498962390000033 -0.9993082933333552 0.9993082933333552 -0.9993080933333548 -0.9993080933333548 0 4 -357 400 342 -336 
206 -0.9993082933333551 0.999308093333355 0.999308093333355 -0.9993080933333549 1.498962390000033 1.498962390000033 0 4 -402 377 404 -403 
207 0.9993080933333551 0.9993080933333551 0.9993080933333551 0.999308293333355 1.498962390000033 1.498962390000033 0 4 -405 362 407 -406 
208 -0.9993082933333551 0.999308093333355 0.999308093333355 0.9993082933333551 0.9993082933333551 1.498962390000033 0 4 -339 402 408 -405 
209 -0.9993082933333551 1.498962190000033 0.999308093333355 0.9993082933333551 1.498962390000033 1.498962390000033 0 4 -409 404 410 -407 
210 -0.9993082933333551 0.999308093333355 0.999308093333355 0.9993082933333551 1.498962390000033 0.9993082933333551 0 4 -377 339 362 -409 
211 -0.9993082933333551 0.999308093333355 1.498962190000033 0.9993082933333551 1.498962390000033 1.498962390000033 0 4 -403 408 406 -410 
212 -0.9993082933333552 0.9993080933333549 -1.498962390000033 -0.9993080933333548 1.498962390000033 -0.9993080933333548 0 4 -411 413 412 -379 
213 0.999308093333355 0.999308093333355 -1.498962390000033 0.9993082933333551 1.498962390000033 -0.9993080933333549 0 4 -414 416 415 -364 
214 -0.9993082933333551 0.999308093333355 -1.498962390000033 0.9993082933333551 0.9993082933333551 -0.9993080933333549 0 4 -417 411 338 -414 
215 -0.9993082933333551 1.498962190000033 -1.498962390000033 0.9993082933333551 1.498962390000033 -0.9993080933333549 0 4 -418 412 419 -415 
216 -0.9993082933333551 0.999308093333355 -1.498962390000033 0.9993082933333551 1.498962390000033 -1.498962190000033 0 4 -413 417 416 -418 
217 -0.9993082933333552 0.9993080933333549 -0.9993082933333552 0.9993082933333552 1.498962390000033 -0.9993080933333548 0 4 -379 338 364 -419 
218 0.999308093333355 -0.9993082933333551 0.999308093333355 0.9993082933333551 0.9993082933333551 1.498962390000033 0 4 -389 333 405 -420 
219 1.498962190000033 -0.9993082933333551 0.999308093333355 1.498962390000033 0.9993082933333551 1.498962390000033 0 4 -421 424 423 -422 
220 0.999308093333355 -0.9993082933333551 0.999308093333355 1.498962390000033 -0.9993080933333549 1.498962390000033 0 4 -350 389 425 -421 
221 0.9993080933333551 0.9993080933333551 0.9993080933333551 1.498962390000033 0.999308293333355 1.498962390000033 0 4 -370 405 426 -423 
222 0.999308093333355 -0.9993082933333551 0.999308093333355 1.498962390000033 0.9993082933333551 0.9993082933333551 0 4 -333 350 424 -370 
223 0.999308093333355 -0.9993082933333551 1.498962190000033 1.498962390000033 0.9993082933333551 1.498962390000033 0 4 -420 425 422 -426 
224 0.999308093333355 -0.9993082933333551 -1.498962390000033 0.9993082933333551 0.9993082933333551 -0.9993080933333549 0 4 -397 427 414 -335 
225 1.498962190000033 -0.9993082933333551 -1.498962390000033 1.498962390000033 0.9993082933333551 -0.9993080933333549 0 4 -428 431 430 -429 
226 0.9993080933333549 -0.9993082933333552 -1.498962390000033 1.498962390000033 -0.9993080933333548 -0.9993080933333548 0 4 -432 397 349 -428 
227 0.999308093333355 0.999308093333355 -1.498962390000033 1.498962390000033 0.9993082933333551 -0.9993080933333549 0 4 -433 414 369 -430 
228 0.999308093333355 -0.9993082933333551 -1.498962390000033 1.498962390000033 0.9993082933333551 -1.498962190000033 0 4 -427 432 431 -433 
229 0.9993080933333549 -0.9993082933333552 -0.9993082933333552 1.498962390000033 0.9993082933333552 -0.9993080933333548 0 4 -335 349 429 -369 
230 -1.498962390000033 -0.9993082933333551 0.999308093333355 -1.498962190000033 0.9993082933333551 1.498962390000033 0 4 -434 437 436 -435 
231 -0.9993082933333552 -0.9993082933333552 0.9993080933333549 -0.9993080933333548 0.9993082933333552 1.498962390000033 0 4 -386 329 402 -438 
232 -1.498962390000033 -0.9993082933333552 0.9993080933333549 -0.9993080933333548 -0.9993080933333548 1.498962390000033 0 4 -361 434 439 -386 
233 -1.498962390000033 0.999308093333355 0.999308093333355 -0.9993080933333549 0.9993082933333551 1.498962390000033 0 4 -381 436 440 -402 
234 -1.498962390000033 -0.9993082933333551 0.999308093333355 -0.9993080933333549 0.9993082933333551 0.9993082933333551 0 4 -437 361 329 -381 
235 -1.498962390000033 -0.9993082933333551 1.498962190000033 -0.9993080933333549 0.9993082933333551 1.498962390000033 0 4 -435 439 438 -440 
236 -1.498962390000033 -0.9993082933333551 -1.498962390000033 -1.498962190000033 0.9993082933333551 -0.9993080933333549 0 4 -441 444 443 -442 
237 -0.9993082933333552 -0.9993082933333552 -1.498962390000033 -0.9993080933333548 0.9993082933333552 -0.9993080933333548 0 4 -394 445 411 -331 
238 -1.498962390000033 -0.9993082933333552 -1.498962390000033 -0.9993080933333548 -0.9993080933333548 -0.9993080933333548 0 4 -446 441 360 -394 
239 -1.498962390000033 0.999308093333355 -1.498962390000033 -0.9993080933333549 0.9993082933333551 -0.9993080933333549 0 4 -447 443 380 -411 
240 -1.498962390000033 -0.9993082933333551 -1.498962390000033 -0.9993080933333549 0.9993082933333551 -1.498962190000033 0 4 -444 446 445 -447 
241 -1.498962390000033 -0.9993082933333552 -0.9993082933333552 -0.9993080933333548 0.9993082933333552 -0.9993080933333548 0 4 -442 360 331 -380 
242 -0.9993082933333551 -1.498962390000033 -0.9993082933333551 0.9993082933333551 -1.498962190000033 0.9993082933333551 0 4 -400 355 390 -340 
243 -0.9993082933333551 1.498962190000033 -0.9993082933333551 0.9993082933333551 1.498962390000033 0.9993082933333551 0 4 -419 378 409 -363 
244 1.498962190000033 -0.9993082933333551 -0.9993082933333551 1.498962390000033 0.9993082933333551 0.9993082933333551 0 4 -345 429 365 -424 
245 -1.498962390000033 -0.9993082933333551 -0.9993082933333551 -1.498962190000033 0.9993082933333551 0.9993082933333551 0 4 -353 442 373 -437 
246 -0.9993082933333551 -0.9993082933333551 1.498962190000033 0.9993082933333551 0.9993082933333551 1.498962390000033 0 4 -438 392 420 -408 
247 -0.9993082933333551 -0.9993082933333551 -1.498962390000033 0.9993082933333551 0.9993082933333551 -1.498962190000033 0 4 -445 401 427 -417 
248 -1.498962390000033 -1.498962390000033 0.999308093333355 -1.498962190000033 -0.9993080933333549 1.498962390000033 0 4 -448 352 434 -449 
249 -1.498962390000033 -1.498962390000033 0.999308093333355 -0.9993080933333549 -1.498962190000033 1.498962390000033 0 4 -359 448 450 -384 
250 -1.498962390000033 -1.498962390000033 1.498962190000033 -0.9993080933333549 -0.9993080933333549 1.498962390000033 0 4 -449 450 385 -439 
251 -1.498962390000033 -1.498962390000033 -1.498962390000033 -1.498962190000033 -0.9993080933333549 -0.9993080933333549 0 4 -451 452 441 -354 
252 -1.498962390000033 -1.498962390000033 -1.498962390000033 -0.9993080933333549 -1.498962190000033 -0.9993080933333549 0 4 -453 451 358 -393 
253 -1.498962390000033 -1.498962390000033 -1.498962390000033 -0.9993080933333549 -0.9993080933333549 -1.498962190000033 0 4 -452 453 395 -446 
254 1.498962190000033 -1.498962390000033 0.999308093333355 1.498962390000033 -0.9993080933333549 1.498962390000033 0 4 -454 344 421 -455 
255 0.9993080933333551 -1.498962390000033 0.9993080933333551 1.498962390000033 -1.498962190000033 1.498962390000033 0 4 -348 387 456 -454 
256 0.999308093333355 -1.498962390000033 1.498962190000033 1.498962390000033 -0.9993080933333549 1.498962390000033 0 4 -388 456 455 -425 
257 1.498962190000033 -1.498962390000033 -1.498962390000033 1.498962390000033 -0.9993080933333549 -0.9993080933333549 0 4 -457 458 428 -346 
258 0.999308093333355 -1.498962390000033 -1.498962390000033 1.498962390000033 -1.498962190000033 -0.9993080933333549 0 4 -459 396 347 -457 
259 0.999308093333355 -1.498962390000033 -1.498962390000033 1.498962390000033 -0.9993080933333549 -1.498962190000033 0 4 -398 459 458 -432 
260 1.498962190000033 0.9993080933333551 0.9993080933333551 1.498962390000033 1.498962390000033 1.498962390000033 0 4 -423 366 461 -460 
261 0.9993080933333551 1.498962190000033 0.9993080933333551 1.498962390000033 1.498962390000033 1.498962390000033 0 4 -372 407 462 -461 
262 0.9993080933333551 0.9993080933333551 1.498962190000033 1.498962390000033 1.498962390000033 1.498962390000033 0 4 -406 426 460 -462 
263 1.498962190000033 0.999308093333355 -1.498962390000033 1.498962390000033 1.498962390000033 -0.9993080933333549 0 4 -430 464 463 -368 
264 0.999308093333355 1.498962190000033 -1.498962390000033 1.498962390000033 1.498962390000033 -0.9993080933333549 0 4 -465 415 371 -463 
265 0.9993080933333551 0.9993080933333551 -1.498962390000033 1.498962390000033 1.498962390000033 -1.498962190000033 0 4 -416 433 464 -465 
266 -1.498962390000033 0.9993080933333551 0.9993080933333551 -1.498962190000033 1.498962390000033 1.498962390000033 0 4 -436 374 467 -466 
267 -1.498962390000033 1.498962190000033 0.999308093333355 -0.9993080933333549 1.498962390000033 1.498962390000033 0 4 -383 467 468 -404 
268 -1.498962390000033 0.999308093333355 1.498962190000033 -0.9993080933333549 1.498962390000033 1.498962390000033 0 4 -466 440 403 -468 
269 -1.498962390000033 0.999308093333355 -1.498962390000033 -1.498962190000033 1.498962390000033 -0.9993080933333549 0 4 -443 470 469 -376 
270 -1.498962390000033 1.498962190000033 -1.498962390000033 -0.9993080933333549 1.498962390000033 -0.9993080933333549 0 4 -471 469 382 -412 
271 -1.498962390000033 0.999308093333355 -1.498962390000033 -0.9993080933333549 1.498962390000033 -1.498962190000033 0 4 -470 447 413 -471 
1 -1.498962390000033 -1.498962390000033 0.9993080933333549 -0.9993080933333548 -0.9993080933333548 1.498962390000033 0 6 -248 194 -249 232 -181 250 
2 -1.498962390000033 -1.498962390000033 -1.498962390000033 -0.9993080933333548 -0.9993080933333548 -0.9993080933333548 0 6 -251 200 -252 238 -253 180 
3 0.999308093333355 -1.498962390000033 0.999308093333355 1.498962390000033 -0.9993080933333549 1.498962390000033 0 6 -195 254 -255 220 -175 256 
4 0.9993080933333549 -1.498962390000033 -1.498962390000033 1.498962390000033 -0.9993080933333548 -0.9993080933333548 0 6 -201 257 -258 226 -259 174 
5 0.9993080933333551 0.9993080933333551 0.9993080933333551 1.498962390000033 1.498962390000033 1.498962390000033 0 6 -207 260 -221 261 -187 262 
6 0.999308093333355 0.999308093333355 -1.498962390000033 1.498962390000033 1.498962390000033 -0.9993080933333549 0 6 -213 263 -227 264 -265 186 
7 -1.498962390000033 0.999308093333355 0.999308093333355 -0.9993080933333549 1.498962390000033 1.498962390000033 0 6 -266 206 -233 267 -193 268 
8 -1.498962390000033 0.9993080933333549 -1.498962390000033 -0.9993080933333548 1.498962390000033 -0.9993080933333548 0 6 -269 212 -239 270 -271 192 
9 0.9993080933333549 -1.498962390000033 -0.9993082933333552 1.498962390000033 -0.9993080933333548 0.9993082933333552 0 6 -170 171 -172 173 -174 175 
10 -1.498962390000033 -1.498962390000033 -0.9993082933333552 -0.9993080933333548 -0.9993080933333548 0.9993082933333552 0 6 -176 177 -178 179 -180 181 
11 0.999308093333355 0.999308093333355 -0.9993082933333551 1.498962390000033 1.498962390000033 0.9993082933333551 0 6 -182 183 -184 185 -186 187 
12 -1.498962390000033 0.9993080933333549 -0.9993082933333552 -0.9993080933333548 1.498962390000033 0.9993082933333552 0 6 -188 189 -190 191 -192 193 
13 -0.9993082933333552 -1.498962390000033 0.9993080933333549 0.9993082933333552 -0.9993080933333548 1.498962390000033 0 6 -194 195 -196 197 -198 199 
14 -0.9993082933333552 -1.498962390000033 -1.498962390000033 0.9993082933333552 -0.9993080933333548 -0.9993080933333548 0 6 -200 201 -202 203 -204 205 
15 -0.9993082933333551 0.999308093333355 0.999308093333355 0.9993082933333551 1.498962390000033 1.498962390000033 0 6 -206 207 -208 209 -210 211 
16 -0.9993082933333552 0.9993080933333549 -1.498962390000033 0.9993082933333552 1.498962390000033 -0.9993080933333548 0 6 -212 213 -214 215 -216 217 
17 0.999308093333355 -0.9993082933333551 0.999308093333355 1.498962390000033 0.9993082933333551 1.498962390000033 0 6 -218 219 -220 221 -222 223 
18 0.9993080933333549 -0.9993082933333552 -1.498962390000033 1.498962390000033 0.9993082933333552 -0.9993080933333548 0 6 -224 225 -226 227 -228 229 
19 -1.498962390000033 -0.9993082933333552 0.9993080933333549 -0.9993080933333548 0.9993082933333552 1.498962390000033 0 6 -230 231 -232 233 -234 235 
20 -1.498962390000033 -0.9993082933333552 -1.498962390000033 -0.9993080933333548 0.9993082933333552 -0.9993080933333548 0 6 -236 237 -238 239 -240 241 
21 -0.9993082933333552 -1.498962390000033 -0.9993082933333552 0.9993082933333552 -0.9993080933333548 0.9993082933333552 0 6 -177 170 -242 166 -205 198 
22 -0.9993082933333552 0.9993080933333549 -0.9993082933333552 0.9993082933333552 1.498962390000033 0.9993082933333552 0 6 -189 182 -167 243 -217 210 
23 0.9993080933333549 -0.9993082933333552 -0.9993082933333552 1.498962390000033 0.9993082933333552 0.9993082933333552 0 6 -165 244 -173 184 -229 222 
24 -1.498962390000033 -0.9993082933333552 -0.9993082933333552 -0.9993080933333548 0.9993082933333552 0.9993082933333552 0 6 -245 164 -179 190 -241 234 
25 -0.9993082933333552 -0.9993082933333552 0.9993080933333549 0.9993082933333552 0.9993082933333552 1.498962390000033 0 6 -231 218 -197 208 -169 246 
26 -0.9993082933333552 -0.9993082933333552 -1.498962390000033 0.9993082933333552 0.9993082933333552 -0.9993080933333548 0 6 -237 224 -203 214 -247 168 
27 -0.9993082933333552 -0.9993082933333552 -0.9993082933333552 0.9993082933333552 0.9993082933333552 0.9993082933333552 0 7 -164 -166 169 167 -168 165 -163 
$EndEntities
$Nodes
349 141 1 141
0 217 0 1
1
3.059397907456968e-17 -7.493116232685377e-33 0.4996540966666775
0 218 0 1
2
3.059397907456968e-17 -7.493116232685377e-33 -0.4996540966666775
0 219 0 1
3
-0.999308193333355 -0.9993081933333549 -0.9993081933333549
0 220 0 1
4
-0.999308193333355 -0.9993081933333549 0.999308193333355
0 221 0 1
5
-0.999308193333355 0.999308193333355 0.999308193333355
0 222 0 1
6
-0.999308193333355 0.999308193333355 -0.9993081933333549
0 223 0 1
7
0.999308193333355 -0.999308193333355 -0.9993081933333549
0 224 0 1
8
0.999308193333355 -0.999308193333355 0.999308193333355
0 225 0 1
9
0.999308193333355 0.999308193333355 0.999308193333355
0 226 0 1
10
0.999308193333355 0.999308193333355 -0.999308193333355
0 227 0 1
11
0.9993081933333551 -1.498962290000033 -0.999308193333355
0 228 0 1
12
0.9993081933333551 -1.498962290000033 0.9993081933333551
0 229 0 1
13
1.498962290000033 -1.498962290000033 -0.9993081933333551
0 230 0 1
14
1.498962290000033 -1.498962290000033 0.9993081933333551
0 231 0 1
15
1.498962290000033 -0.999308193333355 0.9993081933333551
0 232 0 1
16
1.498962290000033 -0.999308193333355 -0.999308193333355
0 233 0 1
17
-1.498962290000033 -1.498962290000033 -0.9993081933333551
0 234 0 1
18
-1.498962290000033 -1.498962290000033 0.9993081933333551
0 235 0 1
19
-1.498962290000033 -0.999308193333355 0.9993081933333551
0 236 0 1
20
-1.498962290000033 -0.999308193333355 -0.999308193333355
0 237 0 1
21
-0.999308193333355 -1.498962290000033 -0.999308193333355
0 238 0 1
22
-0.999308193333355 -1.498962290000033 0.9993081933333551
0 239 0 1
23
0.9993081933333551 1.498962290000033 0.9993081933333551
0 240 0 1
24
0.9993081933333551 1.498962290000033 -0.999308193333355
0 241 0 1
25
1.498962290000033 0.9993081933333551 -0.999308193333355
0 242 0 1
26
1.498962290000033 0.9993081933333551 0.9993081933333551
0 243 0 1
27
1.498962290000033 1.498962290000033 0.9993081933333551
0 244 0 1
28
1.498962290000033 1.498962290000033 -0.9993081933333551
0 245 0 1
29
-1.498962290000033 0.9993081933333551 -0.999308193333355
0 246 0 1
30
-1.498962290000033 0.9993081933333551 0.9993081933333551
0 247 0 1
31
-1.498962290000033 1.498962290000033 0.9993081933333551
0 248 0 1
32
-1.498962290000033 1.498962290000033 -0.9993081933333551
0 249 0 1
33
-0.999308193333355 1.498962290000033 0.9993081933333551
0 250 0 1
34
-0.999308193333355 1.498962290000033 -0.999308193333355
0 251 0 1
35
-0.9993081933333551 -1.498962290000033 1.498962290000033
0 252 0 1
36
-0.999308193333355 -0.999308193333355 1.498962290000033
0 253 0 1
37
0.9993081933333551 -1.498962290000033 1.498962290000033
0 254 0 1
38
0.9993081933333551 -0.999308193333355 1.498962290000033
0 255 0 1
39
-0.9993081933333551 -1.498962290000033 -1.498962290000033
0 256 0 1
40
-0.999308193333355 -0.999308193333355 -1.498962290000033
0 257 0 1
41
0.9993081933333551 -1.498962290000033 -1.498962290000033
0 258 0 1
42
0.9993081933333551 -0.999308193333355 -1.498962290000033
0 259 0 1
43
-0.999308193333355 0.9993081933333551 1.498962290000033
0 260 0 1
44
-0.9993081933333551 1.498962290000033 1.498962290000033
0 261 0 1
45
0.9993081933333551 0.9993081933333551 1.498962290000033
0 262 0 1
46
0.9993081933333551 1.498962290000033 1.498962290000033
0 263 0 1
47
-0.999308193333355 0.9993081933333551 -1.498962290000033
0 264 0 1
48
-0.9993081933333551 1.498962290000033 -1.498962290000033
0 265 0 1
49
0.9993081933333551 0.9993081933333551 -1.498962290000033
0 266 0 1
50
0.9993081933333551 1.498962290000033 -1.498962290000033
0 267 0 1
51
1.498962290000033 -0.9993081933333551 1.498962290000033
0 268 0 1
52
1.498962290000033 0.9993081933333551 1.498962290000033
0 269 0 1
53
1.498962290000033 -0.9993081933333551 -1.498962290000033
0 270 0 1
54
1.498962290000033 0.9993081933333551 -1.498962290000033
0 271 0 1
55
-1.498962290000033 -0.9993081933333551 1.498962290000033
0 272 0 1
56
-1.498962290000033 0.9993081933333551 1.498962290000033
0 273 0 1
57
-1.498962290000033 -0.9993081933333551 -1.498962290000033
0 274 0 1
58
-1.498962290000033 0.9993081933333551 -1.498962290000033
0 275 0 1
59
-1.498962290000033 -1.498962290000033 1.498962290000033
0 276 0 1
60
-1.498962290000033 -1.498962290000033 -1.498962290000033
0 277 0 1
61
1.498962290000033 -1.498962290000033 1.498962290000033
0 278 0 1
62
1.498962290000033 -1.498962290000033 -1.498962290000033
0 279 0 1
63
1.498962290000033 1.498962290000033 1.498962290000033
0 280 0 1
64
1.498962290000033 1.498962290000033 -1.498962290000033
0 281 0 1
65
-1.498962290000033 1.498962290000033 1.498962290000033
0 282 0 1
66
-1.498962290000033 1.498962290000033 -1.498962290000033
1 325 0 0
1 326 0 2
67
68
0.4327131408183084 -1.059806523257075e-16 -0.2498270483333386
0.4327131408183074 -1.059806523257073e-16 0.2498270483333403
1 327 0 0
1 328 0 0
1 329 0 0
1 330 0 0
1 331 0 0
1 332 0 0
1 333 0 0
1 334 0 0
1 335 0 0
1 336 0 0
1 337 0 0
1 338 0 0
1 339 0 0
1 340 0 0
1 341 0 0
1 342 0 0
1 343 0 0
1 344 0 0
1 345 0 0
1 346 0 0
1 347 0 0
1 348 0 0
1 349 0 0
1 350 0 0
1 351 0 0
1 352 0 0
1 353 0 0
1 354 0 0
1 355 0 0
1 356 0 0
1 357 0 0
1 358 0 0
1 359 0 0
1 360 0 0
1 361 0 0
1 362 0 0
1 363 0 0
1 364 0 0
1 365 0 0
1 366 0 0
1 367 0 0
1 368 0 0
1 369 0 0
1 370 0 0
1 371 0 0
1 372 0 0
1 373 0 0
1 374 0 0
1 375 0 0
1 376 0 0
1 377 0 0
1 378 0 0
1 379 0 0
1 380 0 0
1 381 0 0
1 382 0 0
1 383 0 0
1 384 0 0
1 385 0 0
1 386 0 0
1 387 0 0
1 388 0 0
1 389 0 0
1 390 0 0
1 391 0 0
1 392 0 0
1 393 0 0
1 394 0 0
1 395 0 0
1 396 0 0
1 397 0 0
1 398 0 0
1 399 0 0
1 400 0 0
1 401 0 0
1 402 0 0
1 403 0 0
1 404 0 0
1 405 0 0
1 406 0 0
1 407 0 0
1 408 0 0
1 409 0 0
1 410 0 0
1 411 0 0
1 412 0 0
1 413 0 0
1 414 0 0
1 415 0 0
1 416 0 0
1 417 0 0
1 418 0 0
1 419 0 0
1 420 0 0
1 421 0 0
1 422 0 0
1 423 0 0
1 424 0 0
1 425 0 0
1 426 0 0
1 427 0 0
1 428 0 0
1 429 0 0
1 430 0 0
1 431 0 0
1 432 0 0
1 433 0 0
1 434 0 0
1 435 0 0
1 436 0 0
1 437 0 0
1 438 0 0
1 439 0 0
1 440 0 0
1 441 0 0
1 442 0 0
1 443 0 0
1 444 0 0
1 445 0 0
1 446 0 0
1 447 0 0
1 448 0 0
1 449 0 0
1 450 0 0
1 451 0 0
1 452 0 0
1 453 0 0
1 454 0 0
1 455 0 0
1 456 0 0
1 457 0 0
1 458 0 0
1 459 0 0
1 460 0 0
1 461 0 0
1 462 0 0
1 463 0 0
1 464 0 0
1 465 0 0
1 466 0 0
1 467 0 0
1 468 0 0
1 469 0 0
1 470 0 0
1 471 0 0
2 163 0 12
69
70
71
72
73
74
75
76
77
78
79
80
0.08588901454342281 -0.357071600593815 0.338787788365998
0.2790756160222787 -0.4144526714325523 1.109454964935258e-15
-0.1980189396517378 -0.45851797898121 0.01428211489876696
-0.07348086520178503 -0.3822193451932763 -0.3133099917414281
-0.2421062712174429 0.294911814162354 -0.3225922993818183
0.1442377136061712 0.4079658615747979 0.2498270483334231
-0.4613448864594598 -0.1158745251668283 -0.1529320321935983
-0.3738582465193898 -0.02540241388566584 0.3305131543433968
0.1136779579689446 0.45535435299629 -0.1714174769244213
-0.1850677816456518 0.3904544444804731 0.2508973082717231
-0.4265187261206685 0.2602594457198346 -0.001006726278699634
0.397647613260361 0.3015323530408469 0.02467452236178118
2 164 0 1
81
-0.9993081933333551 0 0
2 165 0 1
82
0.9993081933333551 0 0
2 166 0 1
83
0 -0.9993081933333551 0
2 167 0 1
84
0 0.9993081933333551 0
2 168 0 1
85
0 0 -0.9993081933333551
2 169 0 1
86
0 0 0.9993081933333551
2 170 0 0
2 171 0 0
2 172 0 0
2 173 0 0
2 174 0 1
87
1.249135241666694 -1.249135241666694 -0.9993081933333551
2 175 0 1
88
1.249135241666694 -1.249135241666694 0.9993081933333551
2 176 0 0
2 177 0 0
2 178 0 0
2 179 0 0
2 180 0 1
89
-1.249135241666694 -1.249135241666694 -0.9993081933333551
2 181 0 1
90
-1.249135241666694 -1.249135241666694 0.9993081933333551
2 182 0 0
2 183 0 0
2 184 0 0
2 185 0 0
2 186 0 1
91
1.249135241666694 1.249135241666694 -0.9993081933333551
2 187 0 1
92
1.249135241666694 1.249135241666694 0.9993081933333551
2 188 0 0
2 189 0 0
2 190 0 0
2 191 0 0
2 192 0 1
93
-1.249135241666694 1.249135241666694 -0.9993081933333551
2 193 0 1
94
-1.249135241666694 1.249135241666694 0.9993081933333551
2 194 0 1
95
-0.9993081933333551 -1.249135241666694 1.249135241666694
2 195 0 1
96
0.9993081933333551 -1.249135241666694 1.249135241666694
2 196 0 0
2 197 0 0
2 198 0 0
2 199 0 0
2 200 0 1
97
-0.9993081933333551 -1.249135241666694 -1.249135241666694
2 201 0 1
98
0.9993081933333551 -1.249135241666694 -1.249135241666694
2 202 0 0
2 203 0 0
2 204 0 0
2 205 0 0
2 206 0 1
99
-0.9993081933333551 1.249135241666694 1.249135241666694
2 207 0 1
100
0.9993081933333551 1.249135241666694 1.249135241666694
2 208 0 0
2 209 0 0
2 210 0 0
2 211 0 0
2 212 0 1
101
-0.9993081933333551 1.249135241666694 -1.249135241666694
2 213 0 1
102
0.9993081933333551 1.249135241666694 -1.249135241666694
2 214 0 0
2 215 0 0
2 216 0 0
2 217 0 0
2 218 0 0
2 219 0 0
2 220 0 1
103
1.249135241666694 -0.9993081933333551 1.249135241666694
2 221 0 1
104
1.249135241666694 0.9993081933333551 1.249135241666694
2 222 0 0
2 223 0 0
2 224 0 0
2 225 0 0
2 226 0 1
105
1.249135241666694 -0.9993081933333551 -1.249135241666694
2 227 0 1
106
1.249135241666694 0.9993081933333551 -1.249135241666694
2 228 0 0
2 229 0 0
2 230 0 0
2 231 0 0
2 232 0 1
107
-1.249135241666694 -0.9993081933333551 1.249135241666694
2 233 0 1
108
-1.249135241666694 0.9993081933333551 1.249135241666694
2 234 0 0
2 235 0 0
2 236 0 0
2 237 0 0
2 238 0 1
109
-1.249135241666694 -0.9993081933333551 -1.249135241666694
2 239 0 1
110
-1.249135241666694 0.9993081933333551 -1.249135241666694
2 240 0 0
2 241 0 0
2 242 0 1
111
1.110223024625157e-16 -1.498962290000033 0
2 243 0 1
112
1.110223024625157e-16 1.498962290000033 0
2 244 0 1
113
1.498962290000033 1.110223024625157e-16 0
2 245 0 1
114
-1.498962290000033 1.110223024625157e-16 0
2 246 0 1
115
0 1.110223024625157e-16 1.498962290000033
2 247 0 1
116
0 1.110223024625157e-16 -1.498962290000033
2 248 0 1
117
-1.498962290000033 -1.249135241666694 1.249135241666694
2 249 0 1
118
-1.249135241666694 -1.498962290000033 1.249135241666694
2 250 0 1
119
-1.249135241666694 -1.249135241666694 1.498962290000033
2 251 0 1
120
-1.498962290000033 -1.249135241666694 -1.249135241666694
2 252 0 1
121
-1.249135241666694 -1.498962290000033 -1.249135241666694
2 253 0 1
122
-1.249135241666694 -1.249135241666694 -1.498962290000033
2 254 0 1
123
1.498962290000033 -1.249135241666694 1.249135241666694
2 255 0 1
124
1.249135241666694 -1.498962290000033 1.249135241666694
2 256 0 1
125
1.249135241666694 -1.249135241666694 1.498962290000033
2 257 0 1
126
1.498962290000033 -1.249135241666694 -1.249135241666694
2 258 0 1
127
1.249135241666694 -1.498962290000033 -1.249135241666694
2 259 0 1
128
1.249135241666694 -1.249135241666694 -1.498962290000033
2 260 0 1
129
1.498962290000033 1.249135241666694 1.249135241666694
2 261 0 1
130
1.249135241666694 1.498962290000033 1.249135241666694
2 262 0 1
131
1.249135241666694 1.249135241666694 1.498962290000033
2 263 0 1
132
1.498962290000033 1.249135241666694 -1.249135241666694
2 264 0 1
133
1.249135241666694 1.498962290000033 -1.249135241666694
2 265 0 1
134
1.249135241666694 1.249135241666694 -1.498962290000033
2 266 0 1
135
-1.498962290000033 1.249135241666694 1.249135241666694
2 267 0 1
136
-1.249135241666694 1.498962290000033 1.249135241666694
2 268 0 1
137
-1.249135241666694 1.249135241666694 1.498962290000033
2 269 0 1
138
-1.498962290000033 1.249135241666694 -1.249135241666694
2 270 0 1
139
-1.249135241666694 1.498962290000033 -1.249135241666694
2 271 0 1
140
-1.249135241666694 1.249135241666694 -1.498962290000033
3 1 0 0
3 2 0 0
3 3 0 0
3 4 0 0
3 5 0 0
3 6 0 0
3 7 0 0
3 8 0 0
3 9 0 0
3 10 0 0
3 11 0 0
3 12 0 0
3 13 0 0
3 14 0 1
141
1.390662994334325e-17 -1.249135241666694 -1.415686607222253
3 15 0 0
3 16 0 0
3 17 0 0
3 18 0 0
3 19 0 0
3 20 0 0
3 21 0 0
3 22 0 0
3 23 0 0
3 24 0 0
3 25 0 0
3 26 0 0
3 27 0 0
$EndNodes
$Elements
347 1071 1 1071
0 217 15 1
1 1 
0 218 15 1
2 2 
0 219 15 1
3 3 
0 220 15 1
4 4 
0 221 15 1
5 5 
0 222 15 1
6 6 
0 223 15 1
7 7 
0 224 15 1
8 8 
0 225 15 1
9 9 
0 226 15 1
10 10 
0 227 15 1
11 11 
0 228 15 1
12 12 
0 229 15 1
13 13 
0 230 15 1
14 14 
0 231 15 1
15 15 
0 232 15 1
16 16 
0 233 15 1
17 17 
0 234 15 1
18 18 
0 235 15 1
19 19 
0 236 15 1
20 20 
0 237 15 1
21 21 
0 238 15 1
22 22 
0 239 15 1
23 23 
0 240 15 1
24 24 
0 241 15 1
25 25 
0 242 15 1
26 26 
0 243 15 1
27 27 
0 244 15 1
28 28 
0 245 15 1
29 29 
0 246 15 1
30 30 
0 247 15 1
31 31 
0 248 15 1
32 32 
0 249 15 1
33 33 
0 250 15 1
34 34 
0 251 15 1
35 35 
0 252 15 1
36 36 
0 253 15 1
37 37 
0 254 15 1
38 38 
0 255 15 1
39 39 
0 256 15 1
40 40 
0 257 15 1
41 41 
0 258 15 1
42 42 
0 259 15 1
43 43 
0 260 15 1
44 44 
0 261 15 1
45 45 
0 262 15 1
46 46 
0 263 15 1
47 47 
0 264 15 1
48 48 
0 265 15 1
49 49 
0 266 15 1
50 50 
0 267 15 1
51 51 
0 268 15 1
52 52 
0 269 15 1
53 53 
0 270 15 1
54 54 
0 271 15 1
55 55 
0 272 15 1
56 56 
0 273 15 1
57 57 
0 274 15 1
58 58 
0 275 15 1
59 59 
0 276 15 1
60 60 
0 277 15 1
61 61 
0 278 15 1
62 62 
0 279 15 1
63 63 
0 280 15 1
64 64 
0 281 15 1
65 65 
0 282 15 1
66 66 
1 326 1 3
67 2 67 
68 67 68 
69 68 1 
1 328 1 1
70 3 4 
1 329 1 1
71 4 5 
1 330 1 1
72 6 5 
1 331 1 1
73 3 6 
1 332 1 1
74 7 8 
1 333 1 1
75 8 9 
1 334 1 1
76 10 9 
1 335 1 1
77 7 10 
1 336 1 1
78 3 7 
1 337 1 1
79 4 8 
1 338 1 1
80 6 10 
1 339 1 1
81 5 9 
1 340 1 1
82 11 12 
1 341 1 1
83 12 8 
1 342 1 1
84 11 7 
1 343 1 1
85 13 14 
1 344 1 1
86 14 15 
1 345 1 1
87 16 15 
1 346 1 1
88 13 16 
1 347 1 1
89 11 13 
1 348 1 1
90 12 14 
1 349 1 1
91 7 16 
1 350 1 1
92 8 15 
1 351 1 1
93 17 18 
1 352 1 1
94 18 19 
1 353 1 1
95 20 19 
1 354 1 1
96 17 20 
1 355 1 1
97 21 22 
1 356 1 1
98 22 4 
1 357 1 1
99 21 3 
1 358 1 1
100 17 21 
1 359 1 1
101 18 22 
1 360 1 1
102 20 3 
1 361 1 1
103 19 4 
1 362 1 1
104 9 23 
1 363 1 1
105 24 23 
1 364 1 1
106 10 24 
1 365 1 1
107 25 26 
1 366 1 1
108 26 27 
1 367 1 1
109 28 27 
1 368 1 1
110 25 28 
1 369 1 1
111 10 25 
1 370 1 1
112 9 26 
1 371 1 1
113 24 28 
1 372 1 1
114 23 27 
1 373 1 1
115 29 30 
1 374 1 1
116 30 31 
1 375 1 1
117 32 31 
1 376 1 1
118 29 32 
1 377 1 1
119 5 33 
1 378 1 1
120 34 33 
1 379 1 1
121 6 34 
1 380 1 1
122 29 6 
1 381 1 1
123 30 5 
1 382 1 1
124 32 34 
1 383 1 1
125 31 33 
1 384 1 1
126 22 35 
1 385 1 1
127 35 36 
1 386 1 1
128 4 36 
1 387 1 1
129 12 37 
1 388 1 1
130 37 38 
1 389 1 1
131 8 38 
1 390 1 1
132 22 12 
1 391 1 1
133 35 37 
1 392 1 1
134 36 38 
1 393 1 1
135 39 21 
1 394 1 1
136 40 3 
1 395 1 1
137 39 40 
1 396 1 1
138 41 11 
1 397 1 1
139 42 7 
1 398 1 1
140 41 42 
1 399 1 1
141 39 41 
1 400 1 1
142 21 11 
1 401 1 1
143 40 42 
1 402 1 1
144 5 43 
1 403 1 1
145 43 44 
1 404 1 1
146 33 44 
1 405 1 1
147 9 45 
1 406 1 1
148 45 46 
1 407 1 1
149 23 46 
1 408 1 1
150 43 45 
1 409 1 1
151 33 23 
1 410 1 1
152 44 46 
1 411 1 1
153 47 6 
1 412 1 1
154 48 34 
1 413 1 1
155 47 48 
1 414 1 1
156 49 10 
1 415 1 1
157 50 24 
1 416 1 1
158 49 50 
1 417 1 1
159 47 49 
1 418 1 1
160 48 50 
1 419 1 1
161 34 24 
1 420 1 1
162 38 45 
1 421 1 1
163 15 51 
1 422 1 1
164 51 52 
1 423 1 1
165 26 52 
1 424 1 1
166 15 26 
1 425 1 1
167 38 51 
1 426 1 1
168 45 52 
1 427 1 1
169 42 49 
1 428 1 1
170 53 16 
1 429 1 1
171 16 25 
1 430 1 1
172 54 25 
1 431 1 1
173 53 54 
1 432 1 1
174 42 53 
1 433 1 1
175 49 54 
1 434 1 1
176 19 55 
1 435 1 1
177 55 56 
1 436 1 1
178 30 56 
1 437 1 1
179 19 30 
1 438 1 1
180 36 43 
1 439 1 1
181 55 36 
1 440 1 1
182 56 43 
1 441 1 1
183 57 20 
1 442 1 1
184 20 29 
1 443 1 1
185 58 29 
1 444 1 1
186 57 58 
1 445 1 1
187 40 47 
1 446 1 1
188 57 40 
1 447 1 1
189 58 47 
1 448 1 1
190 18 59 
1 449 1 1
191 59 55 
1 450 1 1
192 59 35 
1 451 1 1
193 60 17 
1 452 1 1
194 60 57 
1 453 1 1
195 60 39 
1 454 1 1
196 14 61 
1 455 1 1
197 61 51 
1 456 1 1
198 37 61 
1 457 1 1
199 62 13 
1 458 1 1
200 62 53 
1 459 1 1
201 41 62 
1 460 1 1
202 52 63 
1 461 1 1
203 27 63 
1 462 1 1
204 46 63 
1 463 1 1
205 64 28 
1 464 1 1
206 54 64 
1 465 1 1
207 50 64 
1 466 1 1
208 56 65 
1 467 1 1
209 31 65 
1 468 1 1
210 65 44 
1 469 1 1
211 66 32 
1 470 1 1
212 58 66 
1 471 1 1
213 66 48 
2 163 2 28
214 1 69 68 
215 68 74 1 
216 1 76 69 
217 74 78 1 
218 1 78 76 
219 67 72 2 
220 2 77 67 
221 72 73 2 
222 73 77 2 
223 68 70 67 
224 67 80 68 
225 70 72 67 
226 77 80 67 
227 69 70 68 
228 68 80 74 
229 69 71 70 
230 69 76 71 
231 71 72 70 
232 71 75 72 
233 71 76 75 
234 72 75 73 
235 75 79 73 
236 73 79 77 
237 77 78 74 
238 74 80 77 
239 76 79 75 
240 78 79 76 
241 77 79 78 
2 164 2 4
242 3 4 81 
243 6 3 81 
244 4 5 81 
245 5 6 81 
2 165 2 4
246 7 82 8 
247 10 82 7 
248 8 82 9 
249 9 82 10 
2 166 2 4
250 4 3 83 
251 3 7 83 
252 8 4 83 
253 7 8 83 
2 167 2 4
254 5 84 6 
255 9 84 5 
256 6 84 10 
257 10 84 9 
2 168 2 4
258 3 6 85 
259 7 3 85 
260 6 10 85 
261 10 7 85 
2 169 2 4
262 4 86 5 
263 8 86 4 
264 5 86 9 
265 9 86 8 
2 170 2 2
266 8 7 12 
267 12 7 11 
2 171 2 2
268 14 13 16 
269 15 14 16 
2 172 2 2
270 13 12 11 
271 14 12 13 
2 173 2 2
272 16 7 8 
273 15 16 8 
2 174 2 4
274 11 7 87 
275 7 16 87 
276 13 11 87 
277 16 13 87 
2 175 2 4
278 12 88 8 
279 8 88 15 
280 14 88 12 
281 15 88 14 
2 176 2 2
282 18 20 17 
283 19 20 18 
2 177 2 2
284 4 22 3 
285 22 21 3 
2 178 2 2
286 21 18 17 
287 22 18 21 
2 179 2 2
288 4 3 20 
289 4 20 19 
2 180 2 4
290 20 3 89 
291 3 21 89 
292 17 20 89 
293 21 17 89 
2 181 2 4
294 19 90 4 
295 4 90 22 
296 18 90 19 
297 22 90 18 
2 182 2 2
298 23 10 9 
299 23 24 10 
2 183 2 2
300 26 25 28 
301 27 26 28 
2 184 2 2
302 25 9 10 
303 26 9 25 
2 185 2 2
304 28 24 23 
305 27 28 23 
2 186 2 4
306 10 24 91 
307 25 10 91 
308 24 28 91 
309 28 25 91 
2 187 2 4
310 9 92 23 
311 26 92 9 
312 23 92 27 
313 27 92 26 
2 188 2 2
314 30 32 29 
315 31 32 30 
2 189 2 2
316 33 5 6 
317 33 6 34 
2 190 2 2
318 5 29 6 
319 5 30 29 
2 191 2 2
320 34 32 31 
321 33 34 31 
2 192 2 4
322 6 29 93 
323 34 6 93 
324 29 32 93 
325 32 34 93 
2 193 2 4
326 5 94 30 
327 33 94 5 
328 30 94 31 
329 31 94 33 
2 194 2 4
330 4 22 95 
331 36 4 95 
332 22 35 95 
333 35 36 95 
2 195 2 4
334 8 96 12 
335 38 96 8 
336 12 96 37 
337 37 96 38 
2 196 2 2
338 37 22 12 
339 37 35 22 
2 197 2 2
340 8 4 36 
341 38 8 36 
2 198 2 2
342 8 22 4 
343 8 12 22 
2 199 2 2
344 36 35 37 
345 38 36 37 
2 200 2 4
346 21 3 97 
347 3 40 97 
348 39 21 97 
349 40 39 97 
2 201 2 4
350 11 98 7 
351 7 98 42 
352 41 98 11 
353 42 98 41 
2 202 2 2
354 11 21 41 
355 41 21 39 
2 203 2 2
356 7 42 3 
357 42 40 3 
2 204 2 2
358 40 41 39 
359 42 41 40 
2 205 2 2
360 7 3 21 
361 7 21 11 
2 206 2 4
362 33 5 99 
363 5 43 99 
364 44 33 99 
365 43 44 99 
2 207 2 4
366 23 100 9 
367 9 100 45 
368 46 100 23 
369 45 100 46 
2 208 2 2
370 9 43 5 
371 45 43 9 
2 209 2 2
372 46 23 33 
373 46 33 44 
2 210 2 2
374 33 9 5 
375 23 9 33 
2 211 2 2
376 44 43 45 
377 46 44 45 
2 212 2 4
378 6 34 101 
379 47 6 101 
380 34 48 101 
381 48 47 101 
2 213 2 4
382 10 102 24 
383 49 102 10 
384 24 102 50 
385 50 102 49 
2 214 2 2
386 10 6 49 
387 49 6 47 
2 215 2 2
388 24 50 34 
389 50 48 34 
2 216 2 2
390 48 49 47 
391 50 49 48 
2 217 2 2
392 34 6 10 
393 24 34 10 
2 218 2 2
394 38 9 8 
395 45 9 38 
2 219 2 2
396 51 15 26 
397 52 51 26 
2 220 2 4
398 8 15 103 
399 38 8 103 
400 15 51 103 
401 51 38 103 
2 221 2 4
402 9 104 26 
403 45 104 9 
404 26 104 52 
405 52 104 45 
2 222 2 2
406 9 15 8 
407 26 15 9 
2 223 2 2
408 45 38 51 
409 45 51 52 
2 224 2 2
410 10 42 7 
411 10 49 42 
2 225 2 2
412 25 16 53 
413 25 53 54 
2 226 2 4
414 16 7 105 
415 7 42 105 
416 53 16 105 
417 42 53 105 
2 227 2 4
418 25 106 10 
419 10 106 49 
420 54 106 25 
421 49 106 54 
2 228 2 2
422 49 53 42 
423 54 53 49 
2 229 2 2
424 10 7 16 
425 25 10 16 
2 230 2 2
426 55 30 19 
427 56 30 55 
2 231 2 2
428 36 4 5 
429 5 43 36 
2 232 2 4
430 19 4 107 
431 4 36 107 
432 55 19 107 
433 36 55 107 
2 233 2 4
434 30 108 5 
435 5 108 43 
436 56 108 30 
437 43 108 56 
2 234 2 2
438 5 4 19 
439 30 5 19 
2 235 2 2
440 43 56 36 
441 56 55 36 
2 236 2 2
442 29 57 20 
443 29 58 57 
2 237 2 2
444 6 3 40 
445 6 40 47 
2 238 2 4
446 3 20 109 
447 40 3 109 
448 20 57 109 
449 57 40 109 
2 239 2 4
450 6 110 29 
451 47 110 6 
452 29 110 58 
453 58 110 47 
2 240 2 2
454 47 40 58 
455 58 40 57 
2 241 2 2
456 6 20 3 
457 29 20 6 
2 242 2 4
458 11 12 111 
459 21 11 111 
460 12 22 111 
461 22 21 111 
2 243 2 4
462 24 112 23 
463 23 112 33 
464 34 112 24 
465 33 112 34 
2 244 2 4
466 16 113 15 
467 15 113 26 
468 25 113 16 
469 26 113 25 
2 245 2 4
470 20 19 114 
471 19 30 114 
472 29 20 114 
473 30 29 114 
2 246 2 4
474 38 115 36 
475 36 115 43 
476 45 115 38 
477 43 115 45 
2 247 2 4
478 42 40 116 
479 40 47 116 
480 49 42 116 
481 47 49 116 
2 248 2 4
482 19 18 117 
483 18 59 117 
484 55 19 117 
485 59 55 117 
2 249 2 4
486 18 22 118 
487 59 18 118 
488 22 35 118 
489 35 59 118 
2 250 2 4
490 36 119 35 
491 35 119 59 
492 55 119 36 
493 59 119 55 
2 251 2 4
494 17 20 120 
495 60 17 120 
496 20 57 120 
497 57 60 120 
2 252 2 4
498 21 17 121 
499 17 60 121 
500 39 21 121 
501 60 39 121 
2 253 2 4
502 40 39 122 
503 39 60 122 
504 57 40 122 
505 60 57 122 
2 254 2 4
506 15 123 14 
507 14 123 61 
508 51 123 15 
509 61 123 51 
2 255 2 4
510 12 14 124 
511 37 12 124 
512 14 61 124 
513 61 37 124 
2 256 2 4
514 37 125 38 
515 61 125 37 
516 38 125 51 
517 51 125 61 
2 257 2 4
518 13 126 16 
519 62 126 13 
520 16 126 53 
521 53 126 62 
2 258 2 4
522 13 11 127 
523 11 41 127 
524 62 13 127 
525 41 62 127 
2 259 2 4
526 41 42 128 
527 62 41 128 
528 42 53 128 
529 53 62 128 
2 260 2 4
530 27 129 26 
531 26 129 52 
532 63 129 27 
533 52 129 63 
2 261 2 4
534 23 130 27 
535 46 130 23 
536 27 130 63 
537 63 130 46 
2 262 2 4
538 45 131 46 
539 52 131 45 
540 46 131 63 
541 63 131 52 
2 263 2 4
542 25 132 28 
543 54 132 25 
544 28 132 64 
545 64 132 54 
2 264 2 4
546 28 133 24 
547 24 133 50 
548 64 133 28 
549 50 133 64 
2 265 2 4
550 49 50 134 
551 54 49 134 
552 50 64 134 
553 64 54 134 
2 266 2 4
554 31 30 135 
555 30 56 135 
556 65 31 135 
557 56 65 135 
2 267 2 4
558 31 136 33 
559 65 136 31 
560 33 136 44 
561 44 136 65 
2 268 2 4
562 44 137 43 
563 43 137 56 
564 65 137 44 
565 56 137 65 
2 269 2 4
566 29 32 138 
567 58 29 138 
568 32 66 138 
569 66 58 138 
2 270 2 4
570 34 139 32 
571 32 139 66 
572 48 139 34 
573 66 139 48 
2 271 2 4
574 48 47 140 
575 47 58 140 
576 66 48 140 
577 58 66 140 
3 1 4 24
578 107 95 119 90 
579 117 107 119 90 
580 118 117 119 90 
581 118 119 95 90 
582 117 119 59 118 
583 35 59 119 118 
584 119 59 55 117 
585 59 117 118 18 
586 119 95 35 118 
587 55 107 119 117 
588 95 118 90 22 
589 90 117 107 19 
590 95 36 107 119 
591 95 107 4 90 
592 117 118 18 90 
593 36 95 35 119 
594 95 35 118 22 
595 36 107 4 95 
596 55 107 36 119 
597 118 18 90 22 
598 4 95 90 22 
599 90 107 4 19 
600 90 18 117 19 
601 55 107 117 19 
3 2 4 24
602 97 122 121 109 
603 120 121 109 89 
604 120 121 122 109 
605 121 97 109 89 
606 60 120 121 122 
607 17 60 120 121 
608 122 121 60 39 
609 60 120 122 57 
610 39 122 121 97 
611 121 120 17 89 
612 109 97 3 89 
613 21 97 121 89 
614 120 109 20 89 
615 122 97 40 109 
616 109 122 120 57 
617 121 39 97 21 
618 21 121 17 89 
619 20 17 120 89 
620 97 39 122 40 
621 20 109 3 89 
622 40 97 3 109 
623 120 109 57 20 
624 3 97 21 89 
625 109 40 122 57 
3 3 4 24
626 96 125 124 103 
627 88 124 123 103 
628 125 123 124 103 
629 124 88 96 103 
630 124 123 125 61 
631 123 124 14 61 
632 61 125 124 37 
633 123 125 61 51 
634 124 88 12 96 
635 37 125 124 96 
636 14 88 124 123 
637 96 88 8 103 
638 123 15 88 103 
639 125 96 38 103 
640 103 125 123 51 
641 15 8 88 103 
642 38 96 8 103 
643 12 14 88 124 
644 37 124 12 96 
645 103 123 15 51 
646 8 12 88 96 
647 96 37 125 38 
648 103 38 125 51 
649 88 14 15 123 
3 4 4 24
650 98 105 87 127 
651 105 98 128 127 
652 127 105 87 126 
653 127 128 105 126 
654 126 127 128 62 
655 41 128 127 62 
656 13 127 126 62 
657 126 128 53 62 
658 98 87 11 127 
659 98 42 105 128 
660 53 105 128 126 
661 105 87 7 98 
662 127 87 13 126 
663 16 87 105 126 
664 98 41 128 127 
665 11 7 87 98 
666 41 98 11 127 
667 13 11 87 127 
668 42 105 7 98 
669 7 16 87 105 
670 42 98 41 128 
671 87 16 13 126 
672 105 53 16 126 
673 53 105 42 128 
3 5 4 24
674 104 131 129 92 
675 100 131 104 92 
676 131 100 130 92 
677 130 129 131 92 
678 129 63 130 131 
679 131 129 63 52 
680 130 63 129 27 
681 63 46 130 131 
682 52 131 129 104 
683 130 129 92 27 
684 46 100 130 131 
685 104 9 100 92 
686 26 104 129 92 
687 104 131 100 45 
688 100 130 92 23 
689 129 26 92 27 
690 104 52 131 45 
691 27 92 130 23 
692 129 52 104 26 
693 104 100 9 45 
694 130 100 46 23 
695 46 100 131 45 
696 9 100 92 23 
697 9 104 26 92 
3 6 4 24
698 133 134 106 102 
699 132 134 106 133 
700 133 106 91 102 
701 132 106 91 133 
702 134 132 64 133 
703 54 134 132 64 
704 64 132 28 133 
705 133 64 134 50 
706 133 91 24 102 
707 106 54 134 132 
708 134 133 50 102 
709 91 25 106 132 
710 132 91 28 133 
711 106 10 91 102 
712 49 106 134 102 
713 50 133 24 102 
714 54 106 25 132 
715 24 28 91 133 
716 49 106 54 134 
717 10 24 91 102 
718 49 134 50 102 
719 25 91 28 132 
720 106 49 10 102 
721 10 91 25 106 
3 7 4 24
722 94 108 137 135 
723 135 137 94 136 
724 136 137 94 99 
725 137 108 94 99 
726 137 135 65 136 
727 56 137 135 65 
728 65 135 31 136 
729 136 65 137 44 
730 5 94 108 99 
731 137 108 56 135 
732 135 94 31 136 
733 136 94 33 99 
734 137 136 44 99 
735 94 30 108 135 
736 43 108 137 99 
737 30 56 108 135 
738 43 137 44 99 
739 108 43 5 99 
740 30 94 31 135 
741 94 5 33 99 
742 33 31 94 136 
743 44 136 33 99 
744 108 56 43 137 
745 5 94 30 108 
3 8 4 24
746 110 140 138 93 
747 101 139 140 93 
748 110 101 140 93 
749 140 139 138 93 
750 138 66 139 140 
751 139 66 138 32 
752 66 48 139 140 
753 140 138 66 58 
754 110 140 101 47 
755 48 101 139 140 
756 101 139 93 34 
757 138 140 110 58 
758 110 6 101 93 
759 139 138 93 32 
760 29 110 138 93 
761 110 101 6 47 
762 140 110 58 47 
763 48 101 140 47 
764 58 110 138 29 
765 32 93 139 34 
766 139 101 48 34 
767 138 29 93 32 
768 6 101 93 34 
769 6 110 29 93 
3 9 4 12
770 16 13 88 87 
771 16 88 7 87 
772 12 13 88 14 
773 14 16 13 88 
774 14 16 88 15 
775 8 16 88 7 
776 16 8 88 15 
777 7 12 88 8 
778 7 87 12 11 
779 7 12 87 88 
780 13 12 87 11 
781 13 87 12 88 
3 10 4 12
782 18 89 20 90 
783 21 89 18 90 
784 90 3 21 89 
785 3 90 20 89 
786 17 21 89 18 
787 89 18 20 17 
788 22 3 21 90 
789 22 3 90 4 
790 90 3 20 4 
791 90 20 18 19 
792 90 18 21 22 
793 20 90 4 19 
3 11 4 12
794 23 92 9 91 
795 92 26 9 91 
796 23 24 28 91 
797 24 23 10 91 
798 91 28 26 25 
799 9 25 91 26 
800 9 25 10 91 
801 10 23 9 91 
802 23 92 28 27 
803 23 28 92 91 
804 26 28 92 27 
805 26 92 28 91 
3 12 4 12
806 94 6 29 93 
807 34 32 93 94 
808 29 93 32 94 
809 6 94 34 93 
810 94 31 32 30 
811 31 34 94 32 
812 34 31 94 33 
813 30 5 29 94 
814 94 6 5 29 
815 94 32 29 30 
816 94 6 34 33 
817 94 6 33 5 
3 13 4 12
818 35 95 36 37 
819 22 37 95 35 
820 22 8 4 95 
821 8 36 4 95 
822 96 37 22 12 
823 22 37 96 95 
824 22 8 96 12 
825 96 8 22 95 
826 8 96 36 95 
827 8 36 96 38 
828 37 36 96 95 
829 37 96 36 38 
3 14 4 17
830 41 21 11 98 
831 21 98 7 11 
832 7 21 3 97 
833 42 3 40 97 
834 42 3 97 7 
835 97 39 40 141 
836 98 42 41 141 
837 42 40 41 141 
838 40 39 41 141 
839 40 42 97 141 
840 21 141 39 97 
841 42 7 141 98 
842 42 141 7 97 
843 7 21 141 98 
844 7 141 21 97 
845 21 41 141 98 
846 21 141 41 39 
3 15 4 12
847 99 33 44 100 
848 45 44 46 100 
849 46 44 33 100 
850 33 46 100 23 
851 9 23 33 100 
852 9 43 99 5 
853 9 33 99 100 
854 99 33 9 5 
855 99 9 45 43 
856 45 9 99 100 
857 45 44 99 43 
858 99 44 45 100 
3 16 4 12
859 101 49 48 102 
860 49 101 6 102 
861 34 102 101 48 
862 102 6 34 101 
863 49 101 48 47 
864 24 10 34 102 
865 47 101 6 49 
866 50 34 102 24 
867 50 48 49 102 
868 6 10 49 102 
869 10 34 102 6 
870 34 50 102 48 
3 17 4 12
871 51 26 104 52 
872 51 45 52 104 
873 38 9 103 8 
874 15 103 9 8 
875 51 26 103 104 
876 51 103 26 15 
877 9 103 26 104 
878 9 26 103 15 
879 9 45 103 104 
880 9 103 45 38 
881 51 103 45 104 
882 51 45 103 38 
3 18 4 12
883 49 10 105 106 
884 53 106 49 105 
885 54 106 49 53 
886 53 25 54 106 
887 105 49 53 42 
888 42 10 105 49 
889 42 10 7 105 
890 10 105 16 7 
891 10 105 25 16 
892 10 25 105 106 
893 53 25 105 16 
894 53 105 25 106 
3 19 4 12
895 108 55 107 36 
896 30 55 108 56 
897 56 36 108 43 
898 5 36 43 108 
899 56 36 55 108 
900 19 5 107 4 
901 36 5 107 108 
902 36 107 5 4 
903 55 30 107 19 
904 55 107 30 108 
905 5 107 30 19 
906 5 30 107 108 
3 20 4 12
907 40 6 110 109 
908 6 47 40 110 
909 40 58 110 47 
910 6 40 3 109 
911 6 3 20 109 
912 57 109 29 20 
913 6 29 109 20 
914 6 109 29 110 
915 57 29 110 58 
916 110 29 57 109 
917 110 40 57 58 
918 57 40 110 109 
3 21 4 12
919 11 83 21 111 
920 11 83 111 12 
921 83 22 21 111 
922 83 12 22 111 
923 83 11 21 7 
924 11 83 12 7 
925 83 7 21 3 
926 8 22 4 83 
927 22 3 83 21 
928 83 12 7 8 
929 3 22 83 4 
930 83 12 8 22 
3 22 4 12
931 24 34 84 112 
932 23 24 84 112 
933 23 84 33 112 
934 34 84 112 33 
935 10 24 34 84 
936 23 24 10 84 
937 84 23 33 9 
938 6 84 33 5 
939 9 33 84 5 
940 34 84 33 6 
941 10 34 6 84 
942 10 23 84 9 
3 23 4 12
943 82 16 10 113 
944 113 9 82 15 
945 82 15 16 113 
946 10 113 9 82 
947 82 16 7 10 
948 9 15 8 82 
949 16 8 82 7 
950 15 82 16 8 
951 113 10 9 25 
952 25 9 113 26 
953 16 25 10 113 
954 113 9 15 26 
3 24 4 12
955 81 29 20 114 
956 20 114 19 81 
957 81 30 29 114 
958 81 30 114 19 
959 20 4 81 19 
960 3 6 20 81 
961 81 29 6 20 
962 20 4 3 81 
963 5 19 81 4 
964 30 81 29 5 
965 29 5 81 6 
966 81 30 19 5 
3 25 4 12
967 4 115 86 5 
968 8 115 9 86 
969 4 115 8 86 
970 115 5 9 86 
971 115 8 9 38 
972 115 4 8 36 
973 36 5 43 115 
974 4 115 5 36 
975 36 8 115 38 
976 9 43 115 45 
977 5 115 9 43 
978 115 9 45 38 
3 26 4 12
979 49 85 6 116 
980 116 85 40 42 
981 42 85 49 116 
982 40 6 85 116 
983 6 47 49 116 
984 47 6 40 116 
985 42 3 85 40 
986 40 6 3 85 
987 3 42 85 7 
988 10 6 49 85 
989 42 10 85 7 
990 10 42 85 49 
3 27 4 81
991 86 78 5 74 
992 5 78 84 74 
993 67 85 2 77 
994 72 85 2 67 
995 86 68 1 74 
996 80 68 9 74 
997 69 8 70 68 
998 5 79 78 76 
999 76 4 71 69 
1000 69 1 76 86 
1001 75 81 71 76 
1002 67 80 10 77 
1003 72 75 3 71 
1004 68 1 69 86 
1005 7 72 70 67 
1006 3 75 81 71 
1007 75 85 3 81 
1008 86 1 78 74 
1009 1 78 76 86 
1010 2 85 73 77 
1011 78 79 5 84 
1012 9 84 80 74 
1013 80 84 10 77 
1014 80 10 9 82 
1015 84 10 9 80 
1016 83 8 7 70 
1017 68 9 8 82 
1018 8 7 70 82 
1019 68 8 9 86 
1020 84 9 5 74 
1021 86 5 9 74 
1022 75 79 73 81 
1023 81 5 4 76 
1024 5 4 76 86 
1025 83 4 8 69 
1026 69 4 8 86 
1027 71 4 3 83 
1028 9 68 86 74 
1029 81 4 3 71 
1030 5 6 79 81 
1031 79 6 5 84 
1032 80 9 68 82 
1033 82 10 7 67 
1034 68 69 8 86 
1035 68 8 70 82 
1036 85 7 10 67 
1037 71 81 4 76 
1038 72 3 7 83 
1039 85 3 7 72 
1040 83 71 4 69 
1041 69 76 4 86 
1042 76 78 5 86 
1043 82 80 10 67 
1044 3 85 75 72 
1045 7 70 82 67 
1046 70 83 8 69 
1047 10 85 67 77 
1048 7 72 83 70 
1049 79 5 81 76 
1050 72 7 85 67 
1051 84 80 74 77 
1052 3 72 71 83 
1053 73 79 6 81 
1054 85 6 3 81 
1055 79 77 84 78 
1056 82 70 68 67 
1057 71 83 70 69 
1058 68 80 82 67 
1059 75 79 81 76 
1060 74 78 84 77 
1061 72 71 83 70 
1062 73 72 85 2 
1063 73 85 72 75 
1064 81 73 85 6 
1065 81 85 73 75 
1066 79 73 84 77 
1067 84 73 79 6 
1068 85 10 84 77 
1069 84 10 85 6 
1070 73 85 84 77 
1071 84 85 73 6 
$EndElements
