$MeshFormat
4.1 0 8
$EndMeshFormat
$PhysicalNames
3
3 301 "Total Field"
3 302 "Scattered Field"
3 303 "PML"
$EndPhysicalNames
$Entities
24 36 18 3
1 -0.9993081933333551 -0.9993081933333551 0.9993081933333551 0 
2 -0.9993081933333551 -0.9993081933333551 -0.9993081933333551 0 
3 -0.9993081933333551 0.9993081933333551 0.9993081933333551 0 
4 -0.9993081933333551 0.9993081933333551 -0.9993081933333551 0 
5 0.9993081933333551 -0.9993081933333551 0.9993081933333551 0 
6 0.9993081933333551 -0.9993081933333551 -0.9993081933333551 0 
7 0.9993081933333551 0.9993081933333551 0.9993081933333551 0 
8 0.9993081933333551 0.9993081933333551 -0.9993081933333551 0 
9 -1.498962290000033 -1.498962290000033 1.498962290000033 0 
10 -1.498962290000033 -1.498962290000033 -1.498962290000033 0 
11 -1.498962290000033 1.498962290000033 1.498962290000033 0 
12 -1.498962290000033 1.498962290000033 -1.498962290000033 0 
13 1.498962290000033 -1.498962290000033 1.498962290000033 0 
14 1.498962290000033 -1.498962290000033 -1.498962290000033 0 
15 1.498962290000033 1.498962290000033 1.498962290000033 0 
16 1.498962290000033 1.498962290000033 -1.498962290000033 0 
17 -1.99861638666671 -1.99861638666671 1.99861638666671 0 
18 -1.99861638666671 -1.99861638666671 -1.99861638666671 0 
19 -1.99861638666671 1.99861638666671 1.99861638666671 0 
20 -1.99861638666671 1.99861638666671 -1.99861638666671 0 
21 1.99861638666671 -1.99861638666671 -1.99861638666671 0 
22 1.99861638666671 -1.99861638666671 1.99861638666671 0 
23 1.99861638666671 1.99861638666671 1.99861638666671 0 
24 1.99861638666671 1.99861638666671 -1.99861638666671 0 
1 -0.999308293333355 -0.999308293333355 -0.999308293333355 -0.9993080933333551 -0.9993080933333551 0.999308293333355 0 2 2 -1 
2 -0.999308293333355 -0.999308293333355 0.9993080933333551 -0.9993080933333551 0.999308293333355 0.999308293333355 0 2 1 -3 
3 -0.999308293333355 0.9993080933333551 -0.999308293333355 -0.9993080933333551 0.999308293333355 0.999308293333355 0 2 4 -3 
4 -0.999308293333355 -0.999308293333355 -0.999308293333355 -0.9993080933333551 0.999308293333355 -0.9993080933333551 0 2 2 -4 
5 0.9993080933333551 -0.999308293333355 -0.999308293333355 0.999308293333355 -0.9993080933333551 0.999308293333355 0 2 6 -5 
6 0.9993080933333551 -0.999308293333355 0.9993080933333551 0.999308293333355 0.999308293333355 0.999308293333355 0 2 5 -7 
7 0.9993080933333551 0.9993080933333551 -0.999308293333355 0.999308293333355 0.999308293333355 0.999308293333355 0 2 8 -7 
8 0.9993080933333551 -0.999308293333355 -0.999308293333355 0.999308293333355 0.999308293333355 -0.9993080933333551 0 2 6 -8 
9 -0.999308293333355 -0.999308293333355 -0.999308293333355 0.999308293333355 -0.9993080933333551 -0.9993080933333551 0 2 2 -6 
10 -0.999308293333355 -0.999308293333355 0.9993080933333551 0.999308293333355 -0.9993080933333551 0.999308293333355 0 2 1 -5 
11 -0.999308293333355 0.9993080933333551 -0.999308293333355 0.999308293333355 0.999308293333355 -0.9993080933333551 0 2 4 -8 
12 -0.999308293333355 0.9993080933333551 0.9993080933333551 0.999308293333355 0.999308293333355 0.999308293333355 0 2 3 -7 
13 -1.498962390000033 -1.498962390000033 -1.498962390000033 -1.498962190000033 -1.498962190000033 1.498962390000033 0 2 10 -9 
14 -1.498962390000033 -1.498962390000033 1.498962190000033 -1.498962190000033 1.498962390000033 1.498962390000033 0 2 9 -11 
15 -1.498962390000033 1.498962190000033 -1.498962390000033 -1.498962190000033 1.498962390000033 1.498962390000033 0 2 12 -11 
16 -1.498962390000033 -1.498962390000033 -1.498962390000033 -1.498962190000033 1.498962390000033 -1.498962190000033 0 2 10 -12 
17 1.498962190000033 -1.498962390000033 -1.498962390000033 1.498962390000033 -1.498962190000033 1.498962390000033 0 2 14 -13 
18 1.498962190000033 -1.498962390000033 1.498962190000033 1.498962390000033 1.498962390000033 1.498962390000033 0 2 13 -15 
19 1.498962190000033 1.498962190000033 -1.498962390000033 1.498962390000033 1.498962390000033 1.498962390000033 0 2 16 -15 
20 1.498962190000033 -1.498962390000033 -1.498962390000033 1.498962390000033 1.498962390000033 -1.498962190000033 0 2 14 -16 
21 -1.498962390000033 -1.498962390000033 -1.498962390000033 1.498962390000033 -1.498962190000033 -1.498962190000033 0 2 10 -14 
22 -1.498962390000033 -1.498962390000033 1.498962190000033 1.498962390000033 -1.498962190000033 1.498962390000033 0 2 9 -13 
23 -1.498962390000033 1.498962190000033 -1.498962390000033 1.498962390000033 1.498962390000033 -1.498962190000033 0 2 12 -16 
24 -1.498962390000033 1.498962190000033 1.498962190000033 1.498962390000033 1.498962390000033 1.498962390000033 0 2 11 -15 
25 -1.99861648666671 -1.99861648666671 -1.99861648666671 -1.99861628666671 -1.99861628666671 1.99861648666671 0 2 18 -17 
26 -1.99861648666671 -1.99861648666671 1.99861628666671 -1.99861628666671 1.99861648666671 1.99861648666671 0 2 17 -19 
27 -1.99861648666671 1.99861628666671 -1.99861648666671 -1.99861628666671 1.99861648666671 1.99861648666671 0 2 20 -19 
28 -1.99861648666671 -1.99861648666671 -1.99861648666671 -1.99861628666671 1.99861648666671 -1.99861628666671 0 2 18 -20 
29 -1.99861648666671 -1.99861648666671 -1.99861648666671 1.99861648666671 -1.99861628666671 -1.99861628666671 0 2 18 -21 
30 1.99861628666671 -1.99861648666671 -1.99861648666671 1.99861648666671 -1.99861628666671 1.99861648666671 0 2 21 -22 
31 -1.99861648666671 -1.99861648666671 1.99861628666671 1.99861648666671 -1.99861628666671 1.99861648666671 0 2 17 -22 
32 -1.99861648666671 1.99861628666671 1.99861628666671 1.99861648666671 1.99861648666671 1.99861648666671 0 2 19 -23 
33 1.99861628666671 -1.99861648666671 1.99861628666671 1.99861648666671 1.99861648666671 1.99861648666671 0 2 22 -23 
34 -1.99861648666671 1.99861628666671 -1.99861648666671 1.99861648666671 1.99861648666671 -1.99861628666671 0 2 20 -24 
35 1.99861628666671 1.99861628666671 -1.99861648666671 1.99861648666671 1.99861648666671 1.99861648666671 0 2 24 -23 
36 1.99861628666671 -1.99861648666671 -1.99861648666671 1.99861648666671 1.99861648666671 -1.99861628666671 0 2 21 -24 
1 -0.999308293333355 -0.999308293333355 -0.999308293333355 -0.9993080933333551 0.999308293333355 0.999308293333355 0 4 -1 4 3 -2 
2 0.9993080933333551 -0.999308293333355 -0.999308293333355 0.999308293333355 0.999308293333355 0.999308293333355 0 4 -5 8 7 -6 
3 -0.999308293333355 -0.999308293333355 -0.999308293333355 0.999308293333355 -0.9993080933333551 0.999308293333355 0 4 -9 1 10 -5 
4 -0.999308293333355 0.9993080933333551 -0.999308293333355 0.999308293333355 0.999308293333355 0.999308293333355 0 4 -11 3 12 -7 
5 -0.999308293333355 -0.999308293333355 -0.999308293333355 0.999308293333355 0.999308293333355 -0.9993080933333551 0 4 -4 9 8 -11 
6 -0.999308293333355 -0.999308293333355 0.9993080933333551 0.999308293333355 0.999308293333355 0.999308293333355 0 4 -2 10 6 -12 
7 -1.498962390000033 -1.498962390000033 -1.498962390000033 -1.498962190000033 1.498962390000033 1.498962390000033 0 4 -13 16 15 -14 
8 1.498962190000033 -1.498962390000033 -1.498962390000033 1.498962390000033 1.498962390000033 1.498962390000033 0 4 -17 20 19 -18 
9 -1.498962390000033 -1.498962390000033 -1.498962390000033 1.498962390000033 -1.498962190000033 1.498962390000033 0 4 -21 13 22 -17 
10 -1.498962390000033 1.498962190000033 -1.498962390000033 1.498962390000033 1.498962390000033 1.498962390000033 0 4 -23 15 24 -19 
11 -1.498962390000033 -1.498962390000033 -1.498962390000033 1.498962390000033 1.498962390000033 -1.498962190000033 0 4 -16 21 20 -23 
12 -1.498962390000033 -1.498962390000033 1.498962190000033 1.498962390000033 1.498962390000033 1.498962390000033 0 4 -14 22 18 -24 
13 -1.99861648666671 -1.99861648666671 -1.99861648666671 -1.99861628666671 1.99861648666671 1.99861648666671 0 4 -25 28 27 -26 
14 -1.99861648666671 -1.99861648666671 -1.99861648666671 1.99861648666671 -1.99861628666671 1.99861648666671 0 4 -29 25 31 -30 
15 -1.99861648666671 -1.99861648666671 1.99861628666671 1.99861648666671 1.99861648666671 1.99861648666671 0 4 -26 31 33 -32 
16 -1.99861648666671 1.99861628666671 -1.99861648666671 1.99861648666671 1.99861648666671 1.99861648666671 0 4 -34 27 32 -35 
17 -1.99861648666671 -1.99861648666671 -1.99861648666671 1.99861648666671 1.99861648666671 -1.99861628666671 0 4 -28 29 36 -34 
18 1.99861628666671 -1.99861648666671 -1.99861648666671 1.99861648666671 1.99861648666671 1.99861648666671 0 4 -30 36 35 -33 
1 -0.999308293333355 -0.999308293333355 -0.999308293333355 0.999308293333355 0.999308293333355 0.999308293333355 1 301 6 -1 2 -3 4 -5 6 
2 -1.498962390000033 -1.498962390000033 -1.498962390000033 1.498962390000033 1.498962390000033 1.498962390000033 1 302 12 -7 -9 12 10 -11 8 1 3 -6 -4 5 -2 
3 -1.99861648666671 -1.99861648666671 -1.99861648666671 1.99861648666671 1.99861648666671 1.99861648666671 1 303 12 -13 -14 15 16 -17 18 7 9 -12 -10 11 -8 
$EndEntities
$Nodes
45 42 1 42
0 1 0 1
1
-0.9993081933333551 -0.9993081933333551 0.9993081933333551
0 2 0 1
2
-0.9993081933333551 -0.9993081933333551 -0.9993081933333551
0 3 0 1
3
-0.9993081933333551 0.9993081933333551 0.9993081933333551
0 4 0 1
4
-0.9993081933333551 0.9993081933333551 -0.9993081933333551
0 5 0 1
5
0.9993081933333551 -0.9993081933333551 0.9993081933333551
0 6 0 1
6
0.9993081933333551 -0.9993081933333551 -0.9993081933333551
0 7 0 1
7
0.9993081933333551 0.9993081933333551 0.9993081933333551
0 8 0 1
8
0.9993081933333551 0.9993081933333551 -0.9993081933333551
0 9 0 1
9
-1.498962290000033 -1.498962290000033 1.498962290000033
0 10 0 1
10
-1.498962290000033 -1.498962290000033 -1.498962290000033
0 11 0 1
11
-1.498962290000033 1.498962290000033 1.498962290000033
0 12 0 1
12
-1.498962290000033 1.498962290000033 -1.498962290000033
0 13 0 1
13
1.498962290000033 -1.498962290000033 1.498962290000033
0 14 0 1
14
1.498962290000033 -1.498962290000033 -1.498962290000033
0 15 0 1
15
1.498962290000033 1.498962290000033 1.498962290000033
0 16 0 1
16
1.498962290000033 1.498962290000033 -1.498962290000033
0 17 0 1
17
-1.99861638666671 -1.99861638666671 1.99861638666671
0 18 0 1
18
-1.99861638666671 -1.99861638666671 -1.99861638666671
0 19 0 1
19
-1.99861638666671 1.99861638666671 1.99861638666671
0 20 0 1
20
-1.99861638666671 1.99861638666671 -1.99861638666671
0 21 0 1
21
1.99861638666671 -1.99861638666671 -1.99861638666671
0 22 0 1
22
1.99861638666671 -1.99861638666671 1.99861638666671
0 23 0 1
23
1.99861638666671 1.99861638666671 1.99861638666671
0 24 0 1
24
1.99861638666671 1.99861638666671 -1.99861638666671
2 1 0 1
25
-0.9993081933333551 0 0
2 2 0 1
26
0.9993081933333551 0 0
2 3 0 1
27
0 -0.9993081933333551 0
2 4 0 1
28
0 0.9993081933333551 0
2 5 0 1
29
0 0 -0.9993081933333551
2 6 0 1
30
0 0 0.9993081933333551
2 7 0 1
31
-1.498962290000033 0 0
2 8 0 1
32
1.498962290000033 0 0
2 9 0 1
33
0 -1.498962290000033 0
2 10 0 1
34
0 1.498962290000033 0
2 11 0 1
35
0 0 -1.498962290000033
2 12 0 1
36
0 0 1.498962290000033
2 13 0 1
37
-1.99861638666671 0 0
2 14 0 1
38
0 -1.99861638666671 0
2 15 0 1
39
0 0 1.99861638666671
2 16 0 1
40
0 1.99861638666671 0
2 17 0 1
41
0 0 -1.99861638666671
2 18 0 1
42
1.99861638666671 0 0
3 1 0 0
3 2 0 0
3 3 0 0
$EndNodes
$Elements
3 168 1 168
3 1 4 24
1 25 28 30 26 
2 26 25 28 29 
3 27 25 30 26 
4 26 27 25 29 
5 5 27 26 6 
6 27 30 1 5 
7 3 4 28 25 
8 25 30 3 1 
9 29 27 2 6 
10 2 25 1 27 
11 25 2 4 29 
12 26 28 7 8 
13 30 28 3 7 
14 7 5 30 26 
15 29 8 26 6 
16 8 28 4 29 
17 3 28 30 25 
18 1 25 30 27 
19 8 26 28 29 
20 5 27 30 26 
21 30 28 7 26 
22 25 4 28 29 
23 27 2 25 29 
24 29 26 27 6 
3 2 4 72
25 4 16 34 8 
26 7 11 34 3 
27 3 9 31 1 
28 7 11 3 36 
29 10 6 2 33 
30 9 33 1 5 
31 35 12 2 4 
32 16 4 35 8 
33 34 15 7 8 
34 12 31 4 3 
35 34 12 4 3 
36 9 3 36 1 
37 32 15 8 7 
38 10 6 35 2 
39 33 14 6 5 
40 14 32 6 5 
41 10 31 1 2 
42 13 36 7 5 
43 14 35 6 8 
44 33 10 1 2 
45 9 36 5 1 
46 31 2 12 4 
47 32 8 14 6 
48 32 13 7 5 
49 14 16 35 8 
50 11 12 34 3 
51 13 33 9 5 
52 16 14 32 8 
53 15 13 36 7 
54 13 14 33 5 
55 13 9 36 5 
56 16 32 15 8 
57 34 16 15 8 
58 32 13 5 14 
59 10 35 12 2 
60 9 10 31 1 
61 9 3 11 36 
62 10 9 33 1 
63 2 31 12 10 
64 13 32 7 15 
65 12 11 31 3 
66 4 16 12 34 
67 9 3 31 11 
68 6 10 35 14 
69 10 6 33 14 
70 7 11 36 15 
71 4 16 35 12 
72 11 7 34 15 
73 36 3 30 1 
74 35 8 29 6 
75 31 2 4 25 
76 31 4 3 25 
77 1 33 27 5 
78 2 35 29 6 
79 33 2 1 27 
80 3 28 4 34 
81 2 35 4 29 
82 34 3 28 7 
83 7 32 5 26 
84 4 35 8 29 
85 26 32 5 6 
86 27 33 2 6 
87 30 36 1 5 
88 25 31 2 1 
89 25 3 31 1 
90 30 36 5 7 
91 34 28 4 8 
92 36 30 3 7 
93 33 27 5 6 
94 26 7 32 8 
95 28 34 7 8 
96 32 26 8 6 
3 3 4 72
97 23 39 11 15 
98 19 12 40 11 
99 19 37 12 11 
100 23 13 39 15 
101 21 10 38 14 
102 22 9 39 13 
103 38 9 22 13 
104 23 11 40 15 
105 15 40 24 16 
106 21 13 42 14 
107 21 41 10 14 
108 21 38 13 14 
109 12 18 10 37 
110 37 18 10 9 
111 9 18 10 38 
112 15 23 13 42 
113 40 12 20 16 
114 12 10 18 41 
115 42 15 24 16 
116 16 12 20 41 
117 12 18 20 41 
118 12 20 18 37 
119 9 17 18 38 
120 16 20 24 41 
121 42 15 23 24 
122 37 12 20 19 
123 12 19 40 20 
124 39 11 19 23 
125 38 9 17 22 
126 17 9 39 22 
127 39 22 13 23 
128 11 23 40 19 
129 22 13 23 42 
130 13 22 38 21 
131 40 23 15 24 
132 24 40 20 16 
133 10 18 41 21 
134 38 18 10 21 
135 22 13 42 21 
136 18 37 17 9 
137 16 12 34 40 
138 11 34 40 15 
139 12 10 31 37 
140 10 9 31 37 
141 12 11 34 40 
142 11 12 31 37 
143 31 9 11 37 
144 9 10 33 38 
145 14 13 33 38 
146 16 32 42 15 
147 15 13 32 42 
148 10 14 33 38 
149 14 16 32 42 
150 13 33 38 9 
151 34 16 40 15 
152 32 13 14 42 
153 10 35 41 12 
154 11 9 36 39 
155 9 13 36 39 
156 15 11 36 39 
157 13 15 36 39 
158 12 16 35 41 
159 14 10 35 41 
160 16 14 35 41 
161 41 14 24 16 
162 41 24 14 21 
163 42 24 14 16 
164 42 14 24 21 
165 39 11 17 19 
166 39 17 11 9 
167 37 17 11 19 
168 37 11 17 9 
$EndElements
