# vtk DataFile Version 2.0
tfsf_pml_cavity, Created by Gmsh 4.13.1 
ASCII
DATASET UNSTRUCTURED_GRID
POINTS 42 double
-0.9993081933333551 -0.9993081933333551 0.9993081933333551
-0.9993081933333551 -0.9993081933333551 -0.9993081933333551
-0.9993081933333551 0.9993081933333551 0.9993081933333551
-0.9993081933333551 0.9993081933333551 -0.9993081933333551
0.9993081933333551 -0.9993081933333551 0.9993081933333551
0.9993081933333551 -0.9993081933333551 -0.9993081933333551
0.9993081933333551 0.9993081933333551 0.9993081933333551
0.9993081933333551 0.9993081933333551 -0.9993081933333551
-1.498962290000033 -1.498962290000033 1.498962290000033
-1.498962290000033 -1.498962290000033 -1.498962290000033
-1.498962290000033 1.498962290000033 1.498962290000033
-1.498962290000033 1.498962290000033 -1.498962290000033
1.498962290000033 -1.498962290000033 1.498962290000033
1.498962290000033 -1.498962290000033 -1.498962290000033
1.498962290000033 1.498962290000033 1.498962290000033
1.498962290000033 1.498962290000033 -1.498962290000033
-1.99861638666671 -1.99861638666671 1.99861638666671
-1.99861638666671 -1.99861638666671 -1.99861638666671
-1.99861638666671 1.99861638666671 1.99861638666671
-1.99861638666671 1.99861638666671 -1.99861638666671
1.99861638666671 -1.99861638666671 -1.99861638666671
1.99861638666671 -1.99861638666671 1.99861638666671
1.99861638666671 1.99861638666671 1.99861638666671
1.99861638666671 1.99861638666671 -1.99861638666671
-0.9993081933333551 0 0
0.9993081933333551 0 0
0 -0.9993081933333551 0
0 0.9993081933333551 0
0 0 -0.9993081933333551
0 0 0.9993081933333551
-1.498962290000033 0 0
1.498962290000033 0 0
0 -1.498962290000033 0
0 1.498962290000033 0
0 0 -1.498962290000033
0 0 1.498962290000033
-1.99861638666671 0 0
0 -1.99861638666671 0
0 0 1.99861638666671
0 1.99861638666671 0
0 0 -1.99861638666671
1.99861638666671 0 0

CELLS 168 840
4 24 27 29 25
4 25 24 27 28
4 26 24 29 25
4 25 26 24 28
4 4 26 25 5
4 26 29 0 4
4 2 3 27 24
4 24 29 2 0
4 28 26 1 5
4 1 24 0 26
4 24 1 3 28
4 25 27 6 7
4 29 27 2 6
4 6 4 29 25
4 28 7 25 5
4 7 27 3 28
4 2 27 29 24
4 0 24 29 26
4 7 25 27 28
4 4 26 29 25
4 29 27 6 25
4 24 3 27 28
4 26 1 24 28
4 28 25 26 5
4 3 15 33 7
4 6 10 33 2
4 2 8 30 0
4 6 10 2 35
4 9 5 1 32
4 8 32 0 4
4 34 11 1 3
4 15 3 34 7
4 33 14 6 7
4 11 30 3 2
4 33 11 3 2
4 8 2 35 0
4 31 14 7 6
4 9 5 34 1
4 32 13 5 4
4 13 31 5 4
4 9 30 0 1
4 12 35 6 4
4 13 34 5 7
4 32 9 0 1
4 8 35 4 0
4 30 1 11 3
4 31 7 13 5
4 31 12 6 4
4 13 15 34 7
4 10 11 33 2
4 12 32 8 4
4 15 13 31 7
4 14 12 35 6
4 12 13 32 4
4 12 8 35 4
4 15 31 14 7
4 33 15 14 7
4 31 12 4 13
4 9 34 11 1
4 8 9 30 0
4 8 2 10 35
4 9 8 32 0
4 1 30 11 9
4 12 31 6 14
4 11 10 30 2
4 3 15 11 33
4 8 2 30 10
4 5 9 34 13
4 9 5 32 13
4 6 10 35 14
4 3 15 34 11
4 10 6 33 14
4 35 2 29 0
4 34 7 28 5
4 30 1 3 24
4 30 3 2 24
4 0 32 26 4
4 1 34 28 5
4 32 1 0 26
4 2 27 3 33
4 1 34 3 28
4 33 2 27 6
4 6 31 4 25
4 3 34 7 28
4 25 31 4 5
4 26 32 1 5
4 29 35 0 4
4 24 30 1 0
4 24 2 30 0
4 29 35 4 6
4 33 27 3 7
4 35 29 2 6
4 32 26 4 5
4 25 6 31 7
4 27 33 6 7
4 31 25 7 5
4 22 38 10 14
4 18 11 39 10
4 18 36 11 10
4 22 12 38 14
4 20 9 37 13
4 21 8 38 12
4 37 8 21 12
4 22 10 39 14
4 14 39 23 15
4 20 12 41 13
4 20 40 9 13
4 20 37 12 13
4 11 17 9 36
4 36 17 9 8
4 8 17 9 37
4 14 22 12 41
4 39 11 19 15
4 11 9 17 40
4 41 14 23 15
4 15 11 19 40
4 11 17 19 40
4 11 19 17 36
4 8 16 17 37
4 15 19 23 40
4 41 14 22 23
4 36 11 19 18
4 11 18 39 19
4 38 10 18 22
4 37 8 16 21
4 16 8 38 21
4 38 21 12 22
4 10 22 39 18
4 21 12 22 41
4 12 21 37 20
4 39 22 14 23
4 23 39 19 15
4 9 17 40 20
4 37 17 9 20
4 21 12 41 20
4 17 36 16 8
4 15 11 33 39
4 10 33 39 14
4 11 9 30 36
4 9 8 30 36
4 11 10 33 39
4 10 11 30 36
4 30 8 10 36
4 8 9 32 37
4 13 12 32 37
4 15 31 41 14
4 14 12 31 41
4 9 13 32 37
4 13 15 31 41
4 12 32 37 8
4 33 15 39 14
4 31 12 13 41
4 9 34 40 11
4 10 8 35 38
4 8 12 35 38
4 14 10 35 38
4 12 14 35 38
4 11 15 34 40
4 13 9 34 40
4 15 13 34 40
4 40 13 23 15
4 40 23 13 20
4 41 23 13 15
4 41 13 23 20
4 38 10 16 18
4 38 16 10 8
4 36 16 10 18
4 36 10 16 8

CELL_TYPES 168
10
10
10
10
10
10
10
10
10
10
10
10
10
10
10
10
10
10
10
10
10
10
10
10
10
10
10
10
10
10
10
10
10
10
10
10
10
10
10
10
10
10
10
10
10
10
10
10
10
10
10
10
10
10
10
10
10
10
10
10
10
10
10
10
10
10
10
10
10
10
10
10
10
10
10
10
10
10
10
10
10
10
10
10
10
10
10
10
10
10
10
10
10
10
10
10
10
10
10
10
10
10
10
10
10
10
10
10
10
10
10
10
10
10
10
10
10
10
10
10
10
10
10
10
10
10
10
10
10
10
10
10
10
10
10
10
10
10
10
10
10
10
10
10
10
10
10
10
10
10
10
10
10
10
10
10
10
10
10
10
10
10
10
10
10
10
10
10

CELL_DATA 168
SCALARS CellEntityIds int 1
LOOKUP_TABLE default
301
301
301
301
301
301
301
301
301
301
301
301
301
301
301
301
301
301
301
301
301
301
301
301
302
302
302
302
302
302
302
302
302
302
302
302
302
302
302
302
302
302
302
302
302
302
302
302
302
302
302
302
302
302
302
302
302
302
302
302
302
302
302
302
302
302
302
302
302
302
302
302
302
302
302
302
302
302
302
302
302
302
302
302
302
302
302
302
302
302
302
302
302
302
302
302
303
303
303
303
303
303
303
303
303
303
303
303
303
303
303
303
303
303
303
303
303
303
303
303
303
303
303
303
303
303
303
303
303
303
303
303
303
303
303
303
303
303
303
303
303
303
303
303
303
303
303
303
303
303
303
303
303
303
303
303
303
303
303
303
303
303
303
303
303
303
303
303
