$MeshFormat
4.1 0 8
$EndMeshFormat
$PhysicalNames
2
1 101 "Ez_0"
2 201 "free_space"
$EndPhysicalNames
$Entities
4 4 1 0
1 -3.141592653589793 -3.141592653589793 0 0 
2 3.141592653589793 -3.141592653589793 0 0 
3 3.141592653589793 3.141592653589793 0 0 
4 -3.141592653589793 3.141592653589793 0 0 
1 -3.141592753589793 -3.141592753589793 -1e-07 3.141592753589793 -3.141592553589793 1e-07 1 101 2 1 -2 
2 3.141592553589793 -3.141592753589793 -1e-07 3.141592753589793 3.141592753589793 1e-07 1 101 2 2 -3 
3 -3.141592753589793 3.141592553589793 -1e-07 3.141592753589793 3.141592753589793 1e-07 1 101 2 3 -4 
4 -3.141592753589793 -3.141592753589793 -1e-07 -3.141592553589793 3.141592753589793 1e-07 1 101 2 4 -1 
1 -3.141592753589793 -3.141592753589793 -1e-07 3.141592753589793 3.141592753589793 1e-07 1 201 4 1 2 3 4 
$EndEntities
$Nodes
9 74 1 74
0 1 0 1
1
-3.141592653589793 -3.141592653589793 0
0 2 0 1
2
3.141592653589793 -3.141592653589793 0
0 3 0 1
3
3.141592653589793 3.141592653589793 0
0 4 0 1
4
-3.141592653589793 3.141592653589793 0
1 1 0 6
5
6
7
8
9
10
-2.243994752564138 -3.141592653589793 0
-1.346396851538483 -3.141592653589793 0
-0.4487989505128276 -3.141592653589793 0
0.4487989505128276 -3.141592653589793 0
1.346396851538483 -3.141592653589793 0
2.243994752564138 -3.141592653589793 0
1 2 0 6
11
12
13
14
15
16
3.141592653589793 -2.243994752564138 0
3.141592653589793 -1.346396851538483 0
3.141592653589793 -0.4487989505128276 0
3.141592653589793 0.4487989505128276 0
3.141592653589793 1.346396851538483 0
3.141592653589793 2.243994752564138 0
1 3 0 6
17
18
19
20
21
22
2.243994752564138 3.141592653589793 0
1.346396851538483 3.141592653589793 0
0.4487989505128276 3.141592653589793 0
-0.4487989505128276 3.141592653589793 0
-1.346396851538483 3.141592653589793 0
-2.243994752564138 3.141592653589793 0
1 4 0 6
23
24
25
26
27
28
-3.141592653589793 2.243994752564138 0
-3.141592653589793 1.346396851538483 0
-3.141592653589793 0.4487989505128276 0
-3.141592653589793 -0.4487989505128276 0
-3.141592653589793 -1.346396851538483 0
-3.141592653589793 -2.243994752564138 0
2 1 0 46
29
30
31
32
33
34
35
36
37
38
39
40
41
42
43
44
45
46
47
48
49
50
51
52
53
54
55
56
57
58
59
60
61
62
63
64
65
66
67
68
69
70
71
72
73
74
0.01145236621259538 2.346500869626799 0
0.01539770509929257 -2.337021920479341 0
2.364250068917985 1.926667750633688e-17 0
-2.350288209957156 0.004553303052735257 0
-2.352481446896131 -1.760481082417121 0
1.712773319125005 -2.328640705322224 0
2.364250068917985 1.79519580205131 0
-1.70324582107626 2.332732238373806 0
2.359678173571395 0.9201728410863286 0
1.588212054836881 0.469209542038853 0
1.587124912677961 -0.4453971852584899 0
0.8177094023402522 0.01763605545028446 0
0.8109585547739806 -0.8940915975748844 0
0.033812007896811 -0.445275224029318 0
0.04173551712471868 0.4659929101553506 0
-0.7535994187122983 0.003452947687672579 0
-0.7462685124273796 -0.8964351219971243 0
-0.7552775590351818 0.9010390522473549 0
1.612389127088337 -1.352017082093038 0
0.03379408167248572 1.39470834788485 0
0.8468898203358052 -1.799747371471421 0
-0.8055562812821782 1.809322911553485 0
0.8274499862562112 1.862215416731987 0
-1.599857373863017 1.372760578356991 0
-1.537290805899459 -0.4477073993498583 0
-1.534316028246089 -1.340235343234201 0
-0.7451202697692461 -1.79519580205131 0
-1.650026010006599 -2.312318244748569 0
0.8336886290106227 0.963785338042394 0
-2.323014466941124 -0.8936420266928171 0
-1.584440643315777 0.4487989505128286 0
-2.360586010332463 0.9163787612291052 0
2.366467548172145 -0.8957845057638971 0
0.03594488431821061 -1.361294506267233 0
1.61021226247818 1.392079238396 0
1.687994662275985 2.341896490425127 0
2.404108560088408 -1.768353524492288 0
-2.40581443543277 1.783379213701303 0
-0.8585091076394307 2.554348265346735 0
0.8740513293222825 -2.549719060890514 0
-0.8349888753455725 -2.545544254891762 0
0.8975979010256552 2.586248440687307 0
-2.484505385271833 -2.484505385271833 0
2.484505385271833 -2.484505385271833 0
2.484505385271832 2.484505385271832 0
-2.488012100145296 2.488012100145296 0
$EndNodes
$Elements
5 146 5 150
1 1 1 7
5 1 5 
6 5 6 
7 6 7 
8 7 8 
9 8 9 
10 9 10 
11 10 2 
1 2 1 7
12 2 11 
13 11 12 
14 12 13 
15 13 14 
16 14 15 
17 15 16 
18 16 3 
1 3 1 7
19 3 17 
20 17 18 
21 18 19 
22 19 20 
23 20 21 
24 21 22 
25 22 4 
1 4 1 7
26 4 23 
27 23 24 
28 24 25 
29 25 26 
30 26 27 
31 27 28 
32 28 1 
2 1 2 118
33 36 52 50 
34 47 49 34 
35 50 67 36 
36 6 56 5 
37 56 71 5 
38 49 68 34 
39 37 63 38 
40 36 66 52 
41 49 62 30 
42 48 51 29 
43 30 62 55 
44 29 50 48 
45 40 57 43 
46 38 63 57 
47 34 65 47 
48 33 56 54 
49 32 60 25 
50 46 59 44 
51 27 58 26 
52 38 57 40 
53 43 57 48 
54 52 66 60 
55 35 63 37 
56 63 64 51 
57 25 60 24 
58 32 58 53 
59 54 58 33 
60 53 59 32 
61 59 60 32 
62 52 59 46 
63 33 58 27 
64 44 59 53 
65 26 58 32 
66 18 64 17 
67 48 57 51 
68 33 71 56 
69 30 68 49 
70 53 58 54 
71 52 60 59 
72 38 40 39 
73 40 41 39 
74 47 61 39 
75 31 61 13 
76 14 37 31 
77 38 39 31 
78 39 61 31 
79 41 47 39 
80 40 43 42 
81 42 62 41 
82 41 49 47 
83 54 55 45 
84 50 52 46 
85 54 56 55 
86 8 30 7 
87 10 34 9 
88 13 61 12 
89 14 31 13 
90 15 37 14 
91 16 35 15 
92 20 29 19 
93 22 36 21 
94 26 32 25 
95 28 33 27 
96 37 38 31 
97 40 42 41 
98 41 62 49 
99 44 45 42 
100 45 62 42 
101 43 48 46 
102 48 50 46 
103 43 44 42 
104 43 46 44 
105 44 53 45 
106 53 54 45 
107 55 62 45 
108 35 37 15 
109 47 65 61 
110 12 65 11 
111 64 70 51 
112 29 67 50 
113 57 63 51 
114 51 70 29 
115 61 65 12 
116 35 64 63 
117 60 66 24 
118 24 66 23 
119 36 67 21 
120 20 67 29 
121 8 68 30 
122 34 68 9 
123 29 70 19 
124 3 73 16 
125 17 73 3 
126 5 71 1 
127 1 71 28 
128 2 72 10 
129 11 72 2 
130 64 73 17 
131 55 69 30 
132 4 74 22 
133 23 74 4 
134 30 69 7 
135 6 69 56 
136 7 69 6 
137 21 67 20 
138 18 70 64 
139 9 68 8 
140 56 69 55 
141 35 73 64 
142 65 72 11 
143 19 70 18 
144 22 74 36 
145 10 72 34 
146 16 73 35 
147 28 71 33 
148 34 72 65 
149 36 74 66 
150 66 74 23 
$EndElements
