$MeshFormat
4.1 0 8
$EndMeshFormat
$PhysicalNames
9
2 201 "free_space"
2 301 "PML_a"
2 302 "PML_b"
2 303 "PML_c"
2 304 "PML_d"
2 401 "PML_I"
2 402 "PML_II"
2 403 "PML_III"
2 404 "PML_IV"
$EndPhysicalNames
$Entities
16 24 9 0
1 -1 -1 0 0 
2 1 -1 0 0 
3 1 1 0 0 
4 -1 1 0 0 
5 -1 -2 0 0 
6 1 -2 0 0 
7 2 -1 0 0 
8 2 1 0 0 
9 1 2 0 0 
10 -1 2 0 0 
11 -2 -1 0 0 
12 -2 1 0 0 
13 -2 -2 0 0 
14 2 -2 0 0 
15 2 2 0 0 
16 -2 2 0 0 
1 -1.0000001 -1.0000001 -1.000000001110223e-07 1.0000001 -0.9999998999999999 1.000000001110223e-07 0 2 1 -2 
2 0.9999998999999999 -1.0000001 -1.000000001110223e-07 1.0000001 1.0000001 1.000000001110223e-07 0 2 2 -3 
3 -1.0000001 0.9999998999999999 -1.000000001110223e-07 1.0000001 1.0000001 1.000000001110223e-07 0 2 3 -4 
4 -1.0000001 -1.0000001 -1.000000001110223e-07 -0.9999998999999999 1.0000001 1.000000001110223e-07 0 2 4 -1 
5 -1.0000001 -2.0000001 -1e-07 1.0000001 -1.9999999 1e-07 0 2 5 -6 
6 0.9999999000000001 -2.0000001 -1e-07 1.0000001 -0.9999999000000001 1e-07 0 2 6 -2 
7 -1.0000001 -2.0000001 -1e-07 -0.9999999000000001 -0.9999999000000001 1e-07 0 2 1 -5 
8 0.9999999000000001 -1.0000001 -1e-07 2.0000001 -0.9999999000000001 1e-07 0 2 2 -7 
9 1.9999999 -1.0000001 -1e-07 2.0000001 1.0000001 1e-07 0 2 7 -8 
10 0.9999999000000001 0.9999999000000001 -1e-07 2.0000001 1.0000001 1e-07 0 2 8 -3 
11 0.9999999000000001 0.9999999000000001 -1e-07 1.0000001 2.0000001 1e-07 0 2 3 -9 
12 -1.0000001 1.9999999 -1e-07 1.0000001 2.0000001 1e-07 0 2 9 -10 
13 -1.0000001 0.9999999000000001 -1e-07 -0.9999999000000001 2.0000001 1e-07 0 2 10 -4 
14 -2.0000001 -1.0000001 -1e-07 -0.9999999000000001 -0.9999999000000001 1e-07 0 2 11 -1 
15 -2.0000001 0.9999999000000001 -1e-07 -0.9999999000000001 1.0000001 1e-07 0 2 4 -12 
16 -2.0000001 -1.0000001 -1e-07 -1.9999999 1.0000001 1e-07 0 2 12 -11 
17 -2.0000001 -2.0000001 -1e-07 -0.9999999000000001 -1.9999999 1e-07 0 2 13 -5 
18 -2.0000001 -2.0000001 -1e-07 -1.9999999 -0.9999999000000001 1e-07 0 2 11 -13 
19 0.9999999000000001 -2.0000001 -1e-07 2.0000001 -1.9999999 1e-07 0 2 6 -14 
20 1.9999999 -2.0000001 -1e-07 2.0000001 -0.9999999000000001 1e-07 0 2 14 -7 
21 1.9999999 0.9999999000000001 -1e-07 2.0000001 2.0000001 1e-07 0 2 8 -15 
22 0.9999999000000001 1.9999999 -1e-07 2.0000001 2.0000001 1e-07 0 2 15 -9 
23 -2.0000001 1.9999999 -1e-07 -0.9999999000000001 2.0000001 1e-07 0 2 10 -16 
24 -2.0000001 0.9999999000000001 -1e-07 -1.9999999 2.0000001 1e-07 0 2 16 -12 
1 -2.0000001 -2.0000001 -1e-07 -0.9999999000000001 -0.9999999000000001 1e-07 1 301 4 17 -7 -14 18 
2 -1.0000001 -2.0000001 -1.000000001110223e-07 1.0000001 -0.9999998999999999 1.000000001110223e-07 1 401 4 5 6 -1 7 
3 0.9999999000000001 -2.0000001 -1e-07 2.0000001 -0.9999999000000001 1e-07 1 302 4 19 20 -8 -6 
4 0.9999998999999999 -1.0000001 -1.000000001110223e-07 2.0000001 1.0000001 1.000000001110223e-07 1 402 4 8 9 10 -2 
5 0.9999999000000001 0.9999999000000001 -1e-07 2.0000001 2.0000001 1e-07 1 303 4 -10 21 22 -11 
6 -1.0000001 0.9999998999999999 -1.000000001110223e-07 1.0000001 2.0000001 1.000000001110223e-07 1 403 4 -3 11 12 13 
7 -2.0000001 0.9999999000000001 -1e-07 -0.9999999000000001 2.0000001 1e-07 1 304 4 -15 -13 23 24 
8 -2.0000001 -1.0000001 -1.000000001110223e-07 -0.9999998999999999 1.0000001 1.000000001110223e-07 1 404 4 14 -4 15 16 
9 -1.0000001 -1.0000001 -1.000000001110223e-07 1.0000001 1.0000001 1.000000001110223e-07 1 201 4 1 2 3 4 
$EndEntities
$Nodes
49 111 1 111
0 1 0 1
1
-1 -1 0
0 2 0 1
2
1 -1 0
0 3 0 1
3
1 1 0
0 4 0 1
4
-1 1 0
0 5 0 1
5
-1 -2 0
0 6 0 1
6
1 -2 0
0 7 0 1
7
2 -1 0
0 8 0 1
8
2 1 0
0 9 0 1
9
1 2 0
0 10 0 1
10
-1 2 0
0 11 0 1
11
-2 -1 0
0 12 0 1
12
-2 1 0
0 13 0 1
13
-2 -2 0
0 14 0 1
14
2 -2 0
0 15 0 1
15
2 2 0
0 16 0 1
16
-2 2 0
1 1 0 3
17
18
19
-0.5 -1 0
0 -1 0
0.5 -1 0
1 2 0 3
20
21
22
1 -0.5 0
1 0 0
1 0.5 0
1 3 0 3
23
24
25
0.5 1 0
0 1 0
-0.5 1 0
1 4 0 3
26
27
28
-1 0.5 0
-1 0 0
-1 -0.5 0
1 5 0 3
29
30
31
-0.5 -2 0
0 -2 0
0.5 -2 0
1 6 0 1
32
1 -1.5 0
1 7 0 1
33
-1 -1.5 0
1 8 0 1
34
1.5 -1 0
1 9 0 3
35
36
37
2 -0.5 0
2 0 0
2 0.5 0
1 10 0 1
38
1.5 1 0
1 11 0 1
39
1 1.5 0
1 12 0 3
40
41
42
0.5 2 0
0 2 0
-0.5 2 0
1 13 0 1
43
-1 1.5 0
1 14 0 1
44
-1.5 -1 0
1 15 0 1
45
-1.5 1 0
1 16 0 3
46
47
48
-2 0.5 0
-2 0 0
-2 -0.5 0
1 17 0 1
49
-1.5 -2 0
1 18 0 1
50
-2 -1.5 0
1 19 0 1
51
1.5 -2 0
1 20 0 1
52
2 -1.5 0
1 21 0 1
53
2 1.5 0
1 22 0 1
54
1.5 2 0
1 23 0 1
55
-1.5 2 0
1 24 0 1
56
-2 1.5 0
2 1 0 4
57
58
59
60
-1.261388483965014 -1.261388483965014 0
-1.375 -1.625 0
-1.642523080660836 -1.350856413994169 0
-1.71875 -1.71875 0
2 2 0 6
61
62
63
64
65
66
-0.25 -1.433012701892219 0
0.25 -1.566987298107781 0
0.6712741669204877 -1.366841141581657 0
-0.6712741669204877 -1.633158858418343 0
-0.7100939331381949 -1.288991032403427 0
0.7100939331381949 -1.711008967596573 0
2 3 0 4
67
68
69
70
1.261388483965014 -1.261388483965014 0
1.375 -1.625 0
1.642523080660836 -1.350856413994169 0
1.71875 -1.71875 0
2 4 0 6
71
72
73
74
75
76
1.433012701892219 -0.25 0
1.566987298107781 0.25 0
1.366841141581657 0.6712741669204877 0
1.633158858418343 -0.6712741669204877 0
1.288991032403427 -0.7100939331381949 0
1.711008967596573 0.7100939331381949 0
2 5 0 4
77
78
79
80
1.261388483965014 1.261388483965014 0
1.625 1.375 0
1.350856413994169 1.642523080660836 0
1.71875 1.71875 0
2 6 0 6
81
82
83
84
85
86
0.25 1.433012701892219 0
-0.25 1.566987298107781 0
-0.6712741669204877 1.366841141581657 0
0.6712741669204877 1.633158858418343 0
0.7100939331381949 1.288991032403427 0
-0.7100939331381949 1.711008967596573 0
2 7 0 4
87
88
89
90
-1.261388483965014 1.261388483965014 0
-1.375 1.625 0
-1.642523080660836 1.350856413994169 0
-1.71875 1.71875 0
2 8 0 6
91
92
93
94
95
96
-1.433012701892219 0.25 0
-1.566987298107781 -0.25 0
-1.366841141581657 -0.6712741669204877 0
-1.633158858418343 0.6712741669204877 0
-1.288991032403427 0.7100939331381949 0
-1.711008967596573 -0.7100939331381949 0
2 9 0 15
97
98
99
100
101
102
103
104
105
106
107
108
109
110
111
-0.2719282083768604 0.5907763745374276 0
-0.25 -0.5669872981077807 0
0.576613977472084 -0.2478813153595618 0
0.5771986883178264 0.2480100012585194 0
0.1339745962155614 0 0
0.2657605283172011 -0.5748072016138173 0
-0.4165453552794812 -0.04068850813819741 0
0.202073948983302 0.5268665558354747 0
-0.6463021618495306 -0.3793723469850139 0
-0.6894196194263219 0.25 0
0.6339745962155613 -0.6339745962155614 0
0.6339745962155613 0.6339745962155614 0
-0.6500815866514181 0.6438044389387071 0
-0.1768022110078467 0.2335578217559566 0
-0.7030390807038334 -0.7081469871572276 0
$EndNodes
$Elements
9 188 1 188
2 1 2 14
1 50 59 11 
2 33 58 5 
3 5 58 49 
4 11 59 44 
5 49 60 13 
6 13 60 50 
7 1 57 33 
8 44 57 1 
9 50 60 59 
10 57 58 33 
11 59 60 58 
12 58 60 49 
13 57 59 58 
14 44 59 57 
2 2 2 22
15 18 62 19 
16 30 61 29 
17 61 62 18 
18 30 62 61 
19 62 63 19 
20 61 64 29 
21 17 61 18 
22 31 62 30 
23 19 63 2 
24 2 63 32 
25 29 64 5 
26 5 64 33 
27 17 65 61 
28 31 66 62 
29 61 65 64 
30 62 66 63 
31 1 65 17 
32 33 65 1 
33 6 66 31 
34 32 66 6 
35 63 66 32 
36 64 65 33 
2 3 2 14
37 7 69 52 
38 6 68 32 
39 51 68 6 
40 34 69 7 
41 14 70 51 
42 52 70 14 
43 32 67 2 
44 2 67 34 
45 69 70 52 
46 32 68 67 
47 51 70 68 
48 68 69 67 
49 68 70 69 
50 67 69 34 
2 4 2 22
51 21 72 22 
52 36 71 35 
53 71 72 21 
54 36 72 71 
55 72 73 22 
56 71 74 35 
57 20 71 21 
58 37 72 36 
59 22 73 3 
60 3 73 38 
61 7 74 34 
62 35 74 7 
63 20 75 71 
64 37 76 72 
65 71 75 74 
66 72 76 73 
67 2 75 20 
68 34 75 2 
69 8 76 37 
70 38 76 8 
71 74 75 34 
72 73 76 38 
2 5 2 14
73 9 79 54 
74 8 78 38 
75 53 78 8 
76 39 79 9 
77 15 80 53 
78 54 80 15 
79 38 77 3 
80 3 77 39 
81 79 80 54 
82 38 78 77 
83 53 80 78 
84 78 79 77 
85 78 80 79 
86 77 79 39 
2 6 2 22
87 24 82 25 
88 41 81 40 
89 81 82 24 
90 41 82 81 
91 82 83 25 
92 81 84 40 
93 23 81 24 
94 42 82 41 
95 25 83 4 
96 4 83 43 
97 9 84 39 
98 40 84 9 
99 23 85 81 
100 42 86 82 
101 81 85 84 
102 82 86 83 
103 3 85 23 
104 39 85 3 
105 10 86 42 
106 43 86 10 
107 84 85 39 
108 83 86 43 
2 7 2 14
109 12 89 56 
110 10 88 43 
111 55 88 10 
112 45 89 12 
113 16 90 55 
114 56 90 16 
115 43 87 4 
116 4 87 45 
117 89 90 56 
118 43 88 87 
119 55 90 88 
120 88 89 87 
121 88 90 89 
122 87 89 45 
2 8 2 22
123 27 92 28 
124 47 91 46 
125 91 92 27 
126 47 92 91 
127 92 93 28 
128 91 94 46 
129 26 91 27 
130 48 92 47 
131 28 93 1 
132 1 93 44 
133 12 94 45 
134 46 94 12 
135 26 95 91 
136 48 96 92 
137 91 95 94 
138 92 96 93 
139 4 95 26 
140 45 95 4 
141 44 96 11 
142 11 96 48 
143 93 96 44 
144 94 95 45 
2 9 2 44
145 101 103 98 
146 98 102 101 
147 101 102 99 
148 100 104 101 
149 27 105 103 
150 104 110 101 
151 103 106 27 
152 21 100 99 
153 18 98 17 
154 21 99 20 
155 22 100 21 
156 25 97 24 
157 100 101 99 
158 28 105 27 
159 106 110 97 
160 19 102 18 
161 24 104 23 
162 18 102 98 
163 97 104 24 
164 101 110 103 
165 103 105 98 
166 20 107 2 
167 2 107 19 
168 3 108 22 
169 23 108 3 
170 4 109 25 
171 26 109 4 
172 97 110 104 
173 97 109 106 
174 98 111 17 
175 103 110 106 
176 104 108 23 
177 19 107 102 
178 27 106 26 
179 25 109 97 
180 99 107 20 
181 22 108 100 
182 105 111 98 
183 17 111 1 
184 1 111 28 
185 102 107 99 
186 100 108 104 
187 106 109 26 
188 28 111 105 
$EndElements
