$MeshFormat
4.1 0 8
$EndMeshFormat
$PhysicalNames
9
2 201 "free_space"
2 301 "PML_a"
2 302 "PML_b"
2 303 "PML_c"
2 304 "PML_d"
2 401 "PML_I"
2 402 "PML_II"
2 403 "PML_III"
2 404 "PML_IV"
$EndPhysicalNames
$Entities
16 24 9 0
1 -1 -1 0 0 
2 1 -1 0 0 
3 1 1 0 0 
4 -1 1 0 0 
5 -1 -2 0 0 
6 1 -2 0 0 
7 2 -1 0 0 
8 2 1 0 0 
9 1 2 0 0 
10 -1 2 0 0 
11 -2 -1 0 0 
12 -2 1 0 0 
13 -2 -2 0 0 
14 2 -2 0 0 
15 2 2 0 0 
16 -2 2 0 0 
1 -1.0000001 -1.0000001 -1.000000001110223e-07 1.0000001 -0.9999998999999999 1.000000001110223e-07 0 2 1 -2 
2 0.9999998999999999 -1.0000001 -1.000000001110223e-07 1.0000001 1.0000001 1.000000001110223e-07 0 2 2 -3 
3 -1.0000001 0.9999998999999999 -1.000000001110223e-07 1.0000001 1.0000001 1.000000001110223e-07 0 2 3 -4 
4 -1.0000001 -1.0000001 -1.000000001110223e-07 -0.9999998999999999 1.0000001 1.000000001110223e-07 0 2 4 -1 
5 -1.0000001 -2.0000001 -1e-07 1.0000001 -1.9999999 1e-07 0 2 5 -6 
6 0.9999999000000001 -2.0000001 -1e-07 1.0000001 -0.9999999000000001 1e-07 0 2 6 -2 
7 -1.0000001 -2.0000001 -1e-07 -0.9999999000000001 -0.9999999000000001 1e-07 0 2 1 -5 
8 0.9999999000000001 -1.0000001 -1e-07 2.0000001 -0.9999999000000001 1e-07 0 2 2 -7 
9 1.9999999 -1.0000001 -1e-07 2.0000001 1.0000001 1e-07 0 2 7 -8 
10 0.9999999000000001 0.9999999000000001 -1e-07 2.0000001 1.0000001 1e-07 0 2 8 -3 
11 0.9999999000000001 0.9999999000000001 -1e-07 1.0000001 2.0000001 1e-07 0 2 3 -9 
12 -1.0000001 1.9999999 -1e-07 1.0000001 2.0000001 1e-07 0 2 9 -10 
13 -1.0000001 0.9999999000000001 -1e-07 -0.9999999000000001 2.0000001 1e-07 0 2 10 -4 
14 -2.0000001 -1.0000001 -1e-07 -0.9999999000000001 -0.9999999000000001 1e-07 0 2 11 -1 
15 -2.0000001 0.9999999000000001 -1e-07 -0.9999999000000001 1.0000001 1e-07 0 2 4 -12 
16 -2.0000001 -1.0000001 -1e-07 -1.9999999 1.0000001 1e-07 0 2 12 -11 
17 -2.0000001 -2.0000001 -1e-07 -0.9999999000000001 -1.9999999 1e-07 0 2 13 -5 
18 -2.0000001 -2.0000001 -1e-07 -1.9999999 -0.9999999000000001 1e-07 0 2 11 -13 
19 0.9999999000000001 -2.0000001 -1e-07 2.0000001 -1.9999999 1e-07 0 2 6 -14 
20 1.9999999 -2.0000001 -1e-07 2.0000001 -0.9999999000000001 1e-07 0 2 14 -7 
21 1.9999999 0.9999999000000001 -1e-07 2.0000001 2.0000001 1e-07 0 2 8 -15 
22 0.9999999000000001 1.9999999 -1e-07 2.0000001 2.0000001 1e-07 0 2 15 -9 
23 -2.0000001 1.9999999 -1e-07 -0.9999999000000001 2.0000001 1e-07 0 2 10 -16 
24 -2.0000001 0.9999999000000001 -1e-07 -1.9999999 2.0000001 1e-07 0 2 16 -12 
1 -2.0000001 -2.0000001 -1e-07 -0.9999999000000001 -0.9999999000000001 1e-07 1 301 4 17 -7 -14 18 
2 -1.0000001 -2.0000001 -1.000000001110223e-07 1.0000001 -0.9999998999999999 1.000000001110223e-07 1 401 4 5 6 -1 7 
3 0.9999999000000001 -2.0000001 -1e-07 2.0000001 -0.9999999000000001 1e-07 1 302 4 19 20 -8 -6 
4 0.9999998999999999 -1.0000001 -1.000000001110223e-07 2.0000001 1.0000001 1.000000001110223e-07 1 402 4 8 9 10 -2 
5 0.9999999000000001 0.9999999000000001 -1e-07 2.0000001 2.0000001 1e-07 1 303 4 -10 21 22 -11 
6 -1.0000001 0.9999998999999999 -1.000000001110223e-07 1.0000001 2.0000001 1.000000001110223e-07 1 403 4 -3 11 12 13 
7 -2.0000001 0.9999999000000001 -1e-07 -0.9999999000000001 2.0000001 1e-07 1 304 4 -15 -13 23 24 
8 -2.0000001 -1.0000001 -1.000000001110223e-07 -0.9999998999999999 1.0000001 1.000000001110223e-07 1 404 4 14 -4 15 16 
9 -1.0000001 -1.0000001 -1.000000001110223e-07 1.0000001 1.0000001 1.000000001110223e-07 1 201 4 1 2 3 4 
$EndEntities
$Nodes
49 550 1 550
0 1 0 1
1
-1 -1 0
0 2 0 1
2
1 -1 0
0 3 0 1
3
1 1 0
0 4 0 1
4
-1 1 0
0 5 0 1
5
-1 -2 0
0 6 0 1
6
1 -2 0
0 7 0 1
7
2 -1 0
0 8 0 1
8
2 1 0
0 9 0 1
9
1 2 0
0 10 0 1
10
-1 2 0
0 11 0 1
11
-2 -1 0
0 12 0 1
12
-2 1 0
0 13 0 1
13
-2 -2 0
0 14 0 1
14
2 -2 0
0 15 0 1
15
2 2 0
0 16 0 1
16
-2 2 0
1 1 0 9
17
18
19
20
21
22
23
24
25
-0.8 -1 0
-0.6 -1 0
-0.4 -1 0
-0.2 -1 0
0 -1 0
0.2 -1 0
0.3999999999999999 -1 0
0.6000000000000001 -1 0
0.8 -1 0
1 2 0 9
26
27
28
29
30
31
32
33
34
1 -0.8 0
1 -0.6 0
1 -0.4 0
1 -0.2 0
1 0 0
1 0.2 0
1 0.3999999999999999 0
1 0.6000000000000001 0
1 0.8 0
1 3 0 9
35
36
37
38
39
40
41
42
43
0.8 1 0
0.6 1 0
0.4 1 0
0.2 1 0
0 1 0
-0.2 1 0
-0.3999999999999999 1 0
-0.6000000000000001 1 0
-0.8 1 0
1 4 0 9
44
45
46
47
48
49
50
51
52
-1 0.8 0
-1 0.6 0
-1 0.4 0
-1 0.2 0
-1 0 0
-1 -0.2 0
-1 -0.3999999999999999 0
-1 -0.6000000000000001 0
-1 -0.8 0
1 5 0 9
53
54
55
56
57
58
59
60
61
-0.8 -2 0
-0.6 -2 0
-0.4 -2 0
-0.2 -2 0
0 -2 0
0.2 -2 0
0.3999999999999999 -2 0
0.6000000000000001 -2 0
0.8 -2 0
1 6 0 4
62
63
64
65
1 -1.8 0
1 -1.6 0
1 -1.4 0
1 -1.2 0
1 7 0 4
66
67
68
69
-1 -1.2 0
-1 -1.4 0
-1 -1.6 0
-1 -1.8 0
1 8 0 4
70
71
72
73
1.2 -1 0
1.4 -1 0
1.6 -1 0
1.8 -1 0
1 9 0 9
74
75
76
77
78
79
80
81
82
2 -0.8 0
2 -0.6 0
2 -0.4 0
2 -0.2 0
2 0 0
2 0.2 0
2 0.3999999999999999 0
2 0.6000000000000001 0
2 0.8 0
1 10 0 4
83
84
85
86
1.8 1 0
1.6 1 0
1.4 1 0
1.2 1 0
1 11 0 4
87
88
89
90
1 1.2 0
1 1.4 0
1 1.6 0
1 1.8 0
1 12 0 9
91
92
93
94
95
96
97
98
99
0.8 2 0
0.6 2 0
0.4 2 0
0.2 2 0
0 2 0
-0.2 2 0
-0.3999999999999999 2 0
-0.6000000000000001 2 0
-0.8 2 0
1 13 0 4
100
101
102
103
-1 1.8 0
-1 1.6 0
-1 1.4 0
-1 1.2 0
1 14 0 4
104
105
106
107
-1.8 -1 0
-1.6 -1 0
-1.4 -1 0
-1.2 -1 0
1 15 0 4
108
109
110
111
-1.2 1 0
-1.4 1 0
-1.6 1 0
-1.8 1 0
1 16 0 9
112
113
114
115
116
117
118
119
120
-2 0.8 0
-2 0.6 0
-2 0.4 0
-2 0.2 0
-2 0 0
-2 -0.2 0
-2 -0.3999999999999999 0
-2 -0.6000000000000001 0
-2 -0.8 0
1 17 0 4
121
122
123
124
-1.8 -2 0
-1.6 -2 0
-1.4 -2 0
-1.2 -2 0
1 18 0 4
125
126
127
128
-2 -1.2 0
-2 -1.4 0
-2 -1.6 0
-2 -1.8 0
1 19 0 4
129
130
131
132
1.2 -2 0
1.4 -2 0
1.6 -2 0
1.8 -2 0
1 20 0 4
133
134
135
136
2 -1.8 0
2 -1.6 0
2 -1.4 0
2 -1.2 0
1 21 0 4
137
138
139
140
2 1.2 0
2 1.4 0
2 1.6 0
2 1.8 0
1 22 0 4
141
142
143
144
1.8 2 0
1.6 2 0
1.4 2 0
1.2 2 0
1 23 0 4
145
146
147
148
-1.2 2 0
-1.4 2 0
-1.6 2 0
-1.8 2 0
1 24 0 4
149
150
151
152
-2 1.8 0
-2 1.6 0
-2 1.4 0
-2 1.2 0
2 1 0 24
153
154
155
156
157
158
159
160
161
162
163
164
165
166
167
168
169
170
171
172
173
174
175
176
-1.172261341973122 -1.501634603522555 0
-1.866491470389141 -1.491948015654986 0
-1.508033301972303 -1.163698894963687 0
-1.511334914258733 -1.836293387951743 0
-1.169297087656467 -1.699251809642522 0
-1.329265553161071 -1.603840122724111 0
-1.324468002513509 -1.399789533987361 0
-1.519615242270663 -1.5 0
-1.310671157517938 -1.185196960561706 0
-1.699886423395229 -1.830617856523226 0
-1.811908995977738 -1.315234912831282 0
-1.158968443919724 -1.305505209930899 0
-1.694033101078418 -1.161743117836275 0
-1.316358511572445 -1.811810304291212 0
-1.825479600457136 -1.684109905067801 0
-1.614620520925953 -1.668377636697819 0
-1.610819825279652 -1.320079066804464 0
-1.682303076850484 -1.476596122836039 0
-1.146410161513775 -1.146410161513775 0
-1.146410161513775 -1.853589838486225 0
-1.853589838486225 -1.146410161513775 0
-1.853589838486224 -1.853589838486225 0
-1.458201864417068 -1.689696971233884 0
-1.458123229621906 -1.310249775785279 0
2 2 0 50
177
178
179
180
181
182
183
184
185
186
187
188
189
190
191
192
193
194
195
196
197
198
199
200
201
202
203
204
205
206
207
208
209
210
211
212
213
214
215
216
217
218
219
220
221
222
223
224
225
226
-0.3 -1.173205080756888 0
0.09999999999999998 -1.173205080756888 0
0.5 -1.173205080756888 0
-0.4896860819394727 -1.836450076079722 0
-0.09999999999999998 -1.826794919243112 0
0.2999999999999999 -1.826794919243112 0
0.8372448438200789 -1.509667905494858 0
-0.8362933879517428 -1.511334914258733 0
-0.6991525261438247 -1.169354409011166 0
0.686114907732417 -1.808097945376702 0
-0.4998587543573041 -1.172563302132601 0
-0.3999764590595507 -1.346303198409728 0
-0.199996076509925 -1.346392334329767 0
-0.2999999999999999 -1.519615242270663 0
-0.09999999999999998 -1.519615242270663 0
-0.5152012326219082 -1.518568378842964 0
0.6991525261438246 -1.169354409011166 0
0.6035600170507085 -1.329419290718288 0
0.4005933361751181 -1.343578349714527 0
0.5158086773050765 -1.515721382017883 0
0.3027336689133657 -1.511955882838437 0
0.489011322768844 -1.832387037178728 0
-0.6060572158936961 -1.329133128991477 0
-0.8306178565232263 -1.699886423395229 0
-0.09999934608498748 -1.173202109559553 0
0.3000988893625196 -1.17273311212368 0
0.2005709824085006 -1.344582971536328 0
0.1002810077654649 -1.515472637342857 0
-0.3 -1.826794919243112 0
0.09999999999999998 -1.826794919243112 0
0.0001427612631754865 -1.345411729299343 0
-0.6843755678584067 -1.810881348927686 0
0.8118996356736511 -1.316139285194285 0
0.8409589541421769 -1.695206648784171 0
-0.8121128485299103 -1.316347782598889 0
-0.6840181881602226 -1.614186005729051 0
0.686305106015853 -1.612173564831864 0
0.3925844496446556 -1.674381429955119 0
-7.601071476496111e-18 -1.673205080756888 0
-0.3921352378889248 -1.676812800287663 0
-0.1999999999999998 -1.673205080756888 0
0.2000000000000001 -1.673205080756888 0
0.8535898384862245 -1.146410161513775 0
-0.8535898384862245 -1.853589838486225 0
-0.8535898384862247 -1.146410161513775 0
0.8535898384862247 -1.853589838486225 0
0.549517966357928 -1.686830273680776 0
-0.553083261693787 -1.691379721973417 0
-0.6907365746314961 -1.457914042084223 0
0.6897502242147212 -1.458123229621906 0
2 3 0 24
227
228
229
230
231
232
233
234
235
236
237
238
239
240
241
242
243
244
245
246
247
248
249
250
1.172261341973122 -1.498365396477445 0
1.866491470389141 -1.508051984345014 0
1.511334914258733 -1.163706612048257 0
1.508033301972303 -1.836301105036313 0
1.169297087656467 -1.300748190357478 0
1.329265553161071 -1.396159877275889 0
1.324468002513509 -1.600210466012639 0
1.519615242270663 -1.5 0
1.699886423395229 -1.169382143476774 0
1.310671157517938 -1.814803039438294 0
1.811908995977738 -1.684765087168718 0
1.158968443919724 -1.694494790069101 0
1.316358511572445 -1.188189695708788 0
1.694033101078418 -1.838256882163725 0
1.825479600457136 -1.315890094932199 0
1.614620520925953 -1.331622363302181 0
1.610819825279652 -1.679920933195536 0
1.682303076850484 -1.523403877163961 0
1.146410161513775 -1.853589838486225 0
1.146410161513775 -1.146410161513775 0
1.853589838486225 -1.146410161513775 0
1.853589838486225 -1.853589838486224 0
1.458201864417068 -1.310303028766116 0
1.458123229621906 -1.689750224214721 0
2 4 0 50
251
252
253
254
255
256
257
258
259
260
261
262
263
264
265
266
267
268
269
270
271
272
273
274
275
276
277
278
279
280
281
282
283
284
285
286
287
288
289
290
291
292
293
294
295
296
297
298
299
300
1.173205080756888 -0.3 0
1.173205080756888 0.09999999999999998 0
1.173205080756888 0.5 0
1.836450076079722 -0.4896860819394727 0
1.826794919243112 -0.09999999999999998 0
1.826794919243112 0.2999999999999999 0
1.511334914258733 -0.8362933879517428 0
1.509667905494858 0.8372448438200789 0
1.169354409011166 -0.6991525261438247 0
1.808097945376702 0.686114907732417 0
1.172563302132601 -0.4998587543573041 0
1.346303198409728 -0.3999764590595507 0
1.346392334329767 -0.199996076509925 0
1.519615242270663 -0.2999999999999999 0
1.519615242270663 -0.09999999999999998 0
1.518568378842964 -0.5152012326219082 0
1.169354409011166 0.6991525261438246 0
1.329419290718288 0.6035600170507085 0
1.343578349714527 0.4005933361751181 0
1.515721382017883 0.5158086773050765 0
1.511955882838437 0.3027336689133657 0
1.832387037178728 0.489011322768844 0
1.329133128991477 -0.6060572158936961 0
1.699886423395229 -0.8306178565232263 0
1.173202109559553 -0.09999934608498748 0
1.17273311212368 0.3000988893625196 0
1.344582971536328 0.2005709824085006 0
1.515472637342857 0.1002810077654649 0
1.826794919243112 -0.3 0
1.826794919243112 0.09999999999999998 0
1.345411729299343 0.0001427612631754865 0
1.810881348927686 -0.6843755678584067 0
1.316139285194285 0.8118996356736511 0
1.316347782598889 -0.8121128485299103 0
1.695206648784171 0.8409589541421769 0
1.614186005729051 -0.6840181881602226 0
1.612173564831864 0.686305106015853 0
1.674381429955119 0.3925844496446556 0
1.673205080756888 -7.601071476496111e-18 0
1.676812800287663 -0.3921352378889248 0
1.673205080756888 -0.1999999999999998 0
1.673205080756888 0.2000000000000001 0
1.146410161513775 0.8535898384862245 0
1.853589838486225 -0.8535898384862245 0
1.146410161513775 -0.8535898384862247 0
1.853589838486225 0.8535898384862247 0
1.686830273680776 0.549517966357928 0
1.691379721973417 -0.553083261693787 0
1.457914042084223 -0.6907365746314961 0
1.458123229621906 0.6897502242147212 0
2 5 0 24
301
302
303
304
305
306
307
308
309
310
311
312
313
314
315
316
317
318
319
320
321
322
323
324
1.498365396477445 1.172261341973122 0
1.508051984345014 1.866491470389141 0
1.163706612048257 1.511334914258733 0
1.836301105036313 1.508033301972303 0
1.300748190357478 1.169297087656467 0
1.396159877275889 1.329265553161071 0
1.600210466012639 1.324468002513509 0
1.5 1.519615242270663 0
1.169382143476774 1.699886423395229 0
1.814803039438294 1.310671157517938 0
1.684765087168718 1.811908995977738 0
1.694494790069101 1.158968443919724 0
1.188189695708788 1.316358511572445 0
1.838256882163725 1.694033101078418 0
1.315890094932199 1.825479600457136 0
1.331622363302181 1.614620520925953 0
1.679920933195536 1.610819825279652 0
1.523403877163961 1.682303076850484 0
1.853589838486225 1.146410161513775 0
1.146410161513775 1.146410161513775 0
1.146410161513775 1.853589838486225 0
1.853589838486224 1.853589838486225 0
1.310303028766116 1.458201864417068 0
1.689750224214721 1.458123229621906 0
2 6 0 49
325
326
327
328
329
330
331
332
333
334
335
336
337
338
339
340
341
342
343
344
345
346
347
348
349
350
351
352
353
354
355
356
357
358
359
360
361
362
363
364
365
366
367
368
369
370
371
372
373
0.3018403998033144 1.82229139585638 0
-0.07568624191430347 1.193662492474477 0
-0.5 1.173205080756888 0
0.5166712570633818 1.183593381068796 0
-0.3000519442415288 1.831042833678645 0
0.8277386580268777 1.498365396477445 0
-0.837244843820079 1.509667905494858 0
0.6816348761885196 1.818860550511841 0
-0.6861149077324171 1.808097945376702 0
0.8307029123435326 1.300748190357478 0
0.6370811958301463 1.369293891013335 0
0.6535898384862248 1.6 0
0.480384757729337 1.5 0
0.4854229723488397 1.700854446446745 0
0.3056417527269923 1.606200350089509 0
0.1153912492502947 1.706598293585011 0
0.1273318852881087 1.506031192447093 0
-0.05083587700606095 1.60756361088665 0
-0.04616855026241819 1.40857964397938 0
-0.2111484533631592 1.531360353655132 0
0.1181022544693719 1.307548322892333 0
0.297950995873868 1.408966250631236 0
0.2990018679576606 1.196103166708228 0
-0.6991525261438246 1.169354409011166 0
-0.6035600170507085 1.329419290718288 0
-0.412139240946801 1.335054735138863 0
-0.513280893964462 1.514482164970899 0
-0.4890199801424322 1.833095022917984 0
-0.299515615367667 1.171972661106275 0
-0.0765867766110962 1.814088897294933 0
0.8350536733163738 1.693723511279847 0
-0.811899635673651 1.316139285194285 0
0.701727013452201 1.166922378486154 0
-0.840958954142177 1.695206648784171 0
-0.6858838087924172 1.611967028657367 0
-0.374581769165401 1.652157825851254 0
-0.2341108868565914 1.35426665740286 0
-0.2026409640774492 1.687242704273323 0
0.09999999999999998 1.137806591229902 0
0.4937796496681348 1.868401278562993 0
0.4462180148908788 1.331591337884319 0
0.1081289744885026 1.868595717347265 0
0.8535898384862243 1.146410161513776 0
0.8535898384862247 1.853589838486225 0
-0.8535898384862245 1.146410161513775 0
-0.8535898384862247 1.853589838486225 0
-0.549776271959426 1.683959997554841 0
-0.3600072192851997 1.484970058063032 0
-0.6897502242147212 1.458123229621906 0
2 7 0 24
374
375
376
377
378
379
380
381
382
383
384
385
386
387
388
389
390
391
392
393
394
395
396
397
-1.172261341973122 1.498365396477445 0
-1.866491470389141 1.508051984345014 0
-1.511334914258733 1.163706612048257 0
-1.508033301972303 1.836301105036313 0
-1.169297087656467 1.300748190357478 0
-1.329265553161071 1.396159877275889 0
-1.324468002513509 1.600210466012639 0
-1.519615242270663 1.5 0
-1.699886423395229 1.169382143476774 0
-1.310671157517938 1.814803039438294 0
-1.811908995977738 1.684765087168718 0
-1.158968443919724 1.694494790069101 0
-1.316358511572445 1.188189695708788 0
-1.694033101078418 1.838256882163725 0
-1.825479600457136 1.315890094932199 0
-1.614620520925953 1.331622363302181 0
-1.610819825279652 1.679920933195536 0
-1.682303076850484 1.523403877163961 0
-1.146410161513775 1.853589838486225 0
-1.146410161513775 1.146410161513775 0
-1.853589838486225 1.146410161513775 0
-1.853589838486225 1.853589838486224 0
-1.458201864417068 1.310303028766116 0
-1.458123229621906 1.689750224214721 0
2 8 0 49
398
399
400
401
402
403
404
405
406
407
408
409
410
411
412
413
414
415
416
417
418
419
420
421
422
423
424
425
426
427
428
429
430
431
432
433
434
435
436
437
438
439
440
441
442
443
444
445
446
-1.156968448740318 0.4764120098511138 0
-1.186725272478618 0.07836195541458892 0
-1.17770860414362 -0.3018403998033143 0
-1.834454270152968 0.3 0
-1.830443437355687 -0.09368058125668585 0
-1.820740775008914 -0.517345130941316 0
-1.501634603522555 -0.8277386580268777 0
-1.498365396477445 0.8277386580268777 0
-1.181139449488159 -0.6816348761885196 0
-1.808497071536504 0.6828945465938124 0
-1.699251809642522 -0.8307029123435326 0
-1.631325274140624 -0.6371774635269942 0
-1.4 -0.6535898384862249 0
-1.5 -0.4803847577293371 0
-1.299145553553255 -0.4854229723488398 0
-1.394822854817718 -0.3065456477400328 0
-1.593715183347861 -0.3072128429203416 0
-1.5 -0.1339745962155617 0
-1.298121432461381 -0.120506871083273 0
-1.39895933626513 0.04095746184468177 0
-1.335362673235771 0.228880183988106 0
-1.530199385193643 0.2013994552290457 0
-1.440549152612748 0.3725326312537881 0
-1.300748190357478 0.8307029123435326 0
-1.401096465315315 0.6728202321674845 0
-1.597842279392576 0.6821953423393291 0
-1.7979389602484 -0.3058015158507802 0
-1.831822217538476 0.4872532239720575 0
-1.835423954841101 0.101053236457219 0
-1.637794749124137 0.0219530697883691 0
-1.649531270507622 0.3835149567098964 0
-1.833667302612854 -0.7018186969730085 0
-1.692232892281899 0.8386090512042783 0
-1.180104403633704 0.6829212037929278 0
-1.306276488720153 -0.8350536733163738 0
-1.159631182553208 0.2923121153792971 0
-1.131598721437007 -0.4937796496681348 0
-1.339922557002672 0.4980611372200408 0
-1.665192378864668 -0.4602885682970031 0
-1.697480725963894 0.201584143636906 0
-1.130512527063197 -0.09999999999999995 0
-1.671978466015217 -0.1637432932910001 0
-1.146410161513776 0.8535898384862243 0
-1.853589838486224 -0.8535898384862243 0
-1.853589838486225 0.8535898384862247 0
-1.146410161513775 -0.8535898384862246 0
-1.519640681498743 0.524958182821512 0
-1.68510866004584 0.5465117631817923 0
-1.278730700864539 0.3702185430219742 0
2 9 0 104
447
448
449
450
451
452
453
454
455
456
457
458
459
460
461
462
463
464
465
466
467
468
469
470
471
472
473
474
475
476
477
478
479
480
481
482
483
484
485
486
487
488
489
490
491
492
493
494
495
496
497
498
499
500
501
502
503
504
505
506
507
508
509
510
511
512
513
514
515
516
517
518
519
520
521
522
523
524
525
526
527
528
529
530
531
532
533
534
535
536
537
538
539
540
541
542
543
544
545
546
547
548
549
550
-0.1 -0.8267949192431123 0
0.8209362586176023 0.09346158590977927 0
-0.8304434373556867 0.09368058125668582 0
0.09999999999999998 0.8267949192431123 0
0.8267949192431123 -0.3 0
0.2999999999999999 -0.8267949192431123 0
-0.2999999999999999 0.8267949192431121 0
-0.8267949192431123 -0.2999999999999999 0
0.8267949192431122 0.5 0
-0.4919576064647557 -0.8408154862073195 0
-0.8207407750089146 0.5173451309413157 0
0.4886650857412667 0.8362933879517428 0
0.8341005191702369 -0.6988135366013546 0
-0.6991525261438248 0.8306455909888335 0
-0.8341005191702366 -0.6988135366013547 0
-0.4998587543573041 0.8274366978673992 0
-0.3999764590595506 0.6536968015902724 0
-0.1999960765099249 0.6536076656702327 0
-0.2999954225949123 0.4804055561106796 0
-0.09999999999999956 0.4803847577293372 0
-0.1999992370991514 0.3071831433693398 0
1.271501419384628e-07 0.3071802547052647 0
-0.09999985165816738 0.1339752702371794 0
0.100000000000001 0.1339745962155623 0
2.472364004496574e-08 -0.03923037220438938 0
-0.1999999711557535 -0.03923035348156705 0
0.2000000041206078 -0.03923046581850242 0
0.1000000048073759 -0.2124355434549199 0
0.198494530680428 0.3063105779093127 0
0.3000000000000018 -0.2124355652982126 0
-0.3999991099490101 0.3071837211021545 0
0.2000000008012311 -0.3856406424145516 0
9.347693730177298e-10 -0.385640641807794 0
0.4000000001335403 -0.385640645448342 0
0.4000000006867691 -0.03923048142085431 0
0.1000000000000026 -0.5588457268119884 0
-0.09999999999999737 -0.5588457268119889 0
-0.1999999998442032 -0.3856406453472168 0
-0.2999999999999974 -0.5588457268119893 0
-0.3999999999740319 -0.3856406459371209 0
-0.4962135261118511 -0.5565797710289098 0
-0.6291957953803439 -0.3935222831806065 0
-0.4999999999999978 -0.212435565298214 0
-0.6310540350542811 0.6371414180398324 0
0.4964101616504947 -0.2103629704606388 0
0.6278042889285746 -0.01745103853659297 0
0.4916736115971326 0.1456820519811449 0
0.629223886194367 -0.3935499061029955 0
0.4979885435045834 -0.5570601682324504 0
-0.8276995779668908 -0.4987226366303269 0
-0.5000000000000002 0.4803847577293368 0
-0.59457789253641 0.3073191884806948 0
-0.5010259522131963 0.136902323009251 0
0.8306455909888335 0.6991525261438248 0
0.670567603482518 0.6035511415539024 0
0.671129929944255 0.3988617833683678 0
0.4921908137486397 0.4951085862019217 0
0.8267949192431122 0.3000000000000002 0
0.09999999999999983 -0.8267949192431121 0
-0.2999999999999998 -0.8267949192431121 0
0.8267949192431123 -0.09999999999999998 0
0.4919576064647571 -0.8408154862073196 0
0.8277042597692282 -0.498727240450725 0
0.2981108476235444 0.8309148718281391 0
0.1986997505423772 0.6552715083999054 0
-0.798062204418193 0.3058167080736875 0
-0.8315481940279459 -0.101053236457219 0
-0.6374501068982221 -0.01633192800925582 0
-0.09999999008902823 -0.2124355202656835 0
-0.09999934608498745 0.8267978904404469 0
0.2991639580854544 0.1348962270442819 0
0.3871166062986902 0.307797764568444 0
0.3000000000000025 -0.5588457268119881 0
-0.3001706870125461 0.1344639366158386 0
-0.2999999966890308 -0.2124355502541531 0
-0.406441118994791 -0.03484452290301673 0
-0.0002159453420891392 0.6538735832020619 0
0.09799091999388039 0.4796983779272633 0
0.2943825664168849 0.4825482030686998 0
0.6881867797218203 -0.8122913120460642 0
-0.6881867797218195 -0.8122913120460642 0
-0.8336231927813023 0.7018075818727869 0
0.6836094648973964 0.8117548379099397 0
0.3856411999426075 0.6649722547807153 0
0.6720277132193887 0.1999999999999999 0
-0.676106234007651 -0.6000000000000004 0
0.6761062340076535 -0.6000000000000002 0
-0.6831301362449893 -0.2033347161350422 0
0.6795340980802043 -0.2015571366691127 0
0.4000000000000029 -0.6928203230275491 0
0.2000000000000012 -0.6928203230275503 0
1.52655665885959e-15 -0.69282032302755 0
-0.199999999999998 -0.6928203230275501 0
-0.3999999999999974 -0.6928203230275498 0
-0.6651923788646686 0.460288568297002 0
-0.6732173553921501 0.164507692555899 0
-0.8535898384862247 -0.8535898384862247 0
0.8535898384862245 -0.8535898384862245 0
-0.8535898384862247 0.8535898384862247 0
0.8535898384862247 0.8535898384862247 0
0.5502096667480625 0.2896195586563041 0
0.5508478327397635 -0.7005974579026767 0
-0.5504928292612149 -0.7005013784619688 0
0.5417981355829322 0.6896969712338842 0
$EndNodes
$Elements
9 1018 1 1018
2 1 2 66
1 168 170 167 
2 167 170 154 
3 158 166 157 
4 163 170 169 
5 159 164 161 
6 162 168 167 
7 163 169 165 
8 158 175 166 
9 161 176 159 
10 154 170 163 
11 67 153 68 
12 68 157 69 
13 105 155 106 
14 106 161 107 
15 122 162 121 
16 123 156 122 
17 126 163 125 
18 127 154 126 
19 153 158 157 
20 153 159 158 
21 159 160 158 
22 153 157 68 
23 155 161 106 
24 156 162 122 
25 154 163 126 
26 153 164 159 
27 66 164 67 
28 104 165 105 
29 124 166 123 
30 128 167 127 
31 67 164 153 
32 105 165 155 
33 123 166 156 
34 127 167 154 
35 156 168 162 
36 13 174 128 
37 1 171 66 
38 107 171 1 
39 69 172 5 
40 5 172 124 
41 11 173 104 
42 125 173 11 
43 121 174 13 
44 160 170 168 
45 155 176 161 
46 165 169 155 
47 159 176 160 
48 160 175 158 
49 166 175 156 
50 160 176 169 
51 168 175 160 
52 66 171 164 
53 104 173 165 
54 124 172 166 
55 128 174 167 
56 157 172 69 
57 161 171 107 
58 162 174 121 
59 163 173 125 
60 166 172 157 
61 164 171 161 
62 167 174 162 
63 165 173 163 
64 169 170 160 
65 156 175 168 
66 169 176 155 
2 2 2 128
67 185 211 199 
68 194 209 193 
69 208 212 200 
70 210 213 186 
71 211 225 199 
72 194 226 209 
73 208 224 212 
74 213 223 186 
75 17 185 18 
76 19 187 177 
77 21 201 178 
78 23 179 24 
79 23 202 179 
80 55 205 180 
81 57 206 181 
82 60 198 59 
83 59 198 182 
84 64 183 63 
85 68 184 67 
86 187 188 177 
87 189 201 177 
88 178 207 203 
89 179 195 194 
90 187 199 188 
91 188 192 190 
92 191 207 189 
93 195 197 196 
94 202 203 195 
95 203 204 197 
96 19 177 20 
97 177 201 20 
98 56 205 55 
99 181 205 56 
100 188 189 177 
101 179 202 195 
102 188 199 192 
103 189 207 201 
104 204 207 191 
105 195 203 197 
106 203 207 204 
107 18 187 19 
108 185 187 18 
109 20 201 21 
110 21 178 22 
111 22 202 23 
112 178 202 22 
113 24 193 25 
114 179 193 24 
115 55 180 54 
116 57 181 56 
117 58 206 57 
118 59 182 58 
119 182 206 58 
120 61 186 60 
121 186 198 60 
122 201 207 178 
123 178 203 202 
124 179 194 193 
125 185 199 187 
126 188 190 189 
127 68 200 184 
128 190 191 189 
129 69 200 68 
130 195 196 194 
131 63 210 62 
132 67 211 66 
133 54 208 53 
134 65 209 64 
135 64 209 183 
136 180 208 54 
137 183 210 63 
138 184 211 67 
139 200 212 184 
140 2 219 65 
141 5 220 69 
142 25 219 2 
143 53 220 5 
144 1 221 17 
145 6 222 61 
146 66 221 1 
147 62 222 6 
148 186 223 198 
149 215 218 204 
150 181 217 205 
151 198 214 182 
152 216 217 190 
153 191 215 204 
154 206 215 181 
155 182 218 206 
156 190 217 191 
157 192 216 190 
158 197 214 196 
159 204 218 197 
160 191 217 215 
161 197 218 214 
162 205 217 216 
163 206 218 215 
164 215 217 181 
165 205 216 180 
166 214 218 182 
167 183 213 210 
168 196 226 194 
169 199 225 192 
170 180 224 208 
171 184 225 211 
172 209 226 183 
173 213 226 196 
174 192 225 212 
175 208 220 53 
176 210 222 62 
177 211 221 66 
178 65 219 209 
179 61 222 186 
180 17 221 185 
181 69 220 200 
182 193 219 25 
183 200 220 208 
184 185 221 211 
185 186 222 210 
186 209 219 193 
187 212 224 192 
188 196 223 213 
189 214 223 196 
190 192 224 216 
191 212 225 184 
192 183 226 213 
193 198 223 214 
194 216 224 180 
2 3 2 66
195 242 244 241 
196 241 244 228 
197 232 239 231 
198 237 244 243 
199 233 238 236 
200 235 242 241 
201 237 243 240 
202 232 249 239 
203 236 250 233 
204 228 244 237 
205 63 227 64 
206 64 231 65 
207 71 229 72 
208 72 235 73 
209 130 236 129 
210 131 230 130 
211 134 237 133 
212 135 228 134 
213 227 232 231 
214 227 233 232 
215 233 234 232 
216 227 231 64 
217 229 235 72 
218 230 236 130 
219 228 237 134 
220 227 238 233 
221 62 238 63 
222 70 239 71 
223 132 240 131 
224 136 241 135 
225 63 238 227 
226 71 239 229 
227 131 240 230 
228 135 241 228 
229 229 242 235 
230 14 248 132 
231 65 246 2 
232 2 246 70 
233 6 245 62 
234 129 245 6 
235 73 247 7 
236 7 247 136 
237 133 248 14 
238 234 244 242 
239 230 250 236 
240 240 243 230 
241 233 250 234 
242 234 249 232 
243 239 249 229 
244 234 250 243 
245 242 249 234 
246 62 245 238 
247 70 246 239 
248 132 248 240 
249 136 247 241 
250 231 246 65 
251 235 247 73 
252 236 245 129 
253 237 248 133 
254 239 246 231 
255 241 247 235 
256 238 245 236 
257 240 248 237 
258 243 244 234 
259 229 249 242 
260 243 250 230 
2 4 2 128
261 259 284 273 
262 268 283 267 
263 282 286 274 
264 285 287 260 
265 284 299 273 
266 268 300 283 
267 282 298 286 
268 287 297 260 
269 26 259 27 
270 28 261 251 
271 30 275 252 
272 32 253 33 
273 32 276 253 
274 72 257 71 
275 76 279 254 
276 78 280 255 
277 81 272 80 
278 80 272 256 
279 85 258 84 
280 261 262 251 
281 263 275 251 
282 252 281 277 
283 253 269 268 
284 261 273 262 
285 262 266 264 
286 265 281 263 
287 269 271 270 
288 276 277 269 
289 277 278 271 
290 28 251 29 
291 251 275 29 
292 77 279 76 
293 255 279 77 
294 262 263 251 
295 253 276 269 
296 262 273 266 
297 263 281 275 
298 278 281 265 
299 269 277 271 
300 277 281 278 
301 27 261 28 
302 259 261 27 
303 29 275 30 
304 30 252 31 
305 31 276 32 
306 252 276 31 
307 33 267 34 
308 253 267 33 
309 76 254 75 
310 78 255 77 
311 79 280 78 
312 80 256 79 
313 256 280 79 
314 82 260 81 
315 260 272 81 
316 275 281 252 
317 252 277 276 
318 253 268 267 
319 259 273 261 
320 262 264 263 
321 72 274 257 
322 264 265 263 
323 73 274 72 
324 269 270 268 
325 71 284 70 
326 84 285 83 
327 75 282 74 
328 86 283 85 
329 85 283 258 
330 254 282 75 
331 257 284 71 
332 258 285 84 
333 274 286 257 
334 3 293 86 
335 7 294 73 
336 34 293 3 
337 74 294 7 
338 2 295 26 
339 8 296 82 
340 70 295 2 
341 83 296 8 
342 260 297 272 
343 289 292 278 
344 255 291 279 
345 272 288 256 
346 290 291 264 
347 265 289 278 
348 280 289 255 
349 256 292 280 
350 264 291 265 
351 266 290 264 
352 271 288 270 
353 278 292 271 
354 265 291 289 
355 271 292 288 
356 279 291 290 
357 280 292 289 
358 289 291 255 
359 279 290 254 
360 288 292 256 
361 258 287 285 
362 270 300 268 
363 273 299 266 
364 254 298 282 
365 257 299 284 
366 283 300 258 
367 287 300 270 
368 266 299 286 
369 282 294 74 
370 284 295 70 
371 285 296 83 
372 86 293 283 
373 82 296 260 
374 26 295 259 
375 73 294 274 
376 267 293 34 
377 274 294 282 
378 259 295 284 
379 260 296 285 
380 283 293 267 
381 286 298 266 
382 270 297 287 
383 288 297 270 
384 266 298 290 
385 286 299 257 
386 258 300 287 
387 272 297 288 
388 290 298 254 
2 5 2 66
389 316 318 315 
390 315 318 302 
391 306 313 305 
392 311 318 317 
393 307 312 310 
394 309 316 315 
395 311 317 314 
396 306 323 313 
397 310 324 307 
398 302 318 311 
399 84 301 85 
400 85 305 86 
401 88 303 89 
402 89 309 90 
403 138 310 137 
404 139 304 138 
405 142 311 141 
406 143 302 142 
407 301 306 305 
408 301 307 306 
409 307 308 306 
410 301 305 85 
411 303 309 89 
412 304 310 138 
413 302 311 142 
414 301 312 307 
415 83 312 84 
416 87 313 88 
417 140 314 139 
418 144 315 143 
419 84 312 301 
420 88 313 303 
421 139 314 304 
422 143 315 302 
423 303 316 309 
424 15 322 140 
425 86 320 3 
426 3 320 87 
427 8 319 83 
428 137 319 8 
429 90 321 9 
430 9 321 144 
431 141 322 15 
432 308 318 316 
433 304 324 310 
434 314 317 304 
435 307 324 308 
436 308 323 306 
437 313 323 303 
438 308 324 317 
439 316 323 308 
440 83 319 312 
441 87 320 313 
442 140 322 314 
443 144 321 315 
444 305 320 86 
445 309 321 90 
446 310 319 137 
447 311 322 141 
448 313 320 305 
449 315 321 309 
450 312 319 310 
451 314 322 311 
452 317 318 308 
453 303 323 316 
454 317 324 304 
2 6 2 126
455 328 357 335 
456 326 345 343 
457 335 365 328 
458 340 354 342 
459 332 338 336 
460 326 363 345 
461 340 366 354 
462 332 364 338 
463 325 339 338 
464 37 347 38 
465 325 340 339 
466 344 362 360 
467 335 357 334 
468 349 356 348 
469 343 361 326 
470 360 372 344 
471 328 347 37 
472 336 355 332 
473 358 359 333 
474 349 373 356 
475 345 346 341 
476 340 341 339 
477 341 346 339 
478 359 371 333 
479 345 347 346 
480 347 363 38 
481 340 342 341 
482 338 364 325 
483 342 343 341 
484 342 344 343 
485 343 345 341 
486 336 337 335 
487 88 334 87 
488 339 346 337 
489 338 339 337 
490 41 327 42 
491 41 353 327 
492 89 330 88 
493 330 334 88 
494 92 332 91 
495 98 352 97 
496 97 352 329 
497 102 331 101 
498 327 350 349 
499 94 325 93 
500 327 353 350 
501 36 328 37 
502 39 326 40 
503 40 353 41 
504 326 353 40 
505 42 348 43 
506 327 348 42 
507 96 354 95 
508 97 329 96 
509 329 354 96 
510 99 333 98 
511 333 352 98 
512 327 349 348 
513 350 351 349 
514 330 336 335 
515 336 338 337 
516 330 335 334 
517 354 362 342 
518 328 365 347 
519 101 358 100 
520 330 355 336 
521 35 357 36 
522 90 355 89 
523 103 356 102 
524 347 365 346 
525 325 366 340 
526 345 363 347 
527 36 357 328 
528 89 355 330 
529 102 356 331 
530 331 358 101 
531 39 363 326 
532 92 364 332 
533 325 364 93 
534 337 365 335 
535 354 366 95 
536 94 366 325 
537 353 361 350 
538 326 361 353 
539 3 367 35 
540 4 369 103 
541 9 368 90 
542 87 367 3 
543 43 369 4 
544 91 368 9 
545 10 370 99 
546 100 370 10 
547 361 372 350 
548 333 371 352 
549 352 360 329 
550 344 372 361 
551 344 361 343 
552 331 359 358 
553 360 362 329 
554 351 373 349 
555 356 373 331 
556 329 362 354 
557 342 362 344 
558 38 363 39 
559 93 364 92 
560 359 373 351 
561 346 365 337 
562 95 366 94 
563 90 368 355 
564 358 370 100 
565 35 367 357 
566 103 369 356 
567 351 372 360 
568 99 370 333 
569 348 369 43 
570 334 367 87 
571 332 368 91 
572 350 372 351 
573 333 370 358 
574 356 369 348 
575 357 367 334 
576 355 368 332 
577 351 371 359 
578 360 371 351 
579 331 373 359 
580 352 371 360 
2 7 2 66
581 389 391 388 
582 388 391 375 
583 379 386 378 
584 384 391 390 
585 380 385 383 
586 382 389 388 
587 384 390 387 
588 379 396 386 
589 383 397 380 
590 375 391 384 
591 101 374 102 
592 102 378 103 
593 109 376 110 
594 110 382 111 
595 146 383 145 
596 147 377 146 
597 150 384 149 
598 151 375 150 
599 374 379 378 
600 374 380 379 
601 380 381 379 
602 374 378 102 
603 376 382 110 
604 377 383 146 
605 375 384 150 
606 374 385 380 
607 100 385 101 
608 108 386 109 
609 148 387 147 
610 152 388 151 
611 101 385 374 
612 109 386 376 
613 147 387 377 
614 151 388 375 
615 376 389 382 
616 16 395 148 
617 103 393 4 
618 4 393 108 
619 10 392 100 
620 145 392 10 
621 111 394 12 
622 12 394 152 
623 149 395 16 
624 381 391 389 
625 377 397 383 
626 387 390 377 
627 380 397 381 
628 381 396 379 
629 386 396 376 
630 381 397 390 
631 389 396 381 
632 100 392 385 
633 108 393 386 
634 148 395 387 
635 152 394 388 
636 378 393 103 
637 382 394 111 
638 383 392 145 
639 384 395 149 
640 386 393 378 
641 388 394 382 
642 385 392 383 
643 387 395 384 
644 390 391 381 
645 376 396 389 
646 390 397 377 
2 8 2 126
647 403 429 409 
648 409 436 403 
649 399 417 416 
650 419 427 417 
651 406 412 410 
652 422 435 431 
653 417 427 415 
654 416 438 399 
655 431 435 398 
656 406 434 412 
657 399 418 417 
658 400 413 412 
659 420 428 419 
660 400 416 413 
661 428 437 419 
662 422 431 421 
663 409 429 408 
664 424 436 414 
665 410 432 406 
666 423 430 407 
667 419 437 427 
668 413 416 415 
669 418 419 417 
670 407 445 423 
671 416 417 415 
672 414 439 424 
673 403 436 424 
674 418 420 419 
675 412 434 400 
676 410 411 409 
677 105 408 104 
678 109 421 108 
679 106 404 105 
680 404 408 105 
681 110 405 109 
682 405 421 109 
683 113 407 112 
684 113 425 407 
685 115 426 401 
686 117 424 402 
687 119 403 118 
688 115 401 114 
689 401 425 114 
690 45 398 46 
691 47 399 48 
692 49 400 50 
693 51 406 52 
694 114 425 113 
695 116 426 115 
696 117 402 116 
697 402 426 116 
698 118 424 117 
699 403 424 118 
700 402 427 426 
701 404 410 409 
702 405 423 422 
703 410 412 411 
704 412 413 411 
705 413 414 411 
706 413 415 414 
707 404 409 408 
708 405 422 421 
709 399 433 418 
710 120 429 119 
711 44 431 45 
712 107 432 106 
713 111 430 110 
714 405 430 423 
715 404 432 410 
716 401 428 425 
717 47 433 399 
718 398 433 46 
719 400 438 416 
720 45 431 398 
721 119 429 403 
722 106 432 404 
723 110 430 405 
724 400 434 50 
725 51 434 406 
726 411 436 409 
727 427 437 426 
728 399 438 48 
729 49 438 400 
730 424 439 402 
731 4 440 44 
732 11 441 120 
733 12 442 111 
734 108 440 4 
735 104 441 11 
736 52 443 1 
737 112 442 12 
738 1 443 107 
739 46 433 47 
740 425 445 407 
741 420 444 428 
742 401 437 428 
743 444 445 428 
744 427 439 415 
745 415 439 414 
746 418 446 420 
747 50 434 51 
748 414 436 411 
749 426 437 401 
750 48 438 49 
751 402 439 427 
752 111 442 430 
753 120 441 429 
754 44 440 431 
755 107 443 432 
756 398 446 433 
757 408 441 104 
758 421 440 108 
759 407 442 112 
760 406 443 52 
761 423 444 422 
762 432 443 406 
763 431 440 421 
764 429 441 408 
765 430 442 407 
766 428 445 425 
767 420 446 435 
768 423 445 444 
769 435 444 420 
770 422 444 435 
771 433 446 418 
772 435 446 398 
2 9 2 246
773 489 522 514 
774 490 528 457 
775 448 531 492 
776 492 507 448 
777 457 541 490 
778 454 496 488 
779 494 509 451 
780 514 534 489 
781 496 532 488 
782 494 533 509 
783 514 522 499 
784 492 531 493 
785 488 534 454 
786 451 535 494 
787 500 529 501 
788 460 528 490 
789 498 541 512 
790 525 530 511 
791 527 532 461 
792 459 533 526 
793 495 533 494 
794 488 532 487 
795 529 550 501 
796 492 535 507 
797 512 542 498 
798 512 541 457 
799 503 530 525 
800 527 549 532 
801 533 548 526 
802 503 525 518 
803 465 497 477 
804 490 497 463 
805 42 462 41 
806 41 462 453 
807 51 496 50 
808 50 496 454 
809 500 501 455 
810 462 490 463 
811 463 497 465 
812 462 463 453 
813 20 506 19 
814 38 510 37 
815 47 512 46 
816 497 498 477 
817 492 493 481 
818 486 487 485 
819 452 505 22 
820 19 506 456 
821 447 506 20 
822 22 505 21 
823 21 505 447 
824 24 508 23 
825 23 508 452 
826 27 459 26 
827 451 509 28 
828 29 507 451 
829 32 504 31 
830 31 504 448 
831 33 455 32 
832 33 500 455 
833 37 510 458 
834 46 512 457 
835 501 502 455 
836 466 523 464 
837 469 520 472 
838 471 515 474 
839 478 480 476 
840 476 491 481 
841 482 519 478 
842 480 495 494 
843 491 492 481 
844 484 485 483 
845 474 515 479 
846 499 520 477 
847 493 517 481 
848 19 456 18 
849 21 447 20 
850 23 452 22 
851 28 509 27 
852 29 451 28 
853 30 507 29 
854 31 448 30 
855 448 507 30 
856 455 504 32 
857 34 500 33 
858 37 458 36 
859 39 450 38 
860 40 516 39 
861 41 453 40 
862 453 516 40 
863 43 460 42 
864 460 462 42 
865 46 457 45 
866 48 449 47 
867 49 513 48 
868 50 454 49 
869 454 513 49 
870 52 461 51 
871 461 496 51 
872 463 464 453 
873 465 477 467 
874 467 469 468 
875 467 520 469 
876 472 515 471 
877 474 479 478 
878 480 491 476 
879 479 483 482 
880 479 484 483 
881 493 518 517 
882 450 510 38 
883 449 512 47 
884 463 465 464 
885 469 471 470 
886 471 473 470 
887 481 517 473 
888 517 518 475 
889 478 519 480 
890 465 467 466 
891 467 468 466 
892 466 524 523 
893 477 520 467 
894 469 470 468 
895 470 475 468 
896 469 472 471 
897 471 474 473 
898 476 481 473 
899 498 499 477 
900 480 494 491 
901 484 521 486 
902 486 488 487 
903 499 522 520 
904 27 509 459 
905 39 516 450 
906 48 513 449 
907 450 523 511 
908 464 516 453 
909 502 504 455 
910 460 490 462 
911 465 466 464 
912 473 517 470 
913 470 517 475 
914 472 521 515 
915 520 522 472 
916 474 476 473 
917 474 478 476 
918 479 482 478 
919 479 515 484 
920 480 519 495 
921 484 486 485 
922 486 489 488 
923 450 511 510 
924 464 523 516 
925 486 521 489 
926 501 503 502 
927 513 514 449 
928 472 522 521 
929 515 521 484 
930 521 522 489 
931 523 524 511 
932 475 524 468 
933 516 523 450 
934 468 524 466 
935 518 547 503 
936 518 525 475 
937 524 525 511 
938 503 547 502 
939 25 526 24 
940 36 529 35 
941 18 527 17 
942 45 528 44 
943 511 530 510 
944 502 531 504 
945 513 534 514 
946 489 534 488 
947 494 535 491 
948 475 525 524 
949 24 526 508 
950 456 527 18 
951 458 529 36 
952 457 528 45 
953 490 541 497 
954 449 542 512 
955 510 530 458 
956 2 544 25 
957 26 544 2 
958 17 543 1 
959 1 543 52 
960 3 546 34 
961 35 546 3 
962 4 545 43 
963 44 545 4 
964 504 531 448 
965 461 532 496 
966 509 533 459 
967 454 534 513 
968 491 535 492 
969 507 535 451 
970 501 550 503 
971 458 550 529 
972 499 542 514 
973 498 542 499 
974 536 537 452 
975 519 537 536 
976 482 538 537 
977 508 536 452 
978 483 538 482 
979 506 540 456 
980 482 537 519 
981 539 540 506 
982 447 539 506 
983 537 538 505 
984 452 537 505 
985 485 540 539 
986 519 536 495 
987 485 539 483 
988 487 540 485 
989 505 538 447 
990 538 539 447 
991 483 539 538 
992 503 550 530 
993 497 541 498 
994 514 542 449 
995 456 549 527 
996 526 548 508 
997 527 543 17 
998 25 544 526 
999 529 546 35 
1000 528 545 44 
1001 493 547 518 
1002 34 546 500 
1003 43 545 460 
1004 52 543 461 
1005 459 544 26 
1006 502 547 531 
1007 500 546 529 
1008 460 545 528 
1009 461 543 527 
1010 526 544 459 
1011 531 547 493 
1012 530 550 458 
1013 532 549 487 
1014 495 548 533 
1015 540 549 456 
1016 487 549 540 
1017 508 548 536 
1018 536 548 495 
$EndElements
