$MeshFormat
4.1 0 8
$EndMeshFormat
$PhysicalNames
2
1 101 "Ez_0"
2 201 "free_space"
$EndPhysicalNames
$Entities
4 4 1 0
1 -1.570796326794897 -1.570796326794897 0 0 
2 1.570796326794897 -1.570796326794897 0 0 
3 1.570796326794897 1.570796326794897 0 0 
4 -1.570796326794897 1.570796326794897 0 0 
1 -1.570796426794897 -1.570796426794897 -1e-07 1.570796426794897 -1.570796226794896 1e-07 1 101 2 1 -2 
2 1.570796226794896 -1.570796426794897 -1e-07 1.570796426794897 1.570796426794897 1e-07 1 101 2 2 -3 
3 -1.570796426794897 1.570796226794896 -1e-07 1.570796426794897 1.570796426794897 1e-07 1 101 2 3 -4 
4 -1.570796426794897 -1.570796426794897 -1e-07 -1.570796226794896 1.570796426794897 1e-07 1 101 2 4 -1 
1 -1.570796426794897 -1.570796426794897 -1e-07 1.570796426794897 1.570796426794897 1e-07 1 201 4 1 2 3 4 
$EndEntities
$Nodes
9 5 1 5
0 1 0 1
1
-1.570796326794897 -1.570796326794897 0
0 2 0 1
2
1.570796326794897 -1.570796326794897 0
0 3 0 1
3
1.570796326794897 1.570796326794897 0
0 4 0 1
4
-1.570796326794897 1.570796326794897 0
1 1 0 0
1 2 0 0
1 3 0 0
1 4 0 0
2 1 0 1
5
0 0 0
$EndNodes
$Elements
5 8 5 12
1 1 1 1
5 1 2 
1 2 1 1
6 2 3 
1 3 1 1
7 3 4 
1 4 1 1
8 4 1 
2 1 2 4
9 2 5 1 
10 1 5 4 
11 3 5 2 
12 4 5 3 
$EndElements
