<?xml version="1.0" encoding="utf-8" standalone="no"?>
<!DOCTYPE svg PUBLIC "-//W3C//DTD SVG 1.1//EN"
  "http://www.w3.org/Graphics/SVG/1.1/DTD/svg11.dtd">
<svg xmlns:xlink="http://www.w3.org/1999/xlink" width="707.989802pt" height="420.77575pt" viewBox="0 0 707.989802 420.77575" xmlns="http://www.w3.org/2000/svg" version="1.1">
 <metadata>
  <rdf:RDF xmlns:dc="http://purl.org/dc/elements/1.1/" xmlns:cc="http://creativecommons.org/ns#" xmlns:rdf="http://www.w3.org/1999/02/22-rdf-syntax-ns#">
   <cc:Work>
    <dc:type rdf:resource="http://purl.org/dc/dcmitype/StillImage"/>
    <dc:date>2025-07-04T09:14:40.972580</dc:date>
    <dc:format>image/svg+xml</dc:format>
    <dc:creator>
     <cc:Agent>
      <dc:title>Matplotlib v3.10.3, https://matplotlib.org/</dc:title>
     </cc:Agent>
    </dc:creator>
   </cc:Work>
  </rdf:RDF>
 </metadata>
 <defs>
  <style type="text/css">*{stroke-linejoin: round; stroke-linecap: butt}</style>
 </defs>
 <g id="figure_1">
  <g id="patch_1">
   <path d="M 0 420.77575 
L 707.989802 420.77575 
L 707.989802 0 
L 0 0 
z
" style="fill: #ffffff"/>
  </g>
  <g id="axes_1">
   <g id="patch_2">
    <path d="M 52.160938 383.2195 
L 519.02931 383.2195 
L 519.02931 35.7555 
L 52.160938 35.7555 
z
" style="fill: #ffffff"/>
   </g>
   <g id="matplotlib.axis_1">
    <g id="xtick_1">
     <g id="line2d_1">
      <defs>
       <path id="mfc178f1a29" d="M 0 0 
L 0 3.5 
" style="stroke: #000000; stroke-width: 0.8"/>
      </defs>
      <g>
       <use xlink:href="#mfc178f1a29" x="52.160938" y="383.2195" style="stroke: #000000; stroke-width: 0.8"/>
      </g>
     </g>
     <g id="text_1">
      <!-- 0.00 -->
      <g transform="translate(41.028125 397.817938) scale(0.1 -0.1)">
       <defs>
        <path id="DejaVuSans-30" d="M 2034 4250 
Q 1547 4250 1301 3770 
Q 1056 3291 1056 2328 
Q 1056 1369 1301 889 
Q 1547 409 2034 409 
Q 2525 409 2770 889 
Q 3016 1369 3016 2328 
Q 3016 3291 2770 3770 
Q 2525 4250 2034 4250 
z
M 2034 4750 
Q 2819 4750 3233 4129 
Q 3647 3509 3647 2328 
Q 3647 1150 3233 529 
Q 2819 -91 2034 -91 
Q 1250 -91 836 529 
Q 422 1150 422 2328 
Q 422 3509 836 4129 
Q 1250 4750 2034 4750 
z
" transform="scale(0.015625)"/>
        <path id="DejaVuSans-2e" d="M 684 794 
L 1344 794 
L 1344 0 
L 684 0 
L 684 794 
z
" transform="scale(0.015625)"/>
       </defs>
       <use xlink:href="#DejaVuSans-30"/>
       <use xlink:href="#DejaVuSans-2e" transform="translate(63.623047 0)"/>
       <use xlink:href="#DejaVuSans-30" transform="translate(95.410156 0)"/>
       <use xlink:href="#DejaVuSans-30" transform="translate(159.033203 0)"/>
      </g>
     </g>
    </g>
    <g id="xtick_2">
     <g id="line2d_2">
      <g>
       <use xlink:href="#mfc178f1a29" x="75.504356" y="383.2195" style="stroke: #000000; stroke-width: 0.8"/>
      </g>
     </g>
     <g id="text_2">
      <!-- 0.05 -->
      <g transform="translate(64.371544 397.817938) scale(0.1 -0.1)">
       <defs>
        <path id="DejaVuSans-35" d="M 691 4666 
L 3169 4666 
L 3169 4134 
L 1269 4134 
L 1269 2991 
Q 1406 3038 1543 3061 
Q 1681 3084 1819 3084 
Q 2600 3084 3056 2656 
Q 3513 2228 3513 1497 
Q 3513 744 3044 326 
Q 2575 -91 1722 -91 
Q 1428 -91 1123 -41 
Q 819 9 494 109 
L 494 744 
Q 775 591 1075 516 
Q 1375 441 1709 441 
Q 2250 441 2565 725 
Q 2881 1009 2881 1497 
Q 2881 1984 2565 2268 
Q 2250 2553 1709 2553 
Q 1456 2553 1204 2497 
Q 953 2441 691 2322 
L 691 4666 
z
" transform="scale(0.015625)"/>
       </defs>
       <use xlink:href="#DejaVuSans-30"/>
       <use xlink:href="#DejaVuSans-2e" transform="translate(63.623047 0)"/>
       <use xlink:href="#DejaVuSans-30" transform="translate(95.410156 0)"/>
       <use xlink:href="#DejaVuSans-35" transform="translate(159.033203 0)"/>
      </g>
     </g>
    </g>
    <g id="xtick_3">
     <g id="line2d_3">
      <g>
       <use xlink:href="#mfc178f1a29" x="98.847775" y="383.2195" style="stroke: #000000; stroke-width: 0.8"/>
      </g>
     </g>
     <g id="text_3">
      <!-- 0.10 -->
      <g transform="translate(87.714962 397.817938) scale(0.1 -0.1)">
       <defs>
        <path id="DejaVuSans-31" d="M 794 531 
L 1825 531 
L 1825 4091 
L 703 3866 
L 703 4441 
L 1819 4666 
L 2450 4666 
L 2450 531 
L 3481 531 
L 3481 0 
L 794 0 
L 794 531 
z
" transform="scale(0.015625)"/>
       </defs>
       <use xlink:href="#DejaVuSans-30"/>
       <use xlink:href="#DejaVuSans-2e" transform="translate(63.623047 0)"/>
       <use xlink:href="#DejaVuSans-31" transform="translate(95.410156 0)"/>
       <use xlink:href="#DejaVuSans-30" transform="translate(159.033203 0)"/>
      </g>
     </g>
    </g>
    <g id="xtick_4">
     <g id="line2d_4">
      <g>
       <use xlink:href="#mfc178f1a29" x="122.191193" y="383.2195" style="stroke: #000000; stroke-width: 0.8"/>
      </g>
     </g>
     <g id="text_4">
      <!-- 0.15 -->
      <g transform="translate(111.058381 397.817938) scale(0.1 -0.1)">
       <use xlink:href="#DejaVuSans-30"/>
       <use xlink:href="#DejaVuSans-2e" transform="translate(63.623047 0)"/>
       <use xlink:href="#DejaVuSans-31" transform="translate(95.410156 0)"/>
       <use xlink:href="#DejaVuSans-35" transform="translate(159.033203 0)"/>
      </g>
     </g>
    </g>
    <g id="xtick_5">
     <g id="line2d_5">
      <g>
       <use xlink:href="#mfc178f1a29" x="145.534612" y="383.2195" style="stroke: #000000; stroke-width: 0.8"/>
      </g>
     </g>
     <g id="text_5">
      <!-- 0.20 -->
      <g transform="translate(134.401799 397.817938) scale(0.1 -0.1)">
       <defs>
        <path id="DejaVuSans-32" d="M 1228 531 
L 3431 531 
L 3431 0 
L 469 0 
L 469 531 
Q 828 903 1448 1529 
Q 2069 2156 2228 2338 
Q 2531 2678 2651 2914 
Q 2772 3150 2772 3378 
Q 2772 3750 2511 3984 
Q 2250 4219 1831 4219 
Q 1534 4219 1204 4116 
Q 875 4013 500 3803 
L 500 4441 
Q 881 4594 1212 4672 
Q 1544 4750 1819 4750 
Q 2544 4750 2975 4387 
Q 3406 4025 3406 3419 
Q 3406 3131 3298 2873 
Q 3191 2616 2906 2266 
Q 2828 2175 2409 1742 
Q 1991 1309 1228 531 
z
" transform="scale(0.015625)"/>
       </defs>
       <use xlink:href="#DejaVuSans-30"/>
       <use xlink:href="#DejaVuSans-2e" transform="translate(63.623047 0)"/>
       <use xlink:href="#DejaVuSans-32" transform="translate(95.410156 0)"/>
       <use xlink:href="#DejaVuSans-30" transform="translate(159.033203 0)"/>
      </g>
     </g>
    </g>
    <g id="xtick_6">
     <g id="line2d_6">
      <g>
       <use xlink:href="#mfc178f1a29" x="168.878031" y="383.2195" style="stroke: #000000; stroke-width: 0.8"/>
      </g>
     </g>
     <g id="text_6">
      <!-- 0.25 -->
      <g transform="translate(157.745218 397.817938) scale(0.1 -0.1)">
       <use xlink:href="#DejaVuSans-30"/>
       <use xlink:href="#DejaVuSans-2e" transform="translate(63.623047 0)"/>
       <use xlink:href="#DejaVuSans-32" transform="translate(95.410156 0)"/>
       <use xlink:href="#DejaVuSans-35" transform="translate(159.033203 0)"/>
      </g>
     </g>
    </g>
    <g id="xtick_7">
     <g id="line2d_7">
      <g>
       <use xlink:href="#mfc178f1a29" x="192.221449" y="383.2195" style="stroke: #000000; stroke-width: 0.8"/>
      </g>
     </g>
     <g id="text_7">
      <!-- 0.30 -->
      <g transform="translate(181.088637 397.817938) scale(0.1 -0.1)">
       <defs>
        <path id="DejaVuSans-33" d="M 2597 2516 
Q 3050 2419 3304 2112 
Q 3559 1806 3559 1356 
Q 3559 666 3084 287 
Q 2609 -91 1734 -91 
Q 1441 -91 1130 -33 
Q 819 25 488 141 
L 488 750 
Q 750 597 1062 519 
Q 1375 441 1716 441 
Q 2309 441 2620 675 
Q 2931 909 2931 1356 
Q 2931 1769 2642 2001 
Q 2353 2234 1838 2234 
L 1294 2234 
L 1294 2753 
L 1863 2753 
Q 2328 2753 2575 2939 
Q 2822 3125 2822 3475 
Q 2822 3834 2567 4026 
Q 2313 4219 1838 4219 
Q 1578 4219 1281 4162 
Q 984 4106 628 3988 
L 628 4550 
Q 988 4650 1302 4700 
Q 1616 4750 1894 4750 
Q 2613 4750 3031 4423 
Q 3450 4097 3450 3541 
Q 3450 3153 3228 2886 
Q 3006 2619 2597 2516 
z
" transform="scale(0.015625)"/>
       </defs>
       <use xlink:href="#DejaVuSans-30"/>
       <use xlink:href="#DejaVuSans-2e" transform="translate(63.623047 0)"/>
       <use xlink:href="#DejaVuSans-33" transform="translate(95.410156 0)"/>
       <use xlink:href="#DejaVuSans-30" transform="translate(159.033203 0)"/>
      </g>
     </g>
    </g>
    <g id="xtick_8">
     <g id="line2d_8">
      <g>
       <use xlink:href="#mfc178f1a29" x="215.564868" y="383.2195" style="stroke: #000000; stroke-width: 0.8"/>
      </g>
     </g>
     <g id="text_8">
      <!-- 0.35 -->
      <g transform="translate(204.432055 397.817938) scale(0.1 -0.1)">
       <use xlink:href="#DejaVuSans-30"/>
       <use xlink:href="#DejaVuSans-2e" transform="translate(63.623047 0)"/>
       <use xlink:href="#DejaVuSans-33" transform="translate(95.410156 0)"/>
       <use xlink:href="#DejaVuSans-35" transform="translate(159.033203 0)"/>
      </g>
     </g>
    </g>
    <g id="xtick_9">
     <g id="line2d_9">
      <g>
       <use xlink:href="#mfc178f1a29" x="238.908286" y="383.2195" style="stroke: #000000; stroke-width: 0.8"/>
      </g>
     </g>
     <g id="text_9">
      <!-- 0.40 -->
      <g transform="translate(227.775474 397.817938) scale(0.1 -0.1)">
       <defs>
        <path id="DejaVuSans-34" d="M 2419 4116 
L 825 1625 
L 2419 1625 
L 2419 4116 
z
M 2253 4666 
L 3047 4666 
L 3047 1625 
L 3713 1625 
L 3713 1100 
L 3047 1100 
L 3047 0 
L 2419 0 
L 2419 1100 
L 313 1100 
L 313 1709 
L 2253 4666 
z
" transform="scale(0.015625)"/>
       </defs>
       <use xlink:href="#DejaVuSans-30"/>
       <use xlink:href="#DejaVuSans-2e" transform="translate(63.623047 0)"/>
       <use xlink:href="#DejaVuSans-34" transform="translate(95.410156 0)"/>
       <use xlink:href="#DejaVuSans-30" transform="translate(159.033203 0)"/>
      </g>
     </g>
    </g>
    <g id="xtick_10">
     <g id="line2d_10">
      <g>
       <use xlink:href="#mfc178f1a29" x="262.251705" y="383.2195" style="stroke: #000000; stroke-width: 0.8"/>
      </g>
     </g>
     <g id="text_10">
      <!-- 0.45 -->
      <g transform="translate(251.118893 397.817938) scale(0.1 -0.1)">
       <use xlink:href="#DejaVuSans-30"/>
       <use xlink:href="#DejaVuSans-2e" transform="translate(63.623047 0)"/>
       <use xlink:href="#DejaVuSans-34" transform="translate(95.410156 0)"/>
       <use xlink:href="#DejaVuSans-35" transform="translate(159.033203 0)"/>
      </g>
     </g>
    </g>
    <g id="xtick_11">
     <g id="line2d_11">
      <g>
       <use xlink:href="#mfc178f1a29" x="285.595124" y="383.2195" style="stroke: #000000; stroke-width: 0.8"/>
      </g>
     </g>
     <g id="text_11">
      <!-- 0.50 -->
      <g transform="translate(274.462311 397.817938) scale(0.1 -0.1)">
       <use xlink:href="#DejaVuSans-30"/>
       <use xlink:href="#DejaVuSans-2e" transform="translate(63.623047 0)"/>
       <use xlink:href="#DejaVuSans-35" transform="translate(95.410156 0)"/>
       <use xlink:href="#DejaVuSans-30" transform="translate(159.033203 0)"/>
      </g>
     </g>
    </g>
    <g id="xtick_12">
     <g id="line2d_12">
      <g>
       <use xlink:href="#mfc178f1a29" x="308.938542" y="383.2195" style="stroke: #000000; stroke-width: 0.8"/>
      </g>
     </g>
     <g id="text_12">
      <!-- 0.55 -->
      <g transform="translate(297.80573 397.817938) scale(0.1 -0.1)">
       <use xlink:href="#DejaVuSans-30"/>
       <use xlink:href="#DejaVuSans-2e" transform="translate(63.623047 0)"/>
       <use xlink:href="#DejaVuSans-35" transform="translate(95.410156 0)"/>
       <use xlink:href="#DejaVuSans-35" transform="translate(159.033203 0)"/>
      </g>
     </g>
    </g>
    <g id="xtick_13">
     <g id="line2d_13">
      <g>
       <use xlink:href="#mfc178f1a29" x="332.281961" y="383.2195" style="stroke: #000000; stroke-width: 0.8"/>
      </g>
     </g>
     <g id="text_13">
      <!-- 0.60 -->
      <g transform="translate(321.149148 397.817938) scale(0.1 -0.1)">
       <defs>
        <path id="DejaVuSans-36" d="M 2113 2584 
Q 1688 2584 1439 2293 
Q 1191 2003 1191 1497 
Q 1191 994 1439 701 
Q 1688 409 2113 409 
Q 2538 409 2786 701 
Q 3034 994 3034 1497 
Q 3034 2003 2786 2293 
Q 2538 2584 2113 2584 
z
M 3366 4563 
L 3366 3988 
Q 3128 4100 2886 4159 
Q 2644 4219 2406 4219 
Q 1781 4219 1451 3797 
Q 1122 3375 1075 2522 
Q 1259 2794 1537 2939 
Q 1816 3084 2150 3084 
Q 2853 3084 3261 2657 
Q 3669 2231 3669 1497 
Q 3669 778 3244 343 
Q 2819 -91 2113 -91 
Q 1303 -91 875 529 
Q 447 1150 447 2328 
Q 447 3434 972 4092 
Q 1497 4750 2381 4750 
Q 2619 4750 2861 4703 
Q 3103 4656 3366 4563 
z
" transform="scale(0.015625)"/>
       </defs>
       <use xlink:href="#DejaVuSans-30"/>
       <use xlink:href="#DejaVuSans-2e" transform="translate(63.623047 0)"/>
       <use xlink:href="#DejaVuSans-36" transform="translate(95.410156 0)"/>
       <use xlink:href="#DejaVuSans-30" transform="translate(159.033203 0)"/>
      </g>
     </g>
    </g>
    <g id="xtick_14">
     <g id="line2d_14">
      <g>
       <use xlink:href="#mfc178f1a29" x="355.625379" y="383.2195" style="stroke: #000000; stroke-width: 0.8"/>
      </g>
     </g>
     <g id="text_14">
      <!-- 0.65 -->
      <g transform="translate(344.492567 397.817938) scale(0.1 -0.1)">
       <use xlink:href="#DejaVuSans-30"/>
       <use xlink:href="#DejaVuSans-2e" transform="translate(63.623047 0)"/>
       <use xlink:href="#DejaVuSans-36" transform="translate(95.410156 0)"/>
       <use xlink:href="#DejaVuSans-35" transform="translate(159.033203 0)"/>
      </g>
     </g>
    </g>
    <g id="xtick_15">
     <g id="line2d_15">
      <g>
       <use xlink:href="#mfc178f1a29" x="378.968798" y="383.2195" style="stroke: #000000; stroke-width: 0.8"/>
      </g>
     </g>
     <g id="text_15">
      <!-- 0.70 -->
      <g transform="translate(367.835986 397.817938) scale(0.1 -0.1)">
       <defs>
        <path id="DejaVuSans-37" d="M 525 4666 
L 3525 4666 
L 3525 4397 
L 1831 0 
L 1172 0 
L 2766 4134 
L 525 4134 
L 525 4666 
z
" transform="scale(0.015625)"/>
       </defs>
       <use xlink:href="#DejaVuSans-30"/>
       <use xlink:href="#DejaVuSans-2e" transform="translate(63.623047 0)"/>
       <use xlink:href="#DejaVuSans-37" transform="translate(95.410156 0)"/>
       <use xlink:href="#DejaVuSans-30" transform="translate(159.033203 0)"/>
      </g>
     </g>
    </g>
    <g id="xtick_16">
     <g id="line2d_16">
      <g>
       <use xlink:href="#mfc178f1a29" x="402.312217" y="383.2195" style="stroke: #000000; stroke-width: 0.8"/>
      </g>
     </g>
     <g id="text_16">
      <!-- 0.75 -->
      <g transform="translate(391.179404 397.817938) scale(0.1 -0.1)">
       <use xlink:href="#DejaVuSans-30"/>
       <use xlink:href="#DejaVuSans-2e" transform="translate(63.623047 0)"/>
       <use xlink:href="#DejaVuSans-37" transform="translate(95.410156 0)"/>
       <use xlink:href="#DejaVuSans-35" transform="translate(159.033203 0)"/>
      </g>
     </g>
    </g>
    <g id="xtick_17">
     <g id="line2d_17">
      <g>
       <use xlink:href="#mfc178f1a29" x="425.655635" y="383.2195" style="stroke: #000000; stroke-width: 0.8"/>
      </g>
     </g>
     <g id="text_17">
      <!-- 0.80 -->
      <g transform="translate(414.522823 397.817938) scale(0.1 -0.1)">
       <defs>
        <path id="DejaVuSans-38" d="M 2034 2216 
Q 1584 2216 1326 1975 
Q 1069 1734 1069 1313 
Q 1069 891 1326 650 
Q 1584 409 2034 409 
Q 2484 409 2743 651 
Q 3003 894 3003 1313 
Q 3003 1734 2745 1975 
Q 2488 2216 2034 2216 
z
M 1403 2484 
Q 997 2584 770 2862 
Q 544 3141 544 3541 
Q 544 4100 942 4425 
Q 1341 4750 2034 4750 
Q 2731 4750 3128 4425 
Q 3525 4100 3525 3541 
Q 3525 3141 3298 2862 
Q 3072 2584 2669 2484 
Q 3125 2378 3379 2068 
Q 3634 1759 3634 1313 
Q 3634 634 3220 271 
Q 2806 -91 2034 -91 
Q 1263 -91 848 271 
Q 434 634 434 1313 
Q 434 1759 690 2068 
Q 947 2378 1403 2484 
z
M 1172 3481 
Q 1172 3119 1398 2916 
Q 1625 2713 2034 2713 
Q 2441 2713 2670 2916 
Q 2900 3119 2900 3481 
Q 2900 3844 2670 4047 
Q 2441 4250 2034 4250 
Q 1625 4250 1398 4047 
Q 1172 3844 1172 3481 
z
" transform="scale(0.015625)"/>
       </defs>
       <use xlink:href="#DejaVuSans-30"/>
       <use xlink:href="#DejaVuSans-2e" transform="translate(63.623047 0)"/>
       <use xlink:href="#DejaVuSans-38" transform="translate(95.410156 0)"/>
       <use xlink:href="#DejaVuSans-30" transform="translate(159.033203 0)"/>
      </g>
     </g>
    </g>
    <g id="xtick_18">
     <g id="line2d_18">
      <g>
       <use xlink:href="#mfc178f1a29" x="448.999054" y="383.2195" style="stroke: #000000; stroke-width: 0.8"/>
      </g>
     </g>
     <g id="text_18">
      <!-- 0.85 -->
      <g transform="translate(437.866241 397.817938) scale(0.1 -0.1)">
       <use xlink:href="#DejaVuSans-30"/>
       <use xlink:href="#DejaVuSans-2e" transform="translate(63.623047 0)"/>
       <use xlink:href="#DejaVuSans-38" transform="translate(95.410156 0)"/>
       <use xlink:href="#DejaVuSans-35" transform="translate(159.033203 0)"/>
      </g>
     </g>
    </g>
    <g id="xtick_19">
     <g id="line2d_19">
      <g>
       <use xlink:href="#mfc178f1a29" x="472.342473" y="383.2195" style="stroke: #000000; stroke-width: 0.8"/>
      </g>
     </g>
     <g id="text_19">
      <!-- 0.90 -->
      <g transform="translate(461.20966 397.817938) scale(0.1 -0.1)">
       <defs>
        <path id="DejaVuSans-39" d="M 703 97 
L 703 672 
Q 941 559 1184 500 
Q 1428 441 1663 441 
Q 2288 441 2617 861 
Q 2947 1281 2994 2138 
Q 2813 1869 2534 1725 
Q 2256 1581 1919 1581 
Q 1219 1581 811 2004 
Q 403 2428 403 3163 
Q 403 3881 828 4315 
Q 1253 4750 1959 4750 
Q 2769 4750 3195 4129 
Q 3622 3509 3622 2328 
Q 3622 1225 3098 567 
Q 2575 -91 1691 -91 
Q 1453 -91 1209 -44 
Q 966 3 703 97 
z
M 1959 2075 
Q 2384 2075 2632 2365 
Q 2881 2656 2881 3163 
Q 2881 3666 2632 3958 
Q 2384 4250 1959 4250 
Q 1534 4250 1286 3958 
Q 1038 3666 1038 3163 
Q 1038 2656 1286 2365 
Q 1534 2075 1959 2075 
z
" transform="scale(0.015625)"/>
       </defs>
       <use xlink:href="#DejaVuSans-30"/>
       <use xlink:href="#DejaVuSans-2e" transform="translate(63.623047 0)"/>
       <use xlink:href="#DejaVuSans-39" transform="translate(95.410156 0)"/>
       <use xlink:href="#DejaVuSans-30" transform="translate(159.033203 0)"/>
      </g>
     </g>
    </g>
    <g id="xtick_20">
     <g id="line2d_20">
      <g>
       <use xlink:href="#mfc178f1a29" x="495.685891" y="383.2195" style="stroke: #000000; stroke-width: 0.8"/>
      </g>
     </g>
     <g id="text_20">
      <!-- 0.95 -->
      <g transform="translate(484.553079 397.817938) scale(0.1 -0.1)">
       <use xlink:href="#DejaVuSans-30"/>
       <use xlink:href="#DejaVuSans-2e" transform="translate(63.623047 0)"/>
       <use xlink:href="#DejaVuSans-39" transform="translate(95.410156 0)"/>
       <use xlink:href="#DejaVuSans-35" transform="translate(159.033203 0)"/>
      </g>
     </g>
    </g>
    <g id="xtick_21">
     <g id="line2d_21">
      <g>
       <use xlink:href="#mfc178f1a29" x="519.02931" y="383.2195" style="stroke: #000000; stroke-width: 0.8"/>
      </g>
     </g>
     <g id="text_21">
      <!-- 1.00 -->
      <g transform="translate(507.896497 397.817938) scale(0.1 -0.1)">
       <use xlink:href="#DejaVuSans-31"/>
       <use xlink:href="#DejaVuSans-2e" transform="translate(63.623047 0)"/>
       <use xlink:href="#DejaVuSans-30" transform="translate(95.410156 0)"/>
       <use xlink:href="#DejaVuSans-30" transform="translate(159.033203 0)"/>
      </g>
     </g>
    </g>
    <g id="text_22">
     <!-- $x/40.00$ -->
     <g transform="translate(266.595124 411.496062) scale(0.1 -0.1)">
      <defs>
       <path id="DejaVuSans-Oblique-78" d="M 3841 3500 
L 2234 1784 
L 3219 0 
L 2559 0 
L 1819 1388 
L 531 0 
L -166 0 
L 1556 1844 
L 641 3500 
L 1300 3500 
L 1972 2234 
L 3144 3500 
L 3841 3500 
z
" transform="scale(0.015625)"/>
       <path id="DejaVuSans-2f" d="M 1625 4666 
L 2156 4666 
L 531 -594 
L 0 -594 
L 1625 4666 
z
" transform="scale(0.015625)"/>
      </defs>
      <use xlink:href="#DejaVuSans-Oblique-78" transform="translate(0 0.78125)"/>
      <use xlink:href="#DejaVuSans-2f" transform="translate(59.179688 0.78125)"/>
      <use xlink:href="#DejaVuSans-34" transform="translate(92.871094 0.78125)"/>
      <use xlink:href="#DejaVuSans-30" transform="translate(156.494141 0.78125)"/>
      <use xlink:href="#DejaVuSans-2e" transform="translate(220.117188 0.78125)"/>
      <use xlink:href="#DejaVuSans-30" transform="translate(251.904297 0.78125)"/>
      <use xlink:href="#DejaVuSans-30" transform="translate(315.527344 0.78125)"/>
     </g>
    </g>
   </g>
   <g id="matplotlib.axis_2">
    <g id="ytick_1">
     <g id="line2d_22">
      <defs>
       <path id="m880fe09cb2" d="M 0 0 
L -3.5 0 
" style="stroke: #000000; stroke-width: 0.8"/>
      </defs>
      <g>
       <use xlink:href="#m880fe09cb2" x="52.160938" y="383.2195" style="stroke: #000000; stroke-width: 0.8"/>
      </g>
     </g>
     <g id="text_23">
      <!-- −1.5 -->
      <g transform="translate(20.878125 387.018719) scale(0.1 -0.1)">
       <defs>
        <path id="DejaVuSans-2212" d="M 678 2272 
L 4684 2272 
L 4684 1741 
L 678 1741 
L 678 2272 
z
" transform="scale(0.015625)"/>
       </defs>
       <use xlink:href="#DejaVuSans-2212"/>
       <use xlink:href="#DejaVuSans-31" transform="translate(83.789062 0)"/>
       <use xlink:href="#DejaVuSans-2e" transform="translate(147.412109 0)"/>
       <use xlink:href="#DejaVuSans-35" transform="translate(179.199219 0)"/>
      </g>
     </g>
    </g>
    <g id="ytick_2">
     <g id="line2d_23">
      <g>
       <use xlink:href="#m880fe09cb2" x="52.160938" y="325.308833" style="stroke: #000000; stroke-width: 0.8"/>
      </g>
     </g>
     <g id="text_24">
      <!-- −1.0 -->
      <g transform="translate(20.878125 329.108052) scale(0.1 -0.1)">
       <use xlink:href="#DejaVuSans-2212"/>
       <use xlink:href="#DejaVuSans-31" transform="translate(83.789062 0)"/>
       <use xlink:href="#DejaVuSans-2e" transform="translate(147.412109 0)"/>
       <use xlink:href="#DejaVuSans-30" transform="translate(179.199219 0)"/>
      </g>
     </g>
    </g>
    <g id="ytick_3">
     <g id="line2d_24">
      <g>
       <use xlink:href="#m880fe09cb2" x="52.160938" y="267.398167" style="stroke: #000000; stroke-width: 0.8"/>
      </g>
     </g>
     <g id="text_25">
      <!-- −0.5 -->
      <g transform="translate(20.878125 271.197385) scale(0.1 -0.1)">
       <use xlink:href="#DejaVuSans-2212"/>
       <use xlink:href="#DejaVuSans-30" transform="translate(83.789062 0)"/>
       <use xlink:href="#DejaVuSans-2e" transform="translate(147.412109 0)"/>
       <use xlink:href="#DejaVuSans-35" transform="translate(179.199219 0)"/>
      </g>
     </g>
    </g>
    <g id="ytick_4">
     <g id="line2d_25">
      <g>
       <use xlink:href="#m880fe09cb2" x="52.160938" y="209.4875" style="stroke: #000000; stroke-width: 0.8"/>
      </g>
     </g>
     <g id="text_26">
      <!-- 0.0 -->
      <g transform="translate(29.257812 213.286719) scale(0.1 -0.1)">
       <use xlink:href="#DejaVuSans-30"/>
       <use xlink:href="#DejaVuSans-2e" transform="translate(63.623047 0)"/>
       <use xlink:href="#DejaVuSans-30" transform="translate(95.410156 0)"/>
      </g>
     </g>
    </g>
    <g id="ytick_5">
     <g id="line2d_26">
      <g>
       <use xlink:href="#m880fe09cb2" x="52.160938" y="151.576833" style="stroke: #000000; stroke-width: 0.8"/>
      </g>
     </g>
     <g id="text_27">
      <!-- 0.5 -->
      <g transform="translate(29.257812 155.376052) scale(0.1 -0.1)">
       <use xlink:href="#DejaVuSans-30"/>
       <use xlink:href="#DejaVuSans-2e" transform="translate(63.623047 0)"/>
       <use xlink:href="#DejaVuSans-35" transform="translate(95.410156 0)"/>
      </g>
     </g>
    </g>
    <g id="ytick_6">
     <g id="line2d_27">
      <g>
       <use xlink:href="#m880fe09cb2" x="52.160938" y="93.666167" style="stroke: #000000; stroke-width: 0.8"/>
      </g>
     </g>
     <g id="text_28">
      <!-- 1.0 -->
      <g transform="translate(29.257812 97.465385) scale(0.1 -0.1)">
       <use xlink:href="#DejaVuSans-31"/>
       <use xlink:href="#DejaVuSans-2e" transform="translate(63.623047 0)"/>
       <use xlink:href="#DejaVuSans-30" transform="translate(95.410156 0)"/>
      </g>
     </g>
    </g>
    <g id="ytick_7">
     <g id="line2d_28">
      <g>
       <use xlink:href="#m880fe09cb2" x="52.160938" y="35.7555" style="stroke: #000000; stroke-width: 0.8"/>
      </g>
     </g>
     <g id="text_29">
      <!-- 1.5 -->
      <g transform="translate(29.257812 39.554719) scale(0.1 -0.1)">
       <use xlink:href="#DejaVuSans-31"/>
       <use xlink:href="#DejaVuSans-2e" transform="translate(63.623047 0)"/>
       <use xlink:href="#DejaVuSans-35" transform="translate(95.410156 0)"/>
      </g>
     </g>
    </g>
    <g id="text_30">
     <!-- $u(x)$ -->
     <g transform="translate(14.798438 219.5375) rotate(-90) scale(0.1 -0.1)">
      <defs>
       <path id="DejaVuSans-Oblique-75" d="M 428 1388 
L 838 3500 
L 1416 3500 
L 1006 1409 
Q 975 1256 961 1147 
Q 947 1038 947 966 
Q 947 700 1109 554 
Q 1272 409 1569 409 
Q 2031 409 2368 721 
Q 2706 1034 2809 1563 
L 3194 3500 
L 3769 3500 
L 3091 0 
L 2516 0 
L 2631 550 
Q 2388 244 2052 76 
Q 1716 -91 1338 -91 
Q 878 -91 622 161 
Q 366 413 366 863 
Q 366 956 381 1097 
Q 397 1238 428 1388 
z
" transform="scale(0.015625)"/>
       <path id="DejaVuSans-28" d="M 1984 4856 
Q 1566 4138 1362 3434 
Q 1159 2731 1159 2009 
Q 1159 1288 1364 580 
Q 1569 -128 1984 -844 
L 1484 -844 
Q 1016 -109 783 600 
Q 550 1309 550 2009 
Q 550 2706 781 3412 
Q 1013 4119 1484 4856 
L 1984 4856 
z
" transform="scale(0.015625)"/>
       <path id="DejaVuSans-29" d="M 513 4856 
L 1013 4856 
Q 1481 4119 1714 3412 
Q 1947 2706 1947 2009 
Q 1947 1309 1714 600 
Q 1481 -109 1013 -844 
L 513 -844 
Q 928 -128 1133 580 
Q 1338 1288 1338 2009 
Q 1338 2731 1133 3434 
Q 928 4138 513 4856 
z
" transform="scale(0.015625)"/>
      </defs>
      <use xlink:href="#DejaVuSans-Oblique-75" transform="translate(0 0.125)"/>
      <use xlink:href="#DejaVuSans-28" transform="translate(63.378906 0.125)"/>
      <use xlink:href="#DejaVuSans-Oblique-78" transform="translate(102.392578 0.125)"/>
      <use xlink:href="#DejaVuSans-29" transform="translate(161.572266 0.125)"/>
     </g>
    </g>
   </g>
   <g id="line2d_29">
    <path d="M 52.160938 209.306172 
L 56.191719 209.554288 
L 63.832647 209.475228 
L 71.473574 209.479706 
L 75.504356 209.532482 
" clip-path="url(#p5a68e04716)" style="fill: none; stroke: #1f77b4; stroke-width: 1.5; stroke-linecap: square"/>
    <defs>
     <path id="m5417538266" d="M 0 1.5 
C 0.397805 1.5 0.77937 1.341951 1.06066 1.06066 
C 1.341951 0.77937 1.5 0.397805 1.5 0 
C 1.5 -0.397805 1.341951 -0.77937 1.06066 -1.06066 
C 0.77937 -1.341951 0.397805 -1.5 0 -1.5 
C -0.397805 -1.5 -0.77937 -1.341951 -1.06066 -1.06066 
C -1.341951 -0.77937 -1.5 -0.397805 -1.5 0 
C -1.5 0.397805 -1.341951 0.77937 -1.06066 1.06066 
C -0.77937 1.341951 -0.397805 1.5 0 1.5 
z
" style="stroke: #1f77b4"/>
    </defs>
    <g clip-path="url(#p5a68e04716)">
     <use xlink:href="#m5417538266" x="52.160938" y="209.306172" style="fill-opacity: 0; stroke: #1f77b4"/>
     <use xlink:href="#m5417538266" x="56.191719" y="209.554288" style="fill-opacity: 0; stroke: #1f77b4"/>
     <use xlink:href="#m5417538266" x="63.832647" y="209.475228" style="fill-opacity: 0; stroke: #1f77b4"/>
     <use xlink:href="#m5417538266" x="71.473574" y="209.479706" style="fill-opacity: 0; stroke: #1f77b4"/>
     <use xlink:href="#m5417538266" x="75.504356" y="209.532482" style="fill-opacity: 0; stroke: #1f77b4"/>
    </g>
   </g>
   <g id="line2d_30">
    <path d="M 75.504356 209.550782 
L 79.535138 209.477755 
L 87.176065 209.486756 
L 94.816993 209.492296 
L 98.847775 209.475454 
" clip-path="url(#p5a68e04716)" style="fill: none; stroke: #ff7f0e; stroke-width: 1.5; stroke-linecap: square"/>
    <defs>
     <path id="m36afa02287" d="M 0 1.5 
C 0.397805 1.5 0.77937 1.341951 1.06066 1.06066 
C 1.341951 0.77937 1.5 0.397805 1.5 0 
C 1.5 -0.397805 1.341951 -0.77937 1.06066 -1.06066 
C 0.77937 -1.341951 0.397805 -1.5 0 -1.5 
C -0.397805 -1.5 -0.77937 -1.341951 -1.06066 -1.06066 
C -1.341951 -0.77937 -1.5 -0.397805 -1.5 0 
C -1.5 0.397805 -1.341951 0.77937 -1.06066 1.06066 
C -0.77937 1.341951 -0.397805 1.5 0 1.5 
z
" style="stroke: #ff7f0e"/>
    </defs>
    <g clip-path="url(#p5a68e04716)">
     <use xlink:href="#m36afa02287" x="75.504356" y="209.550782" style="fill-opacity: 0; stroke: #ff7f0e"/>
     <use xlink:href="#m36afa02287" x="79.535138" y="209.477755" style="fill-opacity: 0; stroke: #ff7f0e"/>
     <use xlink:href="#m36afa02287" x="87.176065" y="209.486756" style="fill-opacity: 0; stroke: #ff7f0e"/>
     <use xlink:href="#m36afa02287" x="94.816993" y="209.492296" style="fill-opacity: 0; stroke: #ff7f0e"/>
     <use xlink:href="#m36afa02287" x="98.847775" y="209.475454" style="fill-opacity: 0; stroke: #ff7f0e"/>
    </g>
   </g>
   <g id="line2d_31">
    <path d="M 98.847775 209.469792 
L 102.878557 209.489225 
L 110.519484 209.487914 
L 118.160411 209.486206 
L 122.191193 209.490715 
" clip-path="url(#p5a68e04716)" style="fill: none; stroke: #2ca02c; stroke-width: 1.5; stroke-linecap: square"/>
    <defs>
     <path id="mada35990e6" d="M 0 1.5 
C 0.397805 1.5 0.77937 1.341951 1.06066 1.06066 
C 1.341951 0.77937 1.5 0.397805 1.5 0 
C 1.5 -0.397805 1.341951 -0.77937 1.06066 -1.06066 
C 0.77937 -1.341951 0.397805 -1.5 0 -1.5 
C -0.397805 -1.5 -0.77937 -1.341951 -1.06066 -1.06066 
C -1.341951 -0.77937 -1.5 -0.397805 -1.5 0 
C -1.5 0.397805 -1.341951 0.77937 -1.06066 1.06066 
C -0.77937 1.341951 -0.397805 1.5 0 1.5 
z
" style="stroke: #2ca02c"/>
    </defs>
    <g clip-path="url(#p5a68e04716)">
     <use xlink:href="#mada35990e6" x="98.847775" y="209.469792" style="fill-opacity: 0; stroke: #2ca02c"/>
     <use xlink:href="#mada35990e6" x="102.878557" y="209.489225" style="fill-opacity: 0; stroke: #2ca02c"/>
     <use xlink:href="#mada35990e6" x="110.519484" y="209.487914" style="fill-opacity: 0; stroke: #2ca02c"/>
     <use xlink:href="#mada35990e6" x="118.160411" y="209.486206" style="fill-opacity: 0; stroke: #2ca02c"/>
     <use xlink:href="#mada35990e6" x="122.191193" y="209.490715" style="fill-opacity: 0; stroke: #2ca02c"/>
    </g>
   </g>
   <g id="line2d_32">
    <path d="M 122.191193 209.492108 
L 126.221975 209.486946 
L 133.862903 209.487502 
L 141.50383 209.487705 
L 145.534612 209.486662 
" clip-path="url(#p5a68e04716)" style="fill: none; stroke: #d62728; stroke-width: 1.5; stroke-linecap: square"/>
    <defs>
     <path id="m3f2def3a58" d="M 0 1.5 
C 0.397805 1.5 0.77937 1.341951 1.06066 1.06066 
C 1.341951 0.77937 1.5 0.397805 1.5 0 
C 1.5 -0.397805 1.341951 -0.77937 1.06066 -1.06066 
C 0.77937 -1.341951 0.397805 -1.5 0 -1.5 
C -0.397805 -1.5 -0.77937 -1.341951 -1.06066 -1.06066 
C -1.341951 -0.77937 -1.5 -0.397805 -1.5 0 
C -1.5 0.397805 -1.341951 0.77937 -1.06066 1.06066 
C -0.77937 1.341951 -0.397805 1.5 0 1.5 
z
" style="stroke: #d62728"/>
    </defs>
    <g clip-path="url(#p5a68e04716)">
     <use xlink:href="#m3f2def3a58" x="122.191193" y="209.492108" style="fill-opacity: 0; stroke: #d62728"/>
     <use xlink:href="#m3f2def3a58" x="126.221975" y="209.486946" style="fill-opacity: 0; stroke: #d62728"/>
     <use xlink:href="#m3f2def3a58" x="133.862903" y="209.487502" style="fill-opacity: 0; stroke: #d62728"/>
     <use xlink:href="#m3f2def3a58" x="141.50383" y="209.487705" style="fill-opacity: 0; stroke: #d62728"/>
     <use xlink:href="#m3f2def3a58" x="145.534612" y="209.486662" style="fill-opacity: 0; stroke: #d62728"/>
    </g>
   </g>
   <g id="line2d_33">
    <path d="M 145.534612 209.486426 
L 149.565394 209.487722 
L 157.206321 209.487442 
L 164.847249 209.487511 
L 168.878031 209.487688 
" clip-path="url(#p5a68e04716)" style="fill: none; stroke: #9467bd; stroke-width: 1.5; stroke-linecap: square"/>
    <defs>
     <path id="m686586b568" d="M 0 1.5 
C 0.397805 1.5 0.77937 1.341951 1.06066 1.06066 
C 1.341951 0.77937 1.5 0.397805 1.5 0 
C 1.5 -0.397805 1.341951 -0.77937 1.06066 -1.06066 
C 0.77937 -1.341951 0.397805 -1.5 0 -1.5 
C -0.397805 -1.5 -0.77937 -1.341951 -1.06066 -1.06066 
C -1.341951 -0.77937 -1.5 -0.397805 -1.5 0 
C -1.5 0.397805 -1.341951 0.77937 -1.06066 1.06066 
C -0.77937 1.341951 -0.397805 1.5 0 1.5 
z
" style="stroke: #9467bd"/>
    </defs>
    <g clip-path="url(#p5a68e04716)">
     <use xlink:href="#m686586b568" x="145.534612" y="209.486426" style="fill-opacity: 0; stroke: #9467bd"/>
     <use xlink:href="#m686586b568" x="149.565394" y="209.487722" style="fill-opacity: 0; stroke: #9467bd"/>
     <use xlink:href="#m686586b568" x="157.206321" y="209.487442" style="fill-opacity: 0; stroke: #9467bd"/>
     <use xlink:href="#m686586b568" x="164.847249" y="209.487511" style="fill-opacity: 0; stroke: #9467bd"/>
     <use xlink:href="#m686586b568" x="168.878031" y="209.487688" style="fill-opacity: 0; stroke: #9467bd"/>
    </g>
   </g>
   <g id="line2d_34">
    <path d="M 168.878031 209.487687 
L 172.908813 209.487424 
L 180.54974 209.48753 
L 188.190667 209.487478 
L 192.221449 209.487473 
" clip-path="url(#p5a68e04716)" style="fill: none; stroke: #8c564b; stroke-width: 1.5; stroke-linecap: square"/>
    <defs>
     <path id="mab48f56f81" d="M 0 1.5 
C 0.397805 1.5 0.77937 1.341951 1.06066 1.06066 
C 1.341951 0.77937 1.5 0.397805 1.5 0 
C 1.5 -0.397805 1.341951 -0.77937 1.06066 -1.06066 
C 0.77937 -1.341951 0.397805 -1.5 0 -1.5 
C -0.397805 -1.5 -0.77937 -1.341951 -1.06066 -1.06066 
C -1.341951 -0.77937 -1.5 -0.397805 -1.5 0 
C -1.5 0.397805 -1.341951 0.77937 -1.06066 1.06066 
C -0.77937 1.341951 -0.397805 1.5 0 1.5 
z
" style="stroke: #8c564b"/>
    </defs>
    <g clip-path="url(#p5a68e04716)">
     <use xlink:href="#mab48f56f81" x="168.878031" y="209.487687" style="fill-opacity: 0; stroke: #8c564b"/>
     <use xlink:href="#mab48f56f81" x="172.908813" y="209.487424" style="fill-opacity: 0; stroke: #8c564b"/>
     <use xlink:href="#mab48f56f81" x="180.54974" y="209.48753" style="fill-opacity: 0; stroke: #8c564b"/>
     <use xlink:href="#mab48f56f81" x="188.190667" y="209.487478" style="fill-opacity: 0; stroke: #8c564b"/>
     <use xlink:href="#mab48f56f81" x="192.221449" y="209.487473" style="fill-opacity: 0; stroke: #8c564b"/>
    </g>
   </g>
   <g id="line2d_35">
    <path d="M 192.221449 209.487492 
L 196.252231 209.487519 
L 203.893158 209.487491 
L 211.534086 209.487509 
L 215.564868 209.487499 
" clip-path="url(#p5a68e04716)" style="fill: none; stroke: #e377c2; stroke-width: 1.5; stroke-linecap: square"/>
    <defs>
     <path id="m2c8876e35c" d="M 0 1.5 
C 0.397805 1.5 0.77937 1.341951 1.06066 1.06066 
C 1.341951 0.77937 1.5 0.397805 1.5 0 
C 1.5 -0.397805 1.341951 -0.77937 1.06066 -1.06066 
C 0.77937 -1.341951 0.397805 -1.5 0 -1.5 
C -0.397805 -1.5 -0.77937 -1.341951 -1.06066 -1.06066 
C -1.341951 -0.77937 -1.5 -0.397805 -1.5 0 
C -1.5 0.397805 -1.341951 0.77937 -1.06066 1.06066 
C -0.77937 1.341951 -0.397805 1.5 0 1.5 
z
" style="stroke: #e377c2"/>
    </defs>
    <g clip-path="url(#p5a68e04716)">
     <use xlink:href="#m2c8876e35c" x="192.221449" y="209.487492" style="fill-opacity: 0; stroke: #e377c2"/>
     <use xlink:href="#m2c8876e35c" x="196.252231" y="209.487519" style="fill-opacity: 0; stroke: #e377c2"/>
     <use xlink:href="#m2c8876e35c" x="203.893158" y="209.487491" style="fill-opacity: 0; stroke: #e377c2"/>
     <use xlink:href="#m2c8876e35c" x="211.534086" y="209.487509" style="fill-opacity: 0; stroke: #e377c2"/>
     <use xlink:href="#m2c8876e35c" x="215.564868" y="209.487499" style="fill-opacity: 0; stroke: #e377c2"/>
    </g>
   </g>
   <g id="line2d_36">
    <path d="M 215.564868 209.487491 
L 219.59565 209.487497 
L 227.236577 209.487502 
L 234.877504 209.487498 
L 238.908286 209.487502 
" clip-path="url(#p5a68e04716)" style="fill: none; stroke: #7f7f7f; stroke-width: 1.5; stroke-linecap: square"/>
    <defs>
     <path id="m928adcf3cd" d="M 0 1.5 
C 0.397805 1.5 0.77937 1.341951 1.06066 1.06066 
C 1.341951 0.77937 1.5 0.397805 1.5 0 
C 1.5 -0.397805 1.341951 -0.77937 1.06066 -1.06066 
C 0.77937 -1.341951 0.397805 -1.5 0 -1.5 
C -0.397805 -1.5 -0.77937 -1.341951 -1.06066 -1.06066 
C -1.341951 -0.77937 -1.5 -0.397805 -1.5 0 
C -1.5 0.397805 -1.341951 0.77937 -1.06066 1.06066 
C -0.77937 1.341951 -0.397805 1.5 0 1.5 
z
" style="stroke: #7f7f7f"/>
    </defs>
    <g clip-path="url(#p5a68e04716)">
     <use xlink:href="#m928adcf3cd" x="215.564868" y="209.487491" style="fill-opacity: 0; stroke: #7f7f7f"/>
     <use xlink:href="#m928adcf3cd" x="219.59565" y="209.487497" style="fill-opacity: 0; stroke: #7f7f7f"/>
     <use xlink:href="#m928adcf3cd" x="227.236577" y="209.487502" style="fill-opacity: 0; stroke: #7f7f7f"/>
     <use xlink:href="#m928adcf3cd" x="234.877504" y="209.487498" style="fill-opacity: 0; stroke: #7f7f7f"/>
     <use xlink:href="#m928adcf3cd" x="238.908286" y="209.487502" style="fill-opacity: 0; stroke: #7f7f7f"/>
    </g>
   </g>
   <g id="line2d_37">
    <path d="M 238.908286 209.487503 
L 242.939068 209.4875 
L 250.579996 209.4875 
L 258.220923 209.4875 
L 262.251705 209.4875 
" clip-path="url(#p5a68e04716)" style="fill: none; stroke: #bcbd22; stroke-width: 1.5; stroke-linecap: square"/>
    <defs>
     <path id="m30f91efaed" d="M 0 1.5 
C 0.397805 1.5 0.77937 1.341951 1.06066 1.06066 
C 1.341951 0.77937 1.5 0.397805 1.5 0 
C 1.5 -0.397805 1.341951 -0.77937 1.06066 -1.06066 
C 0.77937 -1.341951 0.397805 -1.5 0 -1.5 
C -0.397805 -1.5 -0.77937 -1.341951 -1.06066 -1.06066 
C -1.341951 -0.77937 -1.5 -0.397805 -1.5 0 
C -1.5 0.397805 -1.341951 0.77937 -1.06066 1.06066 
C -0.77937 1.341951 -0.397805 1.5 0 1.5 
z
" style="stroke: #bcbd22"/>
    </defs>
    <g clip-path="url(#p5a68e04716)">
     <use xlink:href="#m30f91efaed" x="238.908286" y="209.487503" style="fill-opacity: 0; stroke: #bcbd22"/>
     <use xlink:href="#m30f91efaed" x="242.939068" y="209.4875" style="fill-opacity: 0; stroke: #bcbd22"/>
     <use xlink:href="#m30f91efaed" x="250.579996" y="209.4875" style="fill-opacity: 0; stroke: #bcbd22"/>
     <use xlink:href="#m30f91efaed" x="258.220923" y="209.4875" style="fill-opacity: 0; stroke: #bcbd22"/>
     <use xlink:href="#m30f91efaed" x="262.251705" y="209.4875" style="fill-opacity: 0; stroke: #bcbd22"/>
    </g>
   </g>
   <g id="line2d_38">
    <path d="M 262.251705 209.4875 
L 266.282487 209.4875 
L 273.923414 209.487494 
L 281.564342 209.487554 
L 285.595124 209.487514 
" clip-path="url(#p5a68e04716)" style="fill: none; stroke: #17becf; stroke-width: 1.5; stroke-linecap: square"/>
    <defs>
     <path id="m739e2e9075" d="M 0 1.5 
C 0.397805 1.5 0.77937 1.341951 1.06066 1.06066 
C 1.341951 0.77937 1.5 0.397805 1.5 0 
C 1.5 -0.397805 1.341951 -0.77937 1.06066 -1.06066 
C 0.77937 -1.341951 0.397805 -1.5 0 -1.5 
C -0.397805 -1.5 -0.77937 -1.341951 -1.06066 -1.06066 
C -1.341951 -0.77937 -1.5 -0.397805 -1.5 0 
C -1.5 0.397805 -1.341951 0.77937 -1.06066 1.06066 
C -0.77937 1.341951 -0.397805 1.5 0 1.5 
z
" style="stroke: #17becf"/>
    </defs>
    <g clip-path="url(#p5a68e04716)">
     <use xlink:href="#m739e2e9075" x="262.251705" y="209.4875" style="fill-opacity: 0; stroke: #17becf"/>
     <use xlink:href="#m739e2e9075" x="266.282487" y="209.4875" style="fill-opacity: 0; stroke: #17becf"/>
     <use xlink:href="#m739e2e9075" x="273.923414" y="209.487494" style="fill-opacity: 0; stroke: #17becf"/>
     <use xlink:href="#m739e2e9075" x="281.564342" y="209.487554" style="fill-opacity: 0; stroke: #17becf"/>
     <use xlink:href="#m739e2e9075" x="285.595124" y="209.487514" style="fill-opacity: 0; stroke: #17becf"/>
    </g>
   </g>
   <g id="line2d_39">
    <path d="M 285.595124 209.488489 
L 289.625906 209.486779 
L 297.266833 209.488319 
L 304.90776 209.488704 
L 308.938542 209.484091 
" clip-path="url(#p5a68e04716)" style="fill: none; stroke: #1f77b4; stroke-width: 1.5; stroke-linecap: square"/>
    <g clip-path="url(#p5a68e04716)">
     <use xlink:href="#m5417538266" x="285.595124" y="209.488489" style="fill-opacity: 0; stroke: #1f77b4"/>
     <use xlink:href="#m5417538266" x="289.625906" y="209.486779" style="fill-opacity: 0; stroke: #1f77b4"/>
     <use xlink:href="#m5417538266" x="297.266833" y="209.488319" style="fill-opacity: 0; stroke: #1f77b4"/>
     <use xlink:href="#m5417538266" x="304.90776" y="209.488704" style="fill-opacity: 0; stroke: #1f77b4"/>
     <use xlink:href="#m5417538266" x="308.938542" y="209.484091" style="fill-opacity: 0; stroke: #1f77b4"/>
    </g>
   </g>
   <g id="line2d_40">
    <path d="M 308.938542 209.516644 
L 312.969324 209.461339 
L 320.610252 209.530128 
L 328.251179 209.46647 
L 332.281961 209.339506 
" clip-path="url(#p5a68e04716)" style="fill: none; stroke: #ff7f0e; stroke-width: 1.5; stroke-linecap: square"/>
    <g clip-path="url(#p5a68e04716)">
     <use xlink:href="#m36afa02287" x="308.938542" y="209.516644" style="fill-opacity: 0; stroke: #ff7f0e"/>
     <use xlink:href="#m36afa02287" x="312.969324" y="209.461339" style="fill-opacity: 0; stroke: #ff7f0e"/>
     <use xlink:href="#m36afa02287" x="320.610252" y="209.530128" style="fill-opacity: 0; stroke: #ff7f0e"/>
     <use xlink:href="#m36afa02287" x="328.251179" y="209.46647" style="fill-opacity: 0; stroke: #ff7f0e"/>
     <use xlink:href="#m36afa02287" x="332.281961" y="209.339506" style="fill-opacity: 0; stroke: #ff7f0e"/>
    </g>
   </g>
   <g id="line2d_41">
    <path d="M 332.281961 209.731161 
L 336.312743 209.129914 
L 343.95367 210.30908 
L 351.594598 208.793489 
L 355.625379 207.279222 
" clip-path="url(#p5a68e04716)" style="fill: none; stroke: #2ca02c; stroke-width: 1.5; stroke-linecap: square"/>
    <g clip-path="url(#p5a68e04716)">
     <use xlink:href="#mada35990e6" x="332.281961" y="209.731161" style="fill-opacity: 0; stroke: #2ca02c"/>
     <use xlink:href="#mada35990e6" x="336.312743" y="209.129914" style="fill-opacity: 0; stroke: #2ca02c"/>
     <use xlink:href="#mada35990e6" x="343.95367" y="210.30908" style="fill-opacity: 0; stroke: #2ca02c"/>
     <use xlink:href="#mada35990e6" x="351.594598" y="208.793489" style="fill-opacity: 0; stroke: #2ca02c"/>
     <use xlink:href="#mada35990e6" x="355.625379" y="207.279222" style="fill-opacity: 0; stroke: #2ca02c"/>
    </g>
   </g>
   <g id="line2d_42">
    <path d="M 355.625379 210.637834 
L 359.656161 206.692111 
L 367.297089 217.511482 
L 374.938016 184.94162 
L 378.968798 142.69835 
" clip-path="url(#p5a68e04716)" style="fill: none; stroke: #d62728; stroke-width: 1.5; stroke-linecap: square"/>
    <g clip-path="url(#p5a68e04716)">
     <use xlink:href="#m3f2def3a58" x="355.625379" y="210.637834" style="fill-opacity: 0; stroke: #d62728"/>
     <use xlink:href="#m3f2def3a58" x="359.656161" y="206.692111" style="fill-opacity: 0; stroke: #d62728"/>
     <use xlink:href="#m3f2def3a58" x="367.297089" y="217.511482" style="fill-opacity: 0; stroke: #d62728"/>
     <use xlink:href="#m3f2def3a58" x="374.938016" y="184.94162" style="fill-opacity: 0; stroke: #d62728"/>
     <use xlink:href="#m3f2def3a58" x="378.968798" y="142.69835" style="fill-opacity: 0; stroke: #d62728"/>
    </g>
   </g>
   <g id="line2d_43">
    <path d="M 378.968798 147.668147 
L 382.99958 98.707695 
L 390.640507 83.378702 
L 398.281435 101.830384 
L 402.312217 99.459282 
" clip-path="url(#p5a68e04716)" style="fill: none; stroke: #9467bd; stroke-width: 1.5; stroke-linecap: square"/>
    <g clip-path="url(#p5a68e04716)">
     <use xlink:href="#m686586b568" x="378.968798" y="147.668147" style="fill-opacity: 0; stroke: #9467bd"/>
     <use xlink:href="#m686586b568" x="382.99958" y="98.707695" style="fill-opacity: 0; stroke: #9467bd"/>
     <use xlink:href="#m686586b568" x="390.640507" y="83.378702" style="fill-opacity: 0; stroke: #9467bd"/>
     <use xlink:href="#m686586b568" x="398.281435" y="101.830384" style="fill-opacity: 0; stroke: #9467bd"/>
     <use xlink:href="#m686586b568" x="402.312217" y="99.459282" style="fill-opacity: 0; stroke: #9467bd"/>
    </g>
   </g>
   <g id="line2d_44">
    <path d="M 402.312217 97.411298 
L 406.342999 92.536736 
L 413.983926 85.761569 
L 421.624853 119.611517 
L 425.655635 159.129824 
" clip-path="url(#p5a68e04716)" style="fill: none; stroke: #8c564b; stroke-width: 1.5; stroke-linecap: square"/>
    <g clip-path="url(#p5a68e04716)">
     <use xlink:href="#mab48f56f81" x="402.312217" y="97.411298" style="fill-opacity: 0; stroke: #8c564b"/>
     <use xlink:href="#mab48f56f81" x="406.342999" y="92.536736" style="fill-opacity: 0; stroke: #8c564b"/>
     <use xlink:href="#mab48f56f81" x="413.983926" y="85.761569" style="fill-opacity: 0; stroke: #8c564b"/>
     <use xlink:href="#mab48f56f81" x="421.624853" y="119.611517" style="fill-opacity: 0; stroke: #8c564b"/>
     <use xlink:href="#mab48f56f81" x="425.655635" y="159.129824" style="fill-opacity: 0; stroke: #8c564b"/>
    </g>
   </g>
   <g id="line2d_45">
    <path d="M 425.655635 153.007618 
L 429.686417 204.000114 
L 437.327345 219.659203 
L 444.968272 201.461679 
L 448.999054 205.696803 
" clip-path="url(#p5a68e04716)" style="fill: none; stroke: #e377c2; stroke-width: 1.5; stroke-linecap: square"/>
    <g clip-path="url(#p5a68e04716)">
     <use xlink:href="#m2c8876e35c" x="425.655635" y="153.007618" style="fill-opacity: 0; stroke: #e377c2"/>
     <use xlink:href="#m2c8876e35c" x="429.686417" y="204.000114" style="fill-opacity: 0; stroke: #e377c2"/>
     <use xlink:href="#m2c8876e35c" x="437.327345" y="219.659203" style="fill-opacity: 0; stroke: #e377c2"/>
     <use xlink:href="#m2c8876e35c" x="444.968272" y="201.461679" style="fill-opacity: 0; stroke: #e377c2"/>
     <use xlink:href="#m2c8876e35c" x="448.999054" y="205.696803" style="fill-opacity: 0; stroke: #e377c2"/>
    </g>
   </g>
   <g id="line2d_46">
    <path d="M 448.999054 204.380473 
L 453.029836 213.800892 
L 460.670763 209.184517 
L 468.311691 208.159437 
L 472.342473 211.116652 
" clip-path="url(#p5a68e04716)" style="fill: none; stroke: #7f7f7f; stroke-width: 1.5; stroke-linecap: square"/>
    <g clip-path="url(#p5a68e04716)">
     <use xlink:href="#m928adcf3cd" x="448.999054" y="204.380473" style="fill-opacity: 0; stroke: #7f7f7f"/>
     <use xlink:href="#m928adcf3cd" x="453.029836" y="213.800892" style="fill-opacity: 0; stroke: #7f7f7f"/>
     <use xlink:href="#m928adcf3cd" x="460.670763" y="209.184517" style="fill-opacity: 0; stroke: #7f7f7f"/>
     <use xlink:href="#m928adcf3cd" x="468.311691" y="208.159437" style="fill-opacity: 0; stroke: #7f7f7f"/>
     <use xlink:href="#m928adcf3cd" x="472.342473" y="211.116652" style="fill-opacity: 0; stroke: #7f7f7f"/>
    </g>
   </g>
   <g id="line2d_47">
    <path d="M 472.342473 211.920866 
L 476.373255 210.22291 
L 484.014182 208.792789 
L 491.655109 210.050978 
L 495.685891 209.648386 
" clip-path="url(#p5a68e04716)" style="fill: none; stroke: #bcbd22; stroke-width: 1.5; stroke-linecap: square"/>
    <g clip-path="url(#p5a68e04716)">
     <use xlink:href="#m30f91efaed" x="472.342473" y="211.920866" style="fill-opacity: 0; stroke: #bcbd22"/>
     <use xlink:href="#m30f91efaed" x="476.373255" y="210.22291" style="fill-opacity: 0; stroke: #bcbd22"/>
     <use xlink:href="#m30f91efaed" x="484.014182" y="208.792789" style="fill-opacity: 0; stroke: #bcbd22"/>
     <use xlink:href="#m30f91efaed" x="491.655109" y="210.050978" style="fill-opacity: 0; stroke: #bcbd22"/>
     <use xlink:href="#m30f91efaed" x="495.685891" y="209.648386" style="fill-opacity: 0; stroke: #bcbd22"/>
    </g>
   </g>
   <g id="line2d_48">
    <path d="M 495.685891 209.60185 
L 499.716673 209.135467 
L 507.3576 209.629186 
L 514.998528 209.432093 
L 519.02931 209.344729 
" clip-path="url(#p5a68e04716)" style="fill: none; stroke: #17becf; stroke-width: 1.5; stroke-linecap: square"/>
    <g clip-path="url(#p5a68e04716)">
     <use xlink:href="#m739e2e9075" x="495.685891" y="209.60185" style="fill-opacity: 0; stroke: #17becf"/>
     <use xlink:href="#m739e2e9075" x="499.716673" y="209.135467" style="fill-opacity: 0; stroke: #17becf"/>
     <use xlink:href="#m739e2e9075" x="507.3576" y="209.629186" style="fill-opacity: 0; stroke: #17becf"/>
     <use xlink:href="#m739e2e9075" x="514.998528" y="209.432093" style="fill-opacity: 0; stroke: #17becf"/>
     <use xlink:href="#m739e2e9075" x="519.02931" y="209.344729" style="fill-opacity: 0; stroke: #17becf"/>
    </g>
   </g>
   <g id="line2d_49">
    <path d="M 52.160938 209.4875 
L 378.828597 209.4875 
L 379.295933 93.666167 
L 425.562168 93.666167 
L 426.029504 209.4875 
L 519.02931 209.4875 
L 519.02931 209.4875 
" clip-path="url(#p5a68e04716)" style="fill: none; stroke-dasharray: 3.7,1.6; stroke-dashoffset: 0; stroke: #000000"/>
   </g>
   <g id="patch_3">
    <path d="M 52.160938 383.2195 
L 52.160938 35.7555 
" style="fill: none; stroke: #000000; stroke-width: 0.8; stroke-linejoin: miter; stroke-linecap: square"/>
   </g>
   <g id="patch_4">
    <path d="M 519.02931 383.2195 
L 519.02931 35.7555 
" style="fill: none; stroke: #000000; stroke-width: 0.8; stroke-linejoin: miter; stroke-linecap: square"/>
   </g>
   <g id="patch_5">
    <path d="M 52.160938 383.2195 
L 519.02931 383.2195 
" style="fill: none; stroke: #000000; stroke-width: 0.8; stroke-linejoin: miter; stroke-linecap: square"/>
   </g>
   <g id="patch_6">
    <path d="M 52.160938 35.7555 
L 519.02931 35.7555 
" style="fill: none; stroke: #000000; stroke-width: 0.8; stroke-linejoin: miter; stroke-linecap: square"/>
   </g>
   <g id="text_31">
    <!-- 1D-linear advection equation with Upwind Flux -->
    <g transform="translate(144.907311 16.318125) scale(0.12 -0.12)">
     <defs>
      <path id="DejaVuSans-44" d="M 1259 4147 
L 1259 519 
L 2022 519 
Q 2988 519 3436 956 
Q 3884 1394 3884 2338 
Q 3884 3275 3436 3711 
Q 2988 4147 2022 4147 
L 1259 4147 
z
M 628 4666 
L 1925 4666 
Q 3281 4666 3915 4102 
Q 4550 3538 4550 2338 
Q 4550 1131 3912 565 
Q 3275 0 1925 0 
L 628 0 
L 628 4666 
z
" transform="scale(0.015625)"/>
      <path id="DejaVuSans-2d" d="M 313 2009 
L 1997 2009 
L 1997 1497 
L 313 1497 
L 313 2009 
z
" transform="scale(0.015625)"/>
      <path id="DejaVuSans-6c" d="M 603 4863 
L 1178 4863 
L 1178 0 
L 603 0 
L 603 4863 
z
" transform="scale(0.015625)"/>
      <path id="DejaVuSans-69" d="M 603 3500 
L 1178 3500 
L 1178 0 
L 603 0 
L 603 3500 
z
M 603 4863 
L 1178 4863 
L 1178 4134 
L 603 4134 
L 603 4863 
z
" transform="scale(0.015625)"/>
      <path id="DejaVuSans-6e" d="M 3513 2113 
L 3513 0 
L 2938 0 
L 2938 2094 
Q 2938 2591 2744 2837 
Q 2550 3084 2163 3084 
Q 1697 3084 1428 2787 
Q 1159 2491 1159 1978 
L 1159 0 
L 581 0 
L 581 3500 
L 1159 3500 
L 1159 2956 
Q 1366 3272 1645 3428 
Q 1925 3584 2291 3584 
Q 2894 3584 3203 3211 
Q 3513 2838 3513 2113 
z
" transform="scale(0.015625)"/>
      <path id="DejaVuSans-65" d="M 3597 1894 
L 3597 1613 
L 953 1613 
Q 991 1019 1311 708 
Q 1631 397 2203 397 
Q 2534 397 2845 478 
Q 3156 559 3463 722 
L 3463 178 
Q 3153 47 2828 -22 
Q 2503 -91 2169 -91 
Q 1331 -91 842 396 
Q 353 884 353 1716 
Q 353 2575 817 3079 
Q 1281 3584 2069 3584 
Q 2775 3584 3186 3129 
Q 3597 2675 3597 1894 
z
M 3022 2063 
Q 3016 2534 2758 2815 
Q 2500 3097 2075 3097 
Q 1594 3097 1305 2825 
Q 1016 2553 972 2059 
L 3022 2063 
z
" transform="scale(0.015625)"/>
      <path id="DejaVuSans-61" d="M 2194 1759 
Q 1497 1759 1228 1600 
Q 959 1441 959 1056 
Q 959 750 1161 570 
Q 1363 391 1709 391 
Q 2188 391 2477 730 
Q 2766 1069 2766 1631 
L 2766 1759 
L 2194 1759 
z
M 3341 1997 
L 3341 0 
L 2766 0 
L 2766 531 
Q 2569 213 2275 61 
Q 1981 -91 1556 -91 
Q 1019 -91 701 211 
Q 384 513 384 1019 
Q 384 1609 779 1909 
Q 1175 2209 1959 2209 
L 2766 2209 
L 2766 2266 
Q 2766 2663 2505 2880 
Q 2244 3097 1772 3097 
Q 1472 3097 1187 3025 
Q 903 2953 641 2809 
L 641 3341 
Q 956 3463 1253 3523 
Q 1550 3584 1831 3584 
Q 2591 3584 2966 3190 
Q 3341 2797 3341 1997 
z
" transform="scale(0.015625)"/>
      <path id="DejaVuSans-72" d="M 2631 2963 
Q 2534 3019 2420 3045 
Q 2306 3072 2169 3072 
Q 1681 3072 1420 2755 
Q 1159 2438 1159 1844 
L 1159 0 
L 581 0 
L 581 3500 
L 1159 3500 
L 1159 2956 
Q 1341 3275 1631 3429 
Q 1922 3584 2338 3584 
Q 2397 3584 2469 3576 
Q 2541 3569 2628 3553 
L 2631 2963 
z
" transform="scale(0.015625)"/>
      <path id="DejaVuSans-20" transform="scale(0.015625)"/>
      <path id="DejaVuSans-64" d="M 2906 2969 
L 2906 4863 
L 3481 4863 
L 3481 0 
L 2906 0 
L 2906 525 
Q 2725 213 2448 61 
Q 2172 -91 1784 -91 
Q 1150 -91 751 415 
Q 353 922 353 1747 
Q 353 2572 751 3078 
Q 1150 3584 1784 3584 
Q 2172 3584 2448 3432 
Q 2725 3281 2906 2969 
z
M 947 1747 
Q 947 1113 1208 752 
Q 1469 391 1925 391 
Q 2381 391 2643 752 
Q 2906 1113 2906 1747 
Q 2906 2381 2643 2742 
Q 2381 3103 1925 3103 
Q 1469 3103 1208 2742 
Q 947 2381 947 1747 
z
" transform="scale(0.015625)"/>
      <path id="DejaVuSans-76" d="M 191 3500 
L 800 3500 
L 1894 563 
L 2988 3500 
L 3597 3500 
L 2284 0 
L 1503 0 
L 191 3500 
z
" transform="scale(0.015625)"/>
      <path id="DejaVuSans-63" d="M 3122 3366 
L 3122 2828 
Q 2878 2963 2633 3030 
Q 2388 3097 2138 3097 
Q 1578 3097 1268 2742 
Q 959 2388 959 1747 
Q 959 1106 1268 751 
Q 1578 397 2138 397 
Q 2388 397 2633 464 
Q 2878 531 3122 666 
L 3122 134 
Q 2881 22 2623 -34 
Q 2366 -91 2075 -91 
Q 1284 -91 818 406 
Q 353 903 353 1747 
Q 353 2603 823 3093 
Q 1294 3584 2113 3584 
Q 2378 3584 2631 3529 
Q 2884 3475 3122 3366 
z
" transform="scale(0.015625)"/>
      <path id="DejaVuSans-74" d="M 1172 4494 
L 1172 3500 
L 2356 3500 
L 2356 3053 
L 1172 3053 
L 1172 1153 
Q 1172 725 1289 603 
Q 1406 481 1766 481 
L 2356 481 
L 2356 0 
L 1766 0 
Q 1100 0 847 248 
Q 594 497 594 1153 
L 594 3053 
L 172 3053 
L 172 3500 
L 594 3500 
L 594 4494 
L 1172 4494 
z
" transform="scale(0.015625)"/>
      <path id="DejaVuSans-6f" d="M 1959 3097 
Q 1497 3097 1228 2736 
Q 959 2375 959 1747 
Q 959 1119 1226 758 
Q 1494 397 1959 397 
Q 2419 397 2687 759 
Q 2956 1122 2956 1747 
Q 2956 2369 2687 2733 
Q 2419 3097 1959 3097 
z
M 1959 3584 
Q 2709 3584 3137 3096 
Q 3566 2609 3566 1747 
Q 3566 888 3137 398 
Q 2709 -91 1959 -91 
Q 1206 -91 779 398 
Q 353 888 353 1747 
Q 353 2609 779 3096 
Q 1206 3584 1959 3584 
z
" transform="scale(0.015625)"/>
      <path id="DejaVuSans-71" d="M 947 1747 
Q 947 1113 1208 752 
Q 1469 391 1925 391 
Q 2381 391 2643 752 
Q 2906 1113 2906 1747 
Q 2906 2381 2643 2742 
Q 2381 3103 1925 3103 
Q 1469 3103 1208 2742 
Q 947 2381 947 1747 
z
M 2906 525 
Q 2725 213 2448 61 
Q 2172 -91 1784 -91 
Q 1150 -91 751 415 
Q 353 922 353 1747 
Q 353 2572 751 3078 
Q 1150 3584 1784 3584 
Q 2172 3584 2448 3432 
Q 2725 3281 2906 2969 
L 2906 3500 
L 3481 3500 
L 3481 -1331 
L 2906 -1331 
L 2906 525 
z
" transform="scale(0.015625)"/>
      <path id="DejaVuSans-75" d="M 544 1381 
L 544 3500 
L 1119 3500 
L 1119 1403 
Q 1119 906 1312 657 
Q 1506 409 1894 409 
Q 2359 409 2629 706 
Q 2900 1003 2900 1516 
L 2900 3500 
L 3475 3500 
L 3475 0 
L 2900 0 
L 2900 538 
Q 2691 219 2414 64 
Q 2138 -91 1772 -91 
Q 1169 -91 856 284 
Q 544 659 544 1381 
z
M 1991 3584 
L 1991 3584 
z
" transform="scale(0.015625)"/>
      <path id="DejaVuSans-77" d="M 269 3500 
L 844 3500 
L 1563 769 
L 2278 3500 
L 2956 3500 
L 3675 769 
L 4391 3500 
L 4966 3500 
L 4050 0 
L 3372 0 
L 2619 2869 
L 1863 0 
L 1184 0 
L 269 3500 
z
" transform="scale(0.015625)"/>
      <path id="DejaVuSans-68" d="M 3513 2113 
L 3513 0 
L 2938 0 
L 2938 2094 
Q 2938 2591 2744 2837 
Q 2550 3084 2163 3084 
Q 1697 3084 1428 2787 
Q 1159 2491 1159 1978 
L 1159 0 
L 581 0 
L 581 4863 
L 1159 4863 
L 1159 2956 
Q 1366 3272 1645 3428 
Q 1925 3584 2291 3584 
Q 2894 3584 3203 3211 
Q 3513 2838 3513 2113 
z
" transform="scale(0.015625)"/>
      <path id="DejaVuSans-55" d="M 556 4666 
L 1191 4666 
L 1191 1831 
Q 1191 1081 1462 751 
Q 1734 422 2344 422 
Q 2950 422 3222 751 
Q 3494 1081 3494 1831 
L 3494 4666 
L 4128 4666 
L 4128 1753 
Q 4128 841 3676 375 
Q 3225 -91 2344 -91 
Q 1459 -91 1007 375 
Q 556 841 556 1753 
L 556 4666 
z
" transform="scale(0.015625)"/>
      <path id="DejaVuSans-70" d="M 1159 525 
L 1159 -1331 
L 581 -1331 
L 581 3500 
L 1159 3500 
L 1159 2969 
Q 1341 3281 1617 3432 
Q 1894 3584 2278 3584 
Q 2916 3584 3314 3078 
Q 3713 2572 3713 1747 
Q 3713 922 3314 415 
Q 2916 -91 2278 -91 
Q 1894 -91 1617 61 
Q 1341 213 1159 525 
z
M 3116 1747 
Q 3116 2381 2855 2742 
Q 2594 3103 2138 3103 
Q 1681 3103 1420 2742 
Q 1159 2381 1159 1747 
Q 1159 1113 1420 752 
Q 1681 391 2138 391 
Q 2594 391 2855 752 
Q 3116 1113 3116 1747 
z
" transform="scale(0.015625)"/>
      <path id="DejaVuSans-46" d="M 628 4666 
L 3309 4666 
L 3309 4134 
L 1259 4134 
L 1259 2759 
L 3109 2759 
L 3109 2228 
L 1259 2228 
L 1259 0 
L 628 0 
L 628 4666 
z
" transform="scale(0.015625)"/>
      <path id="DejaVuSans-78" d="M 3513 3500 
L 2247 1797 
L 3578 0 
L 2900 0 
L 1881 1375 
L 863 0 
L 184 0 
L 1544 1831 
L 300 3500 
L 978 3500 
L 1906 2253 
L 2834 3500 
L 3513 3500 
z
" transform="scale(0.015625)"/>
     </defs>
     <use xlink:href="#DejaVuSans-31"/>
     <use xlink:href="#DejaVuSans-44" transform="translate(63.623047 0)"/>
     <use xlink:href="#DejaVuSans-2d" transform="translate(140.625 0)"/>
     <use xlink:href="#DejaVuSans-6c" transform="translate(176.708984 0)"/>
     <use xlink:href="#DejaVuSans-69" transform="translate(204.492188 0)"/>
     <use xlink:href="#DejaVuSans-6e" transform="translate(232.275391 0)"/>
     <use xlink:href="#DejaVuSans-65" transform="translate(295.654297 0)"/>
     <use xlink:href="#DejaVuSans-61" transform="translate(357.177734 0)"/>
     <use xlink:href="#DejaVuSans-72" transform="translate(418.457031 0)"/>
     <use xlink:href="#DejaVuSans-20" transform="translate(459.570312 0)"/>
     <use xlink:href="#DejaVuSans-61" transform="translate(491.357422 0)"/>
     <use xlink:href="#DejaVuSans-64" transform="translate(552.636719 0)"/>
     <use xlink:href="#DejaVuSans-76" transform="translate(616.113281 0)"/>
     <use xlink:href="#DejaVuSans-65" transform="translate(675.292969 0)"/>
     <use xlink:href="#DejaVuSans-63" transform="translate(736.816406 0)"/>
     <use xlink:href="#DejaVuSans-74" transform="translate(791.796875 0)"/>
     <use xlink:href="#DejaVuSans-69" transform="translate(831.005859 0)"/>
     <use xlink:href="#DejaVuSans-6f" transform="translate(858.789062 0)"/>
     <use xlink:href="#DejaVuSans-6e" transform="translate(919.970703 0)"/>
     <use xlink:href="#DejaVuSans-20" transform="translate(983.349609 0)"/>
     <use xlink:href="#DejaVuSans-65" transform="translate(1015.136719 0)"/>
     <use xlink:href="#DejaVuSans-71" transform="translate(1076.660156 0)"/>
     <use xlink:href="#DejaVuSans-75" transform="translate(1140.136719 0)"/>
     <use xlink:href="#DejaVuSans-61" transform="translate(1203.515625 0)"/>
     <use xlink:href="#DejaVuSans-74" transform="translate(1264.794922 0)"/>
     <use xlink:href="#DejaVuSans-69" transform="translate(1304.003906 0)"/>
     <use xlink:href="#DejaVuSans-6f" transform="translate(1331.787109 0)"/>
     <use xlink:href="#DejaVuSans-6e" transform="translate(1392.96875 0)"/>
     <use xlink:href="#DejaVuSans-20" transform="translate(1456.347656 0)"/>
     <use xlink:href="#DejaVuSans-77" transform="translate(1488.134766 0)"/>
     <use xlink:href="#DejaVuSans-69" transform="translate(1569.921875 0)"/>
     <use xlink:href="#DejaVuSans-74" transform="translate(1597.705078 0)"/>
     <use xlink:href="#DejaVuSans-68" transform="translate(1636.914062 0)"/>
     <use xlink:href="#DejaVuSans-20" transform="translate(1700.292969 0)"/>
     <use xlink:href="#DejaVuSans-55" transform="translate(1732.080078 0)"/>
     <use xlink:href="#DejaVuSans-70" transform="translate(1805.273438 0)"/>
     <use xlink:href="#DejaVuSans-77" transform="translate(1868.75 0)"/>
     <use xlink:href="#DejaVuSans-69" transform="translate(1950.537109 0)"/>
     <use xlink:href="#DejaVuSans-6e" transform="translate(1978.320312 0)"/>
     <use xlink:href="#DejaVuSans-64" transform="translate(2041.699219 0)"/>
     <use xlink:href="#DejaVuSans-20" transform="translate(2105.175781 0)"/>
     <use xlink:href="#DejaVuSans-46" transform="translate(2136.962891 0)"/>
     <use xlink:href="#DejaVuSans-6c" transform="translate(2194.482422 0)"/>
     <use xlink:href="#DejaVuSans-75" transform="translate(2222.265625 0)"/>
     <use xlink:href="#DejaVuSans-78" transform="translate(2285.644531 0)"/>
    </g>
    <!--  a = 2.00, N = 4, K = 20, T = 5 -->
    <g transform="translate(192.486374 29.7555) scale(0.12 -0.12)">
     <defs>
      <path id="DejaVuSans-3d" d="M 678 2906 
L 4684 2906 
L 4684 2381 
L 678 2381 
L 678 2906 
z
M 678 1631 
L 4684 1631 
L 4684 1100 
L 678 1100 
L 678 1631 
z
" transform="scale(0.015625)"/>
      <path id="DejaVuSans-2c" d="M 750 794 
L 1409 794 
L 1409 256 
L 897 -744 
L 494 -744 
L 750 256 
L 750 794 
z
" transform="scale(0.015625)"/>
      <path id="DejaVuSans-4e" d="M 628 4666 
L 1478 4666 
L 3547 763 
L 3547 4666 
L 4159 4666 
L 4159 0 
L 3309 0 
L 1241 3903 
L 1241 0 
L 628 0 
L 628 4666 
z
" transform="scale(0.015625)"/>
      <path id="DejaVuSans-4b" d="M 628 4666 
L 1259 4666 
L 1259 2694 
L 3353 4666 
L 4166 4666 
L 1850 2491 
L 4331 0 
L 3500 0 
L 1259 2247 
L 1259 0 
L 628 0 
L 628 4666 
z
" transform="scale(0.015625)"/>
      <path id="DejaVuSans-54" d="M -19 4666 
L 3928 4666 
L 3928 4134 
L 2272 4134 
L 2272 0 
L 1638 0 
L 1638 4134 
L -19 4134 
L -19 4666 
z
" transform="scale(0.015625)"/>
     </defs>
     <use xlink:href="#DejaVuSans-20"/>
     <use xlink:href="#DejaVuSans-61" transform="translate(31.787109 0)"/>
     <use xlink:href="#DejaVuSans-20" transform="translate(93.066406 0)"/>
     <use xlink:href="#DejaVuSans-3d" transform="translate(124.853516 0)"/>
     <use xlink:href="#DejaVuSans-20" transform="translate(208.642578 0)"/>
     <use xlink:href="#DejaVuSans-32" transform="translate(240.429688 0)"/>
     <use xlink:href="#DejaVuSans-2e" transform="translate(304.052734 0)"/>
     <use xlink:href="#DejaVuSans-30" transform="translate(335.839844 0)"/>
     <use xlink:href="#DejaVuSans-30" transform="translate(399.462891 0)"/>
     <use xlink:href="#DejaVuSans-2c" transform="translate(463.085938 0)"/>
     <use xlink:href="#DejaVuSans-20" transform="translate(494.873047 0)"/>
     <use xlink:href="#DejaVuSans-4e" transform="translate(526.660156 0)"/>
     <use xlink:href="#DejaVuSans-20" transform="translate(601.464844 0)"/>
     <use xlink:href="#DejaVuSans-3d" transform="translate(633.251953 0)"/>
     <use xlink:href="#DejaVuSans-20" transform="translate(717.041016 0)"/>
     <use xlink:href="#DejaVuSans-34" transform="translate(748.828125 0)"/>
     <use xlink:href="#DejaVuSans-2c" transform="translate(812.451172 0)"/>
     <use xlink:href="#DejaVuSans-20" transform="translate(844.238281 0)"/>
     <use xlink:href="#DejaVuSans-4b" transform="translate(876.025391 0)"/>
     <use xlink:href="#DejaVuSans-20" transform="translate(941.601562 0)"/>
     <use xlink:href="#DejaVuSans-3d" transform="translate(973.388672 0)"/>
     <use xlink:href="#DejaVuSans-20" transform="translate(1057.177734 0)"/>
     <use xlink:href="#DejaVuSans-32" transform="translate(1088.964844 0)"/>
     <use xlink:href="#DejaVuSans-30" transform="translate(1152.587891 0)"/>
     <use xlink:href="#DejaVuSans-2c" transform="translate(1216.210938 0)"/>
     <use xlink:href="#DejaVuSans-20" transform="translate(1247.998047 0)"/>
     <use xlink:href="#DejaVuSans-54" transform="translate(1279.785156 0)"/>
     <use xlink:href="#DejaVuSans-20" transform="translate(1340.869141 0)"/>
     <use xlink:href="#DejaVuSans-3d" transform="translate(1372.65625 0)"/>
     <use xlink:href="#DejaVuSans-20" transform="translate(1456.445312 0)"/>
     <use xlink:href="#DejaVuSans-35" transform="translate(1488.232422 0)"/>
    </g>
   </g>
   <g id="legend_1">
    <g id="line2d_50">
     <path d="M 536.466677 142.769375 
L 545.466677 142.769375 
L 554.466677 142.769375 
" style="fill: none; stroke: #1f77b4; stroke-width: 1.5; stroke-linecap: square"/>
     <g>
      <use xlink:href="#m5417538266" x="545.466677" y="142.769375" style="fill-opacity: 0; stroke: #1f77b4"/>
     </g>
    </g>
    <g id="text_32">
     <!-- $D^{1}$ -->
     <g transform="translate(561.666677 145.919375) scale(0.09 -0.09)">
      <defs>
       <path id="DejaVuSans-Oblique-44" d="M 1081 4666 
L 2438 4666 
Q 3519 4666 4070 4208 
Q 4622 3750 4622 2847 
Q 4622 2250 4412 1698 
Q 4203 1147 3834 769 
Q 3463 381 2891 190 
Q 2319 0 1538 0 
L 172 0 
L 1081 4666 
z
M 1613 4147 
L 909 519 
L 1734 519 
Q 2794 519 3375 1128 
Q 3956 1738 3956 2847 
Q 3956 3519 3581 3833 
Q 3206 4147 2406 4147 
L 1613 4147 
z
" transform="scale(0.015625)"/>
      </defs>
      <use xlink:href="#DejaVuSans-Oblique-44" transform="translate(0 0.684375)"/>
      <use xlink:href="#DejaVuSans-31" transform="translate(84.018724 38.965625) scale(0.7)"/>
     </g>
    </g>
    <g id="line2d_51">
     <path d="M 536.466677 155.979687 
L 545.466677 155.979687 
L 554.466677 155.979687 
" style="fill: none; stroke: #ff7f0e; stroke-width: 1.5; stroke-linecap: square"/>
     <g>
      <use xlink:href="#m36afa02287" x="545.466677" y="155.979687" style="fill-opacity: 0; stroke: #ff7f0e"/>
     </g>
    </g>
    <g id="text_33">
     <!-- $D^{2}$ -->
     <g transform="translate(561.666677 159.129687) scale(0.09 -0.09)">
      <use xlink:href="#DejaVuSans-Oblique-44" transform="translate(0 0.765625)"/>
      <use xlink:href="#DejaVuSans-32" transform="translate(84.018724 39.046875) scale(0.7)"/>
     </g>
    </g>
    <g id="line2d_52">
     <path d="M 536.466677 169.19 
L 545.466677 169.19 
L 554.466677 169.19 
" style="fill: none; stroke: #2ca02c; stroke-width: 1.5; stroke-linecap: square"/>
     <g>
      <use xlink:href="#mada35990e6" x="545.466677" y="169.19" style="fill-opacity: 0; stroke: #2ca02c"/>
     </g>
    </g>
    <g id="text_34">
     <!-- $D^{3}$ -->
     <g transform="translate(561.666677 172.34) scale(0.09 -0.09)">
      <use xlink:href="#DejaVuSans-Oblique-44" transform="translate(0 0.765625)"/>
      <use xlink:href="#DejaVuSans-33" transform="translate(84.018724 39.046875) scale(0.7)"/>
     </g>
    </g>
    <g id="line2d_53">
     <path d="M 536.466677 182.400312 
L 545.466677 182.400312 
L 554.466677 182.400312 
" style="fill: none; stroke: #d62728; stroke-width: 1.5; stroke-linecap: square"/>
     <g>
      <use xlink:href="#m3f2def3a58" x="545.466677" y="182.400312" style="fill-opacity: 0; stroke: #d62728"/>
     </g>
    </g>
    <g id="text_35">
     <!-- $D^{4}$ -->
     <g transform="translate(561.666677 185.550312) scale(0.09 -0.09)">
      <use xlink:href="#DejaVuSans-Oblique-44" transform="translate(0 0.684375)"/>
      <use xlink:href="#DejaVuSans-34" transform="translate(84.018724 38.965625) scale(0.7)"/>
     </g>
    </g>
    <g id="line2d_54">
     <path d="M 536.466677 195.610625 
L 545.466677 195.610625 
L 554.466677 195.610625 
" style="fill: none; stroke: #9467bd; stroke-width: 1.5; stroke-linecap: square"/>
     <g>
      <use xlink:href="#m686586b568" x="545.466677" y="195.610625" style="fill-opacity: 0; stroke: #9467bd"/>
     </g>
    </g>
    <g id="text_36">
     <!-- $D^{5}$ -->
     <g transform="translate(561.666677 198.760625) scale(0.09 -0.09)">
      <use xlink:href="#DejaVuSans-Oblique-44" transform="translate(0 0.684375)"/>
      <use xlink:href="#DejaVuSans-35" transform="translate(84.018724 38.965625) scale(0.7)"/>
     </g>
    </g>
    <g id="line2d_55">
     <path d="M 536.466677 208.820937 
L 545.466677 208.820937 
L 554.466677 208.820937 
" style="fill: none; stroke: #8c564b; stroke-width: 1.5; stroke-linecap: square"/>
     <g>
      <use xlink:href="#mab48f56f81" x="545.466677" y="208.820937" style="fill-opacity: 0; stroke: #8c564b"/>
     </g>
    </g>
    <g id="text_37">
     <!-- $D^{6}$ -->
     <g transform="translate(561.666677 211.970937) scale(0.09 -0.09)">
      <use xlink:href="#DejaVuSans-Oblique-44" transform="translate(0 0.765625)"/>
      <use xlink:href="#DejaVuSans-36" transform="translate(84.018724 39.046875) scale(0.7)"/>
     </g>
    </g>
    <g id="line2d_56">
     <path d="M 536.466677 222.03125 
L 545.466677 222.03125 
L 554.466677 222.03125 
" style="fill: none; stroke: #e377c2; stroke-width: 1.5; stroke-linecap: square"/>
     <g>
      <use xlink:href="#m2c8876e35c" x="545.466677" y="222.03125" style="fill-opacity: 0; stroke: #e377c2"/>
     </g>
    </g>
    <g id="text_38">
     <!-- $D^{7}$ -->
     <g transform="translate(561.666677 225.18125) scale(0.09 -0.09)">
      <use xlink:href="#DejaVuSans-Oblique-44" transform="translate(0 0.684375)"/>
      <use xlink:href="#DejaVuSans-37" transform="translate(84.018724 38.965625) scale(0.7)"/>
     </g>
    </g>
    <g id="line2d_57">
     <path d="M 536.466677 235.241562 
L 545.466677 235.241562 
L 554.466677 235.241562 
" style="fill: none; stroke: #7f7f7f; stroke-width: 1.5; stroke-linecap: square"/>
     <g>
      <use xlink:href="#m928adcf3cd" x="545.466677" y="235.241562" style="fill-opacity: 0; stroke: #7f7f7f"/>
     </g>
    </g>
    <g id="text_39">
     <!-- $D^{8}$ -->
     <g transform="translate(561.666677 238.391562) scale(0.09 -0.09)">
      <use xlink:href="#DejaVuSans-Oblique-44" transform="translate(0 0.765625)"/>
      <use xlink:href="#DejaVuSans-38" transform="translate(84.018724 39.046875) scale(0.7)"/>
     </g>
    </g>
    <g id="line2d_58">
     <path d="M 536.466677 248.451875 
L 545.466677 248.451875 
L 554.466677 248.451875 
" style="fill: none; stroke: #bcbd22; stroke-width: 1.5; stroke-linecap: square"/>
     <g>
      <use xlink:href="#m30f91efaed" x="545.466677" y="248.451875" style="fill-opacity: 0; stroke: #bcbd22"/>
     </g>
    </g>
    <g id="text_40">
     <!-- $D^{9}$ -->
     <g transform="translate(561.666677 251.601875) scale(0.09 -0.09)">
      <use xlink:href="#DejaVuSans-Oblique-44" transform="translate(0 0.765625)"/>
      <use xlink:href="#DejaVuSans-39" transform="translate(84.018724 39.046875) scale(0.7)"/>
     </g>
    </g>
    <g id="line2d_59">
     <path d="M 536.466677 261.662188 
L 545.466677 261.662188 
L 554.466677 261.662188 
" style="fill: none; stroke: #17becf; stroke-width: 1.5; stroke-linecap: square"/>
     <g>
      <use xlink:href="#m739e2e9075" x="545.466677" y="261.662188" style="fill-opacity: 0; stroke: #17becf"/>
     </g>
    </g>
    <g id="text_41">
     <!-- $D^{10}$ -->
     <g transform="translate(561.666677 264.812187) scale(0.09 -0.09)">
      <use xlink:href="#DejaVuSans-Oblique-44" transform="translate(0 0.765625)"/>
      <use xlink:href="#DejaVuSans-31" transform="translate(84.018724 39.046875) scale(0.7)"/>
      <use xlink:href="#DejaVuSans-30" transform="translate(128.554857 39.046875) scale(0.7)"/>
     </g>
    </g>
    <g id="line2d_60">
     <path d="M 536.466677 274.8725 
L 545.466677 274.8725 
L 554.466677 274.8725 
" style="fill: none; stroke: #1f77b4; stroke-width: 1.5; stroke-linecap: square"/>
     <g>
      <use xlink:href="#m5417538266" x="545.466677" y="274.8725" style="fill-opacity: 0; stroke: #1f77b4"/>
     </g>
    </g>
    <g id="text_42">
     <!-- $D^{11}$ -->
     <g transform="translate(561.666677 278.0225) scale(0.09 -0.09)">
      <use xlink:href="#DejaVuSans-Oblique-44" transform="translate(0 0.684375)"/>
      <use xlink:href="#DejaVuSans-31" transform="translate(84.018724 38.965625) scale(0.7)"/>
      <use xlink:href="#DejaVuSans-31" transform="translate(128.554857 38.965625) scale(0.7)"/>
     </g>
    </g>
    <g id="line2d_61">
     <path d="M 595.506677 142.769375 
L 604.506677 142.769375 
L 613.506677 142.769375 
" style="fill: none; stroke: #ff7f0e; stroke-width: 1.5; stroke-linecap: square"/>
     <g>
      <use xlink:href="#m36afa02287" x="604.506677" y="142.769375" style="fill-opacity: 0; stroke: #ff7f0e"/>
     </g>
    </g>
    <g id="text_43">
     <!-- $D^{12}$ -->
     <g transform="translate(620.706677 145.919375) scale(0.09 -0.09)">
      <use xlink:href="#DejaVuSans-Oblique-44" transform="translate(0 0.765625)"/>
      <use xlink:href="#DejaVuSans-31" transform="translate(84.018724 39.046875) scale(0.7)"/>
      <use xlink:href="#DejaVuSans-32" transform="translate(128.554857 39.046875) scale(0.7)"/>
     </g>
    </g>
    <g id="line2d_62">
     <path d="M 595.506677 155.979687 
L 604.506677 155.979687 
L 613.506677 155.979687 
" style="fill: none; stroke: #2ca02c; stroke-width: 1.5; stroke-linecap: square"/>
     <g>
      <use xlink:href="#mada35990e6" x="604.506677" y="155.979687" style="fill-opacity: 0; stroke: #2ca02c"/>
     </g>
    </g>
    <g id="text_44">
     <!-- $D^{13}$ -->
     <g transform="translate(620.706677 159.129687) scale(0.09 -0.09)">
      <use xlink:href="#DejaVuSans-Oblique-44" transform="translate(0 0.765625)"/>
      <use xlink:href="#DejaVuSans-31" transform="translate(84.018724 39.046875) scale(0.7)"/>
      <use xlink:href="#DejaVuSans-33" transform="translate(128.554857 39.046875) scale(0.7)"/>
     </g>
    </g>
    <g id="line2d_63">
     <path d="M 595.506677 169.19 
L 604.506677 169.19 
L 613.506677 169.19 
" style="fill: none; stroke: #d62728; stroke-width: 1.5; stroke-linecap: square"/>
     <g>
      <use xlink:href="#m3f2def3a58" x="604.506677" y="169.19" style="fill-opacity: 0; stroke: #d62728"/>
     </g>
    </g>
    <g id="text_45">
     <!-- $D^{14}$ -->
     <g transform="translate(620.706677 172.34) scale(0.09 -0.09)">
      <use xlink:href="#DejaVuSans-Oblique-44" transform="translate(0 0.684375)"/>
      <use xlink:href="#DejaVuSans-31" transform="translate(84.018724 38.965625) scale(0.7)"/>
      <use xlink:href="#DejaVuSans-34" transform="translate(128.554857 38.965625) scale(0.7)"/>
     </g>
    </g>
    <g id="line2d_64">
     <path d="M 595.506677 182.400312 
L 604.506677 182.400312 
L 613.506677 182.400312 
" style="fill: none; stroke: #9467bd; stroke-width: 1.5; stroke-linecap: square"/>
     <g>
      <use xlink:href="#m686586b568" x="604.506677" y="182.400312" style="fill-opacity: 0; stroke: #9467bd"/>
     </g>
    </g>
    <g id="text_46">
     <!-- $D^{15}$ -->
     <g transform="translate(620.706677 185.550312) scale(0.09 -0.09)">
      <use xlink:href="#DejaVuSans-Oblique-44" transform="translate(0 0.684375)"/>
      <use xlink:href="#DejaVuSans-31" transform="translate(84.018724 38.965625) scale(0.7)"/>
      <use xlink:href="#DejaVuSans-35" transform="translate(128.554857 38.965625) scale(0.7)"/>
     </g>
    </g>
    <g id="line2d_65">
     <path d="M 595.506677 195.610625 
L 604.506677 195.610625 
L 613.506677 195.610625 
" style="fill: none; stroke: #8c564b; stroke-width: 1.5; stroke-linecap: square"/>
     <g>
      <use xlink:href="#mab48f56f81" x="604.506677" y="195.610625" style="fill-opacity: 0; stroke: #8c564b"/>
     </g>
    </g>
    <g id="text_47">
     <!-- $D^{16}$ -->
     <g transform="translate(620.706677 198.760625) scale(0.09 -0.09)">
      <use xlink:href="#DejaVuSans-Oblique-44" transform="translate(0 0.765625)"/>
      <use xlink:href="#DejaVuSans-31" transform="translate(84.018724 39.046875) scale(0.7)"/>
      <use xlink:href="#DejaVuSans-36" transform="translate(128.554857 39.046875) scale(0.7)"/>
     </g>
    </g>
    <g id="line2d_66">
     <path d="M 595.506677 208.820937 
L 604.506677 208.820937 
L 613.506677 208.820937 
" style="fill: none; stroke: #e377c2; stroke-width: 1.5; stroke-linecap: square"/>
     <g>
      <use xlink:href="#m2c8876e35c" x="604.506677" y="208.820937" style="fill-opacity: 0; stroke: #e377c2"/>
     </g>
    </g>
    <g id="text_48">
     <!-- $D^{17}$ -->
     <g transform="translate(620.706677 211.970937) scale(0.09 -0.09)">
      <use xlink:href="#DejaVuSans-Oblique-44" transform="translate(0 0.684375)"/>
      <use xlink:href="#DejaVuSans-31" transform="translate(84.018724 38.965625) scale(0.7)"/>
      <use xlink:href="#DejaVuSans-37" transform="translate(128.554857 38.965625) scale(0.7)"/>
     </g>
    </g>
    <g id="line2d_67">
     <path d="M 595.506677 222.03125 
L 604.506677 222.03125 
L 613.506677 222.03125 
" style="fill: none; stroke: #7f7f7f; stroke-width: 1.5; stroke-linecap: square"/>
     <g>
      <use xlink:href="#m928adcf3cd" x="604.506677" y="222.03125" style="fill-opacity: 0; stroke: #7f7f7f"/>
     </g>
    </g>
    <g id="text_49">
     <!-- $D^{18}$ -->
     <g transform="translate(620.706677 225.18125) scale(0.09 -0.09)">
      <use xlink:href="#DejaVuSans-Oblique-44" transform="translate(0 0.765625)"/>
      <use xlink:href="#DejaVuSans-31" transform="translate(84.018724 39.046875) scale(0.7)"/>
      <use xlink:href="#DejaVuSans-38" transform="translate(128.554857 39.046875) scale(0.7)"/>
     </g>
    </g>
    <g id="line2d_68">
     <path d="M 595.506677 235.241562 
L 604.506677 235.241562 
L 613.506677 235.241562 
" style="fill: none; stroke: #bcbd22; stroke-width: 1.5; stroke-linecap: square"/>
     <g>
      <use xlink:href="#m30f91efaed" x="604.506677" y="235.241562" style="fill-opacity: 0; stroke: #bcbd22"/>
     </g>
    </g>
    <g id="text_50">
     <!-- $D^{19}$ -->
     <g transform="translate(620.706677 238.391562) scale(0.09 -0.09)">
      <use xlink:href="#DejaVuSans-Oblique-44" transform="translate(0 0.765625)"/>
      <use xlink:href="#DejaVuSans-31" transform="translate(84.018724 39.046875) scale(0.7)"/>
      <use xlink:href="#DejaVuSans-39" transform="translate(128.554857 39.046875) scale(0.7)"/>
     </g>
    </g>
    <g id="line2d_69">
     <path d="M 595.506677 248.451875 
L 604.506677 248.451875 
L 613.506677 248.451875 
" style="fill: none; stroke: #17becf; stroke-width: 1.5; stroke-linecap: square"/>
     <g>
      <use xlink:href="#m739e2e9075" x="604.506677" y="248.451875" style="fill-opacity: 0; stroke: #17becf"/>
     </g>
    </g>
    <g id="text_51">
     <!-- $D^{20}$ -->
     <g transform="translate(620.706677 251.601875) scale(0.09 -0.09)">
      <use xlink:href="#DejaVuSans-Oblique-44" transform="translate(0 0.765625)"/>
      <use xlink:href="#DejaVuSans-32" transform="translate(84.018724 39.046875) scale(0.7)"/>
      <use xlink:href="#DejaVuSans-30" transform="translate(128.554857 39.046875) scale(0.7)"/>
     </g>
    </g>
    <g id="line2d_70">
     <path d="M 595.506677 261.885781 
L 604.506677 261.885781 
L 613.506677 261.885781 
" style="fill: none; stroke-dasharray: 3.7,1.6; stroke-dashoffset: 0; stroke: #000000"/>
    </g>
    <g id="text_52">
     <!-- Solução analítica -->
     <g transform="translate(620.706677 265.035781) scale(0.09 -0.09)">
      <defs>
       <path id="DejaVuSans-53" d="M 3425 4513 
L 3425 3897 
Q 3066 4069 2747 4153 
Q 2428 4238 2131 4238 
Q 1616 4238 1336 4038 
Q 1056 3838 1056 3469 
Q 1056 3159 1242 3001 
Q 1428 2844 1947 2747 
L 2328 2669 
Q 3034 2534 3370 2195 
Q 3706 1856 3706 1288 
Q 3706 609 3251 259 
Q 2797 -91 1919 -91 
Q 1588 -91 1214 -16 
Q 841 59 441 206 
L 441 856 
Q 825 641 1194 531 
Q 1563 422 1919 422 
Q 2459 422 2753 634 
Q 3047 847 3047 1241 
Q 3047 1584 2836 1778 
Q 2625 1972 2144 2069 
L 1759 2144 
Q 1053 2284 737 2584 
Q 422 2884 422 3419 
Q 422 4038 858 4394 
Q 1294 4750 2059 4750 
Q 2388 4750 2728 4690 
Q 3069 4631 3425 4513 
z
" transform="scale(0.015625)"/>
       <path id="DejaVuSans-e7" d="M 3122 3366 
L 3122 2828 
Q 2878 2963 2633 3030 
Q 2388 3097 2138 3097 
Q 1578 3097 1268 2742 
Q 959 2388 959 1747 
Q 959 1106 1268 751 
Q 1578 397 2138 397 
Q 2388 397 2633 464 
Q 2878 531 3122 666 
L 3122 134 
Q 2881 22 2623 -34 
Q 2366 -91 2075 -91 
Q 1284 -91 818 406 
Q 353 903 353 1747 
Q 353 2603 823 3093 
Q 1294 3584 2113 3584 
Q 2378 3584 2631 3529 
Q 2884 3475 3122 3366 
z
M 2311 0 
Q 2482 -194 2566 -358 
Q 2651 -522 2651 -672 
Q 2651 -950 2463 -1092 
Q 2276 -1234 1907 -1234 
Q 1764 -1234 1628 -1215 
Q 1492 -1197 1357 -1159 
L 1357 -750 
Q 1464 -803 1579 -826 
Q 1695 -850 1842 -850 
Q 2026 -850 2120 -775 
Q 2214 -700 2214 -556 
Q 2214 -463 2146 -327 
Q 2079 -191 1939 0 
L 2311 0 
z
" transform="scale(0.015625)"/>
       <path id="DejaVuSans-e3" d="M 2194 1759 
Q 1497 1759 1228 1600 
Q 959 1441 959 1056 
Q 959 750 1161 570 
Q 1363 391 1709 391 
Q 2188 391 2477 730 
Q 2766 1069 2766 1631 
L 2766 1759 
L 2194 1759 
z
M 3341 1997 
L 3341 0 
L 2766 0 
L 2766 531 
Q 2569 213 2275 61 
Q 1981 -91 1556 -91 
Q 1019 -91 701 211 
Q 384 513 384 1019 
Q 384 1609 779 1909 
Q 1175 2209 1959 2209 
L 2766 2209 
L 2766 2266 
Q 2766 2663 2505 2880 
Q 2244 3097 1772 3097 
Q 1472 3097 1187 3025 
Q 903 2953 641 2809 
L 641 3341 
Q 956 3463 1253 3523 
Q 1550 3584 1831 3584 
Q 2591 3584 2966 3190 
Q 3341 2797 3341 1997 
z
M 1844 4281 
L 1665 4453 
Q 1597 4516 1545 4545 
Q 1494 4575 1453 4575 
Q 1334 4575 1278 4461 
Q 1222 4347 1215 4091 
L 825 4091 
Q 831 4513 990 4742 
Q 1150 4972 1434 4972 
Q 1553 4972 1653 4928 
Q 1753 4884 1869 4781 
L 2047 4609 
Q 2115 4547 2167 4517 
Q 2219 4488 2259 4488 
Q 2378 4488 2434 4602 
Q 2490 4716 2497 4972 
L 2887 4972 
Q 2881 4550 2721 4320 
Q 2562 4091 2278 4091 
Q 2159 4091 2059 4134 
Q 1959 4178 1844 4281 
z
" transform="scale(0.015625)"/>
       <path id="DejaVuSans-ed" d="M 1322 5119 
L 1944 5119 
L 926 3944 
L 447 3944 
L 1322 5119 
z
M 603 3500 
L 1178 3500 
L 1178 0 
L 603 0 
L 603 3500 
z
M 891 3584 
L 891 3584 
z
" transform="scale(0.015625)"/>
      </defs>
      <use xlink:href="#DejaVuSans-53"/>
      <use xlink:href="#DejaVuSans-6f" transform="translate(63.476562 0)"/>
      <use xlink:href="#DejaVuSans-6c" transform="translate(124.658203 0)"/>
      <use xlink:href="#DejaVuSans-75" transform="translate(152.441406 0)"/>
      <use xlink:href="#DejaVuSans-e7" transform="translate(215.820312 0)"/>
      <use xlink:href="#DejaVuSans-e3" transform="translate(270.800781 0)"/>
      <use xlink:href="#DejaVuSans-6f" transform="translate(332.080078 0)"/>
      <use xlink:href="#DejaVuSans-20" transform="translate(393.261719 0)"/>
      <use xlink:href="#DejaVuSans-61" transform="translate(425.048828 0)"/>
      <use xlink:href="#DejaVuSans-6e" transform="translate(486.328125 0)"/>
      <use xlink:href="#DejaVuSans-61" transform="translate(549.707031 0)"/>
      <use xlink:href="#DejaVuSans-6c" transform="translate(610.986328 0)"/>
      <use xlink:href="#DejaVuSans-ed" transform="translate(638.769531 0)"/>
      <use xlink:href="#DejaVuSans-74" transform="translate(666.552734 0)"/>
      <use xlink:href="#DejaVuSans-69" transform="translate(705.761719 0)"/>
      <use xlink:href="#DejaVuSans-63" transform="translate(733.544922 0)"/>
      <use xlink:href="#DejaVuSans-61" transform="translate(788.525391 0)"/>
     </g>
    </g>
   </g>
  </g>
 </g>
 <defs>
  <clipPath id="p5a68e04716">
   <rect x="52.160938" y="35.7555" width="466.868372" height="347.464"/>
  </clipPath>
 </defs>
</svg>
